<svg
	width="250"
	height="250"
	viewBox="0 0 250 250"
	fill="none"
	xmlns="http://www.w3.org/2000/svg"
>
<g clip-path="url(#clip0_2152_4163)">
<path
			d="M232 135.934H188.247L222.01 169.706L206.32 185.397L156.866 135.934H135.934V134.99L134.99 135.934H135.934V155.913L185.873 205.843L170.174 221.534L135.934 187.294V232H114.066V187.294L79.8262 221.534L64.6034 206.32L114.066 156.866V135.934H115.963L114.066 134.037V135.934H93.1338L43.68 185.397L27.5131 169.23L60.8 135.934H18V114.066H62.7062L28.4662 79.8262L44.1566 64.1269L94.0869 114.066H114.066V115.01L115.01 114.066H114.066V93.1338L64.6034 43.68L80.2938 27.9897L114.066 61.7531V18H135.934V60.8L169.706 27.0366L185.873 43.2034L135.934 93.1338V114.066H134.99L135.934 115.01V114.066H156.866L206.797 64.1269L222.01 79.3497L187.294 114.066H232V135.934Z"
			fill="#0C6DD9"
		/>
</g>
<defs>
<clipPath id="clip0_2152_4163">
<rect width="214" height="214" fill="white" transform="translate(18 18)" />
</clipPath>
</defs>
</svg>
