<svg xmlns="http://www.w3.org/2000/svg" version="1.1" viewBox="0 0 682 200">
<path
		fill="#039bd3"
		d="
  M 140.01 17.15
  L 140.00 23.87
  A 0.50 0.50 0.0 0 1 139.60 24.36
  L 133.35 25.67
  A 0.50 0.50 0.0 0 1 132.75 25.18
  L 132.75 18.58
  A 0.50 0.50 0.0 0 1 133.14 18.09
  L 139.40 16.66
  A 0.50 0.50 0.0 0 1 140.01 17.15
  Z"
	/>
<path
		fill="#039bd3"
		d="
  M 130.21 26.24
  C 128.50 26.84 125.86 27.12 124.01 27.40
  A 0.45 0.45 0.0 0 1 123.50 26.95
  L 123.50 20.50
  A 0.55 0.54 85.0 0 1 123.94 19.96
  L 130.22 18.78
  A 0.45 0.45 0.0 0 1 130.75 19.22
  L 130.75 25.48
  A 0.81 0.80 -9.7 0 1 130.21 26.24
  Z"
	/>
<path
		fill="#039bd3"
		d="
  M 121.04 27.70
  L 114.81 28.67
  A 0.49 0.49 0.0 0 1 114.25 28.19
  L 114.25 22.50
  A 0.84 0.83 -5.4 0 1 114.93 21.68
  L 121.01 20.57
  A 0.54 0.54 0.0 0 1 121.64 21.09
  L 121.73 26.87
  A 0.83 0.82 85.2 0 1 121.04 27.70
  Z"
	/>
<path
		fill="#039bd3"
		d="
  M 95.77 31.02
  L 95.74 24.89
  A 0.44 0.44 0.0 0 1 96.12 24.46
  L 102.75 23.54
  A 0.44 0.44 0.0 0 1 103.25 23.98
  L 103.25 30.21
  A 0.44 0.44 0.0 0 1 102.86 30.65
  L 96.26 31.46
  A 0.44 0.44 0.0 0 1 95.77 31.02
  Z"
	/>
<path
		fill="#039bd3"
		d="
  M 148.79 30.92
  L 142.38 32.29
  A 0.52 0.52 0.0 0 1 141.75 31.78
  L 141.75 26.02
  A 0.52 0.52 0.0 0 1 142.15 25.52
  L 148.49 24.05
  A 0.52 0.52 0.0 0 1 149.13 24.55
  L 149.20 30.40
  A 0.52 0.52 0.0 0 1 148.79 30.92
  Z"
	/>
<path
		fill="#039bd3"
		d="
  M 93.42 31.67
  C 91.50 32.02 88.98 32.51 87.09 32.18
  A 0.72 0.71 -85.3 0 1 86.50 31.47
  L 86.50 26.28
  A 0.83 0.82 86.5 0 1 87.22 25.46
  L 93.45 24.71
  A 0.50 0.49 -3.1 0 1 94.00 25.20
  L 94.00 30.98
  A 0.70 0.70 0.0 0 1 93.42 31.67
  Z"
	/>
<rect
		fill="#039bd3"
		x="-3.76"
		y="-3.41"
		transform="translate(81.00,29.39) rotate(-2.8)"
		width="7.52"
		height="6.82"
		rx="0.56"
	/>
<rect
		fill="#039bd3"
		x="-3.75"
		y="-3.39"
		transform="translate(71.74,30.04) rotate(-2.1)"
		width="7.50"
		height="6.78"
		rx="0.38"
	/>
<rect
		fill="#039bd3"
		x="-3.75"
		y="-3.49"
		transform="translate(43.76,30.74) rotate(0.6)"
		width="7.50"
		height="6.98"
		rx="0.81"
	/>
<rect
		fill="#039bd3"
		x="-3.75"
		y="-3.37"
		transform="translate(53.01,30.64) rotate(-0.3)"
		width="7.50"
		height="6.74"
		rx="0.63"
	/>
<path
		fill="#039bd3"
		d="
  M 130.38 34.56
  L 123.98 35.64
  A 0.41 0.41 0.0 0 1 123.50 35.23
  L 123.50 29.52
  A 0.41 0.41 0.0 0 1 123.84 29.12
  L 130.35 27.99
  A 0.41 0.41 0.0 0 1 130.83 28.40
  L 130.72 34.16
  A 0.41 0.41 0.0 0 1 130.38 34.56
  Z"
	/>
<path
		fill="#039bd3"
		d="
  M 127.54 106.28
  Q 132.41 107.23 140.25 109.52
  C 142.68 110.22 141.72 115.76 141.85 117.85
  A 0.59 0.59 0.0 0 0 142.38 118.40
  Q 147.11 118.87 151.75 118.72
  C 154.23 118.64 157.00 128.15 157.36 130.18
  C 160.77 149.61 153.80 167.15 131.25 166.91
  Q 126.80 166.86 122.35 166.67
  A 0.58 0.57 -88.6 0 0 121.75 167.25
  L 121.75 181.65
  A 1.00 1.00 0.0 0 1 120.61 182.64
  L 96.17 179.22
  A 0.51 0.50 3.9 0 1 95.73 178.72
  L 95.80 164.39
  A 0.70 0.70 0.0 0 0 95.15 163.69
  L 85.40 162.94
  A 0.51 0.51 0.0 0 0 84.85 163.44
  L 84.78 171.84
  A 0.66 0.65 -87.6 0 1 84.07 172.50
  L 78.02 172.04
  A 0.48 0.47 2.2 0 0 77.50 172.51
  L 77.50 177.22
  A 0.45 0.45 0.0 0 1 77.03 177.67
  L 59.24 176.76
  A 0.52 0.51 -88.9 0 1 58.75 176.24
  L 58.75 162.25
  A 0.50 0.50 0.0 0 0 58.25 161.75
  L 47.88 161.75
  A 0.63 0.63 0.0 0 1 47.25 161.12
  L 47.25 156.45
  A 0.54 0.54 0.0 0 0 46.70 155.91
  L 40.65 156.03
  A 0.63 0.63 0.0 0 1 40.00 155.40
  L 40.00 141.25
  A 0.50 0.50 0.0 0 1 40.50 140.75
  L 48.71 140.75
  A 0.54 0.54 0.0 0 0 49.25 140.22
  L 49.43 117.45
  A 0.59 0.59 0.0 0 1 50.01 116.87
  L 55.53 116.80
  A 1.23 1.23 0.0 0 0 56.74 115.49
  L 56.46 111.22
  A 0.50 0.50 0.0 0 0 55.96 110.75
  L 49.98 110.75
  A 0.60 0.60 0.0 0 1 49.38 110.16
  L 49.22 102.27
  A 0.51 0.50 -0.6 0 1 49.73 101.76
  L 56.19 101.73
  A 0.53 0.53 0.0 0 0 56.72 101.18
  L 56.53 96.35
  A 0.63 0.63 0.0 0 0 55.90 95.75
  L 50.11 95.75
  A 0.66 0.66 0.0 0 1 49.45 95.10
  L 49.21 72.35
  A 0.58 0.58 0.0 0 0 48.65 71.78
  L 40.71 71.50
  A 0.65 0.64 -89.5 0 1 40.09 70.86
  L 40.04 64.90
  A 0.89 0.89 0.0 0 1 40.96 64.01
  L 46.84 64.17
  A 0.65 0.64 -89.1 0 0 47.50 63.52
  L 47.50 59.00
  A 0.75 0.75 0.0 0 0 46.75 58.25
  L 41.18 58.25
  A 1.15 1.15 0.0 0 1 40.03 57.10
  L 40.00 51.51
  A 0.78 0.78 0.0 0 1 40.78 50.72
  L 57.43 50.64
  A 1.33 1.32 -0.2 0 0 58.75 49.32
  L 58.75 36.23
  A 0.56 0.55 88.9 0 1 59.28 35.67
  L 85.61 34.26
  A 1.09 1.08 88.5 0 1 86.75 35.35
  L 86.75 42.29
  A 0.58 0.57 -2.8 0 1 86.22 42.86
  L 80.10 43.36
  A 0.53 0.53 0.0 0 0 79.61 43.90
  L 79.69 48.95
  A 0.44 0.44 0.0 0 0 80.15 49.38
  L 95.34 48.66
  A 0.57 0.57 0.0 0 0 95.89 48.09
  L 95.96 33.66
  A 0.53 0.52 86.3 0 1 96.41 33.14
  L 121.20 29.69
  A 0.48 0.48 0.0 0 1 121.75 30.17
  L 121.75 36.96
  A 0.84 0.84 0.0 0 1 121.04 37.79
  L 114.98 38.71
  A 0.57 0.56 85.9 0 0 114.50 39.27
  L 114.50 44.69
  A 0.40 0.40 0.0 0 0 114.99 45.08
  C 116.50 44.76 121.31 43.38 122.05 45.42
  A 0.59 0.59 0.0 0 0 122.68 45.81
  C 131.81 44.55 143.35 45.73 149.27 53.52
  C 154.29 60.12 154.95 72.41 152.48 80.24
  C 148.78 92.05 139.12 97.11 127.78 100.86
  A 0.70 0.69 -7.9 0 0 127.30 101.49
  L 127.11 105.74
  A 0.54 0.53 7.0 0 0 127.54 106.28
  Z
  M 75.4204 57.6191
  A 0.36 0.36 0.0 0 0 75.0487 57.2712
  L 68.3924 57.4921
  A 0.36 0.36 0.0 0 0 68.0445 57.8638
  L 68.2196 63.1409
  A 0.36 0.36 0.0 0 0 68.5913 63.4888
  L 75.2476 63.2679
  A 0.36 0.36 0.0 0 0 75.5955 62.8962
  L 75.4204 57.6191
  Z
  M 66.17 58.31
  A 0.55 0.55 0.0 0 0 65.62 57.76
  L 59.30 57.76
  A 0.55 0.55 0.0 0 0 58.75 58.31
  L 58.75 63.19
  A 0.55 0.55 0.0 0 0 59.30 63.74
  L 65.62 63.74
  A 0.55 0.55 0.0 0 0 66.17 63.19
  L 66.17 58.31
  Z
  M 142.24 65.50
  C 143.94 65.72 147.23 65.09 148.70 64.48
  A 0.68 0.67 -12.5 0 0 149.12 63.83
  L 148.95 58.20
  A 0.44 0.43 -4.7 0 0 148.45 57.78
  L 142.33 58.67
  A 0.69 0.69 0.0 0 0 141.75 59.35
  L 141.75 64.95
  A 0.56 0.55 3.5 0 0 142.24 65.50
  Z
  M 119.00 75.86
  C 118.33 66.93 109.75 66.80 102.81 67.09
  Q 92.66 67.52 82.35 68.11
  A 0.64 0.64 0.0 0 0 81.75 68.75
  L 81.75 96.18
  A 0.46 0.46 0.0 0 0 82.22 96.64
  Q 92.29 96.53 102.20 95.39
  Q 120.30 93.30 119.00 75.86
  Z
  M 62.2586 73.7631
  A 0.51 0.51 0.0 0 0 61.7504 73.2513
  L 55.2904 73.2287
  A 0.51 0.51 0.0 0 0 54.7786 73.7370
  L 54.7614 78.6769
  A 0.51 0.51 0.0 0 0 55.2696 79.1887
  L 61.7296 79.2113
  A 0.51 0.51 0.0 0 0 62.2414 78.7030
  L 62.2586 73.7631
  Z
  M 142.23 83.25
  C 143.67 83.48 147.20 82.89 148.73 82.49
  A 0.56 0.55 -7.9 0 0 149.15 81.94
  L 148.94 76.32
  A 0.57 0.56 85.7 0 0 148.32 75.78
  L 142.37 76.37
  A 0.70 0.69 -3.2 0 0 141.75 77.06
  L 141.75 82.69
  A 0.57 0.56 -85.9 0 0 142.23 83.25
  Z
  M 72.7214 81.1770
  A 0.44 0.44 0.0 0 0 72.2799 80.7385
  L 65.6799 80.7615
  A 0.44 0.44 0.0 0 0 65.2415 81.2031
  L 65.2586 86.1030
  A 0.44 0.44 0.0 0 0 65.7001 86.5415
  L 72.3001 86.5185
  A 0.44 0.44 0.0 0 0 72.7385 86.0769
  L 72.7214 81.1770
  Z
  M 71.7276 103.6782
  A 0.44 0.44 0.0 0 0 71.2838 103.2421
  L 64.8640 103.2981
  A 0.44 0.44 0.0 0 0 64.4279 103.7419
  L 64.4724 108.8418
  A 0.44 0.44 0.0 0 0 64.9162 109.2779
  L 71.3360 109.2219
  A 0.44 0.44 0.0 0 0 71.7721 108.7781
  L 71.7276 103.6782
  Z
  M 122.61 127.22
  C 118.78 114.01 92.57 116.16 82.35 116.14
  A 0.60 0.60 0.0 0 0 81.75 116.74
  L 81.75 143.95
  A 0.51 0.51 0.0 0 0 82.24 144.46
  C 90.72 144.81 116.74 148.12 121.24 140.94
  Q 124.90 135.10 122.61 127.22
  Z
  M 64.2780 126.2075
  A 0.47 0.47 0.0 0 0 63.8039 125.7417
  L 57.2841 125.7986
  A 0.47 0.47 0.0 0 0 56.8182 126.2726
  L 56.8620 131.2925
  A 0.47 0.47 0.0 0 0 57.3361 131.7583
  L 63.8559 131.7014
  A 0.47 0.47 0.0 0 0 64.3218 131.2274
  L 64.2780 126.2075
  Z
  M 64.28 133.54
  A 0.26 0.26 0.0 0 0 64.02 133.28
  L 57.14 133.28
  A 0.26 0.26 0.0 0 0 56.88 133.54
  L 56.88 138.98
  A 0.26 0.26 0.0 0 0 57.14 139.24
  L 64.02 139.24
  A 0.26 0.26 0.0 0 0 64.28 138.98
  L 64.28 133.54
  Z
  M 148.70 138.72
  L 142.32 138.29
  A 0.53 0.53 0.0 0 0 141.75 138.82
  L 141.75 144.16
  A 0.61 0.60 -86.2 0 0 142.27 144.76
  L 148.63 145.57
  A 0.55 0.55 0.0 0 0 149.24 144.91
  Q 148.67 142.12 149.20 139.38
  A 0.56 0.55 -82.6 0 0 148.70 138.72
  Z
  M 56.7807 148.7674
  A 0.37 0.37 0.0 0 0 56.4024 148.4059
  L 49.8041 148.5556
  A 0.37 0.37 0.0 0 0 49.4426 148.9339
  L 49.5593 154.0726
  A 0.37 0.37 0.0 0 0 49.9376 154.4341
  L 56.5359 154.2844
  A 0.37 0.37 0.0 0 0 56.8974 153.9061
  L 56.7807 148.7674
  Z
  M 94.3741 149.7371
  A 0.47 0.47 0.0 0 0 93.9268 149.2455
  L 87.4740 148.9412
  A 0.47 0.47 0.0 0 0 86.9823 149.3885
  L 86.7459 154.4029
  A 0.47 0.47 0.0 0 0 87.1932 154.8945
  L 93.6460 155.1988
  A 0.47 0.47 0.0 0 0 94.1377 154.7515
  L 94.3741 149.7371
  Z
  M 112.9578 150.5660
  A 0.27 0.27 0.0 0 0 112.7008 150.2836
  L 105.9084 149.9632
  A 0.27 0.27 0.0 0 0 105.6260 150.2202
  L 105.3622 155.8140
  A 0.27 0.27 0.0 0 0 105.6192 156.0964
  L 112.4116 156.4168
  A 0.27 0.27 0.0 0 0 112.6940 156.1598
  L 112.9578 150.5660
  Z
  M 75.4912 163.7472
  A 0.47 0.47 0.0 0 0 75.0196 163.2789
  L 68.6396 163.3012
  A 0.47 0.47 0.0 0 0 68.1713 163.7728
  L 68.1888 168.7928
  A 0.47 0.47 0.0 0 0 68.6604 169.2611
  L 75.0404 169.2388
  A 0.47 0.47 0.0 0 0 75.5087 168.7672
  L 75.4912 163.7472
  Z"
	/>
<path
		fill="#039bd3"
		d="
  M 148.50 39.72
  L 142.52 40.86
  A 0.65 0.65 0.0 0 1 141.75 40.22
  L 141.75 34.67
  A 0.65 0.65 0.0 0 1 142.27 34.04
  L 148.30 32.83
  A 0.65 0.65 0.0 0 1 149.08 33.47
  L 149.03 39.09
  A 0.65 0.65 0.0 0 1 148.50 39.72
  Z"
	/>
<path
		fill="#039bd3"
		d="
  M 133.02 35.78
  L 139.44 34.58
  A 0.47 0.47 0.0 0 1 140.00 35.05
  L 140.00 40.88
  A 0.47 0.47 0.0 0 1 139.62 41.34
  L 133.34 42.50
  A 0.47 0.47 0.0 0 1 132.79 42.05
  L 132.64 36.25
  A 0.47 0.47 0.0 0 1 133.02 35.78
  Z"
	/>
<rect
		fill="#039bd3"
		x="-3.65"
		y="-2.91"
		transform="translate(53.10,38.61) rotate(-1.1)"
		width="7.30"
		height="5.82"
		rx="0.31"
	/>
<path
		fill="#039bd3"
		d="
  M 130.37 42.96
  L 123.96 43.78
  A 0.41 0.41 0.0 0 1 123.50 43.37
  L 123.50 37.75
  A 0.41 0.41 0.0 0 1 123.84 37.34
  L 130.34 36.27
  A 0.41 0.41 0.0 0 1 130.81 36.68
  L 130.73 42.56
  A 0.41 0.41 0.0 0 1 130.37 42.96
  Z"
	/>
<rect
		fill="#039bd3"
		x="-3.74"
		y="-2.93"
		transform="translate(43.76,46.13) rotate(1.0)"
		width="7.48"
		height="5.86"
		rx="0.60"
	/>
<rect
		fill="#039bd3"
		x="-3.75"
		y="-2.88"
		transform="translate(53.01,46.13) rotate(-0.2)"
		width="7.50"
		height="5.76"
		rx="0.43"
	/>
<rect
		fill="#039bd3"
		x="-3.74"
		y="-3.05"
		transform="translate(15.99,52.73) rotate(1.6)"
		width="7.48"
		height="6.10"
		rx="0.51"
	/>
<rect
		fill="#039bd3"
		x="-3.63"
		y="-2.97"
		transform="translate(25.13,53.17) rotate(1.7)"
		width="7.26"
		height="5.94"
		rx="0.31"
	/>
<rect
		fill="#039bd3"
		x="-3.75"
		y="-3.00"
		transform="translate(34.50,53.50) rotate(-0.2)"
		width="7.50"
		height="6.00"
		rx="0.43"
	/>
<rect
		fill="#039bd3"
		x="-3.66"
		y="-2.99"
		transform="translate(25.16,60.74) rotate(0.6)"
		width="7.32"
		height="5.98"
		rx="0.57"
	/>
<rect
		fill="#039bd3"
		x="-3.74"
		y="-3.03"
		transform="translate(15.97,67.99) rotate(1.9)"
		width="7.48"
		height="6.06"
		rx="0.66"
	/>
<rect
		fill="#039bd3"
		x="-3.75"
		y="-3.00"
		transform="translate(34.50,68.51) rotate(0.3)"
		width="7.50"
		height="6.00"
		rx="0.35"
	/>
<rect
		fill="#039bd3"
		x="-3.75"
		y="-3.04"
		transform="translate(15.99,75.69) rotate(1.2)"
		width="7.50"
		height="6.08"
		rx="0.68"
	/>
<rect
		fill="#039bd3"
		x="-3.75"
		y="-2.99"
		transform="translate(34.49,76.12) rotate(1.8)"
		width="7.50"
		height="5.98"
		rx="0.57"
	/>
<rect
		fill="#039bd3"
		x="-3.75"
		y="-2.91"
		transform="translate(43.76,76.16) rotate(1.0)"
		width="7.50"
		height="5.82"
		rx="0.53"
	/>
<rect
		fill="#039bd3"
		x="-3.67"
		y="-2.99"
		transform="translate(25.17,83.50) rotate(0.3)"
		width="7.34"
		height="5.98"
		rx="0.38"
	/>
<path
		fill="#039bd3"
		d="
  M 343.5434 105.7011
  A 27.19 26.23 -2.0 0 1 317.2854 132.8640
  A 27.19 26.23 -2.0 0 1 289.1966 107.5989
  A 27.19 26.23 -2.0 0 1 315.4546 80.4360
  A 27.19 26.23 -2.0 0 1 343.5434 105.7011
  Z
  M 317.2920 120.2401
  A 13.61 12.83 86.2 0 0 329.1918 105.8097
  A 13.61 12.83 86.2 0 0 315.4880 93.0799
  A 13.61 12.83 86.2 0 0 303.5882 107.5103
  A 13.61 12.83 86.2 0 0 317.2920 120.2401
  Z"
	/>
<path
		fill="#039bd3"
		d="
  M 349.26 108.71
  C 348.54 97.80 353.94 87.00 364.54 82.93
  Q 383.24 75.73 396.54 90.04
  A 0.95 0.95 0.0 0 1 396.42 91.44
  L 386.92 98.78
  A 0.52 0.52 0.0 0 1 386.20 98.70
  C 375.46 85.33 358.15 98.59 364.82 112.92
  C 367.80 119.32 374.51 121.75 381.01 118.84
  C 383.17 117.88 384.77 116.05 386.63 114.44
  A 0.64 0.62 42.0 0 1 387.41 114.41
  L 397.11 121.25
  A 0.45 0.45 0.0 0 1 397.21 121.90
  Q 388.47 132.76 375.90 132.84
  C 361.60 132.92 350.23 123.36 349.26 108.71
  Z"
	/>
<path
		fill="#039bd3"
		d="
  M 450.49 84.46
  C 461.74 77.39 477.68 79.66 485.84 90.64
  A 0.52 0.52 0.0 0 1 485.74 91.36
  L 476.12 98.77
  A 0.60 0.60 0.0 0 1 475.34 98.72
  C 474.07 97.49 472.81 95.90 471.32 95.11
  C 462.60 90.48 454.48 94.98 452.84 104.26
  C 450.35 118.35 466.51 125.93 475.59 114.41
  A 0.62 0.61 36.7 0 1 476.43 114.29
  L 486.17 121.19
  A 0.58 0.58 0.0 0 1 486.28 122.03
  Q 474.90 135.70 458.62 132.12
  C 435.72 127.08 430.80 96.84 450.49 84.46
  Z"
	/>
<rect
		fill="#039bd3"
		x="-3.75"
		y="-2.98"
		transform="translate(43.75,83.73) rotate(0.8)"
		width="7.50"
		height="5.96"
		rx="0.61"
	/>
<path
		fill="#039bd3"
		d="
  M 580.68 122.75
  L 561.83 122.75
  A 0.32 0.32 0.0 0 0 561.53 122.95
  L 558.07 131.52
  A 0.32 0.32 0.0 0 1 557.77 131.72
  L 543.73 131.73
  A 0.32 0.32 0.0 0 1 543.44 131.29
  L 564.52 81.45
  A 0.32 0.32 0.0 0 1 564.81 81.25
  L 577.98 81.25
  A 0.32 0.32 0.0 0 1 578.27 81.45
  L 599.41 131.31
  A 0.32 0.32 0.0 0 1 599.12 131.75
  L 584.77 131.75
  A 0.32 0.32 0.0 0 1 584.47 131.55
  L 580.98 122.95
  A 0.32 0.32 0.0 0 0 580.68 122.75
  Z
  M 565.87 111.54
  A 0.34 0.34 0.0 0 0 566.18 112.01
  L 576.45 111.99
  A 0.34 0.34 0.0 0 0 576.77 111.53
  L 571.61 98.58
  A 0.34 0.34 0.0 0 0 570.98 98.58
  L 565.87 111.54
  Z"
	/>
<path
		fill="#039bd3"
		d="
  M 233.83 105.82
  C 244.40 108.99 246.47 122.76 237.50 128.52
  Q 232.60 131.67 225.75 131.70
  Q 212.02 131.75 198.38 131.75
  A 0.40 0.39 -0.0 0 1 197.98 131.36
  L 198.01 82.03
  A 0.49 0.48 -90.0 0 1 198.49 81.54
  Q 211.79 81.46 224.99 81.54
  C 233.47 81.59 241.93 86.09 240.64 96.00
  Q 239.80 102.48 233.79 105.03
  A 0.42 0.42 0.0 0 0 233.83 105.82
  Z
  M 224.98 93.82
  C 222.32 92.12 217.27 92.68 212.25 92.78
  A 0.51 0.51 0.0 0 0 211.75 93.29
  L 211.75 100.96
  A 0.51 0.51 0.0 0 0 212.25 101.47
  C 215.66 101.54 224.79 102.53 226.57 99.10
  Q 228.24 95.89 224.98 93.82
  Z
  M 227.10 112.37
  C 224.40 110.88 218.16 111.45 212.18 111.53
  A 0.48 0.47 -1.2 0 0 211.71 112.01
  L 211.77 120.19
  A 0.45 0.44 -1.2 0 0 212.24 120.63
  C 215.72 120.52 224.17 121.30 226.93 119.62
  C 229.29 118.18 230.10 114.04 227.10 112.37
  Z"
	/>
<path
		fill="#039bd3"
		d="
  M 263.80 119.44
  L 287.56 119.48
  A 0.30 0.30 0.0 0 1 287.86 119.78
  L 287.82 131.45
  A 0.30 0.30 0.0 0 1 287.52 131.75
  L 249.81 131.75
  A 0.30 0.30 0.0 0 1 249.51 131.45
  L 249.49 81.80
  A 0.30 0.30 0.0 0 1 249.79 81.50
  L 263.20 81.50
  A 0.30 0.30 0.0 0 1 263.50 81.80
  L 263.50 119.14
  A 0.30 0.30 0.0 0 0 263.80 119.44
  Z"
	/>
<path
		fill="#039bd3"
		d="
  M 417.31 101.03
  A 0.32 0.32 0.0 0 0 417.87 101.24
  L 434.23 81.93
  A 1.22 1.20 19.6 0 1 435.16 81.50
  L 443.68 81.50
  Q 444.53 81.50 443.88 82.05
  C 428.02 95.65 428.98 117.78 443.70 131.42
  A 0.30 0.30 0.0 0 1 443.49 131.94
  L 435.48 131.73
  A 1.01 1.00 -16.0 0 1 434.66 131.28
  L 422.79 113.74
  A 0.51 0.51 0.0 0 0 421.99 113.69
  L 417.62 118.54
  A 1.46 1.43 66.5 0 0 417.25 119.51
  L 417.25 131.25
  A 0.50 0.50 0.0 0 1 416.75 131.75
  L 403.86 131.75
  A 0.56 0.56 0.0 0 1 403.30 131.19
  L 403.27 81.92
  A 0.39 0.39 0.0 0 1 403.66 81.53
  L 416.72 81.54
  A 0.51 0.50 0.0 0 1 417.23 82.04
  L 417.31 101.03
  Z"
	/>
<path
		fill="#039bd3"
		d="
  M 506.90 100.25
  L 523.98 100.25
  A 0.34 0.34 0.0 0 0 524.32 99.91
  L 524.22 81.84
  A 0.34 0.34 0.0 0 1 524.56 81.50
  L 537.93 81.50
  A 0.34 0.34 0.0 0 1 538.27 81.84
  L 538.24 131.36
  A 0.34 0.34 0.0 0 1 537.90 131.70
  L 524.61 131.86
  A 0.34 0.34 0.0 0 1 524.27 131.52
  L 524.32 113.09
  A 0.34 0.34 0.0 0 0 523.98 112.75
  L 506.84 112.75
  A 0.34 0.34 0.0 0 0 506.50 113.09
  L 506.50 131.37
  A 0.34 0.34 0.0 0 1 506.16 131.71
  L 492.85 131.74
  A 0.34 0.34 0.0 0 1 492.51 131.40
  L 492.52 81.88
  A 0.34 0.34 0.0 0 1 492.86 81.54
  L 506.18 81.51
  A 0.34 0.34 0.0 0 1 506.52 81.85
  L 506.56 99.91
  A 0.34 0.34 0.0 0 0 506.90 100.25
  Z"
	/>
<rect
		fill="#039bd3"
		x="604.75"
		y="81.50"
		width="14.00"
		height="50.24"
		rx="0.29"
	/>
<path
		fill="#039bd3"
		d="
  M 642.51 104.92
  A 0.41 0.41 0.0 0 0 641.77 105.17
  L 641.82 131.14
  A 0.61 0.60 -90.0 0 1 641.22 131.75
  L 628.61 131.75
  A 0.56 0.56 0.0 0 1 628.05 131.19
  L 628.02 81.92
  A 0.39 0.38 -90.0 0 1 628.40 81.53
  L 640.66 81.55
  A 1.04 1.03 -18.7 0 1 641.48 81.95
  L 661.11 107.24
  A 0.36 0.36 0.0 0 0 661.75 107.02
  L 661.77 82.02
  A 0.52 0.52 0.0 0 1 662.29 81.50
  L 675.12 81.50
  A 0.52 0.52 0.0 0 1 675.64 82.03
  C 675.57 98.43 675.82 114.79 675.60 131.16
  A 0.60 0.59 0.0 0 1 675.00 131.75
  L 663.83 131.75
  A 1.00 0.99 70.7 0 1 663.05 131.37
  L 642.51 104.92
  Z"
	/>
<rect
		fill="#039bd3"
		x="-3.74"
		y="-3.12"
		transform="translate(15.98,90.89) rotate(0.5)"
		width="7.48"
		height="6.24"
		rx="0.74"
	/>
<rect
		fill="#039bd3"
		x="-3.62"
		y="-2.98"
		transform="translate(25.13,91.06) rotate(1.3)"
		width="7.24"
		height="5.96"
		rx="0.38"
	/>
<rect
		fill="#039bd3"
		x="-3.75"
		y="-2.92"
		transform="translate(34.50,91.13) rotate(1.0)"
		width="7.50"
		height="5.84"
		rx="0.31"
	/>
<rect
		fill="#039bd3"
		x="-3.74"
		y="-2.98"
		transform="translate(34.50,98.70) rotate(1.0)"
		width="7.48"
		height="5.96"
		rx="0.35"
	/>
<rect
		fill="#039bd3"
		x="-3.75"
		y="-3.00"
		transform="translate(43.76,98.75) rotate(-0.4)"
		width="7.50"
		height="6.00"
		rx="0.56"
	/>
<rect
		fill="#039bd3"
		x="-3.64"
		y="-2.99"
		transform="translate(25.15,106.25) rotate(0.4)"
		width="7.28"
		height="5.98"
		rx="0.31"
	/>
<rect
		fill="#039bd3"
		x="-3.75"
		y="-3.00"
		transform="translate(43.76,106.25) rotate(-0.4)"
		width="7.50"
		height="6.00"
		rx="0.64"
	/>
<rect
		fill="#039bd3"
		x="-3.75"
		y="-3.00"
		transform="translate(34.50,113.74) rotate(-0.2)"
		width="7.50"
		height="6.00"
		rx="0.43"
	/>
<rect
		fill="#039bd3"
		x="-3.75"
		y="-3.00"
		transform="translate(43.75,113.75) rotate(0.4)"
		width="7.50"
		height="6.00"
		rx="0.64"
	/>
<rect
		fill="#039bd3"
		x="-3.63"
		y="-2.94"
		transform="translate(25.12,121.32) rotate(-0.9)"
		width="7.26"
		height="5.88"
		rx="0.34"
	/>
<rect
		fill="#039bd3"
		x="-3.75"
		y="-3.00"
		transform="translate(34.50,121.25) rotate(-0.3)"
		width="7.50"
		height="6.00"
		rx="0.52"
	/>
<rect
		fill="#039bd3"
		x="-3.75"
		y="-3.00"
		transform="translate(15.99,121.50) rotate(0.3)"
		width="7.50"
		height="6.00"
		rx="0.56"
	/>
<rect
		fill="#039bd3"
		x="-3.75"
		y="-3.00"
		transform="translate(43.75,128.75) rotate(-0.3)"
		width="7.50"
		height="6.00"
		rx="0.60"
	/>
<rect
		fill="#039bd3"
		x="-3.74"
		y="-3.03"
		transform="translate(15.99,129.22) rotate(-0.8)"
		width="7.48"
		height="6.06"
		rx="0.71"
	/>
<rect
		fill="#039bd3"
		x="-3.65"
		y="-2.92"
		transform="translate(25.16,128.93) rotate(-1.0)"
		width="7.30"
		height="5.84"
		rx="0.39"
	/>
<rect
		fill="#039bd3"
		x="-3.75"
		y="-2.99"
		transform="translate(34.49,136.33) rotate(-1.8)"
		width="7.50"
		height="5.98"
		rx="0.58"
	/>
<rect
		fill="#039bd3"
		x="-3.75"
		y="-3.00"
		transform="translate(43.76,136.26) rotate(0.4)"
		width="7.50"
		height="6.00"
		rx="0.69"
	/>
<rect
		fill="#039bd3"
		x="-3.65"
		y="-3.01"
		transform="translate(25.16,136.52) rotate(-0.3)"
		width="7.30"
		height="6.02"
		rx="0.49"
	/>
<rect
		fill="#039bd3"
		x="-3.67"
		y="-2.97"
		transform="translate(25.16,144.09) rotate(-2.0)"
		width="7.34"
		height="5.94"
		rx="0.53"
	/>
<rect
		fill="#039bd3"
		x="-3.75"
		y="-2.94"
		transform="translate(34.50,151.39) rotate(-1.3)"
		width="7.50"
		height="5.88"
		rx="0.43"
	/>
<rect
		fill="#039bd3"
		x="-3.64"
		y="-2.98"
		transform="translate(25.14,151.68) rotate(-1.8)"
		width="7.28"
		height="5.96"
		rx="0.39"
	/>
<rect
		fill="#039bd3"
		x="-3.75"
		y="-2.97"
		transform="translate(34.50,158.92) rotate(-1.6)"
		width="7.50"
		height="5.94"
		rx="0.35"
	/>
<rect
		fill="#039bd3"
		x="-3.75"
		y="-3.03"
		transform="translate(15.99,159.64) rotate(-2.1)"
		width="7.50"
		height="6.06"
		rx="0.58"
	/>
<rect
		fill="#039bd3"
		x="-3.75"
		y="-2.99"
		transform="translate(43.76,166.27) rotate(-0.6)"
		width="7.50"
		height="5.98"
		rx="0.53"
	/>
<rect
		fill="#039bd3"
		x="-3.69"
		y="-2.97"
		transform="translate(53.06,166.28) rotate(-0.1)"
		width="7.38"
		height="5.94"
		rx="0.46"
	/>
<rect
		fill="#039bd3"
		x="-3.75"
		y="-2.96"
		transform="translate(34.49,166.46) rotate(-1.0)"
		width="7.50"
		height="5.92"
		rx="0.54"
	/>
<rect
		fill="#039bd3"
		x="-3.62"
		y="-3.03"
		transform="translate(25.12,166.78) rotate(-0.9)"
		width="7.24"
		height="6.06"
		rx="0.44"
	/>
<rect
		fill="#039bd3"
		x="-3.75"
		y="-3.04"
		transform="translate(15.99,167.35) rotate(-2.0)"
		width="7.50"
		height="6.08"
		rx="0.69"
	/>
<path
		fill="#039bd3"
		d="
  M 93.37 165.55
  A 0.86 0.86 0.0 0 1 94.12 166.44
  L 93.96 170.82
  A 0.48 0.47 -86.0 0 1 93.44 171.28
  L 87.10 170.66
  A 0.59 0.58 2.2 0 1 86.57 170.09
  L 86.53 165.30
  A 0.56 0.55 3.2 0 1 87.16 164.75
  L 93.37 165.55
  Z"
	/>
<path
		fill="#039bd3"
		d="
  M 130.89 170.12
  L 130.71 175.64
  A 0.40 0.40 0.0 0 1 130.26 176.02
  L 123.84 175.13
  A 0.40 0.40 0.0 0 1 123.50 174.73
  L 123.50 169.12
  A 0.40 0.40 0.0 0 1 123.96 168.73
  L 130.55 169.71
  A 0.40 0.40 0.0 0 1 130.89 170.12
  Z"
	/>
<path
		fill="#039bd3"
		d="
  M 140.00 171.34
  L 140.00 177.44
  A 0.35 0.35 0.0 0 1 139.59 177.79
  L 133.04 176.60
  A 0.35 0.35 0.0 0 1 132.75 176.26
  L 132.75 170.27
  A 0.35 0.35 0.0 0 1 133.16 169.93
  L 139.71 170.99
  A 0.35 0.35 0.0 0 1 140.00 171.34
  Z"
	/>
<rect
		fill="#039bd3"
		x="-3.74"
		y="-3.00"
		transform="translate(34.49,173.99) rotate(-1.8)"
		width="7.48"
		height="6.00"
		rx="0.43"
	/>
<rect
		fill="#039bd3"
		x="-3.71"
		y="-3.00"
		transform="translate(53.04,173.75) rotate(-0.2)"
		width="7.42"
		height="6.00"
		rx="0.48"
	/>
<path
		fill="#039bd3"
		d="
  M 149.13 173.18
  L 149.19 179.08
  A 0.47 0.47 0.0 0 1 148.64 179.54
  L 142.13 178.32
  A 0.47 0.47 0.0 0 1 141.75 177.86
  L 141.75 172.03
  A 0.47 0.47 0.0 0 1 142.30 171.57
  L 148.75 172.72
  A 0.47 0.47 0.0 0 1 149.13 173.18
  Z"
	/>
<path
		fill="#039bd3"
		d="
  M 87.11 172.33
  C 89.04 172.50 91.62 173.09 93.42 173.01
  A 0.56 0.56 0.0 0 1 94.00 173.57
  L 94.00 178.60
  A 0.54 0.53 2.9 0 1 93.41 179.13
  L 87.04 178.40
  A 0.57 0.56 3.4 0 1 86.54 177.84
  L 86.54 172.86
  A 0.53 0.52 -87.5 0 1 87.11 172.33
  Z"
	/>
<path
		fill="#039bd3"
		d="
  M 130.73 178.23
  L 130.72 184.06
  A 0.35 0.35 0.0 0 1 130.31 184.40
  L 123.79 183.33
  A 0.35 0.35 0.0 0 1 123.50 182.98
  L 123.50 177.11
  A 0.35 0.35 0.0 0 1 123.91 176.77
  L 130.44 177.88
  A 0.35 0.35 0.0 0 1 130.73 178.23
  Z"
	/>
<rect
		fill="#039bd3"
		x="-3.68"
		y="-3.47"
		transform="translate(53.10,181.76) rotate(-0.1)"
		width="7.36"
		height="6.94"
		rx="0.43"
	/>
<rect
		fill="#039bd3"
		x="-3.73"
		y="-3.40"
		transform="translate(62.48,181.96) rotate(1.4)"
		width="7.46"
		height="6.80"
		rx="0.48"
	/>
<rect
		fill="#039bd3"
		x="-3.75"
		y="-3.39"
		transform="translate(71.75,182.33) rotate(2.4)"
		width="7.50"
		height="6.78"
		rx="0.41"
	/>
<rect
		fill="#039bd3"
		x="-3.75"
		y="-3.44"
		transform="translate(81.00,182.98) rotate(2.7)"
		width="7.50"
		height="6.88"
		rx="0.26"
	/>
<path
		fill="#039bd3"
		d="
  M 103.25 182.23
  L 103.22 188.42
  A 0.31 0.31 0.0 0 1 102.88 188.72
  L 96.04 187.98
  A 0.31 0.31 0.0 0 1 95.76 187.67
  L 95.78 181.35
  A 0.31 0.31 0.0 0 1 96.13 181.04
  L 102.98 181.93
  A 0.31 0.31 0.0 0 1 103.25 182.23
  Z"
	/>
<path
		fill="#039bd3"
		d="
  M 112.50 183.39
  L 112.50 189.89
  A 0.35 0.35 0.0 0 1 112.10 190.24
  L 105.41 189.20
  A 0.35 0.35 0.0 0 1 105.12 188.84
  L 105.30 182.51
  A 0.35 0.35 0.0 0 1 105.70 182.17
  L 112.20 183.04
  A 0.35 0.35 0.0 0 1 112.50 183.39
  Z"
	/>
<path
		fill="#039bd3"
		d="
  M 130.75 186.62
  L 130.75 193.29
  A 0.38 0.38 0.0 0 1 130.29 193.67
  L 123.80 192.33
  A 0.38 0.38 0.0 0 1 123.50 191.96
  L 123.50 185.35
  A 0.38 0.38 0.0 0 1 123.95 184.98
  L 130.44 186.25
  A 0.38 0.38 0.0 0 1 130.75 186.62
  Z"
	/>
<path
		fill="#039bd3"
		d="
  M 139.97 188.39
  L 139.96 195.41
  A 0.33 0.33 0.0 0 1 139.56 195.73
  L 133.01 194.25
  A 0.33 0.33 0.0 0 1 132.75 193.93
  L 132.75 187.11
  A 0.33 0.33 0.0 0 1 133.14 186.79
  L 139.70 188.07
  A 0.33 0.33 0.0 0 1 139.97 188.39
  Z"
	/>
</svg>
