<?xml version="1.0" encoding="utf-8" ?>
<!-- Generator: Adobe Illustrator 26.0.3, SVG Export Plug-In . SVG Version: 6.00 Build 0)  -->
<svg
	version="1.0"
	id="katman_1"
	xmlns="http://www.w3.org/2000/svg"
	xmlns:xlink="http://www.w3.org/1999/xlink"
	x="0px"
	y="0px"
	viewBox="0 0 600 450"
	style="enable-background:new 0 0 600 450;"
	xml:space="preserve"
>
<style type="text/css">
.st0 {
	fill-rule: evenodd;
	clip-rule: evenodd;
	fill: #414898;
}
	</style>
<path
		class="st0"
		d="M243.3,257.3L224,234.2v23.1h-10.3v-69.5H224v43l17.9-22h13.2l-20.2,23.1l21.7,25.4L243.3,257.3L243.3,257.3z
	 M280,235.6c-2.6,0-10.9,0.5-10.9,7.4c0,1.4,0.6,5.8,8.7,5.8c1.2,0,11.7-0.2,15.5-6.5v-0.1v-3.9l-0.1-0.1
	C288.4,236.5,283,235.6,280,235.6z M277.4,258.3c-11.4,0-18.5-5.8-18.5-15.3c0-9.9,7.6-15.5,20.8-15.5c4.4,0,8.9,1.1,13.3,3.2
	l0.3,0.1v-2.6c0-6.8-4.9-11.3-12.5-11.3c-5.2,0-10.8,2.7-13.8,6.6l-5.9-6.3c6-8.4,15.4-9.6,20.4-9.6c14.2,0,22.1,7.3,22.1,20.5v29
	h-10.3v-5.7L293,252C288.7,257.5,281.4,258.3,277.4,258.3z M315.4,257.3v-69.5h10.4v69.5H315.4z M360.2,216.7
	c-7.9,0-13.6,4.8-14.7,12.2v0.2h28.9V229C373.2,221.4,367.9,216.7,360.2,216.7z M360.2,258.3c-14.4,0-25-10.7-25-25.5
	c0-7.4,2.6-13.7,7.3-18.4c4.5-4.3,10.8-6.8,17.7-6.8c14.3,0,24.3,10.4,24.3,25.2c0,1.1,0,2.8-0.1,3.8h-38.9v0.2
	c1.1,7.6,7,12.4,15.2,12.4c5.7,0,11-2.8,13.4-6.9c1.6,0.8,3.5,1.6,5.2,2.3c1.1,0.5,2.2,1,3.3,1.4
	C378.6,253.8,370.3,258.3,360.2,258.3z M393.4,257.3v-48.6h10.3v48.5L393.4,257.3L393.4,257.3z M438.2,217.8
	c-8.6,0-14.9,6.3-14.9,15.1c0,8.9,6.2,15.4,14.9,15.4c7.5,0,15.2-5.3,15.2-15.4C453.4,223.1,445.6,217.8,438.2,217.8z M436.8,258.3
	c-13.8,0-24.2-10.9-24.2-25.3c0-14.7,10.2-25.4,24.2-25.4c7.3,0,13.6,3.1,16.4,8l0.4,0.7v-28.6h10.3v69.5h-10.3v-7.7l-0.4,0.7
	C450.4,255.2,443.9,258.3,436.8,258.3z M498.9,217.9c-8.7,0-15,6.3-15,15c0,8.9,6.3,15.4,15,15.4c8.8,0,15.1-6.5,15.1-15.4
	C514,224.1,507.7,217.9,498.9,217.9z M498.9,258.3c-6.8,0-13.1-2.5-17.8-6.9c-4.8-4.6-7.5-11.3-7.5-18.5c0-14.6,10.7-25.2,25.3-25.2
	c14.7,0,25.5,10.6,25.5,25.2c0,7.3-2.7,13.8-7.5,18.5C512.1,255.8,505.8,258.3,498.9,258.3z M398.5,199.5c-3.9,0-7-3-7-6.6
	c0-3.7,3.2-6.6,7-6.6c3.9,0,6.9,2.9,6.9,6.6C405.4,196.7,402.5,199.5,398.5,199.5z"
	/>
<path
		class="st0"
		d="M174,205.6v12.7L137,197.1l16.4-9.5l15.2,8.8C171.9,198.3,174,201.9,174,205.6z M84.2,232.4l36.9,21.3
	l-16.4,9.5l-15.2-8.8c-3.3-1.9-5.3-5.4-5.3-9.2V232.4z M108.6,237.3v-19.3l37.1,21.4l-16.6,9.6L108.6,237.3z M129.1,201.7l20.5,11.9
	v19.2l-37.1-21.4L129.1,201.7z M129.1,175.3c1.9,0,3.8,0.5,5.3,1.4l11.1,6.4l-36.9,21.3v-18.9l15.3-8.8
	C125.4,175.8,127.3,175.3,129.1,175.3z M89.5,196.4l11.1-6.4v42.7l-16.4-9.4v-17.7C84.2,201.9,86.3,198.3,89.5,196.4z M149.7,265.3
	l-15.3,8.8c-1.6,0.9-3.5,1.4-5.3,1.4c-1.9,0-3.8-0.5-5.3-1.4l-11.1-6.4l36.9-21.3L149.7,265.3z M168.7,254.4l-11.1,6.3v-42.7
	l16.4,9.4v17.7C174,249,171.9,252.5,168.7,254.4z M172.8,189.2l-34.2-19.8c-2.9-1.7-6.2-2.6-9.5-2.6c-3.4,0-6.6,0.9-9.5,2.6
	l-34.2,19.8c-5.9,3.4-9.6,9.7-9.6,16.4v39.5c0,6.7,3.7,13,9.5,16.4l34.2,19.8c2.9,1.7,6.1,2.6,9.5,2.6c3.4,0,6.6-0.9,9.5-2.6
	l34.2-19.8c5.8-3.4,9.5-9.7,9.5-16.4v-39.5C182.3,198.9,178.7,192.6,172.8,189.2z"
	/>
</svg>
