<?xml version="1.0" encoding="UTF-8" ?>
<svg
	xmlns="http://www.w3.org/2000/svg"
	xmlns:xlink="http://www.w3.org/1999/xlink"
	version="1.1"
	id="Layer_1"
	x="0px"
	y="0px"
	viewBox="0 0 2500 2500"
	style="enable-background:new 0 0 2500 2500;"
	xml:space="preserve"
>
<style type="text/css">
.st0 {
	fill-rule: evenodd;
	clip-rule: evenodd;
	stroke: #000000;
	stroke-width: 2;
	stroke-linecap: round;
	stroke-linejoin: round;
	stroke-miterlimit: 22.9256;
}
.st1 {
	fill: #ffffff;
}
	</style>
<g id="Layer_x0020_1">
	<g id="_1577962445936">
		<circle class="st0" cx="1250" cy="1250" r="1249" />
		<g>
			<polygon
					class="st1"
					points="462,498 462,2002 1854,2002 1854,1833 629,1833 629,667 1854,667 1854,498    "
				/>
			<path
					class="st1"
					d="M1992,1076c0-36-14-67-41-93c-28-26-66-40-116-40c-42,0-75,9-100,26c-25,18-37,41-37,71c0,16,3,30,9,42     s16,23,31,33s34,19,58,26c24,8,55,15,91,22c93,17,164,46,213,85c49,40,74,99,74,178v16c0,42-8,79-22,113c-15,33-36,62-64,86     s-61,42-101,55c-40,12-85,19-134,19c-58,0-109-9-154-25s-81-40-111-69c-29-30-52-64-67-103c-15-40-23-83-23-130v-8h167     c0,54,15,96,46,129c31,32,78,48,144,48c51,0,88-11,113-33c25-23,37-49,37-79c0-15-2-28-8-42c-5-13-14-25-27-36     c-12-11-30-20-52-29s-50-16-84-22c-45-8-85-18-123-30c-37-12-69-29-97-49s-48-46-64-77c-15-31-23-68-23-113v-8c0-36,8-71,22-102     c15-31,35-58,62-82c27-23,58-41,96-54c38-12,79-19,126-19c52,0,98,8,139,23s75,35,102,61c28,26,46,56,62,89c20,40,21,120,21,120     l-166-2L1992,1076z"
				/>
		</g>
	</g>
</g>
</svg>
