<svg
	version="1.1"
	id="Layer_1"
	xmlns="http://www.w3.org/2000/svg"
	x="0"
	y="0"
	viewBox="0 55 792 500"
	xml:space="preserve"
><style>.st0{fill:#242021}.st1{fill:#f6971d}.st2{fill:#252122}</style><path
		class="st0"
		d="M393 67.7c-59.9 0-108.4 48.5-108.4 108.4S333.1 284.5 393 284.5c59.9 0 108.4-48.5 108.4-108.4S452.9 67.7 393 67.7zm0 205c-53.3 0-96.6-43.2-96.6-96.6 0-53.3 43.2-96.6 96.6-96.6 53.3 0 96.6 43.2 96.6 96.6 0 53.3-43.3 96.6-96.6 96.6z"
	/><path
		class="st1"
		d="M381.5 223.2c0-.7.1-1.4.1-2 0-35.6 0-71.1.1-106.7v-2c8.8-4.5 17.6-9 26.6-13.5v130.4c-6.5 3.9-13 7.9-19.6 11.8-2.3 1.4-4.7 2.7-7.1 4.1-.1-7.4-.1-14.7-.1-22.1z"
	/><path
		class="st2"
		d="M381.5 223.2c0 7.3 0 14.6.1 22-6-.8-11.7-2.5-17.2-4.8-11.8-4.8-21.9-11.8-29.4-22.3-13.1-18.4-12-41.1 2.7-58.3 10.2-11.9 23.3-18.9 38.4-23.3v22.4c-1.5.6-3.1 1.3-4.7 2-6.9 3.2-13 7.4-17.9 13.4-8.2 10.2-8.2 22.2 0 32.4 6.4 7.8 14.8 12.4 24.3 15.4 1.2.5 2.5.8 3.7 1.1zM442 142.3c1.4-2.6 2.7-5.1 4.1-7.9 6.4 10.1 12.8 20.1 19.2 30.3-12.8 2.3-25.4 4.5-38.4 6.9 1.8-3.5 3.5-6.8 5.2-10.1-5.9-2.8-11.9-4.6-18.3-5.6v-21.5c5.7 0 14.9 2.6 28.2 7.9z"
	/><path
		class="st0"
		d="M750 364.1c-.5.9-1 1.8-1.3 2.8-11.8 29.6-23.6 59.1-35.6 88.7-5 12.4-11.1 24.1-19.5 34.7-5.4 6.8-11.5 12.6-19.5 16.2-4.3 1.9-9.4 3-13 2.7v-30.1c11.4-.9 19.6-10.9 21.1-19.8.4-2.2.2-4.3-.7-6.5-11.3-29.1-22.5-58.3-33.7-87.4-.2-.6-.4-1.2-.7-1.9h13.1c4.2 0 8.4.1 12.6 0 1.2 0 1.8.4 2.2 1.5l21.9 51.9c.2.5.4.9.8 1.5 5.6-13.3 11.1-26.4 16.6-39.4 2-4.7 4-9.4 5.9-14.1.4-1 .9-1.3 2-1.3h27.7c.1.1.1.3.1.5z"
	/><path
		class="st1"
		d="M247.7 549.3c-2-.5-4.1-.8-6.1-1.4-6.6-2.2-11.6-6.2-13.5-13.3-.2-.8-.2-1.7-.3-2.6h13.4c.8 3.2 2.6 5.6 6 6.5 3.9 1.1 7.7.7 11-1.8 3.1-2.3 3.2-6.2-.2-8-2.7-1.5-5.8-2.3-8.8-2.9-4.4-.9-8.8-1.5-13-3.4-9.6-4.4-9.4-14.3-4-20.3 3.9-4.4 8.9-6.6 14.7-7.2 6.1-.7 12.1-.1 17.6 2.8 4 2.1 6.9 5.2 7.7 9.8.1.4.1.8.1 1.3-.5 0-.9.1-1.3.1h-8c-1.8 0-3.2 0-4.6-1.7-3.1-3.5-11.5-3-14.7.4-2.5 2.7-1.8 5.9 1.7 6.9 3.4.9 7.1 1.1 10.5 2 3.6.9 7.3 1.8 10.7 3.4 8.5 4 10.6 16 2.7 22.9-3.9 3.4-8.6 5.3-13.7 6.1-.4.1-.9.2-1.3.3-2.2.1-4.4.1-6.6.1z"
	/><path
		class="st0"
		d="M46.8 334.1c.2-.6.5-1.2.6-1.9 2.4-8.3 10.9-13.3 19.3-11.4 8 1.8 13.7 10.1 12.4 18.1-1.4 8.8-8.8 14.7-17.5 13.9-7.1-.6-12.9-5.8-14.5-12.7l-.3-.9v-5.1zM170.2 370.1v-40.6h27.9V456h-27.9v-7c-13.1 9-27 12.5-42.4 8.5-11.5-3-20.8-9.5-27.9-19.1-13.8-18.6-12.7-42.7 2.4-60.8 13.5-16 41.5-26.1 67.9-7.5zM115 409.6c0 13.6 11.2 25.2 24.1 25.1 14.4-.1 25.6-11 25.6-25.1 0-13.8-11.2-24.9-24.9-24.9-13.6 0-24.8 11.2-24.8 24.9zM324.4 363.5h27.8v7.1c.6-.5 1-.8 1.4-1.1 7.6-6.5 16.3-9.6 26.2-9 7.3.4 14.3 1.6 20.9 5 10.9 5.6 16.9 14.8 20 26.3 1.6 6 2.2 12.1 2.2 18.2v45.8H395V454v-43.4c0-3.1-.2-6.2-.8-9.2-1.6-8-6.7-12.7-15-13.5-3.4-.3-7-.5-10.3.2-8.9 1.8-15.6 9.9-16.2 19-.1 1.4-.2 2.8-.2 4.3v44.4h-28.1v-92.3zM308.5 419.5h-68.6c3.1 7.6 8.5 12.6 16.1 14.9 11 3.3 20.2-.3 28-8.5 6.7 4.1 13.3 8.2 20.1 12.4-8.9 10.2-19 18.1-32.6 20.2-21.9 3.4-42.7-7.4-52.2-27.2-14.6-30.4 5.1-63.9 34.8-69.9 24.1-4.9 45.5 8.5 52.8 32.7 2.5 8.3 3.1 17.8 1.6 25.4zm-68.6-17.9h45.6c0-3.8-1.5-7.3-4.4-10.3-6.4-6.5-14.1-8.7-23-6.9-6.2 1.2-11.6 4-15.4 9.2-1.8 2.4-2.9 5-2.8 8zM569.4 363.8h13.5v-34.4h28.9v34.3h25v21.2H612c-.1.3-.2.4-.2.6 0 11.1 0 22.2.2 33.3 0 2.1.5 4.2 1.1 6.2 1.3 4.6 4.6 7 9.3 7.5 2.2.2 4.4.3 6.7.5v25c-3.2.3-6.4.7-9.6 1-5.7.4-11.4-.1-16.8-1.9-10.7-3.7-16.5-11.6-18.7-22.4-.7-3.5-1-7.1-1-10.7-.1-12.3 0-24.6 0-36.9v-2h-13.6v-21.3zM450.4 363.8v-34.5h28.8v34.3h25.1v21.2h-24.8c-.1.3-.2.4-.2.5 0 11.1 0 22.2.2 33.3 0 2.1.5 4.2 1.1 6.2 1.3 4.6 4.5 7.1 9.2 7.6 2.2.2 4.4.3 6.8.5v24.9c-1.8.3-3.6.6-5.5.8-6.3.7-12.6.7-18.8-1-11.8-3.2-18.3-11.3-20.7-22.9-.7-3.5-1-7.2-1.1-10.8-.1-12.3 0-24.6 0-36.9v-1.9H437v-21.2c4.2-.1 8.7-.1 13.4-.1zM77.2 363.9v92H49.3v-92h27.9zM523.9 363.9h27.8V456h-27.8v-92.1z"
	/><path
		class="st1"
		d="M354 535v12.9h-12.6v-51.8h24.3c9.8 0 17.5 6.7 19 16.4 1 6.4-.1 12.1-4.8 16.8-1.1 1.1-2.5 2-3.9 3.1 3.6 5 7.3 10.1 11.1 15.4-.6.1-1 .1-1.4.1h-12.6c-1.1 0-1.7-.3-2.3-1.2-2.3-3.6-4.6-7-6.9-10.6-.5-.9-1.1-1.3-2.2-1.2-2.5.1-5 .1-7.7.1zm.1-11.4h1.9c3.2 0 6.5.1 9.7-.2 3.9-.3 6.4-3 6.6-6.6.2-3.9-2.3-7.3-6.1-7.8-3.5-.4-7-.2-10.5-.3-.5 0-1 .1-1.5.1-.1 5-.1 9.8-.1 14.8zM520.8 535v12.9h-12.6v-51.8h24.2c9.9 0 17.6 6.7 19 16.5.8 5.7.1 10.9-3.7 15.4-1.4 1.7-3.2 3-5 4.5 3.6 5 7.3 10.1 11.2 15.4h-15.1c-.4 0-.9-.6-1.2-1-2.4-3.6-4.8-7.2-7.1-10.8-.5-.8-1.1-1.1-2.1-1.1h-7.6zm0-11.4h9.4c.7 0 1.5 0 2.2-.1 4-.5 6.6-3.2 6.6-6.9.1-3.7-2.6-7.1-6.3-7.5-3.3-.4-6.7-.2-10-.3h-1.8c-.1 5-.1 9.7-.1 14.8zM288.5 496.1h38.8v11.1H301v9.3h20.8v11.1h-20.7v9.2h26.3v11.1h-38.8c-.1-17.2-.1-34.5-.1-51.8zM467.4 536.8h26.3v11.1h-38.8v-51.7h38.7v11h-26.3v9.3H488v11.2h-20.7c.1 3.1.1 5.9.1 9.1zM390.2 496c4.5 0 8.9 0 13.3.1.5 0 1.1.8 1.4 1.4 4.3 9.4 8.5 18.9 12.7 28.3.3.6.5 1.1.9 1.9.4-.8.6-1.3.9-1.9 4.2-9.4 8.5-18.9 12.6-28.3.5-1.1 1-1.5 2.2-1.5 4.1.1 8.2 0 12.6 0-.3.7-.4 1.3-.7 1.8-6.9 16.3-13.9 32.5-20.8 48.8-.5 1.1-1 1.4-2.1 1.4-3.2-.1-6.5-.1-9.7 0-.8 0-1.3-.2-1.7-1-7.1-16.7-14.3-33.4-21.5-50.2-.1-.2-.1-.3-.1-.8z"
	/><path
		class="st0"
		d="M521.4 336.6c0-9 7.4-16.3 16.5-16.2 8.8 0 16 7.4 16 16.4 0 9-7.2 16.1-16.2 16.1s-16.3-7.3-16.3-16.3z"
	/></svg>
