<svg
	version="1.2"
	xmlns="http://www.w3.org/2000/svg"
	viewBox="0 0 1520 1519"
	width="1520"
	height="1519"
>
	<title>zoominfo-logo-svg</title>
	<style>
		.s0 { fill: #f44238 } 
		.s1 { fill: #ffffff } 
	</style>
	<g id="Layer">
		<rect
			id="svg_2"
			class="s0"
			x="0"
			y="0"
			width="1519.5"
			height="1518.9"
			rx="179"
		/>
		<path
			id="svg_3"
			fill-rule="evenodd"
			class="s1"
			d="m923.6 414.3h169.5c6.7 0 12.1 5.4 12.1 12.2v163.7c0.1 6.7-5.3 12.2-12 12.3 0 0-0.1 0-0.1 0h-47.9c-6.7 0-12.1-5.5-12.1-12.2v-50.6l-511.2 492.3h105.2c6.6 0 12.1 5.4 12.1 12.2v48.3c0 6.8-5.5 12.2-12.1 12.2h-200.5c-6.7 0-12.1-5.4-12.1-12.2v-60.3l566.5-545.3h-57.4c-6.7 0-12.1-5.4-12.1-12.2v-48.2c0-6.8 5.4-12.2 12.1-12.2zm-437 177.8c0 6.7-5.4 12.2-12 12.2h-48c-6.7 0-12.1-5.4-12.1-12.2v-165.6c0-6.8 5.4-12.2 12.1-12.2h382.1c6.7 0 12 5.5 12 12.2v46.4c0 6.7-5.4 12.2-12 12.2h-322.1zm546.5 329.5c0-6.7 5.4-12.2 12.1-12.2h47.9c6.7 0 12.1 5.5 12.1 12.2v170.9c0 6.7-5.4 12.1-12.1 12.1h-351.4c-6.7 0-12.1-5.4-12.1-12.1v-48.4c0-6.7 5.4-12.2 12.1-12.2h291.4z"
		/>
	</g>
</svg>
