<svg
	width="70.448441mm"
	height="60.424896mm"
	viewBox="0 0 70.448441 60.424895"
	version="1.1"
	id="svg903"
	inkscape:version="1.2.2 (b0a84865, 2022-12-01)"
	sodipodi:docname="flask-bare.svg"
	xmlns:inkscape="http://www.inkscape.org/namespaces/inkscape"
	xmlns:sodipodi="http://sodipodi.sourceforge.net/DTD/sodipodi-0.dtd"
	xmlns="http://www.w3.org/2000/svg"
	xmlns:svg="http://www.w3.org/2000/svg"
>
	<sodipodi:namedview
		id="namedview905"
		pagecolor="#ffffff"
		bordercolor="currentColor"
		borderopacity="0.25"
		inkscape:showpageshadow="2"
		inkscape:pageopacity="0.0"
		inkscape:pagecheckerboard="0"
		inkscape:deskcolor="#d1d1d1"
		inkscape:document-units="mm"
		showgrid="false"
		inkscape:zoom="0.66019195"
		inkscape:cx="539.99447"
		inkscape:cy="416.54552"
		inkscape:window-width="1728"
		inkscape:window-height="966"
		inkscape:window-x="0"
		inkscape:window-y="38"
		inkscape:window-maximized="0"
		inkscape:current-layer="layer1"
	/>
	<defs id="defs900">
		<linearGradient id="linearGradient2867" inkscape:swatch="solid">
			<stop
				style="stop-color:currentColor;stop-opacity:1;"
				offset="0"
				id="stop2865"
			/>
		</linearGradient>
	</defs>
	<g
		inkscape:label="Layer 1"
		inkscape:groupmode="layer"
		id="layer1"
		transform="translate(-40.957265,-194.75284)"
	>
		<path
			style="fill:currentColor;stroke-width:0.361367"
			d="m 62.009398,248.55825 c -2.683747,-2.02955 -5.546561,-3.97545 -7.502821,-6.7155 -4.116322,-4.83201 -7.285695,-10.42643 -9.45241,-16.30548 -1.30963,-3.82283 -1.758157,-7.92138 -3.446441,-11.5965 -1.766118,-2.66927 0.302646,-5.58718 3.343598,-6.43566 1.353895,-0.24985 3.734467,-1.47769 0.860874,-0.60008 -2.576264,1.81734 -2.825589,-1.64968 -0.183831,-1.86922 1.802874,-0.2304 2.466554,-1.64946 1.850025,-2.92693 -1.935289,-1.21344 4.692803,-2.54701 1.357813,-4.35759 -3.474157,-3.60388 4.859603,-4.29763 2.803536,-0.20475 -0.492158,3.14727 5.823275,-0.57682 4.357947,3.05759 1.489347,1.74537 5.577222,0.39724 5.475807,2.84583 2.169588,0.1434 2.914198,1.89859 4.950872,2.03332 2.110807,0.91653 5.937364,1.63876 6.655636,3.92579 -2.09416,1.5941 -6.943493,-3.29277 -7.176465,1.11985 0.63262,6.51848 0.47145,13.23334 2.951899,19.44086 1.173236,3.75869 4.017453,6.7175 6.58609,9.64494 2.457657,2.86706 5.786656,4.88534 9.179738,6.58484 2.976447,1.34968 6.185399,2.24483 9.429227,2.80653 1.3157,-0.9676 3.638542,-4.56491 5.691031,-3.04799 0.09737,1.70441 -4.073803,3.56292 -0.196238,3.37454 2.276865,-0.66041 3.856095,1.69305 5.731055,-0.42977 1.72738,1.96732 7.17976,-1.25697 5.95068,2.76426 -1.66198,1.03097 -4.08589,0.40799 -5.75061,1.82625 -2.74467,-1.31805 -4.92983,1.17941 -7.968383,0.86356 -3.37444,0.58113 -6.807398,0.81571 -10.228539,0.8208 -5.612584,-0.42636 -11.344034,-0.60609 -16.683385,-2.48495 -3.007842,-0.84036 -5.943146,-2.48707 -8.586705,-4.13454 z m 4.74009,1.9747 c 2.937061,1.22124 5.808978,2.50833 9.027795,2.89657 5.106698,0.6829 10.380301,1.7333 15.5053,0.77515 -2.319511,-1.00704 -4.717508,0.39232 -7.02828,-0.72009 -2.771493,0.57338 -5.745614,-0.14607 -8.563142,-0.50029 -3.204011,-1.37222 -6.66168,-2.31579 -9.662101,-4.09695 -3.749145,-1.31665 1.939009,1.68851 2.951482,1.93191 2.343694,1.27905 -2.57731,-0.65569 -3.271059,-1.18739 -1.962984,-1.05874 -2.213149,-0.83751 -0.194384,0.2377 0.406613,0.22883 0.808412,0.46853 1.234389,0.66339 z m -5.588697,-3.79743 c 2.846102,1.0136 -0.01259,-1.92435 -1.316747,-1.75363 -0.577825,-0.96387 -2.207625,-1.57277 -1.057956,-2.09053 -2.068034,0.6903 -2.166355,-2.62499 -3.138431,-2.15133 -2.187803,-0.66421 -0.851493,-3.0172 -3.457552,-4.46217 -0.237884,-1.52258 -2.589229,-2.84321 -3.339206,-5.1398 -0.331231,-1.17584 -2.65651,-4.55249 -1.228088,-1.41001 1.216231,3.02517 3.356092,5.61586 5.136866,8.20359 1.382768,2.46382 3.015522,5.03882 5.533809,6.5758 0.848893,0.78296 1.668517,1.98265 2.867305,2.22808 z m -8.199015,-8.65519 c 0.09934,-0.41324 0.520525,0.89444 0,0 z m 11.607472,9.87024 c 0.63024,-0.27134 -0.906268,-0.34186 0,0 z m 1.544995,0.54186 c -0.160014,-0.74821 -0.705285,0.4184 0,0 z m 1.933875,0.77563 c 0.920698,-0.84288 -1.418885,-0.53146 0,0 z m 3.314547,1.77621 c 0.559472,-0.7951 -1.790601,-0.30006 0,0 z m -6.364827,-4.26601 c 1.430023,-0.88947 -1.847035,-0.012 0,0 z m 1.450767,0.69554 c -0.04057,-0.47025 -0.517042,0.21058 0,0 z m 7.250793,4.35131 c 1.165598,0.70726 6.806663,1.55021 3.274333,0.29002 -0.591044,0.11987 -6.549805,-1.62052 -3.274333,-0.29002 z M 62.18852,243.2054 c -0.113326,-0.47163 -1.809255,-0.52068 0,0 z m 3.375507,1.8915 c 0.878476,-0.58911 -1.823345,-0.45439 0,0 z m 2.839275,1.67384 c 1.260624,-0.45696 -2.045017,-0.45912 0,0 z m -7.588318,-5.00367 c 1.367765,1.00853 5.516088,0.12924 2.094662,-0.60204 -1.557243,-0.79813 -5.066923,-1.34442 -2.674657,0.48126 l 0.579992,0.12081 z m 9.511373,5.58162 c 0.569733,-0.93329 -2.389194,-0.53297 0,0 z m -2.890219,-2.20855 c 3.344514,0.90966 -2.812432,-2.03355 -0.825186,-0.33473 l 0.440446,0.19163 0.384743,0.14312 z m 5.794648,3.22017 c 3.167446,0.0291 -2.860938,-0.41984 0,1e-5 z m -13.634519,-8.35524 c -0.123715,-0.56727 -0.781645,0.0474 0,0 z m 18.992505,11.245 c 0.08447,-1.02456 -1.033686,0.76238 0,0 z m -13.587145,-8.0623 c -0.191586,-0.53948 -0.989688,-0.0222 0,0 z m -5.104969,-3.53862 c 1.818429,-0.10499 -2.489562,-0.77038 0,0 z m -6.047518,-3.7585 c -0.226333,-0.83814 -1.978734,-1.50661 0,0 z m 15.876161,9.68744 c -0.333055,-0.3652 -0.156662,0.08 0,0 z m 9.881879,5.83059 c -0.0317,-0.5581 -0.538203,0.21123 0,0 z m -10.756423,-6.69891 c 0.177877,-0.71905 -1.55057,-0.2177 0,0 z m -7.361842,-4.48592 c 1.352808,-0.13928 -2.167135,-0.87933 0,0 z m 12.453236,7.44012 c 2.108163,-0.80302 -2.054726,-0.39202 0,0 z m -6.477642,-4.22778 c 2.429658,0.30118 -2.89093,-1.58896 -0.533086,-0.16914 l 0.53308,0.16915 z m 8.444185,4.99215 c 2.268374,-1.30389 1.520524,3.05325 3.848423,0.36809 2.296279,-1.61204 -1.983026,1.99298 0.84703,0.28742 2.046682,-1.31615 5.0697,0.6239 6.979458,1.25692 1.373373,-0.0648 2.70849,1.14181 4.116418,0.40769 2.710266,-0.70188 -5.299866,-1.041 -3.200138,-2.2863 -2.47991,0.69396 -4.312181,-0.82732 -5.532468,-2.35461 -2.781732,-0.61762 -5.998056,-1.98502 -7.386352,-4.35195 -0.56603,-0.88869 0.817716,0.12522 -0.488624,-1.32749 -1.676213,-1.43348 -2.513204,-3.06068 -3.638447,-4.80315 -1.344242,-0.6895 -1.500848,-2.719 -1.636741,-0.068 0.01056,-1.67306 -1.622993,-2.79916 -2.021733,-2.33105 -0.0071,-1.61126 1.748308,-0.8036 0.51943,-1.99574 -0.2645,-1.67003 -1.135394,-3.41021 -1.397165,-5.29572 -0.406713,-0.90889 -0.05728,-2.8555 -1.388125,-0.79799 -0.484863,2.17448 -0.16093,-2.67217 0.593081,-1.07396 0.98967,-1.63083 -0.355302,-1.43903 -0.410402,-1.21258 0.644679,-1.37602 0.408036,-3.32781 -0.168213,-2.58321 0.34352,-1.45841 0.542697,-5.36738 -0.514142,-4.67465 0.640633,-1.52507 1.214937,-6.97842 -1.56612,-4.89923 -1.127108,0.0153 -3.078927,0.39338 -4.001546,0.83455 2.892802,1.53319 -0.290973,0.55368 -1.468535,0.31001 -0.153436,1.41865 -1.319786,0.8051 -2.776943,0.819 2.327388,0.27686 -1.133332,2.28867 -2.468483,1.50719 -1.733986,0.79683 1.496472,2.78582 0.03479,3.40081 0.179636,0.92716 -2.65647,-0.33483 -2.433731,1.80632 -1.683363,-0.68089 -0.231793,2.53988 0.610392,1.45061 2.863092,0.74503 2.015549,2.44363 2.088459,4.05715 -0.466502,0.9402 -2.303148,-2.20999 -0.409051,-2.06409 -1.494297,-2.33394 -1.652956,-0.84362 -2.894668,0.24064 -0.288877,0.0787 3.167322,1.54271 0.998379,2.26661 1.908222,0.2831 1.962513,1.88865 2.350977,2.90465 1.146946,1.1486 0.912203,-1.26831 2.284564,0.11204 -0.868445,-1.22974 -4.599969,-3.46488 -1.595589,-2.74803 -0.01605,-1.23766 -0.54337,-2.2357 0.377091,-2.21149 0.911517,-1.58718 -0.954644,3.91333 1.099969,1.89616 0.568752,-0.23879 0.709625,-1.58919 1.731938,0.12749 1.484856,1.40447 0.536338,2.42219 -1.558218,1.13619 0.374735,1.22228 2.801981,1.65907 2.345842,3.57049 0.483553,1.68113 1.160086,1.06195 1.749796,0.96476 0.462592,1.63339 0.725279,0.43231 0.747223,-0.34497 2.118091,0.43594 1.621965,1.63977 2.284705,2.48085 1.459544,0.63342 -2.089103,-4.29359 0.416685,-1.48152 2.636331,2.28854 0.9887,3.24385 -1.377155,2.87722 1.497396,-0.11625 1.980285,1.9464 3.85327,1.87394 1.707989,0.78122 2.864377,3.78183 -0.07965,2.53275 -1.021111,-0.88522 -4.634578,-1.97725 -1.683205,-0.29348 2.725881,1.2137 4.890865,1.93978 7.51987,3.46327 1.881492,1.29143 2.694362,2.7706 3.407486,3.06341 -1.581319,0.72621 -4.765464,-0.5799 -2.401045,-0.98018 -1.474754,-0.25828 -3.133485,-0.97535 -1.720908,0.79136 1.201143,0.96425 4.255482,0.8621 4.80302,0.97137 -0.464109,0.98323 -1.260641,1.06144 0.01901,1.13768 -1.427606,0.7315 0.457778,0.84478 0.590074,1.26275 z m -2.919337,-7.92655 c -0.868565,-0.87337 -1.093142,-2.50922 -0.154237,-1.08579 0.481482,0.18589 1.542397,2.67323 0.154257,1.08579 z m 9.507175,5.80653 c 0.541759,-0.0337 0.01574,0.39574 0,0 z m -10.87861,-7.94798 c -0.03331,-1.3204 0.314173,1.01845 0,0 z m -0.944891,-1.22235 c -1.092501,-2.02961 1.377287,0.57479 0,0 z m -11.450581,-7.5988 c 0.641837,-0.16458 0.315775,1.05545 0,0 z m 9.113196,4.74941 c 0.394173,-1.42322 0.463218,1.19419 0,0 z m -6.438198,-4.30433 c -0.453863,-0.78535 0.949346,0.73656 0,0 z m 5.525341,1.70303 c -1.035029,-2.22959 0.732777,-1.21787 0.228989,0.36541 z m -9.528492,-6.10981 c -0.462739,-0.73148 -1.228196,-2.87772 -0.981766,-3.53292 0.222938,1.06706 2.360054,4.59209 1.04832,1.46021 -1.449586,-2.62534 1.73277,0.85216 2.060118,1.50698 0.152434,0.6514 -0.894352,-0.17797 -0.185074,1.34943 -1.29348,-1.73899 -0.763588,0.96057 -1.941598,-0.7837 z m -2.944839,-1.95105 c 0.121221,-1.70076 0.674144,1.16624 0,0 z m 1.324618,0.43843 c 0.632096,-1.28371 1.071782,1.7896 0,0 z m -3.186398,-2.36999 c -1.096371,-1.04752 -1.889767,-2.01312 0.0513,-0.65013 0.74793,0.028 -1.661719,-2.19586 0.180119,-0.70621 1.936758,0.33953 0.956381,3.05326 -0.231419,1.35634 z m 1.673773,-0.0421 c 0.636695,-0.60663 0.338008,0.59717 0,0 z m 1.029898,0.31745 c -0.965255,-1.73958 1.171493,0.72931 0,0 z m -2.047373,-1.88122 c -3.187237,-2.72717 4.004965,1.42605 0.520703,0.50562 l -0.520721,-0.50561 z m 9.131915,5.10151 c -1.379238,-0.79514 -0.365503,-5.59769 0.104854,-2.31308 1.340832,-0.41705 -0.07402,1.69631 0.926042,1.67675 -0.157609,1.3334 -0.605015,1.81279 -1.030893,0.63633 z m 3.377683,1.91939 c 0.135263,-1.44734 0.284689,0.98953 0,0 z m -0.586698,-0.55737 c 0.15186,-0.6183 0.01571,0.72813 0,0 z m -11.29767,-7.35964 c -2.047586,-2.71624 5.950824,2.7476 1.311445,0.68895 -0.484779,-0.12187 -1.068084,-0.16543 -1.311445,-0.68895 z m 6.504285,3.31575 c -0.193768,-2.28713 0.432719,0.37911 -7.1e-5,-2e-5 z m 4.938256,3.04584 c 0.382162,-1.30278 0.02848,0.86184 0,0 z m -11.128875,-7.39824 c 1.216959,-0.25027 5.043265,2.05495 1.529496,0.65847 -0.390423,-0.41557 -1.222721,-0.22675 -1.529496,-0.65847 z m 10.450403,5.00793 c 0.130081,-2.33866 0.726518,-1.39693 0.0044,0.33476 l -0.0044,-0.33476 h -1.9e-5 z m -9.544516,-5.82171 c 0.495845,-0.69935 -1.316265,-3.16181 0.261212,-0.88332 0.681618,0.52076 1.973535,0.87239 0.832893,1.09146 1.793925,1.52158 -0.437539,0.4123 -1.094105,-0.20814 z m 9.027632,5.09119 c 0.342559,-2.66408 0.302091,1.56083 0,0 z m -10.063217,-7.55181 c 0.378744,-0.15563 0.20002,0.48522 0,0 z m 2.354787,1.34759 c 0.606023,-1.22267 1.11795,1.3636 0,0 z m 6.642278,3.55271 c -0.0064,-0.46958 0.125314,0.68303 0,0 z m -0.384764,-0.81903 c -0.921926,-2.18686 0.857553,1.15784 0,0 z m -0.566066,-1.43378 c -0.154751,-0.90364 0.525943,1.13524 -2.7e-5,-2e-5 z m 0.921249,-1.43986 c -0.632635,-1.07194 0.798896,-4.72374 0.958635,-2.45892 -0.667727,1.76471 -0.192625,2.75191 0.27319,0.38494 0.860221,-1.86281 -0.185817,3.67595 -1.231841,2.07399 z m 0.94672,-5.43086 c 0.275785,-0.32561 0.06121,0.39229 0,0 z m -1.581012,29.95385 c -0.375003,-0.31466 0.0471,0.20023 0,0 z m 3.256995,1.58413 c 1.811707,0.44694 1.802445,-0.27102 0.165036,-0.48431 -0.88072,-0.78776 -3.65971,-1.62333 -1.172374,-0.0977 0.16473,0.40121 0.685265,0.39186 1.007338,0.58207 z m -6.432451,-4.10786 c 0.998079,0.71562 3.759487,2.02816 1.421872,0.27238 0.788139,-0.88041 -1.508532,-1.34904 -0.746674,-1.93796 -1.937811,-1.14011 -1.528662,-1.03871 -0.171041,-1.00283 -2.328903,-1.00088 0.336163,-0.92602 0.210677,-1.43887 -0.898008,-0.17052 -4.460385,-1.52246 -2.364655,0.11103 -2.130448,-1.04444 -0.507693,0.38905 -1.151622,0.2375 -2.178524,-0.57111 1.940103,1.59532 -0.345996,1.05753 1.249817,0.95227 3.364081,2.43924 0.528398,1.00776 -0.373625,0.5171 2.029244,1.30092 2.619041,1.69343 z m 3.406425,1.8816 c 4.14186,1.28329 -2.030625,-1.56782 0,0 z m 17.437663,10.15691 c 0.05342,-0.79004 -0.56608,0.67397 0,0 z m 1.792267,0.72525 c 0.955594,-0.89029 0.03907,1.41815 1.58342,-0.21794 0.0167,-1.17124 -0.04754,-1.86305 -1.774719,-0.44028 -0.476122,0.25388 -0.688681,1.33335 0.191299,0.65822 z M 53.897046,233.67335 c -0.293484,-1.10923 -2.057133,-1.10348 0,0 z m 1.913804,1.20579 c -0.71068,-1.13295 -2.535704,-1.02569 0,0 z m 10.887714,6.31327 c 1.062997,0.90782 4.882183,0.66609 1.291085,0.11171 -0.53187,-0.75611 -3.377292,-0.57414 -1.291085,-0.11171 z m 14.967002,8.88739 c 1.636041,-1.31996 -1.585142,0.58884 0,0 z m 3.402594,2.24818 c 0.01024,-0.42358 -0.705196,0.18547 0,0 z m 0.0053,-0.59302 c 1.811718,-1.84564 -1.755492,0.10909 -1.3e-5,0 z M 49.18993,229.8844 c -1.544133,-2.11834 -0.959876,-3.07051 -2.448952,-4.80016 -0.281897,-1.32268 -2.554551,-4.3241 -1.175468,-1.14433 1.263164,1.8597 1.63852,4.73906 3.62442,5.94449 z m 35.315192,21.26385 c 3.333121,-2.07138 -1.368181,-0.90229 0,0 z m 2.544391,0.95835 c 1.669127,-1.3779 -1.055815,-0.28819 0,0 z M 53.32977,231.33187 c 0.477693,-0.6833 -1.233718,-0.0875 0,0 z m 33.188475,20.12039 c 1.616114,-1.00188 -0.37235,-0.84805 -0.292919,0.0921 l 0.292924,-0.0921 z m -21.932832,-13.2919 c -0.05556,-0.67654 -0.853427,0.0575 0,0 z m 1.355443,0.74987 c -0.430772,-0.83737 -0.662314,0.13151 0,0 z m 23.170602,13.2191 c 2.070443,-1.43609 -1.255075,-0.27496 -0.434599,0.27206 z m -0.792829,-0.36844 c 1.686641,-1.35892 -1.780688,0.60221 0,0 z m 4.050781,2.5937 c 1.132429,-0.72929 -1.375793,-0.2359 0,0 z M 54.368353,230.83915 c 1.517975,0.327 6.066201,3.59437 3.382936,0.22597 -1.374256,-0.39114 -0.550073,-3.62102 -1.951828,-3.04938 0.940855,1.51122 0.774089,2.15444 -1.201285,1.2017 -2.482738,-1.16525 -1.395226,0.57748 -0.910017,1.05777 -0.661219,0.14447 0.874613,0.55178 0.680194,0.56394 z m -6.91585,-5.25142 c 0.271758,-1.08069 -2.502272,-5.9454 -1.309937,-2.43756 0.430395,0.7348 0.386636,2.1274 1.309937,2.43756 z m 12.693556,7.52445 c -0.781656,-0.62851 -0.03715,-0.089 0,0 z m 1.924848,0.4307 c -9.97e-4,-1.14479 -2.12764,-0.46489 0,0 z m 16.680355,10.11045 c -0.31814,-0.78216 -1.257543,-0.018 2.9e-5,10e-6 z m 0.801009,0.56259 c -0.118262,-0.43777 -0.462137,0.0845 0,0 z m 6.611542,4.00408 c 0.635889,-0.45169 -0.793519,-0.0577 0,0 z M 50.907018,226.43569 c 1.818801,-0.67705 -1.948711,-0.48279 0,0 z m 26.375822,15.97695 c -0.02024,-1.1321 -1.159486,0.28087 0,0 z M 50.188413,224.82562 c 1.168312,-0.37943 -1.080784,-0.24993 0,0 z m 3.391071,1.57937 c -0.02119,-0.37209 -0.358708,0.14085 0,0 z m 41.360998,24.38633 c 1.502326,-0.29287 4.925838,0.7352 5.479178,-0.38299 -1.824405,-0.0427 -6.311998,-1.23759 -6.524315,0.28515 l 0.399371,0.0606 0.645766,0.0374 z M 54.657251,226.66614 c 0.02612,-1.1472 -0.930426,-0.0429 0,0 z m -8.915985,-5.94663 c -0.404907,-2.18572 -1.540022,-0.3308 0,0 z m 2.126141,0.51383 c 0.02612,-0.70183 -1.946064,-0.63151 0,0 z m 1.215023,0.57376 c -0.351221,-0.27354 -0.274911,0.34557 0,0 z m 7.645117,4.71547 c 0.359915,-0.31791 -0.85209,-0.23547 0,0 z m -8.454383,-6.00948 c -0.205501,-1.65085 -2.462538,-0.24734 0,0 z m -4.358922,-2.71937 c -0.062,-0.76191 -0.42478,0.28739 0,0 z m 0.648373,-0.47081 c -0.10577,-0.90342 -0.556674,0.11491 0,0 z m 3.582436,2.05604 c 1.51485,-0.57214 -2.759303,-1.18346 -0.309528,-0.10807 z m 47.945284,28.47445 c 0.969582,-0.8547 -1.232274,-0.26427 0,0 z m 5.792125,2.88676 c 0.38855,-1.10504 -0.97828,0.14549 0,0 z M 48.511167,217.57359 c 0.159581,-1.06896 -1.200963,0.21225 0,0 z m -5.096934,-3.28339 c -0.273808,-1.50916 -0.236355,-4.1582 2.382616,-3.26296 -3.495891,0.66733 2.419546,4.17768 1.672536,1.40614 1.469941,0.0692 2.875542,-0.83527 2.104136,0.53733 2.896214,-0.30756 4.904118,-2.72225 7.701669,-2.38389 2.179157,-0.27728 4.561769,-0.48755 6.910091,-1.33096 1.930765,-0.13378 3.789389,-2.13244 2.731083,-3.3171 -2.633009,-0.21421 -5.389206,0.10261 -8.299411,0.6587 -3.224871,0.6446 -6.15414,1.86926 -9.407961,2.39494 -3.171556,0.40964 0.637931,1.12863 -0.270531,1.28883 -1.654965,0.55209 1.973676,0.92441 -0.214552,1.50644 -1.35141,-0.24705 -2.758053,-0.6935 -2.180792,-2.06279 -3.038072,0.37904 -5.707667,1.59138 -3.307405,4.56395 l 0.178518,0.001 3e-6,-9e-5 z m 7.320651,-3.58479 c 0.71232,-2.52305 3.816245,2.07618 1.167531,0.33514 -0.316368,-0.22765 -0.836681,-0.41337 -1.167531,-0.33514 z m 0.138578,-1.22324 c 1.028082,-0.73641 0.546522,0.41286 0,0 z m 1.305424,0.02 c 0.0928,-1.16098 2.988342,0.61462 0.477441,0.41794 z m 1.7857,-0.69032 c 0.652114,-0.73262 0.187443,0.65164 0,0 z m 0.456821,-0.29413 c 1.085837,-1.25443 6.149201,-0.80059 2.442994,-0.12227 -0.993396,-0.71907 -1.75488,0.42401 -2.442994,0.12227 z m 6.607807,-0.97934 c -0.165176,-3.42657 3.282809,1.21768 0,0 z m 1.874927,-0.009 c 0.685478,-1.72702 2.6601,-0.69301 0.317208,-0.34704 0.05089,0.18378 -0.06871,0.89159 -0.317208,0.34704 z m -15.132318,9.15871 c 2.048134,-1.2059 -2.174326,-1.0462 0,0 z m 1.514382,0.40461 c 0.718091,-0.73415 -1.560318,-0.29778 0,0 z m -4.462076,-3.04482 c 1.170303,-0.86438 -1.384889,-0.32865 0,0 z m 60.477181,36.37739 c 0.0339,-1.00284 -0.8945,0.45192 0,0 z M 99.156063,246.393 c 0.174747,-1.15459 -0.789715,0.10069 0,0 z m 7.835097,4.421 c 1.63626,0.006 4.95774,-0.48858 1.39753,-0.48701 -0.55865,0.0839 -3.25528,0.0658 -1.39753,0.48701 z M 50.618289,216.38404 c 1.324235,-0.0874 2.071842,-1.40446 -0.256105,-1.32876 -3.607921,-0.35914 3.183209,1.18781 -0.462841,0.74549 -0.489915,0.31192 0.690486,0.6696 0.718946,0.58327 z m 1.166268,0.56758 c -0.138272,-0.81749 -0.4095,0.43427 0,0 z m 1.383435,-3.54692 c 0.574647,-0.6853 -0.795184,-0.1832 0,0 z m -4.404016,-7.07801 c 2.363357,-0.77306 5.595214,-1.6417 6.711114,0.38062 -1.135668,-1.31422 -0.458313,-2.60801 0.614327,-0.68651 1.516728,1.94415 2.276031,-0.88424 1.289531,-1.53634 1.124198,1.34302 2.402852,1.97766 0.752704,0.0849 1.793168,-2.07394 -3.590515,0.27155 -4.814189,0.24796 -0.588756,0.25407 -6.07843,1.34609 -4.553487,1.50937 z m 1.385062,-2.55049 c 1.347845,-0.97813 4.661565,0.58182 2.535169,-0.97208 -0.207897,-0.17656 -4.656815,1.17834 -2.535169,0.97208 z m 4.913833,0.19507 c 1.577464,0.0388 -0.680431,-2.03756 1.199319,-1.09675 -0.308719,-0.96971 -2.188555,-1.15123 -3.107589,-1.53865 -0.519806,0.88658 1.058052,2.6473 1.90827,2.6354 z m -4.052209,-4.28875 c 0.545725,-0.7113 -0.956421,0.36061 0,0 z m 2.008353,0.46219 c 2.542093,-0.32421 -0.647989,-1.0526 -0.512243,-0.0262 z m -3.750007,-2.82129 c -1.789915,-2.24658 3.366178,0.37764 1.547624,-1.97462 -1.530612,-1.17187 -3.001445,1.31879 -1.547624,1.97462 z m 22.970721,11.89618 c 0.820952,-1.39929 -3.389389,-1.88616 -0.553132,-0.49592 0.261135,0.0839 0.202034,0.59269 0.553132,0.49592 z"
			id="path2900"
		/>
	</g>
</svg>
