<?xml version="1.0" encoding="utf-8" ?>
<!-- Generator: Adobe Illustrator 19.2.1, SVG Export Plug-In . SVG Version: 6.00 Build 0)  -->
<svg
	version="1.1"
	id="layer"
	xmlns="http://www.w3.org/2000/svg"
	xmlns:xlink="http://www.w3.org/1999/xlink"
	x="0px"
	y="0px"
	viewBox="0 0 652 652"
	style="enable-background:new 0 0 652 652;"
	xml:space="preserve"
>
<style type="text/css">
.st0 {
	fill: #92c039;
}
.st1 {
	fill: #414042;
}
	</style>
<path
		class="st0"
		d="M441.4,382c-1-1-1.5-2.5-1.5-4V267c0-1.5,0.5-3,1.5-4c1-1,2.5-1.5,4-1.5h19.2c1.5,0,2.5,0.5,3.5,1.5
	c1.5,1,2,2.5,2,4.5v110.9c0,1.5-0.5,3-2,4.5c-1,1-2.5,1.5-3.5,1.5h-19.2C444,384,442.9,383.5,441.4,382z M440.4,240.3
	c-1-1-1.5-2.5-1.5-4v-17.1c0-1.5,0.5-3,1.5-4c1-1,2.5-2,4-2h21.7c1.5,0,3,0.5,4,1.5c1,1,1.5,2.5,1.5,4v17.1c0,1.5-0.5,3-1.5,4
	s-2.5,1.5-4,1.5h-21.7C442.9,241.8,441.4,241.3,440.4,240.3z"
	/>
<path
		class="st1"
		d="M28,438.4c-1-1-1.5-2.5-1.5-4.5v-14.1c0-1.5,0.5-3,1.5-4.5c1-1,2.5-2,4-2h6.1c6.6,0,11.1-2,13.1-5.5
	s3.5-9.1,3.5-16.1v-125c0-2,0.5-3.5,1.5-4.5c1-1,2.5-1.5,4-1.5H81c1.5,0,3,0.5,4,1.5c1,1,1.5,2.5,1.5,4.5V392
	c0,15.1-4,26.7-11.6,35.3c-7.6,8.6-18.7,12.6-33.8,12.6H32C30.5,439.9,29,439.4,28,438.4z M118.3,371.9
	c-8.1-9.6-12.1-22.2-12.1-38.8v-65.5c0-1.5,0.5-3,1.5-4c1-1,2.5-1.5,4-1.5h20.7c1.5,0,2.5,0.5,3.5,1.5c1.5,1,2,2.5,2,4.5v64.5
	c0,19.2,8.1,28.7,24.2,28.7c8.1,0,14.1-2.5,18.7-7.6c4.5-5,7.1-12.1,7.1-21.2v-65c0-1.5,0.5-3,1.5-4c1-1,2.5-1.5,4-1.5h20.7
	c1.5,0,3,0.5,4,1.5c1,1,1.5,2.5,1.5,4v110.9c0,1.5-0.5,3-1.5,4c-1,1-2.5,1.5-4,1.5h-18.2c-1.5,0-3-0.5-4-1.5c-1-1-1.5-2.5-1.5-4
	v-9.6c-8.6,11.6-21.2,17.6-38.3,17.6C137.9,386,126.3,381.5,118.3,371.9z M242.3,382c-1-1-1.5-2.5-1.5-4V267c0-1.5,0.5-3,1.5-4
	c1-1,2.5-1.5,4-1.5h18.2c1.5,0,3,0.5,4,1.5c1,1,1.5,2.5,1.5,4v8.1c8.1-10.6,19.2-15.6,33.3-15.6c17.1,0,28.7,7.1,35.8,20.7
	c3.5-6.1,9.1-11.1,15.6-15.1s14.1-5.5,21.7-5.5c12.6,0,22.7,4.5,30.8,13.1s12.1,21.2,12.1,37.8v66.6c0,1.5-0.5,3-1.5,4
	c-1,1-2.5,1.5-4,1.5h-18.7c0,0-3,0-4-1c-1-1-1.5-2.5-1.5-4v-65.5c-0.5-10.1-2.5-17.1-6.6-21.2c-4-4.5-9.6-6.6-16.1-6.6
	c-6.1,0-11.1,2-15.1,6.6c-4,4.5-6.6,11.6-6.6,21.2v65.5c0,1.5-0.5,3-1.5,4c-1,1-4,2-4,2h-19.7c-1.5,0-3-0.5-4-1.5
	c-1-1-1.5-2.5-1.5-4v-65.5c0-9.6-2-16.6-6.1-21.2c-4-4.5-9.6-6.6-16.1-6.6c-6.1,0-11.1,2-15.6,6.6c-4.5,4.5-6.6,11.6-6.6,21.2v65.5
	c0,1.5-0.5,3-1.5,4c-1,1-2.5,1.5-4,1.5h-19.7C244.8,384,243.3,383.5,242.3,382z M502.9,371.9c-9.6-9.6-15.1-22.2-16.1-38.8V323
	v-10.1c1-16.6,6.1-29.2,16.1-38.8c10.1-9.6,23.7-14.1,41.8-14.1c17.6,0,31.3,4.5,41.3,14.1c10.1,9.6,15.1,22.2,16.1,38.8
	c0,2,0,5.5,0,10.1c0,5,0,8.6,0,10.1c-1,16.6-6.1,29.7-16.1,38.8c-9.6,9.6-23.7,14.1-41.8,14.1C526.6,385.5,512.5,381,502.9,371.9z
	 M563.4,354.2c4.5-5,6.6-12.6,7.1-22.7c0-1.5,0-4.5,0-9.1c0-4.5,0-7.6,0-9.1c-0.5-10.1-2.5-17.6-7.1-22.7s-10.6-8.1-18.7-8.1
	s-14.6,2.5-18.7,8.1c-4.5,5-7.1,13.1-7.1,22.7v9.1v9.1c0.5,10.1,2.5,17.6,7.1,22.7c4.5,5,10.6,7.6,18.7,7.6S559.4,359.3,563.4,354.2
	z M59.3,241.8c-1.5,0-2.5-0.5-3.5-1.5c-1.5-1-2.5-2.5-2.5-4v-17.1c0-1.5,0.5-3,1.5-4s2.5-2,4.5-2H81c1.5,0,3,0.5,4,1.5
	c1,1,1.5,2.5,1.5,4v17.1c0,1.5-0.5,3-1.5,4c-1,1-3,2-4.5,2H59.3z M615.9,361.3c6.1,0,11.1,5,10.6,11.6c0,6.1-5.5,11.1-11.6,10.6
	c-5.5-0.5-10.1-5-10.1-11.1C604.8,366.3,609.3,361.3,615.9,361.3L615.9,361.3z M615.4,363.8c-4,0-7.1,2.5-8.1,6.6
	c-1.5,6.6,2.5,11.6,8.6,11.6c4.5,0,8.6-4,8.6-9.1C624.5,367.8,620.4,363.8,615.4,363.8L615.4,363.8z M613.9,378.9h-2.5v-11.6
	c1.5,0,2.5-0.5,4-0.5c2,0,3,0.5,3.5,1c0.5,0.5,1,1.5,1,2.5c0,1.5-1.5,2.5-1.5,2.5l0,0c0,0,1,1.5,1,3c0.5,1.5,0.5,2.5,1,3h-2
	c-0.5-0.5-0.5-1.5-1-3s-1-2-2.5-2h-1V378.9L613.9,378.9z M613.9,372.4h1.5c1.5,0,3-0.5,3-2c0-1-0.5-2-2.5-2c-1,0-1.5,0-1.5,0
	L613.9,372.4L613.9,372.4z"
	/>
</svg>
