<svg
	xmlns="http://www.w3.org/2000/svg"
	xml:space="preserve"
	id="Layer_1"
	x="0"
	y="0"
	style="enable-background:new 0 0 600.2 600.2"
	version="1.1"
	viewBox="0 0 600.2 600.2"
><style>.st0,.st1{fill:#353ff4}.st1{opacity:.5}</style><circle
		cx="300"
		cy="300.1"
		r="53.2"
		class="st0"
		transform="rotate(-80.224 299.974 300.094)"
	/><path
		d="M230.8 404.5c-3.1 1.8-6 3.8-8.9 5.8-2 1.4-2.3 4.2-.6 6 7.9 8.4 16.4 16.6 25.5 24.4 9.4 8 22.1 11.2 34.2 8.5 12.9-2.9 25.3-6.4 37.2-10.7 17.7-6.3 34.7-14.4 50.6-23.9 2.9-1.7 5.8-3.6 8.6-5.4 1.6-1.1 1.6-3.5-.1-4.5-43.6-26.3-99.9-28.2-146.5-.2z"
		class="st0"
	/><circle
		cx="300"
		cy="300.1"
		r="53.2"
		class="st0"
		transform="rotate(-80.224 299.974 300.094)"
	/><path
		d="M369.1 195.7c3.1-1.8 6-3.8 8.9-5.8 2-1.4 2.3-4.2.6-6-7.9-8.4-16.4-16.6-25.5-24.4-9.4-8-22.1-11.2-34.2-8.5-12.9 2.9-25.3 6.4-37.2 10.7-17.7 6.3-34.7 14.4-50.6 23.9-2.9 1.7-5.8 3.6-8.6 5.4-1.6 1.1-1.6 3.5.1 4.5 43.6 26.3 99.9 28.2 146.5.2zM195.6 230.9c-1.8-3.1-3.8-6-5.8-8.9-1.4-2-4.2-2.3-6-.6-8.4 7.9-16.6 16.4-24.4 25.5-8 9.4-11.2 22.1-8.5 34.2 2.9 12.9 6.4 25.3 10.7 37.2 6.3 17.7 14.4 34.7 23.9 50.6 1.7 2.9 3.6 5.8 5.4 8.6 1.1 1.6 3.5 1.6 4.5-.1 26.3-43.5 28.2-99.8.2-146.5zM404.3 369.3c1.8 3.1 3.8 6 5.8 8.9 1.4 2 4.2 2.3 6 .6 8.4-7.9 16.6-16.4 24.4-25.5 8-9.4 11.2-22.1 8.5-34.2-2.9-12.9-6.4-25.3-10.7-37.2-6.3-17.7-14.4-34.7-23.9-50.6-1.7-2.9-3.6-5.8-5.4-8.6-1.1-1.6-3.5-1.6-4.5.1-26.3 43.5-28.2 99.8-.2 146.5zM230.8 404.5c-3.1 1.8-6 3.8-8.9 5.8-2 1.4-2.3 4.2-.6 6 7.9 8.4 16.4 16.6 25.5 24.4 9.4 8 22.1 11.2 34.2 8.5 12.9-2.9 25.3-6.4 37.2-10.7 17.7-6.3 34.7-14.4 50.6-23.9 2.9-1.7 5.8-3.6 8.6-5.4 1.6-1.1 1.6-3.5-.1-4.5-43.6-26.3-99.9-28.2-146.5-.2z"
		class="st1"
	/></svg>
