<svg xmlns="http://www.w3.org/2000/svg" fill="none" viewBox="0 0 200 200"><g
		clip-path="url(#a)"
	><path fill="#0045FF" d="M0 0h200v200H0z" /><path
			fill="#fff"
			d="M42.375 94.688c-2.406 0-3.953.874-4.938 2.124L37.36 95H33.5v21.25h4v-7.828c1 1.14 2.672 1.89 4.875 1.89 4.25 0 7.266-3.218 7.266-7.75 0-4.562-3.016-7.874-7.266-7.874Zm-4.89 7.859c0-2.391 1.703-4.266 4.078-4.266 2.39 0 4.062 1.844 4.062 4.266 0 2.375-1.688 4.172-4.063 4.172-2.359 0-4.078-1.797-4.078-4.172Zm21.562 7.765c2.328 0 3.906-.874 4.89-2.124l.079 1.812h3.921V95h-3.921l-.079 1.813c-.984-1.235-2.562-2.126-4.89-2.126-4.125 0-7.234 3.235-7.234 7.782 0 4.547 3.109 7.843 7.234 7.843Zm4.875-7.843c0 2.406-1.703 4.281-4.094 4.281-2.406 0-4.031-1.875-4.031-4.281 0-2.391 1.625-4.203 4.031-4.203 2.39 0 4.094 1.812 4.094 4.203Zm13.297-1.625c-1.797-.328-2.453-.703-2.453-1.438 0-.89.953-1.36 2.921-1.36 1.438 0 3.438.376 4.532.845l.344-3.266c-1.344-.594-3.204-.938-5.079-.938-3.984 0-6.578 1.922-6.578 4.72 0 2.484 1.406 3.952 4.297 4.452l1.797.344c1.75.313 2.39.703 2.39 1.5 0 .891-.828 1.297-2.78 1.297-1.532 0-3.563-.422-5.047-1.047l-.422 3.281c1.359.672 3.53 1.078 5.78 1.078 3.845 0 6.345-1.671 6.345-4.687 0-2.594-1.485-3.937-4.454-4.484l-1.593-.297Zm14.406 0c-1.797-.328-2.453-.703-2.453-1.438 0-.89.953-1.36 2.922-1.36 1.437 0 3.437.376 4.531.845l.344-3.266c-1.344-.594-3.203-.938-5.078-.938-3.985 0-6.579 1.922-6.579 4.72 0 2.484 1.407 3.952 4.297 4.452l1.797.344c1.75.313 2.39.703 2.39 1.5 0 .891-.827 1.297-2.78 1.297-1.532 0-3.563-.422-5.047-1.047l-.422 3.281c1.36.672 3.531 1.078 5.781 1.078 3.844 0 6.344-1.671 6.344-4.687 0-2.594-1.484-3.937-4.453-4.484l-1.594-.297Zm17.781 9.468c4.25 0 7.266-3.296 7.266-7.828 0-4.562-3.016-7.796-7.266-7.796-2.406 0-3.953.874-4.937 2.124v-8.828h-3.938V110h3.922l.078-1.594c.969 1.141 2.672 1.906 4.875 1.906Zm-4.89-7.843c0-2.391 1.718-4.188 4.078-4.188 2.39 0 4.062 1.766 4.062 4.188 0 2.375-1.687 4.25-4.062 4.25s-4.078-1.875-4.078-4.25Zm21.562 7.843c2.328 0 3.906-.874 4.891-2.124l.078 1.812h3.922V95h-3.922l-.078 1.813c-.985-1.235-2.563-2.126-4.891-2.126-4.125 0-7.234 3.235-7.234 7.782 0 4.547 3.109 7.843 7.234 7.843Zm4.875-7.843c0 2.406-1.703 4.281-4.094 4.281-2.406 0-4.031-1.875-4.031-4.281 0-2.391 1.625-4.203 4.031-4.203 2.391 0 4.094 1.812 4.094 4.203Zm13.297-1.625c-1.797-.328-2.453-.703-2.453-1.438 0-.89.953-1.36 2.922-1.36 1.437 0 3.437.376 4.531.845l.344-3.266c-1.344-.594-3.203-.938-5.078-.938-3.985 0-6.578 1.922-6.578 4.72 0 2.484 1.406 3.952 4.296 4.452l1.797.344c1.75.313 2.391.703 2.391 1.5 0 .891-.828 1.297-2.781 1.297-1.532 0-3.563-.422-5.047-1.047l-.422 3.281c1.359.672 3.531 1.078 5.781 1.078 3.844 0 6.344-1.671 6.344-4.687 0-2.594-1.485-3.937-4.453-4.484l-1.594-.297Zm21.891 4.812a11.893 11.893 0 0 1-5.079 1.141c-2.468 0-4.343-1-4.75-3.094h10.844c.985-5.547-2.515-9.016-7.125-9.016-4.453 0-7.703 3.22-7.703 7.813 0 4.672 3.406 7.812 8.719 7.812 2.187 0 4.203-.578 5.656-1.406l-.562-3.25Zm-9.766-4.64c.172-1.704 1.609-2.954 3.75-2.954 2.063 0 3.328 1.282 3.437 2.954h-7.187Z"
		/></g><defs><clipPath id="a"><path
				fill="#fff"
				d="M0 0h200v200H0z"
			/></clipPath></defs></svg>
