<svg
	width="137"
	height="35"
	viewBox="0 0 137 35"
	fill="none"
	xmlns="http://www.w3.org/2000/svg"
>
<g clip-path="url(#clip0_1688_26440)">
<path
			d="M135.344 31.7657H134.978V32.2797H135.344C135.506 32.2797 135.618 32.1828 135.618 32.0227C135.618 31.8626 135.506 31.7657 135.344 31.7657ZM135.631 33.1855L135.29 32.4903H134.982V33.1855H134.737V31.5382H135.365C135.672 31.5382 135.868 31.7404 135.868 32.0185C135.868 32.2544 135.727 32.4061 135.544 32.4566L135.918 33.1855H135.631ZM135.248 31.0242C134.512 31.0242 133.913 31.6309 133.913 32.3766C133.913 33.1223 134.512 33.729 135.248 33.729C135.984 33.729 136.583 33.1223 136.583 32.3766C136.583 31.6309 135.984 31.0242 135.248 31.0242ZM135.248 33.9354C134.4 33.9354 133.705 33.2361 133.705 32.3724C133.705 31.5087 134.396 30.8093 135.248 30.8093C136.101 30.8093 136.791 31.5087 136.791 32.3724C136.791 33.2361 136.101 33.9354 135.248 33.9354ZM7.6434 33.9354H19.1293V32.7684C17.1207 32.2502 16.185 31.0831 16.185 28.3151V4.18649H18.7883C22.1193 4.18649 24.211 5.74535 25.3214 8.68612H26.7311V1.5912H0V8.68612H1.45133C2.56166 5.74535 4.65341 4.18649 7.9844 4.18649H10.5876V28.3109C10.5876 31.0789 9.60623 32.246 7.6434 32.7642V33.9312V33.9354ZM24.0738 33.9354H33.127V32.7684C31.634 32.2923 30.8647 31.3823 30.8647 28.6606V16.2908C32.1455 15.0817 32.6155 14.732 32.998 14.5592C33.3806 16.2908 34.491 17.5885 36.1585 17.5885C37.9093 17.5885 39.2733 16.1181 39.2733 14.2559C39.2733 12.3937 37.9924 11.0118 36.1128 11.0118C34.832 11.0118 33.4638 11.7027 30.8605 13.9525V10.8812L24.0738 13.2152V14.3823C25.2257 14.8162 25.9077 15.7684 25.9077 18.8356V28.6564C25.9077 31.3823 25.3546 32.246 24.0738 32.7642V33.9312V33.9354ZM40.8452 14.3823C42.126 14.9005 42.6791 15.7684 42.6791 18.3637V27.5778C42.6791 32.0311 44.7293 34.3694 48.6549 34.3694C51.4744 34.3694 53.6909 33.2024 55.9574 30.8641V34.4958L62.8314 32.7221V31.555C61.5506 31.0368 60.9102 30.1689 60.9102 27.4893V10.8812L54.1234 13.2152V14.3823C55.4458 14.9005 56.0031 15.7684 56.0031 18.3637L55.9615 28.3994C54.0819 30.3037 52.5016 31.2095 50.6677 31.2095C48.7049 31.2095 47.5945 30.2152 47.5945 27.2281V10.8812L40.8494 13.2152V14.3823H40.8452ZM65.3473 33.9354H73.9722V32.7684C72.8202 32.2502 72.0925 31.3823 72.0925 28.6606V0.5L65.3473 2.88042V4.00533C66.4993 4.52354 67.1813 5.39145 67.1813 8.11314V28.6606C67.1813 31.3865 66.4993 32.2502 65.3473 32.7684V33.9354ZM76.8249 33.9354H85.4497V32.7684C84.2978 32.2502 83.6158 31.3823 83.6158 28.6606V10.7969L76.8291 13.1773V14.3022C77.981 14.8204 78.7087 15.6884 78.7087 18.41V28.6606C78.7087 31.3865 77.981 32.2502 76.8291 32.7684V33.9354H76.8249ZM77.378 4.78055C77.378 6.72701 78.9583 8.28587 80.8379 8.28587C82.7176 8.28587 84.2978 6.72701 84.2978 4.78055C84.2978 2.83408 82.7592 1.27522 80.8379 1.27522C78.9167 1.27522 77.378 2.83408 77.378 4.78055ZM98.9317 11.2266C91.9745 11.2266 87.6163 15.899 87.6163 22.9476C87.6163 29.9962 91.8414 34.3652 98.5034 34.3652C105.165 34.3652 109.819 29.6507 109.819 22.5558C109.819 15.4608 105.594 11.2224 98.9317 11.2224V11.2266ZM98.8901 32.7263C95.476 32.7263 93.2553 28.7912 93.2553 22.2566C93.2553 16.4594 95.135 12.8698 98.4202 12.8698C101.88 12.8698 104.184 16.8512 104.184 23.2088C104.184 29.2209 102.134 32.7263 98.8901 32.7263ZM123.317 11.2266C116.36 11.2266 112.002 15.899 112.002 22.9476C112.002 29.8234 116.227 34.3652 122.848 34.3652C129.468 34.3652 134.204 29.6507 134.204 22.5558C134.204 15.4608 129.892 11.2224 123.317 11.2224V11.2266ZM123.276 32.7263C119.862 32.7263 117.599 28.7912 117.599 22.2566C117.599 16.4594 119.521 12.8698 122.764 12.8698C126.224 12.8698 128.528 16.8512 128.528 23.2088C128.528 29.2209 126.52 32.7263 123.276 32.7263Z"
			fill="#172D2D"
		/>
</g>
<defs>
<clipPath id="clip0_1688_26440">
<rect width="137" height="34" fill="white" transform="translate(0 0.5)" />
</clipPath>
</defs>
</svg>
