<svg
	fill="currentColor"
	width="800px"
	height="800px"
	viewBox="0 0 32 32"
	version="1.1"
	xmlns="http://www.w3.org/2000/svg"
>
	<title>flask</title>
	<path
		d="M0 26.016q0 2.464 1.76 4.224t4.256 1.76h20q2.464 0 4.224-1.76t1.76-4.256-1.76-4.224l-8.224-8.224v-9.536q0.8 0 1.408-0.576t0.576-1.408-0.576-1.408-1.408-0.608h-12q-0.832 0-1.44 0.608t-0.576 1.408 0.576 1.408 1.44 0.576v9.536l-8.256 8.224q-1.76 1.76-1.76 4.256zM4 26.016q0.032-0.864 0.608-1.44l9.408-9.408v-11.168h4v11.168l9.408 9.408q0.576 0.608 0.576 1.44t-0.576 1.408q-0.608 0.576-1.408 0.576h-20q-0.832 0-1.44-0.576-0.576-0.576-0.576-1.408zM6.016 26.016l4-4h12l4 4h-20z"
	/>
</svg>
