<svg
	width="100mm"
	height="100mm"
	viewBox="0 0 100 100"
	version="1.1"
	id="svg5"
	inkscape:version="1.1.2 (0a00cf5339, 2022-02-04)"
	sodipodi:docname="drawing.svg"
	xmlns:inkscape="http://www.inkscape.org/namespaces/inkscape"
	xmlns:sodipodi="http://sodipodi.sourceforge.net/DTD/sodipodi-0.dtd"
	xmlns="http://www.w3.org/2000/svg"
>
	<sodipodi:namedview
		id="namedview7"
		pagecolor="#ffffff"
		bordercolor="#666666"
		borderopacity="1.0"
		inkscape:pageshadow="2"
		inkscape:pageopacity="0.0"
		inkscape:pagecheckerboard="0"
		inkscape:document-units="mm"
		showgrid="false"
		height="100mm"
		inkscape:zoom="0.77771465"
		inkscape:cx="396.67505"
		inkscape:cy="561.25984"
		inkscape:window-width="2560"
		inkscape:window-height="1377"
		inkscape:window-x="0"
		inkscape:window-y="0"
		inkscape:window-maximized="1"
		inkscape:current-layer="layer1"
	/>
	<defs id="defs2">
		<g id="g9" />
		<clipPath id="9adacb1998">
			<path
				d="M 132.03125,137 H 233 v 50 H 132.03125 Z m 0,0"
				clip-rule="nonzero"
				id="path11"
			/>
		</clipPath>
		<clipPath id="e4da0b41a8">
			<path
				d="m 172,128.39453 h 71.03125 v 70.5 H 172 Z m 0,0"
				clip-rule="nonzero"
				id="path14"
			/>
		</clipPath>
	</defs>
	<g inkscape:label="Layer 1" inkscape:groupmode="layer" id="layer1">
		<g id="g49" transform="matrix(1.3547039,0,0,1.3547039,-231.47773,-172.20492)">
			<g clip-path="url(#9adacb1998)" id="g21">
				<path
					fill="currentColor"
					d="m 174.58594,180.75781 c 4.48437,-2.05078 8.3789,-4.3125 11.57031,-6.40625 6.09766,-4 13.89844,-11.44531 14.32422,-12.03906 l -2.85547,-1.91406 -2.47656,-1.65625 7.83593,-0.3086 2.51954,-0.0977 0.68359,-2.42969 2.12891,-7.56641 2.71484,7.375 0.87109,2.3711 2.51563,-0.10157 7.83594,-0.30468 -6.16016,4.86328 -1.97656,1.5625 0.87109,2.36719 2.71094,7.375 -6.51953,-4.36719 -2.09375,-1.40235 -1.97657,1.5625 -6.16015,4.86329 1.05859,-3.75782 1.07031,-3.80468 0.13282,-0.47266 c -7.4961,5.625 -17.98438,11.04687 -24.25782,13.04687 -1.4375,0.46094 -2.89453,0.875 -4.36718,1.24219 z m -14.7461,5.75781 c 11.11328,-0.43359 24.35547,-3.26562 37.38282,-11.57812 l -2.51172,8.91797 14.54297,-11.48438 15.39062,10.3086 -6.40234,-17.40625 14.53906,-11.48438 -18.5,0.72266 -6.40234,-17.40625 -5.03125,17.85547 -18.5,0.72656 10.71093,7.17187 c -7.04687,6.42579 -24.73047,20.12891 -48.15625,21.04688 -4.73437,0.1875 -9.70703,-0.15234 -14.87109,-1.17578 0,0 11.66016,4.41797 27.80859,3.78515"
					fill-opacity="1"
					fill-rule="nonzero"
					id="path19"
				/>
			</g>
			<g clip-path="url(#e4da0b41a8)" id="g25">
				<path
					fill="currentColor"
					d="m 207.92187,128.46094 c -19.39062,0 -35.10937,15.7539 -35.10937,35.18359 0,3.67969 0.56641,7.22656 1.61328,10.5625 1.52344,-0.76172 2.98438,-1.55078 4.37109,-2.35156 -0.73046,-2.61328 -1.12109,-5.36719 -1.12109,-8.21094 0,-16.74219 13.54297,-30.3125 30.24609,-30.3125 16.70704,0 30.2461,13.57031 30.2461,30.3125 0,16.74219 -13.53906,30.31641 -30.2461,30.31641 -9.05859,0 -17.1875,-3.9961 -22.73046,-10.32032 -1.61329,0.62891 -3.2461,1.20313 -4.89844,1.71875 6.42969,8.20313 16.41406,13.47266 27.6289,13.47266 19.39063,0 35.10938,-15.75391 35.10938,-35.1875 0,-19.42969 -15.71875,-35.18359 -35.10938,-35.18359"
					fill-opacity="1"
					fill-rule="nonzero"
					id="path23"
				/>
			</g>
		</g>
	</g>
</svg>
