<svg
	xmlns="http://www.w3.org/2000/svg"
	data-name="Layer 1"
	viewBox="0 0 99.5 99.5"
><path
		d="M86.07 54.84a3.3 3.3 0 1 1-6.6 0V25.29a3.3 3.3 0 1 1 6.6 0Zm-1.19 20.49c-.49.49-12.7 10.64-35 10.64S15.44 75.82 15 75.33a3.28 3.28 0 0 1 4.23-5c.2.19 11.14 9.16 30.74 9.16s30.63-9 30.73-9.07a3.29 3.29 0 1 1 4.23 5Zm-71.11-50a3.3 3.3 0 0 1 6.6 0v29.51a3.3 3.3 0 0 1-6.6 0Zm16.45-6.6a3.3 3.3 0 1 1 6.6 0v43.89a3.3 3.3 0 0 1-6.6 0ZM46.67 17a3.25 3.25 0 1 1 6.5 0v47.69a3.3 3.3 0 0 1-6.6 0V17Zm16.45 1.67a3.3 3.3 0 1 1 6.6 0v43.95a3.3 3.3 0 0 1-6.6 0Zm23.73-18H13A12.31 12.31 0 0 0 .67 13v73.85A12.32 12.32 0 0 0 13 99.17h73.85a12.33 12.33 0 0 0 12.32-12.32V13A12.32 12.32 0 0 0 86.85.67Z"
		style="stroke:#000;stroke-miterlimit:10"
		transform="translate(-.17 -.17)"
	/></svg>
