<svg
	xmlns="http://www.w3.org/2000/svg"
	xml:space="preserve"
	style="enable-background:new 0 0 1024 1024"
	viewBox="0 0 1024 1024"
><path d="M0 0h1024v1024H0z" style="fill:#089949" /><path
		d="M132.4 1024c-5.8 0-11.6-1.7-16.7-5-9.8-6.5-14.8-18.2-13-29.8l85.7-527.3c4.6-28.1 19-53.7 40.7-72.2s49.3-28.6 77.8-28.6h353.3l19.7-121H647c-14.7 0-28.6-6.4-38.1-17.6-9.5-11.2-13.6-25.9-11.3-40.4L620.4 42c3.9-24.3 24.7-42 49.4-42h131.9c35.2 0 68.6 15.4 91.4 42.2s32.7 62.2 27 97l-53 326.2c-2.3 14.3-10.7 26.9-23 34.5L548.3 683.2c-17.9 11.1-41 9.7-57.5-3.4L352.9 569.9c-13-10.3-15.1-29.2-4.8-42.2 10.3-13 29.2-15.1 42.2-4.8l132.3 105.5 285.9-177.1 52.3-321.7c2.8-17.4-2.1-35.1-13.5-48.5A59.97 59.97 0 0 0 801.6 60H678.2l-19.5 120.1h33c14.7 0 28.6 6.4 38.1 17.6s13.6 25.9 11.2 40.4l-23 141c-4 24.3-24.7 42-49.3 42H306.9c-29.6 0-54.5 21.2-59.2 50.4l-75.1 462.3L278 868.5c7.9-4.9 17-7.5 26.3-7.5H691c29.6 0 54.5-21.2 59.2-50.4l24.1-148c2.7-16.3 18.1-27.5 34.4-24.8 16.3 2.7 27.5 18.1 24.8 34.4l-24.1 148c-4.6 28.1-19 53.7-40.7 72.2-21.7 18.4-49.4 28.6-77.8 28.6H307.1l-158.9 98.5c-4.9 3-10.4 4.5-15.8 4.5z"
		style="fill:#fff"
	/></svg>
