<svg
	version="1.0"
	xmlns="http://www.w3.org/2000/svg"
	width="2521.000000pt"
	height="2911.000000pt"
	viewBox="0 0 2521.000000 2911.000000"
	preserveAspectRatio="xMidYMid meet"
>

<g
		transform="translate(0.000000,2911.000000) scale(0.100000,-0.100000)"
		fill="#000000"
		stroke="none"
	>
<path
			d="M6303 25472 l-6302 -3637 0 -7280 0 -7280 6116 -3530 c3363 -1941
6200 -3578 6302 -3638 l187 -107 2135 1232 c1174 678 4010 2315 6302 3638
l4166 2405 0 7280 0 7280 -6296 3635 c-3463 1999 -6299 3636 -6302 3637 -3 2
-2842 -1634 -6308 -3635z m8997 886 c1471 -849 3523 -2034 4560 -2632 l1885
-1088 -37 -112 c-50 -151 -68 -261 -68 -426 0 -163 18 -275 66 -419 19 -57 33
-108 32 -112 -2 -4 -457 -298 -1013 -652 l-1010 -644 -90 84 c-193 182 -434
304 -685 348 -123 22 -345 22 -465 0 -563 -101 -997 -549 -1081 -1116 -31
-211 -5 -463 68 -653 18 -45 26 -81 21 -85 -5 -3 -555 -354 -1222 -779 l-1212
-774 -87 84 c-357 344 -889 454 -1360 282 -53 -20 -104 -38 -113 -41 -12 -3
-85 94 -289 389 -756 1087 -1113 1604 -1116 1613 -2 5 26 44 63 85 221 251
336 553 336 885 0 638 -437 1173 -1066 1306 -147 32 -380 32 -527 0 -478 -102
-851 -436 -1001 -894 -46 -140 -63 -253 -62 -417 0 -168 21 -288 79 -451 20
-55 34 -101 33 -103 -2 -1 -605 -398 -1339 -881 -734 -482 -1341 -883 -1349
-890 -11 -11 -8 -23 23 -73 40 -66 85 -168 112 -255 10 -32 23 -56 28 -53 6 2
627 410 1381 906 884 582 1374 899 1381 894 6 -5 47 -40 90 -78 199 -174 419
-279 673 -321 80 -14 138 -16 265 -12 180 6 298 29 449 90 l84 34 406 -586
c223 -322 522 -752 663 -956 141 -203 272 -393 291 -422 l35 -52 -73 -85
c-142 -164 -235 -341 -292 -556 -30 -110 -31 -124 -31 -320 -1 -221 12 -302
71 -460 280 -743 1130 -1081 1836 -729 377 187 621 509 714 940 13 62 18 127
18 249 -1 182 -14 267 -67 418 -16 48 -30 93 -31 101 -1 8 496 331 1218 791
l1219 778 76 -70 c186 -172 414 -290 665 -344 111 -24 378 -24 497 -1 329 65
615 243 814 506 91 121 186 316 226 466 31 116 32 126 32 330 1 199 -1 216
-27 318 -16 60 -38 130 -49 155 l-20 47 24 17 c13 10 471 303 1018 653 l995
634 55 -53 c293 -284 679 -425 1055 -387 369 37 684 202 917 480 l45 54 87
-48 86 -49 0 -6692 0 -6693 -27 -19 c-16 -10 -251 -147 -523 -304 -711 -410
-5160 -2978 -8334 -4810 -2320 -1340 -2722 -1569 -2740 -1560 -11 5 -1204 693
-2651 1529 -1446 836 -3856 2228 -5355 3093 -1499 865 -2914 1682 -3145 1816
l-420 242 0 6704 0 6703 720 415 c1537 887 5484 3166 8110 4682 1513 873 2757
1586 2765 1584 8 -1 1219 -698 2690 -1548z"
		/>
<path
			d="M3687 15922 l-1327 -874 29 -34 c45 -50 106 -143 152 -231 23 -43 45
-77 49 -76 9 2 2682 1762 2694 1773 5 5 -30 47 -80 97 -49 48 -109 115 -134
148 -24 33 -46 63 -49 66 -4 3 -603 -387 -1334 -869z"
		/>
<path
			d="M13207 12864 c-4 -4 -7 -934 -7 -2066 l0 -2058 245 0 245 0 -2 2063
-3 2062 -236 3 c-129 1 -238 -1 -242 -4z"
		/>
<path
			d="M19560 12569 c-96 -12 -245 -48 -331 -80 -155 -56 -347 -167 -448
-256 l-43 -38 72 -170 c39 -93 73 -172 76 -177 3 -4 33 14 67 41 262 203 534
292 799 262 302 -34 489 -188 570 -466 20 -71 23 -101 23 -265 0 -170 -2 -193
-27 -282 -68 -244 -196 -473 -426 -760 -193 -241 -392 -456 -964 -1042 l-278
-283 0 -155 0 -155 1132 -6 c622 -3 1135 -4 1140 -1 4 3 8 99 8 215 l0 209
-807 0 -806 0 309 313 c583 589 854 926 1028 1278 79 158 124 286 158 443 17
82 21 135 22 281 0 160 -3 192 -26 290 -49 206 -129 361 -252 493 -163 172
-355 270 -606 308 -102 15 -284 17 -390 3z"
		/>
<path
			d="M17498 12292 l-228 -65 0 -339 0 -338 -205 0 -205 0 0 -195 0 -195
205 0 205 0 0 -816 c0 -514 4 -860 11 -937 36 -393 180 -609 469 -699 68 -21
93 -23 260 -22 157 0 199 3 276 23 51 12 98 28 107 34 13 10 13 37 4 197 -5
102 -10 186 -12 187 -1 2 -33 -4 -71 -12 -91 -19 -266 -19 -331 0 -67 20 -144
89 -176 158 -61 130 -60 113 -64 1040 l-4 847 350 0 351 0 0 195 0 195 -350 0
-350 0 0 405 c0 223 -3 404 -7 404 -5 -1 -110 -31 -235 -67z"
		/>
<path
			d="M5415 11609 c-257 -23 -483 -133 -680 -333 -249 -251 -383 -575 -417
-1008 -30 -382 60 -759 249 -1040 171 -254 433 -424 723 -469 110 -17 316 -7
420 20 105 28 232 86 313 145 77 55 182 163 233 240 35 53 39 57 43 35 9 -65
-8 -529 -23 -599 -91 -430 -346 -653 -776 -676 -256 -15 -567 59 -773 181 -33
20 -61 34 -62 33 -2 -2 -30 -89 -63 -195 l-59 -192 21 -14 c53 -35 189 -97
276 -125 410 -135 916 -118 1256 42 115 55 196 110 285 193 201 190 304 424
365 834 14 88 17 304 24 1389 5 707 12 1329 16 1383 l7 97 -210 0 -211 0 -6
-105 c-3 -58 -9 -152 -12 -210 -4 -58 -10 -105 -15 -105 -5 0 -9 4 -9 9 0 5
-22 42 -48 82 -145 222 -390 366 -652 385 -41 3 -86 6 -100 8 -14 1 -65 -1
-115 -5z m340 -414 c91 -23 213 -88 282 -150 114 -103 217 -287 243 -435 7
-43 10 -197 8 -460 -4 -445 -5 -447 -82 -605 -133 -269 -377 -417 -665 -402
-196 10 -349 81 -481 224 -172 186 -254 440 -254 788 0 268 38 447 135 635
107 210 280 357 474 404 81 19 265 20 340 1z"
		/>
<path
			d="M8310 11608 c-488 -37 -897 -423 -1044 -984 -63 -242 -78 -575 -37
-808 54 -305 184 -570 371 -757 100 -100 178 -155 304 -215 155 -73 232 -88
436 -88 212 0 287 16 455 99 153 76 286 195 363 325 25 42 27 43 31 20 2 -14
1 -140 -2 -280 -4 -228 -8 -266 -31 -363 -45 -192 -145 -366 -264 -462 -77
-62 -198 -119 -307 -147 -128 -31 -393 -31 -542 0 -137 30 -257 73 -382 138
-57 30 -105 53 -106 51 -1 -1 -27 -87 -59 -192 l-58 -189 23 -19 c41 -33 157
-87 262 -122 339 -113 754 -124 1082 -30 111 32 277 110 359 169 93 66 234
220 286 311 88 155 144 328 182 562 19 122 21 185 29 1403 5 701 12 1330 16
1398 l8 122 -211 0 -211 0 -7 -132 c-10 -197 -18 -288 -25 -288 -4 0 -16 19
-28 43 -11 23 -48 77 -80 118 -185 232 -470 344 -813 317z m390 -427 c219 -76
402 -285 466 -533 25 -94 32 -710 10 -855 -36 -239 -169 -447 -359 -561 -246
-148 -599 -112 -815 83 -220 200 -333 558 -302 961 37 491 257 821 610 919 85
23 305 15 390 -14z"
		/>
<path
			d="M11511 11609 c-175 -19 -361 -87 -495 -183 -81 -58 -209 -193 -271
-286 l-50 -75 -7 75 c-3 41 -10 150 -13 243 l-7 167 -219 0 -219 0 5 -37 c15
-110 25 -1046 25 -2405 l0 -1528 235 0 235 0 0 765 c0 425 4 765 9 765 4 0 21
-19 36 -42 183 -277 549 -434 910 -389 666 82 1085 662 1085 1502 0 795 -410
1364 -1029 1430 -98 10 -114 10 -230 -2z m121 -413 c326 -63 558 -345 633
-771 22 -120 25 -388 6 -514 -61 -416 -253 -698 -542 -796 -353 -120 -725 30
-898 364 -90 173 -105 287 -99 703 5 268 7 288 32 383 50 183 143 347 256 449
179 160 392 224 612 182z"
		/>
<path
			d="M15315 11609 c-449 -45 -819 -301 -1013 -701 -96 -198 -144 -384
-164 -640 -25 -320 35 -665 159 -913 105 -210 283 -403 475 -516 394 -232 932
-219 1334 33 104 64 253 202 332 307 241 320 344 838 262 1315 -111 646 -529
1059 -1128 1116 -118 11 -140 11 -257 -1z m343 -412 c294 -103 491 -390 557
-812 23 -146 16 -427 -14 -560 -90 -402 -312 -672 -616 -750 -77 -20 -243 -20
-320 0 -332 86 -571 410 -630 851 -58 433 63 875 302 1106 148 144 301 200
523 194 103 -2 138 -8 198 -29z"
		/>
</g>
</svg>
