<?xml version="1.0" ?>
<!-- Uploaded to: SVG Repo, www.svgrepo.com, Generator: SVG Repo Mixer Tools -->
<svg
	fill="currentColor"
	width="800px"
	height="800px"
	viewBox="0 0 24 24"
	xmlns="http://www.w3.org/2000/svg"
>

<g id="smartphone">

<path d="M13,19.5a.5.5,0,0,1-.5.5h-1a.5.5,0,0,1,0-1h1A.5.5,0,0,1,13,19.5Z" />

<path
			d="M16.5,2h-9A2.5026,2.5026,0,0,0,5,4.5v15A2.5023,2.5023,0,0,0,7.5,22h9A2.5023,2.5023,0,0,0,19,19.5V4.5A2.5026,2.5026,0,0,0,16.5,2ZM13.6914,3l-.5,1H10.8086l-.5-1ZM18,19.5A1.5017,1.5017,0,0,1,16.5,21h-9A1.5017,1.5017,0,0,1,6,19.5V4.5A1.5017,1.5017,0,0,1,7.5,3H9.1909l.8618,1.7236A.5.5,0,0,0,10.5,5h3a.5.5,0,0,0,.4473-.2764L14.8091,3H16.5A1.5017,1.5017,0,0,1,18,4.5Z"
		/>

</g>

</svg>
