<?xml version="1.0" encoding="utf-8" ?>
<!-- Generator: Adobe Illustrator 26.0.3, SVG Export Plug-In . SVG Version: 6.00 Build 0)  -->
<svg
	version="1.0"
	id="katman_1"
	xmlns="http://www.w3.org/2000/svg"
	xmlns:xlink="http://www.w3.org/1999/xlink"
	x="0px"
	y="0px"
	viewBox="0 0 216 160"
	style="enable-background:new 0 0 216 160;"
	xml:space="preserve"
>
<style type="text/css">
.st0 {
	fill: #231f20;
}
.st1 {
	opacity: 0.9;
	fill: #bc2330;
	enable-background: new;
}
	</style>
<path
		class="st0"
		d="M21,69.3h4.3v9.3l8.6-9.3h5.3l-8.4,8.7l8.8,11.8h-5.3l-6.5-8.8l-2.5,2.6v6.2H21V69.3z"
	/>
<path
		class="st0"
		d="M40.3,79.7L40.3,79.7c0-5.9,4.6-10.7,10.9-10.7s10.9,4.7,10.9,10.5v0c0,5.8-4.6,10.6-10.9,10.6
	S40.3,85.6,40.3,79.7z M57.6,79.7L57.6,79.7c0-3.7-2.6-6.7-6.4-6.7c-3.7,0-6.3,3-6.3,6.6v0c0,3.6,2.6,6.6,6.4,6.6
	C55,86.3,57.6,83.3,57.6,79.7z"
	/>
<path
		class="st0"
		d="M64.8,79.7L64.8,79.7c0-5.9,4.4-10.7,10.7-10.7c3.9,0,6.2,1.3,8.1,3.2l-2.8,3.2c-1.6-1.5-3.3-2.4-5.4-2.4
	c-3.6,0-6.2,3-6.2,6.6v0c0,3.6,2.5,6.6,6.2,6.6c2.4,0,3.9-1,5.5-2.4l2.8,2.8c-2.1,2.2-4.4,3.7-8.4,3.7
	C69.3,90.2,64.8,85.6,64.8,79.7z"
	/>
<path
		class="st0"
		d="M87.6,69.3H92v8.2h8.6v-8.2h4.3v20.6h-4.3v-8.3H92V90h-4.3V69.3z"
	/>
<path
		class="st0"
		d="M117.3,69.2h4l8.8,20.7h-4.5l-1.9-4.7h-8.9l-1.9,4.7h-4.4L117.3,69.2z M122.1,81.4l-2.9-7l-2.9,7H122.1z"
	/>
<path
		class="st0"
		d="M129.3,69.3h4.8l5.6,14.8l5.5-14.8h4.7l-8.4,20.7h-3.9L129.3,69.3z"
	/>
<path
		class="st0"
		d="M157.1,69.2h4l8.9,20.7h-4.5l-1.9-4.7h-8.9l-1.9,4.7h-4.4L157.1,69.2z M161.9,81.4l-2.9-7l-2.9,7H161.9z"
	/>
<path
		class="st1"
		d="M181.2,77l-8.1,0c-0.1,0-0.2,0.2-0.1,0.3l6.5,4.7l-1.8,7.7c0,0.1,0.1,0.2,0.2,0.1l5.8-4.8l6.1,4.8
	c0.1,0.1,0.3,0,0.2-0.2l-2.1-7.7l6.5-4.7c0.1-0.1,0-0.3-0.1-0.3l-8.1,0l-2.4-7.7c0-0.1-0.2-0.1-0.3,0L181.2,77z"
	/>
</svg>
