<svg viewBox="0 0 90 90" xmlns="http://www.w3.org/2000/svg"><path
		d="M76.59 44.29a47.368 47.368 0 0 1-20.847 22.45.355.355 0 0 0 .157.663 41.26 41.26 0 0 0 6.583-.51 44.1 44.1 0 0 0 27-15.37 44.06 44.06 0 0 0-8.657-33.633.35.35 0 0 0-.618.274 46.82 46.82 0 0 1-3.617 26.127Zm-56.375-.474.077.014a.361.361 0 0 1 .26.344 44.888 44.888 0 0 0 8.935 28.823 49.769 49.769 0 0 0 21.318 15.96.367.367 0 0 1-.077.703 44.553 44.553 0 0 1-33.74-9.544 42.561 42.561 0 0 1 1.097-32.813 39.42 39.42 0 0 1 1.802-3.324.362.362 0 0 1 .405-.149ZM85.94 62.163a.36.36 0 0 1 .547.43A45.142 45.142 0 0 1 61.605 86.92a44.777 44.777 0 0 1-28.098-17.012 37.203 37.203 0 0 1-2.743-4.264.357.357 0 0 1 .51-.47 45.624 45.624 0 0 0 32.109 6.768 50.137 50.137 0 0 0 22.557-9.779ZM32.68 22.69l.757.014a.355.355 0 0 1 .157.664 44.837 44.837 0 0 0-20.603 22.06A49.634 49.634 0 0 0 9.695 71.86a.349.349 0 0 1-.619.274A44.254 44.254 0 0 1 .573 38.19a42.5 42.5 0 0 1 29.063-15.41 41.07 41.07 0 0 1 3.8-.077ZM39.517.406a44.182 44.182 0 0 1 33.27 9.23 41.89 41.89 0 0 1-.902 32.618 38.544 38.544 0 0 1-2.078 3.99.362.362 0 0 1-.664-.194 48.11 48.11 0 0 0-8.583-28.12A46.62 46.62 0 0 0 39.44 1.11a.367.367 0 0 1 .077-.704Zm-11.205 2.82a41.962 41.962 0 0 1 28.043 17.638 38.745 38.745 0 0 1 1.997 3.17.357.357 0 0 1-.51.468 45.782 45.782 0 0 0-27.208-6.727 49.647 49.647 0 0 0-26.58 10.128.36.36 0 0 1-.547-.43A45.098 45.098 0 0 1 28.312 3.227Z"
		fill="#3088F4"
	/></svg>
