<svg
	width="35"
	height="40"
	viewBox="0 0 35 40"
	fill="none"
	xmlns="http://www.w3.org/2000/svg"
>
<g clip-path="url(#clip0_1605_32617)">
<path
			d="M27.2 10.1C25.8 9.8 25.6 10.5 26.2 11.9C29.4 18.9 26.6 25.8 23.5 27.5C23.4 27.3 23.4 27 23.4 26.8C23 23.5 21.8 20.6 20.9 20.6C20.2 20.6 20.6 23.5 20.5 26C19.4 25.3 18.7 24.9 17.5 25.1C15.8 25.4 13.5 29 13.4 28.5C12.7 24.3 14.3 17.8 16.6 17.1C17 17 17.6 17.5 18.9 18C20 18.4 19.9 17.3 19.4 16.9C17.8 15.7 15.7 15.6 13.9 16.5C10.5 18.2 9 25.7 10.8 28.8C11.5 30.1 12.8 30.9 14.2 31.2C16.5 31.5 17.2 31 19 28.7C19.3 28.9 19.6 29.1 19.9 29.1C18.4 33.8 12.8 37.7 11.6 37C5.7 33 7.3 20.2 11.5 9C12.3 7 12.9 4.9 13.5 2.8C14.1 -0.199997 10.3 -0.799997 7.7 1.4C5.8 3 4 6.7 2.5 11.1C-2.2 25 -0.200001 36.7 8.3 39.2C18.1 42.1 22.8 36 23.5 29.9C24.1 30 24.7 30 25.3 30C28.3 29.9 32.6 28.4 33.9 21.8C34.9 16.8 31.6 11 27.2 10.1Z"
			fill="#079CEE"
		/>
</g>
<defs>
<clipPath id="clip0_1605_32617">
<rect width="35" height="40" fill="white" />
</clipPath>
</defs>
</svg>
