<svg
	width="128"
	height="38"
	viewBox="0 0 128 38"
	fill="none"
	xmlns="http://www.w3.org/2000/svg"
>
<path
		d="M29.8841 29.8801C27.8049 31.9574 23.7398 33.1946 19.0056 33.1946C14.2714 33.1946 10.2017 31.9574 8.12868 29.8801C6.05565 27.8027 4.80449 23.7366 4.80449 19.0031C4.80449 14.2695 6.04953 10.2065 8.12714 8.12759C10.2048 6.04873 14.276 4.80538 19.0117 4.80538C23.7475 4.80538 27.811 6.04873 29.8902 8.12759C31.9693 10.2065 33.2052 14.271 33.2052 19.0031C33.2052 23.7351 31.9556 27.8012 29.8841 29.8801ZM38.0051 19C38.0051 15.2422 36.8906 11.5687 34.8026 8.44417C32.7146 5.31964 29.7468 2.88436 26.2745 1.4463C22.8022 0.00823259 18.9815 -0.368031 15.2953 0.365088C11.6092 1.09821 8.22328 2.90778 5.56572 5.56498C2.90817 8.22218 1.09835 11.6077 0.365137 15.2933C-0.36808 18.9789 0.00823331 22.7992 1.44649 26.271C2.88475 29.7428 5.32035 32.7102 8.4453 34.7979C11.5703 36.8857 15.2442 38 19.0026 38C21.498 38 23.969 37.5086 26.2745 36.5537C28.58 35.5989 30.6748 34.1994 32.4394 32.435C34.2039 30.6707 35.6036 28.5762 36.5586 26.271C37.5136 23.9658 38.0051 21.4951 38.0051 19Z"
		fill="#FC6423"
	/>
<path
		d="M22.6682 16.3408V21.5341C22.6695 21.8192 22.5576 22.0931 22.3571 22.2959C22.1567 22.4986 21.884 22.6136 21.5989 22.6156H16.3896C16.106 22.6176 15.8332 22.5069 15.6312 22.3079C15.4292 22.1088 15.3146 21.8377 15.3125 21.5541C15.3125 21.5475 15.3125 21.5408 15.3126 21.5341V16.3408C15.312 16.1992 15.3393 16.0588 15.3929 15.9278C15.4466 15.7967 15.5255 15.6775 15.6252 15.5769C15.7249 15.4764 15.8435 15.3964 15.9741 15.3417C16.1047 15.2869 16.2449 15.2585 16.3865 15.2579L16.3896 15.2578H21.5928C21.7344 15.2582 21.8746 15.2865 22.0053 15.3411C22.136 15.3957 22.2546 15.4754 22.3545 15.5758C22.4544 15.6763 22.5335 15.7954 22.5873 15.9264C22.6411 16.0573 22.6686 16.1976 22.6682 16.3393V16.3408Z"
		fill="#FC6423"
	/>
<path
		d="M27.8993 10.035C26.4266 8.56251 22.9298 7.60938 18.99 7.60938C15.0502 7.60938 11.5533 8.56251 10.0806 10.035C8.60798 11.5075 7.65625 15.0084 7.65625 18.9492C7.65625 22.89 8.60187 26.391 10.0806 27.865C11.5594 29.339 15.0502 30.289 18.99 30.289C22.9298 30.289 26.4266 29.3359 27.8993 27.865C29.372 26.394 30.3251 22.89 30.3251 18.9492C30.3251 15.0084 29.3795 11.4998 27.8993 10.035ZM24.459 24.3808C24.1535 24.6863 23.2139 25.6242 18.9593 25.6242C14.7048 25.6242 13.7653 24.6909 13.4598 24.3808C13.1542 24.0708 12.2164 23.1375 12.2164 18.882C12.2164 14.6265 13.1497 13.6887 13.4598 13.3832C13.7699 13.0777 14.6972 12.1459 18.9593 12.1459C23.2215 12.1459 24.1443 13.0731 24.459 13.3832C24.7737 13.6932 25.6948 14.6265 25.6948 18.882C25.6948 23.1375 24.763 24.0662 24.459 24.3747V24.3808Z"
		fill="#FC6423"
	/>
<path
		d="M60.5354 13.1562C58.9579 13.1562 57.6848 13.6742 56.7163 14.7098L56.1983 13.4389H52.9062V25.0934H57.0493V18.8537C57.0493 17.4653 57.9201 16.5458 59.2155 16.5458C59.452 16.5414 59.687 16.5836 59.9072 16.6701C60.1273 16.7565 60.3283 16.8856 60.4986 17.0498C60.6689 17.2139 60.8052 17.4099 60.8997 17.6267C60.9942 17.8435 61.0451 18.0768 61.0494 18.3133C61.05 18.3442 61.0496 18.3751 61.0486 18.4061V25.0934H65.1932V17.7233C65.1932 16.3822 64.7701 15.2994 63.8978 14.4516C63.0316 13.5794 61.9241 13.1562 60.5354 13.1562Z"
		fill="#0C1B2C"
	/>
<path d="M50.668 8.05469H46.5234V12.1987H50.668V8.05469Z" fill="#0C1B2C" />
<path d="M50.668 13.4453H46.5234V25.0997H50.668V13.4453Z" fill="#0C1B2C" />
<path
		d="M121.435 14.8779C120.42 13.7262 119.126 13.1641 117.55 13.1641C116.132 13.1641 114.982 13.6086 114.085 14.525L113.564 13.4421H110.273V29.9966H114.412V24.2748C115.297 24.9977 116.406 25.3894 117.548 25.3822C119.125 25.3822 120.419 24.8124 121.433 23.6867C122.441 22.5304 122.961 21.0702 122.961 19.2815C122.964 17.47 122.437 16.0097 121.435 14.8779ZM116.442 22.1272C115.193 22.1272 114.345 21.1878 114.345 19.894V18.6721C114.345 17.3554 115.193 16.4145 116.442 16.4145C117.785 16.4145 118.749 17.5906 118.749 19.2846C118.749 20.9526 117.785 22.1272 116.442 22.1272Z"
		fill="#0C1B2C"
	/>
<path
		d="M105.958 8C104.615 8 103.602 8.98826 103.602 10.3783C103.595 10.6807 103.648 10.9814 103.758 11.2634C103.867 11.5453 104.031 11.803 104.241 12.0215C104.45 12.2401 104.7 12.4154 104.977 12.5373C105.254 12.6592 105.552 12.7254 105.854 12.7321C105.889 12.7329 105.923 12.7328 105.958 12.7321C107.369 12.7321 108.335 11.7194 108.335 10.3783C108.335 8.98826 107.369 8 105.958 8Z"
		fill="#0C1B2C"
	/>
<path d="M108.035 13.4453H103.891V25.0997H108.035V13.4453Z" fill="#0C1B2C" />
<path
		d="M86.602 14.8779C85.3799 13.7262 83.7744 13.1641 81.8251 13.1641C79.8758 13.1641 78.2916 13.7262 77.042 14.8779C75.7923 16.0296 75.1797 17.4944 75.1797 19.2815C75.1797 21.0687 75.7908 22.5304 77.042 23.6867C78.2916 24.8124 79.8697 25.3822 81.8251 25.3822C83.7805 25.3822 85.3769 24.8124 86.602 23.6867C87.8517 22.5304 88.4643 21.0702 88.4643 19.2815C88.4643 17.47 87.8517 16.0097 86.602 14.8779ZM81.8251 22.1776C80.4074 22.1776 79.4175 20.977 79.4175 19.2754C79.4175 17.5555 80.4074 16.3565 81.8251 16.3565C83.2427 16.3565 84.251 17.5555 84.251 19.2754C84.251 20.977 83.2351 22.1776 81.8251 22.1776Z"
		fill="#0C1B2C"
	/>
<path
		d="M73.4871 11.5324C73.9461 11.541 74.4035 11.5885 74.8544 11.6745L75.3723 8.61952C74.4257 8.36619 73.4497 8.23932 72.4697 8.24224C71.1743 8.24224 70.1146 8.61901 69.2907 9.37255C68.4902 10.1256 68.0899 11.1154 68.0899 12.3633V13.4463H66.1406V16.5776H68.096V25.1008H72.2406V16.5776H74.642V13.4463H72.2406V12.7803C72.2406 12.0029 72.734 11.5324 73.4871 11.5324Z"
		fill="#0C1B2C"
	/>
<path
		d="M100.849 14.8776C99.8404 13.7259 98.5403 13.1638 96.9638 13.1638C95.8222 13.1471 94.7119 13.5375 93.8321 14.2651V8.52344H89.6875V25.0978H92.9842L93.5052 24.0149C94.3958 24.9314 95.5522 25.3896 96.9638 25.3896C98.5403 25.3896 99.8404 24.8198 100.849 23.6941C101.863 22.5378 102.376 21.0776 102.376 19.2889C102.384 17.4697 101.863 16.0095 100.849 14.8776ZM95.8623 22.1269C94.6127 22.1269 93.7649 21.1876 93.7649 19.8938V18.6718C93.7649 17.3552 94.6127 16.4143 95.8623 16.4143C97.199 16.4143 98.163 17.5904 98.163 19.2844C98.163 20.9523 97.199 22.1269 95.8623 22.1269Z"
		fill="#0C1B2C"
	/>
</svg>
