<?xml version="1.0" encoding="utf-8" ?>
<!-- Generator: Adobe Illustrator 24.3.0, SVG Export Plug-In . SVG Version: 6.00 Build 0)  -->
<svg
	version="1.1"
	id="Layer_1"
	xmlns="http://www.w3.org/2000/svg"
	xmlns:xlink="http://www.w3.org/1999/xlink"
	x="0px"
	y="0px"
	viewBox="0 0 250 218"
	style="enable-background:new 0 0 250 218;"
	xml:space="preserve"
>
<style type="text/css">
.st0 {
	fill-rule: evenodd;
	clip-rule: evenodd;
	fill: #ffffff;
	fill-opacity: 1e-2;
}
.st1 {
	filter: url(#Adobe_OpacityMaskFilter);
}
.st2 {
	fill-rule: evenodd;
	clip-rule: evenodd;
	fill: #ffffff;
}
.st3 {
	mask: url(#plivo-icon-b_1_);
	fill-rule: evenodd;
	clip-rule: evenodd;
	fill: #03a94a;
}
.st4 {
	fill-rule: evenodd;
	clip-rule: evenodd;
	fill: #03a94a;
}
	</style>
<g>
	<rect y="0" class="st0" width="250" height="218" />
	<g transform="translate(49 49.451)">
		<defs>
			<filter
					id="Adobe_OpacityMaskFilter"
					filterUnits="userSpaceOnUse"
					x="0"
					y="0.5"
					width="152"
					height="118.5"
				>
				<feColorMatrix
						type="matrix"
						values="1 0 0 0 0  0 1 0 0 0  0 0 1 0 0  0 0 0 1 0"
					/>
			</filter>
		</defs>
		<mask
				maskUnits="userSpaceOnUse"
				x="0"
				y="0.5"
				width="152"
				height="118.5"
				id="plivo-icon-b_1_"
			>
			<g class="st1">
				<polygon
						id="plivo-icon-a_1_"
						class="st2"
						points="0,0.5 152,0.5 152,119 0,119 				"
					/>
			</g>
		</mask>
		<path
				class="st3"
				d="M75.7,0.5C62.8,0.6,50.9,4.8,41.3,12c-9.6,7.2-16.9,17.2-20.7,28.9c-0.2,0.5-0.4,0.9-0.7,1.3
			c-0.3,0.4-0.7,0.7-1.1,1C12.9,47,8,52.3,4.7,58.6c-3.3,6.3-5,13.5-4.7,21.2c0.5,11.1,5.6,20.9,13.3,27.9c7.7,7,18,11.2,29.2,11.2
			h33.6h33.6c11.1,0,21.4-4.4,29.1-11.5c7.6-7.1,12.6-17,13.1-28.1c0.3-7.7-1.5-14.9-4.8-21.2c-3.4-6.3-8.3-11.6-14.2-15.4
			c-0.4-0.3-0.8-0.6-1.1-1c-0.3-0.4-0.5-0.8-0.7-1.3c-3.8-11.6-11.2-21.6-20.9-28.7C100.6,4.7,88.6,0.5,75.7,0.5 M75.8,15.3
			c9.5,0,18.6,3.1,25.9,8.6c7.3,5.4,13,13.2,15.7,22.3l0.6,2l0.6,2c0.2,0.5,0.4,1,0.7,1.4c0.3,0.4,0.7,0.8,1.2,1l1.8,1l1.8,1
			c4.3,2.5,7.6,6,9.9,10.1s3.4,8.8,3.2,13.8c-0.3,7.2-3.5,13.5-8.5,18.1c-5,4.6-11.6,7.4-18.8,7.4l-33.8,0.1l-33.8,0.1
			c-7.2,0-13.9-2.7-18.9-7.3c-5-4.5-8.3-10.9-8.6-18.1c-0.2-4.9,0.9-9.7,3.1-13.8c2.2-4.1,5.6-7.7,9.8-10.2l1.8-1.1l1.8-1.1
			c0.5-0.3,0.9-0.6,1.2-1c0.3-0.4,0.6-0.9,0.7-1.4l0.6-2l0.6-2c2.7-9.1,8.3-16.9,15.6-22.4C57.2,18.6,66.3,15.4,75.8,15.3"
			/>
	</g>
	<path
			class="st4"
			d="M113.3,100.7c0,0.9-0.3,1.7-0.9,2.2c-0.6,0.6-1.4,0.9-2.2,0.9l-3.2,0l-3.2,0c-0.9,0-1.7-0.4-2.2-0.9
		c-0.6-0.6-0.9-1.4-0.9-2.2l0-3.2l0-3.2c0-0.9,0.4-1.7,0.9-2.2c0.6-0.6,1.4-0.9,2.2-0.9l3.2,0l3.2,0c0.9,0,1.7,0.3,2.2,0.9
		c0.6,0.6,0.9,1.4,0.9,2.2l0,3.2L113.3,100.7z M131.2,100.7c0,0.9-0.3,1.7-0.9,2.2c-0.6,0.6-1.4,0.9-2.2,0.9l-3.2,0l-3.2,0
		c-0.9,0-1.7-0.4-2.2-0.9s-0.9-1.4-0.9-2.2l0-3.2l0-3.2c0-0.9,0.3-1.7,0.9-2.2c0.6-0.6,1.4-0.9,2.2-0.9l3.2,0l3.2,0
		c0.9,0,1.7,0.3,2.2,0.9c0.6,0.6,0.9,1.4,0.9,2.2l0,3.2L131.2,100.7z M149.2,100.7c0,0.9-0.4,1.7-0.9,2.2c-0.6,0.6-1.4,0.9-2.2,0.9
		l-3.2,0l-3.2,0c-0.9,0-1.7-0.3-2.2-0.9c-0.6-0.6-0.9-1.4-0.9-2.2l0-3.2l0-3.2c0-0.9,0.3-1.7,0.9-2.2s1.4-0.9,2.2-0.9l3.2,0l3.2,0
		c0.9,0,1.7,0.3,2.3,0.9c0.6,0.6,1,1.3,1,2.2c0,0,0,0,0,0c0,0,0,0,0,0l0,3.2L149.2,100.7z M113.3,118.6c0,0.9-0.3,1.7-0.9,2.2
		s-1.4,0.9-2.2,0.9l-3.2,0l-3.2,0c-0.9,0-1.7-0.4-2.2-0.9c-0.6-0.6-0.9-1.4-0.9-2.2l0-3.2l0-3.2c0-0.9,0.3-1.7,0.9-2.2
		c0.6-0.6,1.4-0.9,2.2-0.9l3.2,0l3.2,0c0.9,0,1.7,0.4,2.2,0.9c0.6,0.6,0.9,1.4,0.9,2.2l0,3.2L113.3,118.6z M131.2,118.6
		c0,0.9-0.3,1.7-0.9,2.2c-0.6,0.6-1.4,0.9-2.2,0.9l-3.2,0l-3.2,0c-0.9,0-1.7-0.4-2.2-0.9c-0.6-0.6-0.9-1.4-0.9-2.2l0-3.2l0-3.2
		c0-0.9,0.3-1.7,0.9-2.2c0.6-0.6,1.4-0.9,2.2-0.9l3.2,0l3.2,0c0.9,0,1.7,0.4,2.2,0.9c0.6,0.6,0.9,1.4,0.9,2.2l0,3.2L131.2,118.6z
		 M149.2,118.6c0,0.9-0.4,1.7-0.9,2.2c-0.6,0.6-1.4,0.9-2.2,0.9l-3.2,0l-3.2,0c-0.9,0-1.7-0.3-2.2-0.9c-0.6-0.6-0.9-1.4-0.9-2.2
		l0-3.2l0-3.2c0-0.9,0.3-1.7,0.9-2.2s1.4-0.9,2.2-0.9l3.2,0l3.2,0c0.9,0,1.7,0.4,2.2,0.9c0.6,0.6,0.9,1.4,0.9,2.2l0,3.2L149.2,118.6
		z M113.3,136.6c0,0.9-0.3,1.7-0.9,2.2c-0.6,0.6-1.4,0.9-2.2,0.9l-3.2,0l-3.2,0c-0.9,0-1.7-0.3-2.2-0.9c-0.6-0.6-0.9-1.4-0.9-2.2
		l0-3.2l0-3.2c0-0.9,0.4-1.7,0.9-2.2c0.6-0.6,1.4-0.9,2.2-0.9l3.2,0l3.2,0c0.9,0,1.7,0.3,2.2,0.9c0.6,0.6,0.9,1.4,0.9,2.2l0,3.2
		L113.3,136.6z M131.3,136.6c0,0.9-0.3,1.7-0.9,2.2c-0.6,0.6-1.4,0.9-2.2,0.9l-3.2,0l-3.2,0c-0.9,0-1.7-0.3-2.2-0.9
		c-0.6-0.6-0.9-1.4-0.9-2.2l0-3.2l0-3.2c0-0.9,0.4-1.7,0.9-2.2c0.6-0.6,1.4-0.9,2.2-0.9l3.2,0l3.2,0c0.9,0,1.7,0.3,2.2,0.9
		c0.6,0.6,0.9,1.4,0.9,2.2l0,3.2L131.3,136.6z M149.2,136.6c0,0.9-0.3,1.7-0.9,2.2c-0.6,0.6-1.4,0.9-2.2,0.9l-3.2,0l-3.2,0
		c-0.9,0-1.7-0.3-2.2-0.9c-0.6-0.6-0.9-1.4-0.9-2.2l0-3.2l0-3.2c0-0.9,0.3-1.7,0.9-2.2c0.6-0.6,1.4-0.9,2.2-0.9l3.2,0l3.2,0
		c0.9,0,1.7,0.3,2.2,0.9c0.6,0.6,0.9,1.4,0.9,2.2l0,3.2L149.2,136.6z"
		/>
</g>
</svg>
