<svg xmlns="http://www.w3.org/2000/svg" width="107" height="26"><path
		d="M.001 24.171a2.89 2.89 0 0 1 3.029-1.367c2.76.3 5.547.284 8.304-.05.906-.12 1.823-.126 2.73-.02l4.244.35a9.33 9.33 0 0 1 1.3.183.92.92 0 0 1 .769.721.9.9 0 0 1-.512 1.014 2.67 2.67 0 0 1-1.23.353l-4.56-.216a33.95 33.95 0 0 0-3.945.112c-1.815.18-3.644.192-5.46.034-1.007-.088-2.027-.032-3.04-.05a1.77 1.77 0 0 1-1.63-.66zM20.337 6.157l.15 3.452a17.23 17.23 0 0 1-.07 2.23 16.52 16.52 0 0 0 0 4.658c.095.67.074 1.35-.06 2.013a1.73 1.73 0 0 1-1.908 1.606c-1.114-.06-2.22-.222-3.304-.482a3.39 3.39 0 0 1-1.894-1.473 21.11 21.11 0 0 1-1.23-1.984c-.642-1.196-1.433-2.306-2.353-3.304-.54-.65-1.027-1.34-1.462-2.062a4.25 4.25 0 0 0-.321-.517.69.69 0 0 0-1.214.23 2.44 2.44 0 0 0-.127.803l-.1 4.67a2.28 2.28 0 0 1-.175.787 2.16 2.16 0 0 0-.047 1.947.78.78 0 0 1-.562 1.124 4.64 4.64 0 0 1-3.564-.1c-.614-.25-1.01-.85-1-1.513l-.12-3.354c-.073-.696.192-1.386.713-1.854.224-.207.415-.447.567-.712.345-.5.323-1.15-.053-1.616A6.35 6.35 0 0 1 .968 6.014l.075-3.346.008-.813A1.01 1.01 0 0 1 2.346.715a7.01 7.01 0 0 0 2.48-.463 1.5 1.5 0 0 1 2.059.916c.128.276.226.565.34.848a1.7 1.7 0 0 0 1.026 1.062A2.43 2.43 0 0 1 9.46 4.119l3.188 4.594a7.97 7.97 0 0 0 1.124 1.309c.455.413.832.284.906-.342a14.83 14.83 0 0 0 .135-2.933 32.83 32.83 0 0 1 .051-4.562c-.098-.52.08-1.052.47-1.408a1.52 1.52 0 0 1 1.445-.338l1.124.064a2.17 2.17 0 0 1 2.262 1.801 5.89 5.89 0 0 1 .202 1.301l.01 2.543zm24.284 5.493c-.074-1.08.024-2.164.29-3.212a4.24 4.24 0 0 1 3.744-2.98 6.11 6.11 0 0 1 4.565.949c.14.098.284.186.434.265a.93.93 0 0 0 1.354-.209 3.79 3.79 0 0 1 4.062-.368c.86.62 1.176 1.754.763 2.73a7.39 7.39 0 0 0-.342 4.57l.32 3.132.267 3.432a4.85 4.85 0 0 1-1.076 3.196 7.96 7.96 0 0 1-2.44 2.088c-.5.372-1.16.452-1.735.212a5.17 5.17 0 0 0-3.855-.055c-1.03.367-2.146.432-3.212.188a4.42 4.42 0 0 1-3.212-2.56 1.36 1.36 0 0 1 .072-1.695c.452-.444 1.14-.54 1.698-.24l.467.198.455.226c1.42.525 2.902.85 4.337 1.317a2.41 2.41 0 0 0 2.978-2.064 6.76 6.76 0 0 0 .058-1.907.69.69 0 0 0-1.005-.657c-.514.163-1.007.384-1.47.66-.85.515-1.853.7-2.833.55-1.415-.208-2.598-1.182-3.074-2.53a6.35 6.35 0 0 0-1.246-2.181 1.94 1.94 0 0 1-.347-1.124c-.053-.642-.014-1.3-.014-1.934zm10.164 1.026a14.07 14.07 0 0 0-.41-1.862 2.74 2.74 0 0 0-2.589-1.927 2.86 2.86 0 0 0-2.409 2.157 1.01 1.01 0 0 0-.077.292 22.45 22.45 0 0 0 .106 2.514c.08.946.767 1.728 1.695 1.927a2.77 2.77 0 0 0 2.792-.768 3.72 3.72 0 0 0 .895-2.334zm-30.17 3.542v-.813c-.068-.794.238-1.575.828-2.1s1.397-.765 2.18-.62a3.62 3.62 0 0 1 .503.071 2.37 2.37 0 0 0 2.021-.426 5.05 5.05 0 0 1 2.835-.975c.47-.03.937-.1 1.39-.238a1.68 1.68 0 0 0 1.042-.763 1.67 1.67 0 0 0 .19-1.277 1.06 1.06 0 0 0-.37-.76c-.223-.19-.515-.283-.807-.252a6.61 6.61 0 0 0-4.681 1.606 1.06 1.06 0 0 1-.699.337c-.978.005-1.953-.092-2.9-.29a1.3 1.3 0 0 1-.426-2.454A7.25 7.25 0 0 1 31.206 5.6a9.72 9.72 0 0 0 3.235-.055c2.598-.305 5.003 1.41 5.56 3.966a3.44 3.44 0 0 1-.137 1.394 4.12 4.12 0 0 0 .16 2.963 2.65 2.65 0 0 1 .072 1.478 5.87 5.87 0 0 0 .018 2.409c.19.47.11 1.008-.204 1.406s-.82.597-1.32.522c-.54.01-1.084-.01-1.624.024-.61.098-1.232-.103-1.67-.54-.157-.185-.383-.298-.625-.313a.9.9 0 0 0-.66.233 1.8 1.8 0 0 1-.598.374l-4.883.85a4.67 4.67 0 0 1-2.064-.419 2.66 2.66 0 0 1-1.852-2.743l.006-.92zm6.897 1.296a1.7 1.7 0 0 0 .503-.043l3.62-1.54a.82.82 0 0 0 .093-1.385c-.577-.83-1.62-1.195-2.59-.91-.364.07-.735.1-1.105.084a8.38 8.38 0 0 0-1.307.13 1.71 1.71 0 0 0-1.238 2.048c-.02.817.603 1.507 1.418 1.568.2.034.405.035.607.048zm58.37-4.88a10.54 10.54 0 0 1-1.102 4.208c-.457.8-1.116 1.463-1.91 1.927a1.97 1.97 0 0 1-1.74.275 1.69 1.69 0 0 0-1.858.455 1.93 1.93 0 0 1-1.948.482c-.897-.172-1.81-.255-2.723-.247a2.92 2.92 0 0 1-1.858-.68l-2.136-1.545c-.46-.304-.74-.812-.758-1.362a9.01 9.01 0 0 0-.689-3.052c-.414-1.282-.164-2.685.667-3.746.13-.197.33-.34.557-.403a2.95 2.95 0 0 0 1.892-1.587c.433-1.1 1.625-1.672 2.75-1.343a1.44 1.44 0 0 0 .606.024c1.468-.202 2.957-.194 4.422.026 2.122.01 4.045 1.253 4.926 3.184.54 1.05.85 2.204.903 3.384zm-5.577.55a5.08 5.08 0 0 0-.642-3.033 2.57 2.57 0 0 0-4.207-.57c-1.382 1.77-1.554 4.2-.435 6.145a3.11 3.11 0 0 0 3.201 1.014 2.86 2.86 0 0 0 2.021-2.541l.063-1.017zM99.802 5.27l3.42.398a6.55 6.55 0 0 1 1.937.845 2.27 2.27 0 0 1 .787.899.96.96 0 0 1 .1.97c-.145.317-.45.532-.8.56-1.305.546-2.79.438-4.003-.292a4.57 4.57 0 0 0-1.426-.508 2.04 2.04 0 0 0-1.731.39c-.307.17-.498.494-.5.845a.98.98 0 0 0 .487.853 1.17 1.17 0 0 0 .437.252 14.11 14.11 0 0 0 3.657.782 3.43 3.43 0 0 1 2.112.588 18.05 18.05 0 0 0 1.606.858c.934.406 1.517 1.35 1.462 2.366-.08 2.29-.964 3.757-3.222 4.144a6.31 6.31 0 0 0-2.419.7 1.87 1.87 0 0 1-.785.173l-2.226.19a12.16 12.16 0 0 1-4.925-1.38 3.06 3.06 0 0 1-.458-.4 1.26 1.26 0 0 1 .623-2.295c.924-.205 1.873-.275 2.817-.207.488.132.927.4 1.267.774a3.3 3.3 0 0 0 2.731.829 3.39 3.39 0 0 0 1.246-.398c.4-.2.658-.627.63-1.082s-.33-.847-.76-.994c-.182-.088-.385-.127-.572-.206a16.97 16.97 0 0 1-1.846-.82 4.32 4.32 0 0 0-2.718-.612c-1.64.285-3.244-.67-3.775-2.25-.566-1.582-.042-3.348 1.295-4.366 1.152-.97 2.616-1.494 4.123-1.473.48.012.962-.035 1.43-.14zm-30.663 6.118c-.033.432-.025.867.026 1.298l.39 5.254a1.95 1.95 0 0 1-2.249 2.144c-1.12.027-2.17-.547-2.753-1.505a3.13 3.13 0 0 1-.07-3.137 4.66 4.66 0 0 0 .249-2.971l-.63-4.306c-.037-.37-.006-.745.092-1.105.12-.774.796-1.338 1.58-1.317a11.46 11.46 0 0 1 1.927.037c.483.005.943.212 1.267.57a1.74 1.74 0 0 1 .443 1.317v1.22c.045.014-.17 1.674-.27 2.502zM66.889.04h.304c.713-.08 1.404.278 1.748.907a1.77 1.77 0 0 1-.178 1.962 1.12 1.12 0 0 1-.994.6 12.66 12.66 0 0 1-2.017-.087 1.38 1.38 0 0 1-1.032-.5c-.259-.312-.378-.7-.327-1.095-.003-.918.676-1.695 1.585-1.815.302-.027.607 0 .91 0v.027z"
	/></svg>
