<svg fill="currentColor" height="800px" width="800px" version="1.1" id="Capa_1" xmlns="http://www.w3.org/2000/svg" xmlns:xlink="http://www.w3.org/1999/xlink"
    viewBox="0 0 511 511" xml:space="preserve">
<g>
	<path d="M226.463,448h-144c-13.509,0-24.5-10.991-24.5-24.5v-384c0-13.509,10.991-24.5,24.5-24.5h216.5v40.5
		c0,21.78,17.72,39.5,39.5,39.5h40.5v152.5c0,4.142,3.358,7.5,7.5,7.5s7.5-3.358,7.5-7.5v-160c0-0.251-0.013-0.501-0.038-0.749
		c-0.018-0.182-0.049-0.359-0.08-0.537c-0.011-0.063-0.017-0.128-0.029-0.191c-0.042-0.21-0.096-0.416-0.155-0.619
		c-0.009-0.03-0.014-0.061-0.023-0.091c-0.063-0.207-0.138-0.409-0.218-0.608c-0.011-0.027-0.019-0.055-0.03-0.081
		c-0.078-0.189-0.168-0.372-0.261-0.552c-0.019-0.037-0.034-0.075-0.054-0.112c-0.089-0.167-0.189-0.327-0.291-0.486
		c-0.03-0.048-0.057-0.098-0.088-0.145c-0.101-0.151-0.213-0.295-0.324-0.438c-0.039-0.05-0.073-0.102-0.113-0.151
		c-0.156-0.189-0.32-0.372-0.493-0.545L311.768,2.198c-0.173-0.173-0.355-0.338-0.545-0.493c-0.049-0.04-0.102-0.074-0.151-0.113
		c-0.143-0.112-0.287-0.223-0.438-0.324c-0.047-0.032-0.097-0.058-0.145-0.088c-0.159-0.101-0.319-0.201-0.486-0.291
		c-0.036-0.02-0.075-0.035-0.112-0.054c-0.181-0.093-0.364-0.183-0.552-0.261c-0.027-0.011-0.055-0.019-0.081-0.03
		c-0.199-0.08-0.401-0.155-0.608-0.218c-0.03-0.009-0.061-0.015-0.091-0.023c-0.203-0.059-0.409-0.114-0.619-0.156
		c-0.063-0.013-0.128-0.018-0.191-0.029c-0.178-0.031-0.355-0.062-0.537-0.08C306.964,0.013,306.714,0,306.463,0h-224
		c-21.78,0-39.5,17.72-39.5,39.5v384c0,21.78,17.72,39.5,39.5,39.5h144c4.142,0,7.5-3.358,7.5-7.5S230.605,448,226.463,448z
		 M313.963,55.5V25.606L368.357,80h-29.894C324.954,80,313.963,69.009,313.963,55.5z"/>
    <path d="M354.463,328c-35.014,0-63.5,28.486-63.5,63.5s28.486,63.5,63.5,63.5s63.5-28.486,63.5-63.5S389.477,328,354.463,328z
		 M354.463,440c-26.743,0-48.5-21.757-48.5-48.5s21.757-48.5,48.5-48.5s48.5,21.757,48.5,48.5S381.206,440,354.463,440z"/>
    <path d="M460.28,416.22l-4.75-2.742c1.616-7.34,2.433-14.709,2.433-21.978s-0.817-14.638-2.433-21.978l4.75-2.742
		c3.586-2.07,6.15-5.413,7.222-9.412c1.072-4,0.521-8.177-1.549-11.762l-16-27.712c-2.07-3.586-5.413-6.151-9.412-7.223
		c-3.999-1.07-8.175-0.521-11.762,1.549l-4.721,2.726c-10.949-9.944-23.944-17.428-38.096-21.94V287.5c0-8.547-6.953-15.5-15.5-15.5
		h-32c-8.547,0-15.5,6.953-15.5,15.5v5.505c-14.151,4.512-27.146,11.996-38.096,21.94l-4.721-2.726
		c-3.585-2.07-7.764-2.62-11.761-1.548c-4,1.072-7.342,3.637-9.412,7.222l-16,27.712c-2.071,3.585-2.621,7.763-1.549,11.762
		c1.072,3.999,3.636,7.341,7.222,9.412l4.75,2.742c-1.616,7.34-2.433,14.709-2.433,21.978s0.817,14.638,2.433,21.978l-4.749,2.742
		c-3.586,2.07-6.151,5.413-7.223,9.412c-1.071,3.999-0.521,8.176,1.549,11.762l16,27.713c4.273,7.401,13.771,9.947,21.173,5.673
		l4.721-2.726c10.949,9.944,23.944,17.428,38.096,21.94v5.505c0,8.547,6.953,15.5,15.5,15.5h32c8.547,0,15.5-6.953,15.5-15.5v-5.505
		c14.151-4.512,27.146-11.996,38.096-21.94l4.721,2.726c7.399,4.271,16.899,1.727,21.173-5.674l16-27.713
		c2.07-3.585,2.62-7.763,1.549-11.762C466.43,421.633,463.865,418.29,460.28,416.22z M439.664,367.852
		c2.189,7.9,3.299,15.857,3.299,23.648s-1.11,15.748-3.299,23.648c-0.913,3.294,0.517,6.789,3.478,8.498l9.638,5.564c0,0,0,0,0,0
		c0.044,0.025,0.179,0.104,0.233,0.303c0.053,0.2-0.024,0.335-0.05,0.379l-16,27.713c-0.138,0.239-0.443,0.322-0.683,0.183
		l-9.602-5.543c-2.962-1.711-6.705-1.201-9.101,1.24c-11.218,11.421-25.391,19.583-40.987,23.605
		c-3.312,0.854-5.627,3.841-5.627,7.262V495.5c0,0.276-0.224,0.5-0.5,0.5h-32c-0.276,0-0.5-0.224-0.5-0.5v-11.146
		c0-3.421-2.315-6.408-5.627-7.262c-15.596-4.022-29.77-12.185-40.987-23.605c-1.449-1.475-3.39-2.245-5.353-2.245
		c-1.284,0-2.577,0.329-3.748,1.005l-9.601,5.543c-0.24,0.138-0.545,0.056-0.684-0.183l-16-27.713
		c-0.026-0.044-0.104-0.18-0.05-0.379c0.054-0.2,0.188-0.278,0.233-0.304l9.638-5.564c2.96-1.709,4.391-5.204,3.478-8.498
		c-2.189-7.9-3.299-15.857-3.299-23.648s1.11-15.748,3.299-23.648c0.913-3.294-0.517-6.789-3.478-8.498l-9.638-5.564
		c-0.044-0.026-0.18-0.104-0.233-0.304c-0.053-0.2,0.024-0.334,0.05-0.379l16.001-27.713c0.137-0.239,0.444-0.321,0.683-0.183
		l9.602,5.543c2.961,1.709,6.704,1.2,9.101-1.24c11.218-11.421,25.391-19.583,40.987-23.605c3.312-0.854,5.627-3.841,5.627-7.262
		V287.5c0-0.276,0.224-0.5,0.5-0.5h32c0.276,0,0.5,0.224,0.5,0.5v11.146c0,3.421,2.315,6.408,5.627,7.262
		c15.596,4.022,29.77,12.185,40.987,23.605c2.396,2.439,6.138,2.948,9.101,1.24l9.601-5.543c0.24-0.14,0.545-0.056,0.684,0.183
		l16,27.713c0.025,0.044,0.103,0.179,0.05,0.379c-0.054,0.2-0.189,0.278-0.233,0.304l-9.638,5.564
		C440.182,361.063,438.751,364.558,439.664,367.852z"/>
    <path d="M98.463,143h16c4.142,0,7.5-3.358,7.5-7.5s-3.358-7.5-7.5-7.5h-16c-4.142,0-7.5,3.358-7.5,7.5S94.321,143,98.463,143z"/>
    <path d="M146.463,143h16c4.142,0,7.5-3.358,7.5-7.5s-3.358-7.5-7.5-7.5h-16c-4.142,0-7.5,3.358-7.5,7.5S142.321,143,146.463,143z"
    />
    <path d="M274.463,128h-80c-4.142,0-7.5,3.358-7.5,7.5s3.358,7.5,7.5,7.5h80c4.142,0,7.5-3.358,7.5-7.5S278.605,128,274.463,128z"/>
    <path d="M217.963,175.5c0-4.142-3.358-7.5-7.5-7.5h-64c-4.142,0-7.5,3.358-7.5,7.5s3.358,7.5,7.5,7.5h64
		C214.605,183,217.963,179.642,217.963,175.5z"/>
    <path d="M234.963,175.5c0,4.142,3.358,7.5,7.5,7.5h56c4.142,0,7.5-3.358,7.5-7.5s-3.358-7.5-7.5-7.5h-56
		C238.321,168,234.963,171.358,234.963,175.5z"/>
    <path d="M98.463,183h16c4.142,0,7.5-3.358,7.5-7.5s-3.358-7.5-7.5-7.5h-16c-4.142,0-7.5,3.358-7.5,7.5S94.321,183,98.463,183z"/>
    <path d="M98.463,223h16c4.142,0,7.5-3.358,7.5-7.5s-3.358-7.5-7.5-7.5h-16c-4.142,0-7.5,3.358-7.5,7.5S94.321,223,98.463,223z"/>
    <path d="M202.463,223h136c4.142,0,7.5-3.358,7.5-7.5s-3.358-7.5-7.5-7.5h-136c-4.142,0-7.5,3.358-7.5,7.5S198.321,223,202.463,223z
		"/>
    <path d="M146.463,208c-4.142,0-7.5,3.358-7.5,7.5s3.358,7.5,7.5,7.5h24c4.142,0,7.5-3.358,7.5-7.5s-3.358-7.5-7.5-7.5H146.463z"/>
    <path d="M234.463,248h-88c-4.142,0-7.5,3.358-7.5,7.5s3.358,7.5,7.5,7.5h88c4.142,0,7.5-3.358,7.5-7.5S238.605,248,234.463,248z"/>
    <path d="M138.463,327h32c4.142,0,7.5-3.358,7.5-7.5s-3.358-7.5-7.5-7.5h-32c-4.142,0-7.5,3.358-7.5,7.5S134.321,327,138.463,327z"
    />
    <path d="M98.463,263h16c4.142,0,7.5-3.358,7.5-7.5s-3.358-7.5-7.5-7.5h-16c-4.142,0-7.5,3.358-7.5,7.5S94.321,263,98.463,263z"/>
    <path d="M93.16,324.803c1.464,1.464,3.384,2.197,5.303,2.197s3.839-0.732,5.303-2.197l16-16c2.929-2.929,2.929-7.678,0-10.606
		l-16-16c-2.929-2.929-7.678-2.929-10.606,0c-2.929,2.929-2.929,7.678,0,10.606l10.697,10.697L93.16,314.197
		C90.231,317.125,90.231,321.875,93.16,324.803z"/>
</g>
</svg>
