<svg
	id="svg"
	version="1.1"
	xmlns="http://www.w3.org/2000/svg"
	xmlns:xlink="http://www.w3.org/1999/xlink"
	width="400"
	height="400"
	viewBox="0, 0, 400,400"
><g id="svgg"><path
			id="path0"
			d="M270.600 138.378 C 268.049 139.422,268.211 137.313,268.093 170.997 C 267.980 202.936,267.986 203.048,269.793 204.232 C 271.515 205.361,332.043 205.109,333.646 203.967 C 335.257 202.820,335.253 202.906,335.120 170.126 L 335.000 140.452 333.825 139.226 L 332.650 138.000 302.025 138.025 C 285.181 138.039,271.040 138.198,270.600 138.378 M285.680 147.130 C 287.721 148.300,288.588 149.949,288.594 152.671 C 288.608 158.875,281.207 161.466,277.668 156.496 C 273.822 151.094,279.999 143.874,285.680 147.130 M103.137 148.206 C 100.146 150.166,100.013 154.735,102.887 156.817 C 105.144 158.452,107.283 158.441,109.295 156.782 C 114.528 152.469,108.802 144.493,103.137 148.206 M67.228 148.748 C 66.780 149.584,66.616 188.892,67.044 192.539 L 67.302 194.730 69.233 194.865 C 70.295 194.939,76.707 194.910,83.482 194.800 L 95.800 194.600 95.800 190.400 L 95.800 186.200 86.419 186.092 C 79.526 186.013,76.955 185.854,76.725 185.492 C 76.553 185.222,76.409 176.784,76.406 166.743 C 76.401 150.467,76.331 148.459,75.767 148.243 C 74.103 147.604,67.635 147.987,67.228 148.748 M154.184 148.500 C 154.078 148.775,154.039 159.260,154.096 171.800 L 154.200 194.600 158.479 194.713 L 162.759 194.827 163.034 193.361 C 163.185 192.555,163.199 190.594,163.064 189.004 C 162.220 179.012,163.529 178.272,168.520 185.918 C 170.632 189.153,172.854 192.475,173.457 193.300 L 174.553 194.800 180.077 194.800 C 186.529 194.800,186.324 195.108,182.900 190.572 C 181.415 188.604,179.930 186.612,179.600 186.146 C 179.270 185.679,177.965 183.927,176.700 182.253 C 173.559 178.095,173.594 177.716,177.507 173.527 C 179.216 171.697,181.322 169.300,182.187 168.200 C 183.052 167.100,184.174 165.770,184.680 165.245 C 186.354 163.509,185.989 163.326,180.685 163.240 L 175.770 163.160 171.785 167.517 C 169.593 169.913,167.116 172.712,166.280 173.737 C 163.180 177.537,163.049 177.049,163.144 162.124 C 163.197 153.871,163.079 149.321,162.798 148.796 C 162.278 147.825,154.544 147.559,154.184 148.500 M248.280 148.254 C 248.126 148.407,248.000 152.159,248.000 156.590 C 248.000 165.036,247.674 166.787,246.283 165.800 C 242.788 163.319,242.217 163.097,237.933 162.545 C 226.435 161.064,218.193 175.906,224.020 187.600 C 228.212 196.015,239.032 198.529,245.936 192.691 C 247.450 191.411,248.262 191.679,248.476 193.529 L 248.600 194.600 252.703 194.714 L 256.806 194.828 256.703 171.514 L 256.600 148.200 252.580 148.087 C 250.369 148.025,248.434 148.100,248.280 148.254 M319.785 163.010 C 324.921 165.440,325.735 168.107,325.919 183.121 C 326.093 197.180,326.582 196.000,320.580 196.000 C 314.330 196.000,314.800 196.918,314.800 184.709 C 314.800 174.681,314.799 174.675,313.821 173.392 C 311.896 170.868,307.584 171.233,305.700 174.079 L 304.617 175.716 304.408 185.758 L 304.200 195.800 299.433 195.913 C 296.790 195.976,294.497 195.857,294.287 195.647 C 293.660 195.020,293.754 163.779,294.384 163.019 C 294.780 162.542,295.748 162.400,298.616 162.400 C 302.987 162.400,303.538 162.561,304.149 164.013 L 304.608 165.106 307.177 163.553 C 310.562 161.506,316.101 161.268,319.785 163.010 M199.163 162.994 C 186.739 165.714,181.679 179.710,189.441 189.889 C 192.871 194.388,202.233 197.174,207.829 195.362 C 214.441 193.220,217.565 190.376,215.036 188.800 C 214.506 188.470,213.267 187.621,212.283 186.913 L 210.494 185.626 208.221 187.253 C 204.079 190.219,200.076 189.794,196.673 186.028 C 193.343 182.342,194.115 182.035,207.033 181.907 L 217.800 181.800 217.915 178.083 C 218.253 167.199,210.061 160.608,199.163 162.994 M287.226 162.814 C 288.181 163.325,288.461 194.579,287.520 195.520 C 286.623 196.417,277.716 196.163,277.214 195.226 C 276.326 193.567,276.681 164.119,277.600 163.200 C 278.506 162.294,285.715 162.005,287.226 162.814 M133.000 163.146 C 131.243 163.607,129.965 164.340,128.499 165.727 C 127.020 167.127,126.485 166.911,126.042 164.737 L 125.770 163.400 122.785 163.277 C 121.143 163.210,119.215 163.263,118.500 163.396 L 117.200 163.636 117.200 179.218 L 117.200 194.800 121.562 194.800 L 125.924 194.800 126.071 185.700 C 126.272 173.194,127.277 171.000,132.806 171.000 C 138.001 171.000,138.386 171.944,138.756 185.600 L 139.000 194.600 143.400 194.600 L 147.800 194.600 147.918 185.400 C 148.098 171.450,146.980 166.839,142.776 164.185 C 141.124 163.142,135.353 162.529,133.000 163.146 M101.680 163.680 C 101.323 164.037,101.200 168.098,101.200 179.480 L 101.200 194.800 105.768 194.800 L 110.336 194.800 110.579 193.697 C 111.110 191.279,110.717 165.044,110.136 164.100 C 109.492 163.054,102.646 162.714,101.680 163.680 M204.373 169.192 C 207.060 169.963,209.503 173.150,208.809 174.978 L 208.420 176.000 202.024 176.000 C 194.580 176.000,194.087 175.765,195.546 172.906 C 197.235 169.597,200.700 168.139,204.373 169.192 M242.800 170.889 C 251.740 173.456,249.335 188.000,239.970 188.000 C 232.904 188.000,228.795 179.464,233.082 173.692 C 234.627 171.611,239.068 169.642,240.800 170.269 C 241.130 170.389,242.030 170.668,242.800 170.889 M80.151 214.700 C 80.028 215.085,79.785 215.760,79.612 216.200 C 79.438 216.640,78.544 219.340,77.625 222.200 C 76.707 225.060,75.799 227.760,75.608 228.200 C 75.418 228.640,74.959 229.900,74.589 231.000 C 74.218 232.100,73.775 233.360,73.604 233.800 C 73.433 234.240,72.965 235.680,72.564 237.000 C 72.164 238.320,71.693 239.571,71.518 239.780 C 71.343 239.989,71.200 240.486,71.200 240.885 C 71.200 241.284,71.028 241.923,70.818 242.305 C 70.607 242.687,69.697 245.250,68.794 248.000 C 67.892 250.750,66.727 254.170,66.206 255.600 C 65.685 257.030,65.139 258.796,64.992 259.525 L 64.726 260.850 66.450 260.725 C 68.418 260.582,67.975 261.465,71.231 251.200 C 73.679 243.485,72.859 244.000,82.700 244.000 L 90.862 244.000 92.031 245.169 C 92.674 245.812,93.200 246.663,93.200 247.061 C 93.200 247.458,93.626 248.957,94.146 250.392 C 94.666 251.826,95.594 254.530,96.207 256.400 C 97.589 260.613,97.736 260.800,99.649 260.800 C 101.586 260.800,101.754 261.800,97.970 250.794 C 96.193 245.627,93.948 239.060,92.980 236.200 C 87.582 220.255,85.551 214.616,85.101 214.331 C 84.068 213.674,80.391 213.949,80.151 214.700 M132.667 214.267 C 132.520 214.413,132.400 219.149,132.400 224.790 C 132.400 237.246,132.412 237.210,129.126 234.486 C 119.426 226.443,105.842 233.379,105.899 246.346 C 105.958 259.947,119.427 266.699,129.580 258.217 C 131.493 256.618,131.997 256.682,132.006 258.524 C 132.015 260.376,132.479 260.879,134.042 260.730 L 135.400 260.600 135.499 237.623 C 135.576 219.623,135.489 214.577,135.099 214.329 C 134.488 213.941,133.030 213.904,132.667 214.267 M84.096 219.800 C 84.295 220.460,84.603 221.360,84.780 221.800 C 85.295 223.081,90.329 238.909,90.538 239.905 C 90.843 241.359,89.730 241.600,82.703 241.600 C 73.548 241.600,73.750 242.195,78.495 229.200 C 78.936 227.990,79.438 226.460,79.610 225.800 C 80.037 224.162,81.735 219.520,82.143 218.878 C 82.683 218.027,83.707 218.511,84.096 219.800 M148.400 232.054 C 143.299 234.313,141.712 239.885,145.088 243.684 C 145.839 244.530,149.524 246.447,152.200 247.384 C 159.664 249.998,161.665 253.499,157.953 257.450 C 155.994 259.536,150.182 259.737,146.426 257.851 C 143.888 256.576,143.363 256.549,142.767 257.662 C 142.074 258.956,143.690 260.087,148.035 261.350 C 155.491 263.518,162.814 259.719,162.861 253.658 C 162.895 249.303,161.060 247.711,151.517 243.819 C 147.012 241.981,145.446 239.433,147.023 236.505 C 148.533 233.702,154.581 232.735,158.284 234.704 C 160.307 235.780,161.421 235.843,161.782 234.902 C 162.832 232.166,152.914 230.055,148.400 232.054 M126.262 235.190 C 135.796 240.658,133.863 256.494,123.375 258.841 C 109.822 261.874,103.127 241.172,115.600 234.802 C 118.105 233.523,123.711 233.727,126.262 235.190 "
			stroke="none"
			fill="#1467ae"
			fill-rule="evenodd"
		/><path
			id="path1"
			d="M0.000 200.000 L 0.000 400.000 200.000 400.000 L 400.000 400.000 400.000 200.000 L 400.000 0.000 200.000 0.000 L 0.000 0.000 0.000 200.000 M333.784 137.590 C 336.301 139.146,336.190 137.667,336.307 171.200 C 336.425 204.969,336.533 203.404,333.959 205.270 C 332.687 206.193,333.690 206.169,299.638 206.079 L 269.876 206.000 268.338 204.383 L 266.800 202.766 266.803 171.683 C 266.806 137.123,266.629 139.399,269.452 137.593 C 271.310 136.404,331.861 136.402,333.784 137.590 M109.160 146.974 C 111.589 148.508,112.528 150.363,112.321 153.223 C 111.741 161.243,100.285 161.106,99.714 153.071 C 99.343 147.861,104.891 144.280,109.160 146.974 M76.426 147.214 C 77.174 147.614,77.200 148.248,77.200 166.194 L 77.200 184.760 86.815 184.880 C 94.836 184.980,96.493 185.100,96.809 185.600 C 97.225 186.259,97.333 193.662,96.948 195.100 L 96.707 196.000 81.567 196.000 C 67.009 196.000,66.412 195.970,66.014 195.226 C 65.229 193.759,65.465 148.413,66.262 147.531 C 67.024 146.690,74.982 146.441,76.426 147.214 M163.583 147.379 C 163.936 147.804,164.054 151.279,164.029 160.479 C 163.990 175.006,163.926 174.739,166.684 171.466 C 175.357 161.175,174.092 162.000,181.197 162.000 C 188.397 162.000,188.787 162.461,185.110 166.632 C 184.155 167.714,182.863 169.230,182.237 170.000 C 181.612 170.770,179.957 172.611,178.560 174.091 C 174.811 178.062,174.776 177.776,179.860 184.616 C 182.247 187.828,184.880 191.299,185.711 192.328 C 188.349 195.595,188.081 195.782,180.571 195.910 C 172.999 196.039,174.425 196.953,168.669 188.279 C 166.361 184.802,164.368 182.128,164.240 182.336 C 164.111 182.544,164.014 185.526,164.023 188.963 C 164.033 192.399,163.931 195.389,163.797 195.606 C 163.278 196.444,153.676 196.090,153.208 195.215 C 152.429 193.759,152.682 148.393,153.474 147.518 C 154.345 146.556,162.803 146.440,163.583 147.379 M257.269 147.462 C 258.255 148.355,258.423 194.751,257.443 195.565 C 256.138 196.647,247.875 195.937,247.279 194.691 L 246.748 193.583 245.517 194.459 C 233.532 202.993,217.130 189.617,221.454 174.835 C 223.125 169.124,225.352 165.751,228.988 163.425 C 233.182 160.742,239.626 160.581,244.473 163.037 C 245.518 163.567,246.469 164.000,246.587 164.000 C 246.704 164.000,246.800 160.413,246.800 156.029 C 246.800 149.315,246.899 147.958,247.429 147.429 C 248.363 146.494,256.229 146.521,257.269 147.462 M281.000 147.866 C 277.467 149.733,276.562 153.458,279.002 156.089 C 282.266 159.609,287.622 157.394,287.586 152.538 C 287.559 148.928,283.901 146.333,281.000 147.866 M207.609 161.757 C 215.001 163.526,219.173 169.529,219.333 178.628 C 219.419 183.519,220.296 183.187,207.300 183.194 C 201.305 183.197,196.400 183.339,196.400 183.509 C 196.400 183.679,196.934 184.465,197.586 185.257 C 200.501 188.793,204.892 188.908,208.340 185.537 C 209.879 184.032,210.897 184.184,213.635 186.327 C 214.670 187.137,215.986 188.140,216.559 188.556 C 218.043 189.634,217.858 190.505,215.752 192.359 C 209.370 197.976,202.343 198.683,193.790 194.567 C 190.490 192.978,188.099 190.660,186.607 187.600 C 186.017 186.390,185.369 185.087,185.167 184.705 C 184.445 183.339,184.731 175.183,185.579 172.951 C 187.658 167.482,193.897 162.079,198.257 161.972 C 198.886 161.956,199.760 161.789,200.200 161.600 C 201.404 161.083,205.120 161.162,207.609 161.757 M142.541 162.656 C 147.859 165.333,148.865 168.566,149.083 183.692 C 149.276 197.103,149.800 196.000,143.229 196.000 C 136.921 196.000,137.479 196.976,137.401 185.800 C 137.314 173.174,137.075 172.421,133.058 172.088 C 128.276 171.692,127.200 174.412,127.200 186.891 C 127.200 191.205,127.091 195.019,126.957 195.367 C 126.646 196.177,117.274 196.314,116.480 195.520 C 116.123 195.163,116.000 190.983,116.000 179.182 C 116.000 160.357,115.447 162.069,121.536 162.034 C 126.121 162.008,127.200 162.347,127.200 163.814 C 127.200 165.055,127.218 165.053,129.335 163.560 C 132.241 161.512,139.308 161.028,142.541 162.656 M111.125 162.816 C 112.201 163.818,112.509 193.896,111.457 195.281 C 110.646 196.349,101.387 196.409,100.614 195.351 C 99.917 194.398,100.149 163.384,100.860 162.528 C 101.655 161.570,110.040 161.805,111.125 162.816 M308.200 164.283 C 307.320 164.852,306.009 165.832,305.286 166.459 C 303.541 167.975,303.338 167.914,303.019 165.786 L 302.747 163.972 298.873 164.086 L 295.000 164.200 295.000 179.400 L 295.000 194.600 299.270 194.713 L 303.539 194.826 303.673 184.713 C 303.843 171.844,304.425 170.600,310.271 170.600 C 315.190 170.600,315.954 172.392,315.986 184.000 C 316.019 195.836,315.572 194.800,320.647 194.800 L 324.800 194.800 324.800 183.575 C 324.800 169.279,324.108 166.692,319.629 164.254 C 316.791 162.710,310.606 162.725,308.200 164.283 M278.227 167.300 C 278.092 169.115,278.062 170.960,278.160 171.400 C 278.258 171.840,278.353 177.285,278.369 183.500 L 278.400 194.800 282.600 194.800 L 286.800 194.800 286.800 179.400 L 286.800 164.000 282.636 164.000 L 278.472 164.000 278.227 167.300 M199.107 170.824 C 197.746 171.542,196.400 173.316,196.400 174.391 C 196.400 174.684,198.226 174.786,202.100 174.711 C 207.548 174.605,207.794 174.565,207.665 173.800 C 207.156 170.774,202.360 169.106,199.107 170.824 M237.033 172.193 C 232.070 173.962,230.999 181.507,235.200 185.100 C 239.167 188.494,245.921 186.316,246.850 181.343 C 248.122 174.536,243.237 169.983,237.033 172.193 M86.163 213.700 C 86.483 214.195,87.130 215.770,87.601 217.200 C 88.072 218.630,88.609 220.160,88.795 220.600 C 88.981 221.040,89.223 221.760,89.333 222.200 C 89.443 222.640,90.243 224.980,91.111 227.400 C 91.979 229.820,92.778 232.070,92.888 232.400 C 92.998 232.730,93.497 234.170,93.997 235.600 C 94.498 237.030,94.994 238.697,95.100 239.305 C 95.206 239.913,95.451 240.508,95.646 240.629 C 95.841 240.749,96.000 241.124,96.000 241.463 C 96.000 241.802,96.252 242.646,96.560 243.340 C 96.868 244.033,97.212 244.960,97.324 245.400 C 97.435 245.840,98.276 248.270,99.192 250.800 C 100.107 253.330,100.949 255.760,101.062 256.200 C 101.174 256.640,101.455 257.392,101.685 257.870 C 101.915 258.349,102.125 259.429,102.152 260.270 L 102.200 261.800 99.947 261.919 C 96.910 262.078,96.883 262.040,94.060 253.551 C 91.066 244.549,92.273 245.445,82.965 245.321 L 75.146 245.217 74.215 246.221 C 73.703 246.774,73.202 247.805,73.100 248.513 C 72.916 249.796,71.419 254.375,70.751 255.695 C 70.558 256.077,70.400 256.807,70.400 257.318 C 70.400 257.829,70.136 258.596,69.813 259.024 C 69.490 259.451,69.220 260.105,69.213 260.477 C 69.179 262.276,64.003 262.811,63.666 261.050 C 63.529 260.335,64.573 256.471,65.247 255.200 C 65.422 254.870,66.300 252.350,67.199 249.600 C 68.097 246.850,68.981 244.240,69.162 243.800 C 69.343 243.360,69.801 242.010,70.179 240.800 C 70.558 239.590,71.008 238.240,71.179 237.800 C 71.740 236.357,73.279 231.825,73.624 230.600 C 74.317 228.143,79.068 214.567,79.539 213.700 C 79.974 212.900,80.337 212.800,82.805 212.800 C 85.245 212.800,85.652 212.909,86.163 213.700 M136.171 213.429 C 137.127 214.384,137.127 260.416,136.171 261.371 C 134.810 262.733,131.200 261.987,131.200 260.344 C 131.200 259.171,130.442 259.094,129.198 260.140 C 122.550 265.735,110.019 262.642,106.396 254.512 C 99.186 238.334,115.927 222.696,129.430 232.996 C 131.220 234.361,131.200 234.463,131.200 224.159 C 131.200 213.180,131.286 212.800,133.762 212.800 C 134.848 212.800,135.788 213.045,136.171 213.429 M82.400 220.806 C 82.400 221.066,82.158 221.846,81.861 222.540 C 81.160 224.179,79.601 228.668,79.200 230.200 C 78.809 231.693,77.221 236.311,76.709 237.440 C 75.579 239.935,76.073 240.189,82.297 240.316 C 90.274 240.478,89.951 240.868,87.593 233.906 C 86.530 230.768,85.133 226.499,84.488 224.419 C 83.477 221.157,82.400 219.294,82.400 220.806 M158.200 230.612 C 162.379 231.723,164.188 234.248,162.218 236.218 C 160.988 237.448,160.625 237.440,158.400 236.133 C 154.172 233.648,147.600 235.150,147.600 238.600 C 147.600 240.262,150.099 242.800,151.735 242.800 C 152.650 242.800,158.836 245.587,160.570 246.780 C 164.913 249.767,165.204 256.770,161.128 260.200 C 154.953 265.395,137.676 262.187,142.029 256.654 C 143.092 255.303,144.052 255.332,146.956 256.805 C 154.030 260.392,161.783 255.619,156.697 250.808 C 155.984 250.133,154.950 249.471,154.400 249.335 C 149.045 248.015,144.277 245.074,142.981 242.290 C 139.376 234.547,148.030 227.906,158.200 230.612 M115.971 235.991 C 105.898 241.316,109.559 258.000,120.800 258.000 C 130.375 258.000,134.990 244.990,127.922 237.922 C 125.135 235.135,119.356 234.201,115.971 235.991 "
			stroke="none"
			fill="#e4ecfb"
			fill-rule="evenodd"
		/><path
			id="path2"
			d="M269.452 137.593 C 266.629 139.399,266.806 137.123,266.803 171.683 L 266.800 202.766 268.338 204.383 L 269.876 206.000 299.638 206.079 C 333.690 206.169,332.687 206.193,333.959 205.270 C 336.533 203.404,336.425 204.969,336.307 171.200 C 336.190 137.667,336.301 139.146,333.784 137.590 C 331.861 136.402,271.310 136.404,269.452 137.593 M333.841 138.330 C 335.659 139.849,335.628 139.269,335.625 171.345 C 335.622 203.295,335.622 203.296,333.776 204.747 L 332.692 205.600 301.600 205.600 C 270.675 205.600,270.502 205.596,269.446 204.765 C 267.107 202.925,267.200 204.299,267.200 171.604 C 267.200 138.505,267.140 139.319,269.670 138.102 C 271.447 137.247,332.807 137.465,333.841 138.330 M103.008 146.915 C 97.231 150.187,99.486 159.200,106.081 159.200 C 112.623 159.200,114.804 150.538,109.160 146.974 C 107.215 145.747,105.106 145.726,103.008 146.915 M66.262 147.531 C 65.465 148.413,65.229 193.759,66.014 195.226 C 66.412 195.970,67.009 196.000,81.567 196.000 L 96.707 196.000 96.948 195.100 C 97.333 193.662,97.225 186.259,96.809 185.600 C 96.493 185.100,94.836 184.980,86.815 184.880 L 77.200 184.760 77.200 166.194 C 77.200 144.499,77.901 146.800,71.288 146.800 C 67.568 146.800,66.826 146.908,66.262 147.531 M108.799 147.400 C 112.937 149.539,113.108 155.124,109.115 157.714 C 105.618 159.981,101.498 158.221,100.362 153.975 C 99.086 149.205,104.353 145.100,108.799 147.400 M153.474 147.518 C 152.682 148.393,152.429 193.759,153.208 195.215 C 153.676 196.090,163.278 196.444,163.797 195.606 C 163.931 195.389,164.033 192.399,164.023 188.963 C 164.014 185.526,164.111 182.544,164.240 182.336 C 164.368 182.128,166.361 184.802,168.669 188.279 C 174.425 196.953,172.999 196.039,180.571 195.910 C 188.081 195.782,188.349 195.595,185.711 192.328 C 184.880 191.299,182.247 187.828,179.860 184.616 C 174.776 177.776,174.811 178.062,178.560 174.091 C 179.957 172.611,181.612 170.770,182.237 170.000 C 182.863 169.230,184.155 167.714,185.110 166.632 C 188.787 162.461,188.397 162.000,181.197 162.000 C 174.092 162.000,175.357 161.175,166.684 171.466 C 163.926 174.739,163.990 175.006,164.029 160.479 C 164.054 151.279,163.936 147.804,163.583 147.379 C 162.803 146.440,154.345 146.556,153.474 147.518 M247.429 147.429 C 246.899 147.958,246.800 149.315,246.800 156.029 C 246.800 160.413,246.704 164.000,246.587 164.000 C 246.469 164.000,245.518 163.567,244.473 163.037 C 239.626 160.581,233.182 160.742,228.988 163.425 C 225.352 165.751,223.125 169.124,221.454 174.835 C 217.130 189.617,233.532 202.993,245.517 194.459 L 246.748 193.583 247.279 194.691 C 247.875 195.937,256.138 196.647,257.443 195.565 C 258.423 194.751,258.255 148.355,257.269 147.462 C 256.229 146.521,248.363 146.494,247.429 147.429 M280.332 147.611 C 276.148 149.821,275.975 155.290,280.018 157.562 C 281.851 158.592,283.602 158.630,285.175 157.674 C 291.386 153.897,286.733 144.229,280.332 147.611 M284.251 147.838 C 286.555 148.788,287.568 150.216,287.586 152.538 C 287.622 157.394,282.266 159.609,279.002 156.089 C 275.502 152.314,279.575 145.911,284.251 147.838 M76.810 166.600 C 76.925 176.940,77.060 185.445,77.110 185.500 C 77.159 185.555,81.394 185.600,86.520 185.600 C 93.236 185.600,95.974 185.734,96.320 186.080 C 97.208 186.968,96.959 194.687,96.026 195.186 C 95.194 195.632,68.164 195.791,67.033 195.357 C 66.183 195.031,66.052 148.211,66.900 147.859 C 67.175 147.744,69.470 147.684,72.000 147.725 L 76.600 147.800 76.810 166.600 M163.614 161.200 C 163.731 168.570,163.866 174.645,163.914 174.700 C 164.245 175.084,164.939 174.540,166.302 172.828 C 167.911 170.808,171.604 166.569,173.871 164.139 L 175.142 162.778 180.838 162.889 C 186.764 163.004,187.381 163.207,186.105 164.618 C 185.716 165.048,184.202 166.840,182.740 168.600 C 181.279 170.360,179.590 172.250,178.988 172.800 C 177.422 174.230,174.800 177.585,174.800 178.158 C 174.800 178.593,176.983 181.661,183.338 190.157 C 184.472 191.674,185.647 193.249,185.949 193.657 C 187.118 195.240,186.011 195.600,179.985 195.600 L 174.467 195.600 173.317 194.100 C 172.685 193.275,170.480 190.035,168.419 186.900 C 163.485 179.398,163.600 179.353,163.600 188.790 C 163.600 194.188,163.507 195.150,162.967 195.357 C 161.775 195.815,154.583 195.623,154.080 195.120 C 153.549 194.589,153.353 148.381,153.879 147.855 C 154.032 147.701,156.237 147.626,158.779 147.688 L 163.400 147.800 163.614 161.200 M257.167 148.339 C 257.762 149.449,257.755 194.332,257.160 195.048 C 256.831 195.445,255.656 195.600,252.984 195.600 C 248.609 195.600,248.000 195.427,248.000 194.181 C 248.000 192.743,247.297 192.624,245.628 193.781 C 238.196 198.931,227.146 196.005,223.387 187.894 C 215.864 171.654,232.031 154.582,245.547 164.495 C 247.092 165.628,247.200 165.118,247.200 156.656 C 247.200 150.893,247.338 148.422,247.680 148.080 C 248.545 147.215,256.684 147.436,257.167 148.339 M200.200 161.600 C 199.760 161.789,198.886 161.956,198.257 161.972 C 193.897 162.079,187.658 167.482,185.579 172.951 C 184.731 175.183,184.445 183.339,185.167 184.705 C 185.369 185.087,186.017 186.390,186.607 187.600 C 188.099 190.660,190.490 192.978,193.790 194.567 C 202.343 198.683,209.370 197.976,215.752 192.359 C 217.858 190.505,218.043 189.634,216.559 188.556 C 215.986 188.140,214.670 187.137,213.635 186.327 C 210.897 184.184,209.879 184.032,208.340 185.537 C 204.892 188.908,200.501 188.793,197.586 185.257 C 196.934 184.465,196.400 183.679,196.400 183.509 C 196.400 183.339,201.305 183.197,207.300 183.194 C 220.296 183.187,219.419 183.519,219.333 178.628 C 219.173 169.529,215.001 163.526,207.609 161.757 C 205.120 161.162,201.404 161.083,200.200 161.600 M132.447 161.975 C 131.703 162.165,130.303 162.878,129.335 163.560 C 127.218 165.053,127.200 165.055,127.200 163.814 C 127.200 162.347,126.121 162.008,121.536 162.034 C 115.447 162.069,116.000 160.357,116.000 179.182 C 116.000 190.983,116.123 195.163,116.480 195.520 C 117.274 196.314,126.646 196.177,126.957 195.367 C 127.091 195.019,127.200 191.205,127.200 186.891 C 127.200 174.412,128.276 171.692,133.058 172.088 C 137.075 172.421,137.314 173.174,137.401 185.800 C 137.479 196.976,136.921 196.000,143.229 196.000 C 149.800 196.000,149.276 197.103,149.083 183.692 C 148.865 168.566,147.859 165.333,142.541 162.656 C 141.056 161.908,134.452 161.463,132.447 161.975 M206.790 162.198 C 214.084 163.732,218.148 168.953,218.668 177.458 C 219.020 183.214,219.947 182.800,206.724 182.800 C 195.000 182.800,195.170 182.762,196.684 185.073 C 199.412 189.235,206.555 189.557,208.984 185.626 C 209.550 184.709,211.209 185.295,214.140 187.446 C 217.773 190.112,217.813 190.317,215.100 192.340 C 209.574 196.462,204.260 197.514,198.000 195.727 C 180.066 190.606,181.184 165.880,199.514 162.228 C 203.125 161.509,203.508 161.508,206.790 162.198 M100.860 162.528 C 100.149 163.384,99.917 194.398,100.614 195.351 C 101.387 196.409,110.646 196.349,111.457 195.281 C 112.509 193.896,112.201 163.818,111.125 162.816 C 110.040 161.805,101.655 161.570,100.860 162.528 M142.107 163.093 C 144.237 163.940,146.697 166.882,147.352 169.365 C 148.701 174.479,148.800 175.531,148.800 184.777 C 148.800 196.417,149.221 195.600,143.220 195.600 C 137.663 195.600,138.088 196.491,137.932 184.526 C 137.769 172.072,137.152 170.788,131.733 171.610 C 127.648 172.230,126.811 174.750,126.805 186.451 C 126.799 196.346,127.208 195.668,121.342 195.514 L 117.000 195.400 117.000 179.200 L 117.000 163.000 121.342 162.886 C 126.003 162.764,126.800 163.018,126.800 164.625 C 126.800 165.912,127.359 166.129,128.220 165.178 C 130.901 162.216,137.432 161.235,142.107 163.093 M311.252 162.708 C 309.551 162.847,307.095 164.084,305.330 165.691 C 304.329 166.602,303.603 166.345,303.594 165.076 C 303.582 163.313,303.179 163.164,298.767 163.285 L 294.600 163.400 294.495 179.252 L 294.391 195.104 295.295 195.347 C 296.586 195.692,302.909 195.646,303.474 195.286 C 303.813 195.071,303.984 192.136,304.074 184.993 C 304.222 173.235,304.408 172.593,307.998 171.401 C 314.152 169.357,315.555 172.041,315.583 185.910 L 315.600 194.820 316.599 195.200 C 317.905 195.696,324.056 195.624,324.700 195.105 C 325.569 194.404,325.345 172.406,324.440 169.636 C 322.679 164.242,318.612 162.106,311.252 162.708 M110.567 163.043 C 111.464 163.387,111.537 194.423,110.643 195.165 C 110.274 195.471,108.550 195.589,105.543 195.514 L 101.000 195.400 100.895 179.601 C 100.838 170.911,100.877 163.576,100.983 163.301 C 101.185 162.773,109.296 162.555,110.567 163.043 M278.093 163.667 C 277.380 164.380,277.380 194.617,278.092 195.057 C 278.707 195.437,285.080 195.707,286.305 195.406 L 287.209 195.182 287.105 179.291 L 287.000 163.400 282.793 163.287 C 279.861 163.209,278.436 163.324,278.093 163.667 M319.629 164.254 C 324.108 166.692,324.800 169.279,324.800 183.575 L 324.800 194.800 320.647 194.800 C 315.572 194.800,316.019 195.836,315.986 184.000 C 315.954 172.392,315.190 170.600,310.271 170.600 C 304.425 170.600,303.843 171.844,303.673 184.713 L 303.539 194.826 299.270 194.713 L 295.000 194.600 295.000 179.400 L 295.000 164.200 298.873 164.086 L 302.747 163.972 303.019 165.786 C 303.338 167.914,303.541 167.975,305.286 166.459 C 309.473 162.823,315.342 161.921,319.629 164.254 M286.800 179.400 L 286.800 194.800 282.600 194.800 L 278.400 194.800 278.369 183.500 C 278.353 177.285,278.258 171.840,278.160 171.400 C 278.062 170.960,278.092 169.115,278.227 167.300 L 278.472 164.000 282.636 164.000 L 286.800 164.000 286.800 179.400 M198.923 170.357 C 196.922 171.292,195.212 174.050,196.025 175.030 C 196.728 175.877,207.290 175.855,207.996 175.005 C 210.486 172.004,203.290 168.316,198.923 170.357 M204.513 170.548 C 206.038 171.198,207.477 172.683,207.665 173.800 C 207.794 174.565,207.548 174.605,202.100 174.711 C 195.990 174.830,195.957 174.817,197.007 172.786 C 198.204 170.472,201.811 169.397,204.513 170.548 M237.200 171.582 C 230.009 174.054,230.332 184.586,237.673 187.024 C 241.901 188.429,246.382 185.852,247.411 181.424 C 249.009 174.547,243.638 169.369,237.200 171.582 M242.218 172.046 C 248.473 173.621,248.927 183.419,242.867 186.048 C 236.765 188.695,231.233 183.498,233.005 176.783 C 234.090 172.667,237.573 170.877,242.218 172.046 M79.539 213.700 C 79.068 214.567,74.317 228.143,73.624 230.600 C 73.279 231.825,71.740 236.357,71.179 237.800 C 71.008 238.240,70.558 239.590,70.179 240.800 C 69.801 242.010,69.343 243.360,69.162 243.800 C 68.981 244.240,68.097 246.850,67.199 249.600 C 66.300 252.350,65.422 254.870,65.247 255.200 C 64.573 256.471,63.529 260.335,63.666 261.050 C 63.989 262.738,69.200 262.293,69.200 260.577 C 69.200 260.148,68.994 260.206,68.400 260.800 C 67.439 261.761,64.500 261.925,64.159 261.036 C 64.040 260.726,64.774 258.071,65.791 255.136 C 66.808 252.201,68.631 246.830,69.841 243.200 C 71.051 239.570,72.199 236.240,72.391 235.800 C 72.584 235.360,73.492 232.750,74.409 230.000 C 75.326 227.250,76.218 224.640,76.391 224.200 C 76.564 223.760,77.190 221.899,77.783 220.064 C 79.913 213.464,79.964 213.390,82.542 213.282 C 85.107 213.175,86.078 213.821,86.734 216.074 C 86.947 216.803,88.318 220.820,89.781 225.000 C 91.244 229.180,93.047 234.400,93.788 236.600 C 95.326 241.164,98.457 250.236,100.614 256.376 C 102.304 261.187,102.102 261.854,99.067 261.464 C 97.087 261.210,97.472 261.898,94.736 253.728 C 91.396 243.756,92.791 244.800,82.813 244.800 C 74.620 244.800,74.432 244.819,73.823 245.689 C 72.860 247.064,73.087 247.439,74.173 246.267 L 75.146 245.217 82.965 245.321 C 92.273 245.445,91.066 244.549,94.060 253.551 C 96.883 262.040,96.910 262.078,99.947 261.919 L 102.200 261.800 102.152 260.270 C 102.125 259.429,101.915 258.349,101.685 257.870 C 101.455 257.392,101.174 256.640,101.062 256.200 C 100.949 255.760,100.107 253.330,99.192 250.800 C 98.276 248.270,97.435 245.840,97.324 245.400 C 97.212 244.960,96.868 244.033,96.560 243.340 C 96.252 242.646,96.000 241.802,96.000 241.463 C 96.000 241.124,95.841 240.749,95.646 240.629 C 95.451 240.508,95.206 239.913,95.100 239.305 C 94.994 238.697,94.498 237.030,93.997 235.600 C 93.497 234.170,92.998 232.730,92.888 232.400 C 92.778 232.070,91.979 229.820,91.111 227.400 C 90.243 224.980,89.443 222.640,89.333 222.200 C 89.223 221.760,88.981 221.040,88.795 220.600 C 88.609 220.160,88.072 218.630,87.601 217.200 C 86.203 212.954,86.034 212.800,82.805 212.800 C 80.337 212.800,79.974 212.900,79.539 213.700 M131.590 213.826 C 131.376 214.390,131.200 219.040,131.200 224.159 C 131.200 234.463,131.220 234.361,129.430 232.996 C 115.927 222.696,99.186 238.334,106.396 254.512 C 110.019 262.642,122.550 265.735,129.198 260.140 C 130.442 259.094,131.200 259.171,131.200 260.344 C 131.200 261.987,134.810 262.733,136.171 261.371 C 137.127 260.416,137.127 214.384,136.171 213.429 C 135.069 212.326,132.061 212.587,131.590 213.826 M135.321 213.700 C 135.950 214.166,136.478 260.455,135.862 261.072 C 134.463 262.470,131.600 261.314,131.600 259.351 C 131.600 257.653,131.132 257.654,129.147 259.352 C 122.221 265.281,110.798 262.398,106.671 253.680 C 99.670 238.893,116.360 223.772,129.017 233.434 C 132.076 235.769,132.000 236.015,132.000 223.754 C 132.000 213.986,132.001 213.974,132.900 213.612 C 134.149 213.110,134.546 213.125,135.321 213.700 M81.909 220.884 C 78.299 231.265,75.656 239.681,75.848 240.182 C 76.199 241.096,89.507 241.109,89.857 240.196 C 90.148 239.437,83.561 219.517,82.953 219.316 C 82.707 219.235,82.237 219.941,81.909 220.884 M84.488 224.419 C 85.133 226.499,86.530 230.768,87.593 233.906 C 89.951 240.868,90.274 240.478,82.297 240.316 C 76.073 240.189,75.579 239.935,76.709 237.440 C 77.221 236.311,78.809 231.693,79.200 230.200 C 79.601 228.668,81.160 224.179,81.861 222.540 C 82.158 221.846,82.400 221.066,82.400 220.806 C 82.400 219.294,83.477 221.157,84.488 224.419 M148.000 230.839 C 141.157 233.916,140.118 241.957,146.077 245.722 C 148.104 247.002,152.267 248.809,154.400 249.335 C 154.950 249.471,155.984 250.133,156.697 250.808 C 161.783 255.619,154.030 260.392,146.956 256.805 C 144.052 255.332,143.092 255.303,142.029 256.654 C 137.676 262.187,154.953 265.395,161.128 260.200 C 165.204 256.770,164.913 249.767,160.570 246.780 C 158.836 245.587,152.650 242.800,151.735 242.800 C 150.099 242.800,147.600 240.262,147.600 238.600 C 147.600 235.150,154.172 233.648,158.400 236.133 C 160.980 237.649,163.200 236.779,163.200 234.252 C 163.200 231.127,152.635 228.755,148.000 230.839 M157.526 231.054 C 160.679 231.970,162.389 233.153,162.395 234.420 C 162.406 236.610,161.042 236.902,158.050 235.350 C 151.532 231.968,144.039 236.741,148.458 241.459 C 148.900 241.931,151.412 243.172,154.039 244.216 C 165.625 248.819,167.275 257.640,157.285 261.568 C 151.481 263.851,140.432 260.954,142.135 257.597 C 143.022 255.846,143.671 255.788,146.543 257.202 C 151.379 259.583,156.777 258.821,158.492 255.515 C 159.947 252.712,157.982 250.024,153.326 248.446 C 145.599 245.829,142.800 243.316,142.800 239.000 C 142.800 232.728,149.972 228.858,157.526 231.054 M116.200 235.363 C 107.658 239.444,107.411 253.120,115.800 257.507 C 119.640 259.516,125.856 258.249,128.850 254.849 C 137.204 245.358,127.280 230.070,116.200 235.363 M124.960 235.809 C 135.423 240.181,132.082 258.000,120.800 258.000 C 109.559 258.000,105.898 241.316,115.971 235.991 C 117.798 235.025,122.839 234.923,124.960 235.809 M71.457 252.516 C 70.609 255.202,69.754 257.813,69.557 258.319 C 69.041 259.646,69.139 259.915,69.813 259.024 C 70.136 258.596,70.400 257.752,70.400 257.147 C 70.400 256.542,70.580 255.936,70.800 255.800 C 71.020 255.664,71.200 255.252,71.200 254.885 C 71.200 254.518,71.664 253.003,72.231 251.518 C 72.798 250.034,73.203 248.552,73.131 248.226 C 73.059 247.899,72.306 249.830,71.457 252.516 "
			stroke="none"
			fill="#8ebde3"
			fill-rule="evenodd"
		/><path
			id="path3"
			d="M269.670 138.102 C 267.131 139.323,267.192 138.466,267.259 171.815 C 267.318 201.834,267.325 202.067,268.159 203.301 C 269.145 204.759,271.047 205.642,272.200 205.178 C 272.860 204.913,272.776 204.851,271.722 204.828 C 270.981 204.812,269.974 204.395,269.322 203.835 L 268.200 202.869 268.200 171.644 L 268.200 140.418 269.309 139.309 L 270.418 138.200 295.109 137.993 L 319.800 137.785 295.200 137.720 C 277.760 137.673,270.329 137.784,269.670 138.102 M324.500 137.887 C 325.105 137.978,326.095 137.978,326.700 137.887 C 327.305 137.795,326.810 137.720,325.600 137.720 C 324.390 137.720,323.895 137.795,324.500 137.887 M331.000 137.894 C 332.005 137.995,333.046 138.453,333.800 139.127 L 335.000 140.200 333.825 138.900 C 332.835 137.805,332.395 137.611,331.025 137.667 L 329.400 137.734 331.000 137.894 M335.105 151.312 C 335.162 157.300,335.261 163.550,335.324 165.200 C 335.387 166.850,335.463 162.260,335.491 155.000 C 335.520 147.740,335.421 141.490,335.272 141.112 C 335.122 140.733,335.047 145.323,335.105 151.312 M280.584 146.774 C 277.878 148.005,276.340 150.386,276.434 153.197 C 276.452 153.749,276.689 153.167,276.960 151.904 C 277.481 149.483,278.830 147.600,280.046 147.600 C 280.435 147.600,280.864 147.420,281.000 147.200 C 281.744 145.996,285.192 147.097,287.100 149.148 C 288.552 150.709,288.868 150.387,287.486 148.755 C 285.485 146.394,282.992 145.678,280.584 146.774 M108.813 148.150 C 110.092 149.020,110.814 150.004,111.339 151.600 C 111.448 151.930,111.551 151.705,111.568 151.100 C 111.586 150.495,111.441 150.000,111.247 150.000 C 111.052 150.000,110.806 149.665,110.699 149.255 C 110.591 148.846,109.913 148.216,109.190 147.855 C 107.331 146.927,107.183 147.043,108.813 148.150 M66.900 147.865 C 66.599 147.986,66.402 148.809,66.406 149.933 C 66.410 151.184,66.530 151.614,66.769 151.236 C 66.965 150.926,67.039 150.445,66.932 150.168 C 66.486 149.005,67.569 148.046,69.502 147.894 L 71.400 147.744 69.400 147.704 C 68.300 147.681,67.175 147.754,66.900 147.865 M75.300 148.046 L 76.400 148.467 76.406 166.733 C 76.409 176.780,76.553 185.222,76.725 185.492 C 76.955 185.854,79.526 186.013,86.419 186.092 L 95.800 186.200 95.800 190.400 L 95.800 194.600 83.800 194.812 L 71.800 195.024 84.200 195.012 L 96.600 195.000 96.713 190.760 C 96.860 185.237,97.647 185.637,86.368 185.508 L 77.000 185.400 76.800 166.600 L 76.600 147.800 75.400 147.713 L 74.200 147.626 75.300 148.046 M154.100 147.865 C 153.708 148.023,153.600 153.104,153.600 171.384 C 153.600 189.575,153.710 194.783,154.100 195.072 C 154.777 195.573,162.734 195.426,163.258 194.902 C 163.487 194.673,163.587 194.151,163.480 193.742 C 163.306 193.082,163.252 193.101,162.992 193.913 C 162.709 194.798,162.569 194.823,158.450 194.713 L 154.200 194.600 154.097 171.645 C 154.022 155.024,154.118 148.540,154.446 148.145 C 154.924 147.568,154.895 147.544,154.100 147.865 M159.000 147.976 L 162.600 148.200 163.077 149.600 L 163.555 151.000 163.577 149.543 C 163.606 147.712,163.273 147.580,158.867 147.676 L 155.400 147.751 159.000 147.976 M247.624 148.171 C 247.286 148.578,247.173 151.094,247.232 156.917 C 247.278 161.412,247.173 165.340,246.999 165.645 C 246.738 166.103,246.781 166.109,247.241 165.681 C 247.672 165.280,247.846 163.227,248.000 156.684 L 248.200 148.207 249.400 147.951 L 250.600 147.695 249.349 147.647 C 248.661 147.621,247.885 147.857,247.624 148.171 M251.900 147.882 C 252.395 147.978,253.205 147.978,253.700 147.882 C 254.195 147.787,253.790 147.709,252.800 147.709 C 251.810 147.709,251.405 147.787,251.900 147.882 M255.900 148.012 L 256.800 148.374 256.893 170.287 L 256.986 192.200 257.193 170.600 C 257.407 148.280,257.367 147.583,255.886 147.625 L 255.000 147.651 255.900 148.012 M100.587 151.240 C 99.617 154.297,102.750 158.800,105.849 158.800 C 108.307 158.800,111.589 156.152,111.551 154.200 L 111.528 153.000 111.159 154.275 C 110.602 156.201,108.192 158.000,106.169 158.000 C 102.692 158.000,99.969 154.447,100.987 151.240 C 101.134 150.778,101.164 150.400,101.054 150.400 C 100.944 150.400,100.734 150.778,100.587 151.240 M163.334 156.000 C 163.334 157.650,163.405 158.325,163.491 157.500 C 163.578 156.675,163.578 155.325,163.491 154.500 C 163.405 153.675,163.334 154.350,163.334 156.000 M288.000 155.067 C 288.000 155.468,286.492 157.063,285.000 158.241 C 284.460 158.666,284.642 158.632,285.558 158.136 C 287.045 157.330,288.707 155.374,288.273 154.940 C 288.123 154.790,288.000 154.847,288.000 155.067 M277.973 156.964 C 278.880 158.062,281.445 159.205,282.884 159.150 C 284.153 159.102,284.142 159.090,282.600 158.829 C 281.720 158.679,280.190 158.042,279.200 157.413 C 278.153 156.747,277.640 156.559,277.973 156.964 M163.144 162.500 C 163.113 164.315,163.053 166.880,163.010 168.200 C 162.968 169.520,163.068 171.050,163.232 171.600 C 163.397 172.150,163.547 169.585,163.566 165.900 C 163.585 162.215,163.510 159.200,163.400 159.200 C 163.290 159.200,163.175 160.685,163.144 162.500 M202.033 162.145 C 202.125 162.224,203.280 162.387,204.600 162.507 C 206.049 162.638,206.683 162.592,206.200 162.390 C 205.430 162.069,201.693 161.849,202.033 162.145 M234.000 162.396 C 233.599 162.652,234.130 162.698,235.600 162.534 C 236.810 162.399,237.875 162.223,237.967 162.144 C 238.358 161.806,234.544 162.048,234.000 162.396 M307.173 163.559 C 304.972 164.893,304.565 165.023,304.359 164.459 C 304.163 163.921,304.064 163.972,303.819 164.740 C 303.332 166.273,304.215 166.716,305.339 165.504 C 310.514 159.920,322.134 162.009,324.383 168.927 C 324.656 169.767,324.974 170.359,325.090 170.243 C 325.422 169.912,324.072 166.840,322.945 165.363 C 320.068 161.591,311.951 160.663,307.173 163.559 M282.395 162.699 C 284.702 162.771,286.771 163.011,286.992 163.232 C 287.588 163.828,287.742 194.347,287.153 195.057 C 286.507 195.834,278.287 195.828,277.641 195.049 C 277.315 194.656,277.193 190.175,277.215 179.406 C 277.232 171.104,277.145 164.212,277.023 164.089 C 276.595 163.662,276.784 194.422,277.214 195.226 C 277.716 196.163,286.623 196.417,287.520 195.520 C 287.877 195.163,288.000 190.972,288.000 179.134 C 288.000 160.532,288.621 162.356,282.326 162.484 L 278.200 162.569 282.395 162.699 M295.800 162.753 C 296.460 162.902,298.350 162.912,300.000 162.777 C 302.939 162.534,302.915 162.529,298.800 162.506 C 296.479 162.493,295.137 162.603,295.800 162.753 M100.987 163.708 C 100.862 164.208,100.823 165.873,100.901 167.408 L 101.043 170.200 101.122 167.123 C 101.190 164.445,101.315 163.964,102.089 163.423 L 102.978 162.800 102.097 162.800 C 101.514 162.800,101.138 163.108,100.987 163.708 M104.500 163.087 C 105.105 163.178,106.095 163.178,106.700 163.087 C 107.305 162.995,106.810 162.920,105.600 162.920 C 104.390 162.920,103.895 162.995,104.500 163.087 M109.881 163.763 C 110.439 164.511,110.631 164.589,110.739 164.111 C 110.816 163.773,110.636 163.342,110.339 163.154 C 109.351 162.528,109.155 162.789,109.881 163.763 M116.983 163.301 C 116.877 163.576,116.838 170.887,116.895 179.547 L 117.000 195.292 121.376 195.432 C 127.222 195.619,126.799 196.333,126.805 186.251 C 126.810 177.363,127.221 174.375,128.674 172.667 C 129.381 171.836,129.380 171.829,128.635 172.407 C 126.616 173.973,126.227 175.988,126.071 185.700 L 125.924 194.800 121.562 194.800 L 117.200 194.800 117.200 179.200 C 117.200 165.884,117.284 163.600,117.776 163.600 C 118.093 163.600,118.464 163.420,118.600 163.200 C 118.736 162.980,118.471 162.800,118.011 162.800 C 117.551 162.800,117.088 163.025,116.983 163.301 M120.700 163.089 C 121.415 163.178,122.585 163.178,123.300 163.089 C 124.015 163.001,123.430 162.928,122.000 162.928 C 120.570 162.928,119.985 163.001,120.700 163.089 M125.522 163.456 C 125.733 163.865,126.062 164.725,126.253 165.367 C 126.444 166.009,126.870 166.621,127.200 166.726 C 127.690 166.882,127.678 166.778,127.133 166.158 C 126.767 165.741,126.407 164.874,126.333 164.231 C 126.260 163.588,125.961 162.983,125.669 162.887 C 125.271 162.756,125.235 162.899,125.522 163.456 M139.751 163.094 C 141.893 163.315,144.048 164.783,145.541 167.036 C 146.970 169.194,147.175 169.103,146.014 166.827 C 144.971 164.784,141.764 162.774,139.694 162.867 L 138.200 162.934 139.751 163.094 M172.574 165.900 C 167.773 171.364,167.654 171.510,168.745 170.594 C 170.385 169.217,176.105 162.800,175.692 162.800 C 175.475 162.800,174.072 164.195,172.574 165.900 M182.992 163.198 C 183.868 163.366,184.813 163.416,185.092 163.309 C 185.932 162.987,185.665 164.224,184.674 165.245 C 184.164 165.770,182.706 167.550,181.433 169.200 C 179.123 172.195,179.122 172.197,181.059 170.134 C 187.506 163.273,187.698 162.775,183.876 162.846 C 181.557 162.889,181.501 162.911,182.992 163.198 M194.274 164.083 C 188.584 167.170,185.026 173.531,185.595 179.600 C 185.668 180.370,185.843 179.470,185.984 177.600 C 186.527 170.434,191.627 164.507,198.400 163.169 L 199.800 162.892 198.200 162.857 C 197.113 162.833,195.854 163.226,194.274 164.083 M208.267 163.184 C 211.437 163.939,214.700 166.751,216.407 170.200 C 216.843 171.080,217.200 171.568,217.200 171.284 C 217.202 168.272,211.176 162.748,208.000 162.850 C 207.135 162.878,207.171 162.923,208.267 163.184 M229.273 164.245 C 226.631 165.742,223.554 169.672,222.975 172.287 C 222.832 172.935,223.218 172.449,223.901 171.121 C 226.123 166.800,228.354 164.635,231.881 163.377 C 232.763 163.062,233.065 162.830,232.600 162.824 C 232.160 162.817,230.663 163.457,229.273 164.245 M241.364 163.093 C 242.604 163.277,243.995 164.032,245.568 165.374 L 246.536 166.200 245.898 165.254 C 244.969 163.876,242.972 162.791,241.490 162.860 L 240.200 162.920 241.364 163.093 M293.724 167.400 C 293.726 168.720,293.801 169.212,293.890 168.493 C 293.979 167.774,293.977 166.694,293.886 166.093 C 293.795 165.492,293.722 166.080,293.724 167.400 M110.432 169.820 C 110.463 171.382,110.468 171.387,110.877 170.265 C 111.170 169.460,111.161 169.001,110.845 168.685 C 110.518 168.358,110.408 168.660,110.432 169.820 M199.474 169.380 C 196.039 170.604,193.243 176.000,196.043 176.000 C 196.271 176.000,196.174 175.717,195.829 175.371 C 195.034 174.577,195.031 174.610,196.077 172.749 C 197.200 170.750,199.144 169.600,201.399 169.600 C 202.364 169.600,203.264 169.420,203.400 169.200 C 203.758 168.620,201.285 168.734,199.474 169.380 M146.984 170.000 C 147.077 170.550,147.351 172.170,147.592 173.600 C 147.850 175.130,147.984 179.988,147.916 185.400 L 147.800 194.600 143.400 194.600 L 139.000 194.600 138.800 185.333 C 138.690 180.236,138.510 175.976,138.400 175.866 C 138.108 175.575,138.244 194.624,138.538 195.100 C 138.927 195.728,148.033 195.390,148.451 194.731 C 149.059 193.772,148.873 175.235,148.237 173.413 C 147.927 172.526,147.480 171.170,147.244 170.400 C 147.008 169.630,146.891 169.450,146.984 170.000 M239.000 170.401 C 237.842 170.695,237.856 170.707,239.400 170.755 C 244.785 170.922,247.102 173.159,247.955 179.019 L 248.302 181.400 248.351 179.179 C 248.438 175.226,246.185 171.861,242.800 170.889 C 242.030 170.668,241.130 170.399,240.800 170.292 C 240.470 170.185,239.660 170.234,239.000 170.401 M207.143 171.488 C 208.185 172.989,209.105 173.717,208.477 172.544 C 208.255 172.130,207.663 171.433,207.161 170.996 L 206.249 170.200 207.143 171.488 M134.179 171.216 C 135.126 171.459,136.201 172.137,136.863 172.910 C 137.471 173.620,137.975 174.009,137.984 173.775 C 138.019 172.856,135.701 171.167,134.162 170.991 L 132.600 170.812 134.179 171.216 M325.528 182.421 C 325.673 191.662,325.599 194.455,325.191 195.221 C 324.714 196.116,324.726 196.153,325.335 195.651 C 326.059 195.054,326.318 175.706,325.649 172.200 C 325.481 171.320,325.426 175.919,325.528 182.421 M307.600 171.661 C 306.110 172.075,305.199 172.955,305.202 173.976 C 305.203 174.399,305.494 174.243,306.102 173.494 C 307.941 171.229,312.074 171.153,313.808 173.353 C 314.494 174.223,314.792 174.399,314.796 173.936 C 314.809 171.850,311.118 170.684,307.600 171.661 M335.334 174.000 C 335.334 175.650,335.405 176.325,335.491 175.500 C 335.578 174.675,335.578 173.325,335.491 172.500 C 335.405 171.675,335.334 172.350,335.334 174.000 M166.051 173.391 C 164.411 175.170,163.837 176.165,165.015 175.187 C 165.769 174.562,168.138 171.600,167.885 171.600 C 167.784 171.600,166.959 172.406,166.051 173.391 M233.484 173.211 C 232.198 174.713,230.699 179.232,231.290 179.824 C 231.402 179.936,231.743 178.905,232.047 177.532 C 232.419 175.854,233.026 174.527,233.900 173.481 C 234.615 172.625,235.200 171.851,235.200 171.762 C 235.200 171.349,234.758 171.722,233.484 173.211 M217.463 172.600 C 217.644 173.040,217.794 175.290,217.796 177.600 L 217.800 181.800 207.033 181.907 C 195.964 182.016,195.200 182.129,195.200 183.648 C 195.200 184.474,197.664 187.392,198.937 188.073 C 199.380 188.310,198.800 187.562,197.649 186.411 C 193.897 182.659,193.879 182.666,206.794 182.508 C 218.832 182.360,218.527 182.430,218.486 179.823 C 218.470 178.820,218.444 176.954,218.429 175.676 C 218.410 174.188,218.173 173.074,217.767 172.576 C 217.144 171.811,217.140 171.812,217.463 172.600 M176.432 174.680 C 175.314 175.934,174.400 177.100,174.400 177.271 C 174.400 177.549,176.036 175.823,178.165 173.300 C 179.778 171.388,178.359 172.518,176.432 174.680 M100.893 184.067 C 100.779 196.698,100.204 195.400,105.905 195.400 L 110.600 195.400 110.674 194.400 C 110.717 193.822,110.662 193.696,110.545 194.100 C 110.366 194.714,109.780 194.800,105.777 194.800 L 101.213 194.800 101.100 184.300 L 100.986 173.800 100.893 184.067 M206.600 175.600 L 204.600 175.874 206.476 175.937 C 207.508 175.972,208.464 175.820,208.600 175.600 C 208.736 175.380,208.792 175.228,208.724 175.263 C 208.656 175.297,207.700 175.449,206.600 175.600 M197.700 175.887 C 198.305 175.978,199.295 175.978,199.900 175.887 C 200.505 175.795,200.010 175.720,198.800 175.720 C 197.590 175.720,197.095 175.795,197.700 175.887 M304.501 177.000 C 304.505 177.880,304.587 178.193,304.683 177.695 C 304.779 177.198,304.775 176.478,304.675 176.095 C 304.575 175.713,304.496 176.120,304.501 177.000 M314.892 185.071 C 314.780 196.822,314.400 196.034,320.129 195.916 L 324.200 195.831 320.138 195.702 C 314.868 195.534,315.236 196.318,315.100 184.968 L 314.985 175.400 314.892 185.071 M66.534 178.800 C 66.534 180.450,66.605 181.125,66.691 180.300 C 66.778 179.475,66.778 178.125,66.691 177.300 C 66.605 176.475,66.534 177.150,66.534 178.800 M221.794 176.410 C 221.208 177.358,221.115 181.086,221.651 182.111 C 222.153 183.070,222.200 182.856,222.200 179.580 C 222.200 175.809,222.194 175.762,221.794 176.410 M110.447 177.500 C 110.596 179.704,111.106 180.571,111.153 178.700 C 111.179 177.655,111.020 176.800,110.800 176.800 C 110.580 176.800,110.421 177.115,110.447 177.500 M164.409 180.240 C 164.399 180.727,166.676 184.000,167.025 184.000 C 167.288 184.000,166.215 182.139,165.166 180.774 C 164.755 180.238,164.414 179.998,164.409 180.240 M175.397 180.400 C 175.590 180.730,176.480 181.968,177.374 183.151 C 178.268 184.334,179.270 185.683,179.600 186.148 C 179.930 186.613,181.415 188.604,182.900 190.572 C 186.322 195.106,186.523 194.800,180.129 194.800 L 174.658 194.800 173.629 193.678 C 173.063 193.061,172.798 192.836,173.039 193.178 C 173.281 193.520,173.580 194.089,173.705 194.443 C 173.893 194.978,174.888 195.122,179.666 195.304 C 187.201 195.591,187.246 195.548,183.926 191.243 C 180.034 186.196,179.266 185.156,177.822 182.983 C 176.554 181.075,174.533 178.922,175.397 180.400 M231.824 181.800 C 231.953 182.680,232.341 183.670,232.686 184.000 C 233.153 184.447,233.232 184.458,232.997 184.042 C 232.824 183.736,232.436 182.746,232.136 181.842 L 231.590 180.200 231.824 181.800 M247.457 182.516 C 246.523 186.236,240.955 188.548,236.600 187.025 C 236.073 186.840,236.141 186.954,236.800 187.358 C 238.231 188.236,241.705 188.167,243.554 187.224 C 245.844 186.055,248.647 182.514,247.885 181.751 C 247.781 181.648,247.588 181.992,247.457 182.516 M185.634 182.977 C 185.547 184.943,190.407 192.800,191.710 192.800 C 191.956 192.800,192.846 193.277,193.688 193.861 C 196.386 195.731,204.669 197.185,206.568 196.122 C 206.918 195.926,205.939 195.848,204.221 195.935 C 195.880 196.356,188.373 191.131,185.984 183.242 C 185.748 182.460,185.660 182.394,185.634 182.977 M163.050 184.050 C 162.676 185.920,162.748 187.921,163.200 188.200 C 163.452 188.356,163.600 187.404,163.600 185.624 C 163.600 182.558,163.440 182.100,163.050 184.050 M304.144 187.600 C 304.144 189.690,304.212 190.545,304.294 189.500 C 304.376 188.455,304.376 186.745,304.294 185.700 C 304.212 184.655,304.144 185.510,304.144 187.600 M209.199 185.700 C 209.199 185.975,208.381 186.717,207.381 187.348 C 206.381 187.980,205.650 188.583,205.756 188.689 C 205.861 188.795,206.971 188.149,208.221 187.254 L 210.494 185.626 212.283 186.913 C 213.267 187.621,214.506 188.470,215.036 188.800 C 217.299 190.210,214.532 193.117,209.200 194.933 C 208.688 195.107,208.692 195.141,209.229 195.168 C 210.226 195.218,214.470 192.955,215.933 191.593 C 217.468 190.164,217.380 189.519,215.521 188.562 C 214.794 188.188,213.461 187.278,212.559 186.541 C 210.911 185.195,209.201 184.767,209.199 185.700 M169.045 187.500 C 169.638 188.545,170.567 189.850,171.111 190.400 C 172.252 191.556,172.000 191.047,169.861 187.879 C 167.989 185.107,167.578 184.916,169.045 187.500 M222.819 185.713 C 222.649 188.525,229.438 195.303,232.287 195.166 C 232.763 195.143,232.667 195.030,231.997 194.826 C 228.945 193.898,225.732 190.988,223.942 187.533 C 223.335 186.360,222.829 185.541,222.819 185.713 M201.700 189.087 C 202.305 189.178,203.295 189.178,203.900 189.087 C 204.505 188.995,204.010 188.920,202.800 188.920 C 201.590 188.920,201.095 188.995,201.700 189.087 M293.664 192.824 C 293.557 195.873,293.873 196.045,299.372 195.914 C 302.838 195.831,304.163 195.661,304.237 195.290 C 304.294 195.010,304.249 194.965,304.137 195.190 C 304.015 195.436,302.025 195.600,299.174 195.600 C 293.861 195.600,294.224 195.819,293.872 192.400 C 293.749 191.203,293.719 191.264,293.664 192.824 M66.400 193.127 C 66.400 195.162,66.957 195.574,69.200 195.200 L 71.000 194.900 69.100 194.850 C 67.211 194.800,67.200 194.792,67.200 193.424 C 67.200 192.667,67.020 191.936,66.800 191.800 C 66.559 191.651,66.400 192.180,66.400 193.127 M245.772 192.831 C 243.548 195.288,237.288 196.645,233.800 195.425 C 233.273 195.240,233.341 195.354,234.000 195.758 C 236.454 197.263,243.136 195.886,245.864 193.313 C 246.630 192.591,247.092 192.000,246.890 192.000 C 246.689 192.000,246.186 192.374,245.772 192.831 M248.047 193.476 C 247.984 195.181,248.284 195.302,252.685 195.355 C 256.489 195.400,257.529 195.058,257.069 193.913 C 256.942 193.596,256.851 193.673,256.832 194.114 C 256.803 194.759,256.402 194.817,252.703 194.714 L 248.606 194.600 248.350 193.400 L 248.095 192.200 248.047 193.476 M335.348 197.200 C 335.348 199.510,335.414 200.455,335.495 199.300 C 335.576 198.145,335.576 196.255,335.495 195.100 C 335.414 193.945,335.348 194.890,335.348 197.200 M333.551 204.009 C 332.542 204.762,331.637 204.797,310.551 204.900 L 288.600 205.007 310.678 205.103 L 332.755 205.200 333.878 204.213 C 335.219 203.032,335.022 202.910,333.551 204.009 M279.718 205.098 C 281.433 205.173,284.133 205.172,285.718 205.097 C 287.303 205.021,285.900 204.959,282.600 204.960 C 279.300 204.961,278.003 205.022,279.718 205.098 M79.714 214.743 C 79.406 215.482,79.249 216.183,79.367 216.300 C 79.485 216.418,79.658 216.264,79.752 215.957 C 80.360 213.978,80.329 214.000,82.487 214.006 C 85.082 214.014,85.435 214.226,86.165 216.219 C 86.483 217.089,86.756 217.512,86.772 217.160 C 86.885 214.578,85.512 213.443,82.238 213.416 C 80.383 213.401,80.245 213.474,79.714 214.743 M132.189 214.085 C 132.077 214.377,132.037 218.843,132.100 224.008 L 132.215 233.400 132.308 223.887 C 132.408 213.581,132.400 213.612,134.602 214.165 L 135.602 214.416 135.587 231.660 C 135.578 241.144,135.669 249.003,135.790 249.123 C 135.910 249.243,135.962 241.345,135.904 231.571 L 135.800 213.800 134.096 213.677 C 132.955 213.594,132.325 213.729,132.189 214.085 M78.712 217.600 C 78.576 218.150,78.350 219.050,78.210 219.600 C 78.052 220.222,78.197 220.079,78.592 219.221 C 78.942 218.462,79.168 217.562,79.094 217.221 C 79.010 216.831,78.868 216.972,78.712 217.600 M87.619 220.400 C 87.592 220.737,91.164 230.898,91.389 231.123 C 91.836 231.569,91.555 230.369,90.372 226.780 C 89.321 223.590,87.671 219.765,87.619 220.400 M77.280 221.887 C 76.000 225.221,74.779 229.324,74.946 229.732 C 75.051 229.990,75.151 229.883,75.168 229.495 C 75.186 229.107,75.368 228.477,75.574 228.095 C 76.215 226.905,78.083 221.149,77.890 220.957 C 77.790 220.857,77.515 221.275,77.280 221.887 M80.100 224.059 C 79.405 226.003,79.479 226.842,80.220 225.421 C 80.558 224.772,80.782 223.886,80.717 223.451 C 80.629 222.859,80.475 223.011,80.100 224.059 M78.457 229.131 C 77.576 231.548,77.304 233.385,78.092 231.600 C 78.627 230.387,79.571 227.043,79.422 226.890 C 79.363 226.830,78.928 227.839,78.457 229.131 M118.278 230.836 C 113.242 231.368,108.673 234.631,106.781 239.045 C 105.521 241.985,105.887 242.442,107.225 239.600 C 109.847 234.031,114.189 231.218,120.187 231.206 C 124.251 231.197,125.989 231.924,130.380 235.469 C 131.140 236.082,131.598 236.320,131.398 235.997 C 130.050 233.815,123.807 230.212,121.800 230.458 C 121.580 230.484,119.995 230.655,118.278 230.836 M149.600 231.011 C 146.232 231.940,143.772 234.411,143.040 237.600 C 142.913 238.150,143.188 237.790,143.649 236.800 C 145.880 232.016,151.725 229.963,158.000 231.760 C 158.889 232.014,158.870 231.971,157.825 231.371 C 156.212 230.444,152.281 230.272,149.600 231.011 M91.600 231.919 C 91.600 232.425,94.765 241.612,95.191 242.341 C 95.956 243.652,95.645 241.769,94.759 239.733 C 94.297 238.670,93.475 236.405,92.932 234.700 C 92.049 231.926,91.600 230.989,91.600 231.919 M160.537 233.035 C 161.532 233.711,161.980 234.276,161.830 234.667 C 161.703 234.996,161.600 235.341,161.600 235.433 C 161.600 235.884,159.786 235.507,158.296 234.747 C 157.234 234.205,155.671 233.846,154.012 233.764 L 151.400 233.635 153.781 234.013 C 156.828 234.497,158.611 235.090,159.217 235.820 C 160.188 236.991,161.784 236.400,162.207 234.714 C 162.440 233.788,162.289 233.520,161.139 232.819 C 159.208 231.642,158.736 231.811,160.537 233.035 M88.000 232.605 C 88.000 232.953,88.605 234.944,89.310 236.913 C 89.529 237.525,89.790 237.943,89.891 237.843 C 89.991 237.742,89.674 236.521,89.185 235.130 C 88.298 232.603,88.000 231.967,88.000 232.605 M115.800 234.703 C 114.291 235.481,112.379 237.057,111.611 238.157 C 110.989 239.046,113.828 236.971,114.746 235.865 C 115.547 234.900,118.583 234.305,121.934 234.458 C 123.691 234.537,124.919 234.470,124.664 234.307 C 123.786 233.749,117.070 234.049,115.800 234.703 M72.800 234.907 C 72.800 235.259,72.374 236.594,71.853 237.874 C 70.501 241.192,69.106 245.640,69.343 245.876 C 69.454 245.987,69.767 245.295,70.040 244.339 C 70.312 243.383,70.685 242.429,70.867 242.220 C 71.050 242.011,71.200 241.462,71.200 241.000 C 71.200 240.538,71.343 239.989,71.518 239.780 C 72.072 239.118,73.342 234.809,73.065 234.532 C 72.919 234.386,72.800 234.555,72.800 234.907 M76.071 236.342 C 75.781 237.300,75.455 238.380,75.347 238.742 C 75.238 239.104,75.528 238.680,75.989 237.800 C 76.451 236.920,76.777 235.840,76.714 235.400 C 76.640 234.877,76.417 235.203,76.071 236.342 M147.233 236.147 C 146.775 236.888,146.424 238.013,146.453 238.647 L 146.505 239.800 146.753 238.600 C 146.889 237.940,147.320 236.815,147.710 236.100 C 148.644 234.391,148.297 234.425,147.233 236.147 M127.975 236.928 C 128.951 237.948,129.835 238.698,129.939 238.594 C 130.203 238.330,128.834 236.874,127.400 235.893 C 126.469 235.256,126.598 235.489,127.975 236.928 M142.822 239.992 C 142.774 242.184,148.692 247.841,149.836 246.697 C 149.914 246.619,149.021 246.072,147.852 245.480 C 145.256 244.165,144.688 243.559,143.653 241.000 C 143.043 239.493,142.838 239.244,142.822 239.992 M130.816 239.854 C 130.807 240.104,131.063 240.914,131.384 241.654 C 131.706 242.394,131.976 242.796,131.984 242.546 C 131.993 242.296,131.737 241.486,131.416 240.746 C 131.094 240.006,130.824 239.604,130.816 239.854 M110.067 240.675 C 109.377 241.964,109.500 242.721,110.230 241.679 C 110.576 241.184,110.787 240.560,110.697 240.291 C 110.599 239.996,110.349 240.148,110.067 240.675 M77.200 241.247 C 76.430 241.383,78.950 241.488,82.800 241.480 C 90.066 241.465,90.066 241.302,82.800 241.111 C 80.490 241.050,77.970 241.111,77.200 241.247 M148.978 242.609 C 149.405 242.935,151.205 243.761,152.978 244.444 C 163.303 248.425,165.992 253.913,160.258 259.304 C 159.519 260.000,159.332 260.320,159.804 260.081 C 161.840 259.051,163.794 255.462,163.502 253.287 C 162.989 249.461,160.822 247.065,156.200 245.213 C 154.660 244.596,152.230 243.624,150.800 243.054 C 149.370 242.483,148.550 242.283,148.978 242.609 M105.384 244.591 C 105.233 245.796,105.279 247.641,105.485 248.691 C 105.820 250.394,105.861 250.158,105.871 246.500 C 105.883 241.858,105.777 241.443,105.384 244.591 M109.344 246.400 C 109.344 248.490,109.412 249.345,109.494 248.300 C 109.576 247.255,109.576 245.545,109.494 244.500 C 109.412 243.455,109.344 244.310,109.344 246.400 M95.613 243.635 C 95.606 243.764,96.860 247.528,98.400 252.000 C 99.940 256.472,101.200 260.281,101.200 260.465 C 101.200 260.983,98.220 260.860,97.680 260.320 C 97.323 259.963,97.200 259.959,97.200 260.306 C 97.200 261.465,101.129 261.885,101.801 260.798 C 101.986 260.500,101.218 257.943,100.181 255.400 C 99.912 254.740,99.209 252.760,98.620 251.000 C 98.030 249.240,97.380 247.487,97.174 247.105 C 96.968 246.723,96.800 246.083,96.800 245.682 C 96.800 245.037,95.645 243.045,95.613 243.635 M131.871 246.816 C 131.524 251.311,130.894 253.088,128.913 255.155 C 127.974 256.136,127.275 257.008,127.360 257.093 C 128.619 258.352,132.059 251.405,132.308 247.100 C 132.563 242.708,132.205 242.476,131.871 246.816 M74.872 244.206 C 75.272 244.605,89.795 244.783,90.400 244.396 C 90.795 244.144,88.203 244.010,82.833 244.006 C 78.342 244.003,74.759 244.093,74.872 244.206 M73.332 245.300 C 72.881 246.018,71.534 250.067,71.694 250.227 C 71.768 250.301,72.297 249.110,72.870 247.581 C 73.869 244.914,74.008 244.226,73.332 245.300 M92.603 246.944 C 92.911 247.968,93.365 249.119,93.612 249.503 C 94.012 250.125,94.031 250.114,93.784 249.400 C 93.632 248.960,93.363 247.993,93.185 247.251 C 93.007 246.509,92.678 245.718,92.453 245.493 C 92.227 245.267,92.295 245.921,92.603 246.944 M68.208 248.500 C 68.117 248.775,67.567 250.409,66.986 252.132 C 66.405 253.854,66.008 255.341,66.103 255.436 C 66.264 255.597,66.929 253.799,68.224 249.700 C 68.520 248.765,68.675 248.000,68.568 248.000 C 68.462 248.000,68.300 248.225,68.208 248.500 M156.800 249.800 C 157.545 250.350,158.255 250.794,158.378 250.786 C 158.749 250.762,156.228 248.804,155.822 248.802 C 155.615 248.801,156.055 249.250,156.800 249.800 M135.594 255.000 L 135.400 260.600 133.900 260.724 C 132.986 260.800,132.400 260.673,132.400 260.401 C 132.400 260.154,132.211 260.069,131.981 260.212 C 131.029 260.800,132.530 261.688,134.116 261.475 C 136.170 261.200,136.038 261.667,135.905 255.155 L 135.788 249.400 135.594 255.000 M94.016 250.654 C 94.007 250.904,94.263 251.714,94.584 252.454 C 94.906 253.194,95.176 253.596,95.184 253.346 C 95.193 253.096,94.937 252.286,94.616 251.546 C 94.294 250.806,94.024 250.404,94.016 250.654 M109.609 250.746 C 109.576 252.770,114.542 258.404,116.352 258.398 C 116.715 258.396,116.473 258.121,115.800 257.772 C 114.111 256.896,111.228 253.745,110.354 251.822 C 109.949 250.930,109.614 250.446,109.609 250.746 M71.200 250.863 C 71.200 251.061,69.506 256.725,69.006 258.200 C 68.739 258.989,68.744 258.989,69.367 258.224 C 69.715 257.796,70.000 257.067,70.000 256.604 C 70.000 256.140,70.153 255.589,70.341 255.380 C 70.851 254.812,71.749 251.216,71.455 250.922 C 71.315 250.782,71.200 250.755,71.200 250.863 M106.032 251.316 C 106.001 252.018,107.444 255.200,107.794 255.200 C 107.892 255.200,107.646 254.435,107.248 253.500 C 106.850 252.565,106.420 251.530,106.294 251.200 C 106.113 250.729,106.056 250.754,106.032 251.316 M95.426 255.300 C 95.951 256.984,96.380 258.000,96.566 258.000 C 96.668 258.000,96.475 257.190,96.138 256.200 C 95.524 254.397,94.899 253.607,95.426 255.300 M157.655 257.000 C 156.954 257.770,156.534 258.400,156.721 258.400 C 157.075 258.400,158.474 256.966,158.964 256.100 C 159.463 255.218,158.963 255.562,157.655 257.000 M143.400 256.400 C 143.264 256.620,143.483 256.800,143.887 256.800 C 144.291 256.800,145.034 257.088,145.537 257.441 C 146.040 257.793,146.553 257.980,146.678 257.856 C 146.802 257.732,146.430 257.414,145.852 257.151 C 145.273 256.887,144.800 256.520,144.800 256.336 C 144.800 255.865,143.699 255.916,143.400 256.400 M142.042 257.922 C 141.551 258.840,141.867 259.299,143.565 260.133 C 145.419 261.044,145.577 260.698,143.807 259.604 C 142.728 258.938,142.432 258.529,142.613 257.959 C 142.919 256.996,142.550 256.972,142.042 257.922 M110.464 258.391 C 113.516 263.256,125.049 263.509,129.400 258.806 L 130.600 257.510 128.590 258.989 C 123.026 263.085,116.020 262.867,111.021 258.443 L 109.842 257.400 110.464 258.391 M64.414 259.373 C 63.505 261.072,64.119 261.733,66.305 261.406 C 68.585 261.065,68.804 260.947,68.788 260.076 C 68.777 259.456,68.742 259.458,68.368 260.100 C 67.561 261.485,64.680 261.057,65.000 259.600 C 65.319 258.147,65.113 258.067,64.414 259.373 M147.200 261.600 C 149.522 262.574,154.160 262.650,156.409 261.750 C 158.536 260.899,158.221 260.616,156.012 261.396 C 153.827 262.167,150.578 262.168,148.400 261.400 C 145.976 260.545,145.052 260.699,147.200 261.600 "
			stroke="none"
			fill="#749cbe"
			fill-rule="evenodd"
		/><path
			id="path4"
			d="M320.500 137.887 C 321.105 137.978,322.095 137.978,322.700 137.887 C 323.305 137.795,322.810 137.720,321.600 137.720 C 320.390 137.720,319.895 137.795,320.500 137.887 M333.900 138.931 C 334.615 139.754,335.200 140.722,335.200 141.081 C 335.200 141.440,335.314 141.619,335.454 141.479 C 335.895 141.038,334.805 139.031,333.681 138.217 C 332.688 137.498,332.706 137.556,333.900 138.931 M102.919 147.584 C 102.215 148.013,101.360 148.904,101.019 149.562 C 100.144 151.256,100.252 151.648,101.177 150.131 C 101.602 149.434,102.633 148.399,103.468 147.831 C 105.236 146.630,104.804 146.435,102.919 147.584 M71.900 147.882 C 72.395 147.978,73.205 147.978,73.700 147.882 C 74.195 147.787,73.790 147.709,72.800 147.709 C 71.810 147.709,71.405 147.787,71.900 147.882 M278.529 148.500 C 278.084 148.995,277.587 149.670,277.425 150.000 C 277.263 150.330,277.487 150.161,277.923 149.625 C 278.359 149.089,279.039 148.414,279.435 148.125 C 279.830 147.836,279.970 147.600,279.746 147.600 C 279.522 147.600,278.975 148.005,278.529 148.500 M287.875 150.400 C 288.022 150.950,288.124 152.210,288.102 153.200 C 288.072 154.527,288.151 154.790,288.402 154.200 C 288.902 153.028,288.838 151.954,288.186 150.600 C 287.721 149.635,287.660 149.596,287.875 150.400 M111.720 152.400 C 111.720 153.610,111.795 154.105,111.887 153.500 C 111.978 152.895,111.978 151.905,111.887 151.300 C 111.795 150.695,111.720 151.190,111.720 152.400 M163.293 152.000 C 163.293 152.770,163.375 153.085,163.476 152.700 C 163.576 152.315,163.576 151.685,163.476 151.300 C 163.375 150.915,163.293 151.230,163.293 152.000 M257.222 171.400 C 257.128 182.840,257.039 192.740,257.025 193.400 C 257.011 194.060,256.840 194.870,256.644 195.200 C 256.342 195.708,256.389 195.705,256.947 195.182 C 257.547 194.620,257.597 192.577,257.500 172.582 L 257.393 150.600 257.222 171.400 M66.578 163.800 C 66.578 170.620,66.632 173.466,66.699 170.125 C 66.766 166.784,66.766 161.204,66.699 157.725 C 66.633 154.246,66.578 156.980,66.578 163.800 M276.832 153.520 C 276.788 154.801,277.835 156.685,278.904 157.247 C 279.672 157.651,279.641 157.557,278.692 156.596 C 278.082 155.979,277.482 155.008,277.357 154.437 C 276.990 152.761,276.865 152.543,276.832 153.520 M267.309 158.000 C 267.309 158.990,267.387 159.395,267.482 158.900 C 267.578 158.405,267.578 157.595,267.482 157.100 C 267.387 156.605,267.309 157.010,267.309 158.000 M284.976 157.787 C 284.062 158.479,281.909 158.575,280.674 157.978 C 279.830 157.570,279.826 157.577,280.576 158.178 C 281.646 159.035,283.992 158.945,285.200 158.000 C 285.750 157.570,286.099 157.214,285.976 157.209 C 285.854 157.204,285.404 157.464,284.976 157.787 M199.800 162.208 C 196.599 162.881,198.640 162.881,202.200 162.207 C 203.905 161.884,204.453 161.682,203.600 161.690 C 202.830 161.697,201.120 161.930,199.800 162.208 M236.800 162.055 C 240.270 162.738,243.035 162.877,240.000 162.216 C 238.570 161.904,236.860 161.661,236.200 161.675 C 235.266 161.695,235.398 161.779,236.800 162.055 M133.248 162.432 C 131.353 162.804,130.016 163.531,128.312 165.115 C 127.182 166.166,127.094 166.117,126.670 164.200 C 126.534 163.587,126.482 163.645,126.446 164.451 C 126.358 166.449,127.449 166.709,129.118 165.088 C 131.159 163.105,132.378 162.733,137.000 162.688 C 140.325 162.656,140.662 162.600,139.000 162.360 C 136.460 161.992,135.421 162.005,133.248 162.432 M206.200 162.381 C 206.968 162.729,209.110 162.956,208.767 162.653 C 208.675 162.572,207.880 162.396,207.000 162.262 C 205.885 162.093,205.642 162.129,206.200 162.381 M232.800 162.400 C 231.976 162.664,231.941 162.726,232.600 162.754 C 233.040 162.773,233.670 162.613,234.000 162.400 C 234.701 161.947,234.214 161.947,232.800 162.400 M315.305 162.687 C 315.914 162.779,316.814 162.777,317.305 162.682 C 317.797 162.587,317.300 162.511,316.200 162.514 C 315.100 162.517,314.697 162.595,315.305 162.687 M141.600 162.950 C 141.600 163.044,142.241 163.499,143.024 163.961 C 143.807 164.423,144.336 164.620,144.199 164.398 C 143.931 163.964,141.600 162.666,141.600 162.950 M177.300 163.091 C 178.125 163.178,179.475 163.178,180.300 163.091 C 181.125 163.005,180.450 162.934,178.800 162.934 C 177.150 162.934,176.475 163.005,177.300 163.091 M277.700 163.065 C 277.359 163.202,277.224 164.115,277.274 165.933 C 277.348 168.599,277.348 168.599,277.498 166.412 C 277.713 163.280,277.841 163.200,282.662 163.200 C 286.606 163.200,286.845 163.247,287.188 164.100 C 287.409 164.652,287.559 164.760,287.575 164.380 C 287.628 163.075,286.712 162.799,282.420 162.832 C 280.099 162.849,277.975 162.954,277.700 163.065 M294.267 163.067 C 294.120 163.213,294.042 170.458,294.093 179.167 L 294.186 195.000 294.393 179.204 L 294.600 163.408 295.800 163.151 L 297.000 162.895 295.767 162.847 C 295.088 162.821,294.413 162.920,294.267 163.067 M300.246 163.096 C 302.715 163.215,303.149 163.350,303.519 164.116 L 303.946 165.000 303.973 164.143 C 304.008 163.018,303.284 162.784,300.067 162.879 L 297.400 162.959 300.246 163.096 M110.934 166.000 C 110.934 167.650,111.005 168.325,111.091 167.500 C 111.178 166.675,111.178 165.325,111.091 164.500 C 111.005 163.675,110.934 164.350,110.934 166.000 M247.084 164.402 C 246.931 164.986,246.674 165.128,246.137 164.927 C 245.474 164.678,245.458 164.722,245.979 165.361 C 246.607 166.133,247.600 165.375,247.600 164.124 C 247.600 163.342,247.322 163.492,247.084 164.402 M189.775 167.300 L 188.600 168.600 189.900 167.425 C 191.112 166.330,191.384 166.000,191.075 166.000 C 191.006 166.000,190.421 166.585,189.775 167.300 M146.742 168.587 C 147.092 169.560,147.446 170.288,147.529 170.205 C 147.748 169.985,146.799 167.247,146.424 167.015 C 146.249 166.907,146.392 167.614,146.742 168.587 M335.467 167.867 C 335.091 168.243,335.134 171.112,335.519 171.350 C 335.694 171.458,335.829 170.659,335.819 169.573 C 335.808 168.488,335.785 167.600,335.767 167.600 C 335.748 167.600,335.613 167.720,335.467 167.867 M287.331 171.000 C 287.333 172.540,287.405 173.121,287.492 172.291 C 287.579 171.461,287.577 170.201,287.489 169.491 C 287.400 168.781,287.329 169.460,287.331 171.000 M168.768 169.900 C 166.409 172.543,165.874 173.200,166.082 173.200 C 166.203 173.200,167.149 172.210,168.182 171.000 C 170.096 168.760,170.555 167.898,168.768 169.900 M204.200 169.682 C 204.860 169.913,205.829 170.484,206.353 170.951 L 207.305 171.800 206.774 170.928 C 206.193 169.974,204.749 169.182,203.681 169.232 C 203.307 169.249,203.540 169.452,204.200 169.682 M277.292 181.820 C 277.195 195.303,277.237 195.645,278.980 195.560 C 279.667 195.527,279.638 195.475,278.800 195.242 L 277.800 194.964 277.592 181.982 L 277.383 169.000 277.292 181.820 M100.920 172.000 C 100.920 173.210,100.995 173.705,101.087 173.100 C 101.178 172.495,101.178 171.505,101.087 170.900 C 100.995 170.295,100.920 170.790,100.920 172.000 M110.942 173.400 C 110.941 175.380,111.008 176.240,111.092 175.312 C 111.176 174.384,111.177 172.764,111.095 171.712 C 111.012 170.660,110.943 171.420,110.942 173.400 M180.200 171.140 C 179.540 171.755,178.646 172.695,178.212 173.229 C 177.779 173.763,178.364 173.307,179.512 172.215 C 181.403 170.417,181.801 169.976,181.500 170.012 C 181.445 170.018,180.860 170.526,180.200 171.140 M131.096 171.208 C 130.268 171.355,129.546 171.549,129.491 171.638 C 129.436 171.727,129.035 172.250,128.599 172.800 L 127.806 173.800 128.907 172.826 C 129.533 172.273,130.740 171.753,131.704 171.621 C 132.637 171.493,133.220 171.288,133.000 171.164 C 132.780 171.041,131.923 171.060,131.096 171.208 M236.039 171.422 C 233.954 172.327,234.736 172.436,237.204 171.584 C 238.613 171.098,239.042 170.827,238.400 170.829 C 237.850 170.830,236.788 171.097,236.039 171.422 M243.638 171.700 C 243.732 171.755,244.527 172.430,245.404 173.200 L 247.000 174.600 245.622 173.100 C 244.863 172.275,244.068 171.600,243.855 171.600 C 243.641 171.600,243.544 171.645,243.638 171.700 M195.813 173.175 C 195.142 174.472,195.320 175.407,196.309 175.786 C 196.861 175.998,196.852 175.920,196.248 175.254 C 195.592 174.529,195.588 174.384,196.181 173.236 C 196.533 172.556,196.731 172.000,196.621 172.000 C 196.511 172.000,196.147 172.529,195.813 173.175 M163.242 173.400 C 163.201 175.037,163.797 175.963,164.463 175.297 C 164.827 174.933,164.834 174.800,164.491 174.800 C 164.234 174.800,163.854 174.215,163.648 173.500 L 163.272 172.200 163.242 173.400 M222.151 174.335 C 221.759 176.195,221.776 176.396,222.278 175.893 C 222.639 175.533,222.807 174.732,222.728 173.758 L 222.600 172.200 222.151 174.335 M208.270 173.545 C 208.393 174.017,208.248 174.703,207.947 175.067 C 207.479 175.635,207.486 175.702,208.000 175.534 C 208.725 175.296,209.029 173.669,208.456 173.096 C 208.174 172.814,208.116 172.955,208.270 173.545 M137.552 174.887 C 137.737 175.998,137.793 176.055,137.919 175.254 C 138.001 174.733,137.903 174.143,137.701 173.941 C 137.479 173.719,137.421 174.093,137.552 174.887 M304.692 174.242 C 304.531 174.402,304.400 174.809,304.400 175.147 C 304.400 175.597,304.518 175.642,304.845 175.315 C 305.090 175.070,305.221 174.663,305.137 174.410 C 305.052 174.157,304.852 174.081,304.692 174.242 M175.229 176.654 C 173.993 178.225,174.129 179.138,175.789 180.400 C 176.477 180.923,176.464 180.851,175.689 179.846 C 174.590 178.419,174.582 177.985,175.629 176.654 C 176.085 176.074,176.368 175.600,176.258 175.600 C 176.148 175.600,175.685 176.074,175.229 176.654 M201.700 175.887 C 202.305 175.978,203.295 175.978,203.900 175.887 C 204.505 175.795,204.010 175.720,202.800 175.720 C 201.590 175.720,201.095 175.795,201.700 175.887 M304.101 177.400 C 304.105 178.280,304.187 178.593,304.283 178.095 C 304.379 177.598,304.375 176.878,304.275 176.495 C 304.175 176.113,304.096 176.520,304.101 177.400 M325.292 185.169 C 325.213 193.239,325.108 194.638,324.538 195.269 C 324.165 195.681,324.071 196.000,324.324 196.000 C 325.422 196.000,325.612 194.234,325.500 185.112 L 325.385 175.800 325.292 185.169 M287.369 184.600 C 287.370 189.220,287.428 191.055,287.499 188.678 C 287.570 186.301,287.569 182.521,287.498 180.278 C 287.427 178.035,287.369 179.980,287.369 184.600 M315.289 185.420 C 315.198 194.888,315.308 195.639,316.780 195.572 C 317.208 195.552,317.153 195.447,316.600 195.232 C 315.840 194.936,315.789 194.448,315.589 185.560 L 315.378 176.200 315.289 185.420 M335.369 185.000 C 335.370 189.620,335.428 191.455,335.499 189.078 C 335.570 186.701,335.569 182.921,335.498 180.678 C 335.427 178.435,335.369 180.380,335.369 185.000 M138.167 185.000 C 138.167 189.180,138.226 190.836,138.298 188.679 C 138.371 186.523,138.370 183.103,138.298 181.079 C 138.225 179.056,138.166 180.820,138.167 185.000 M185.228 179.633 C 185.244 180.385,185.420 181.360,185.620 181.800 C 185.865 182.339,185.905 181.946,185.741 180.600 C 185.451 178.219,185.189 177.724,185.228 179.633 M218.501 179.800 C 218.505 180.680,218.587 180.993,218.683 180.495 C 218.779 179.998,218.775 179.278,218.675 178.895 C 218.575 178.513,218.496 178.920,218.501 179.800 M247.649 180.200 C 247.616 180.640,247.496 181.450,247.383 182.000 L 247.177 183.000 247.606 182.019 C 247.842 181.479,247.961 180.669,247.872 180.219 C 247.713 179.421,247.707 179.421,247.649 180.200 M110.966 187.600 C 110.966 191.670,111.025 193.335,111.098 191.300 C 111.171 189.265,111.171 185.935,111.098 183.900 C 111.025 181.865,110.966 183.530,110.966 187.600 M163.700 180.687 C 163.425 180.786,163.205 181.347,163.212 181.933 C 163.224 182.933,163.253 182.950,163.678 182.200 C 163.927 181.760,164.301 181.288,164.509 181.150 C 164.998 180.825,164.350 180.454,163.700 180.687 M304.114 182.200 C 304.117 183.300,304.195 183.703,304.287 183.095 C 304.379 182.486,304.377 181.586,304.282 181.095 C 304.187 180.603,304.111 181.100,304.114 182.200 M66.555 186.600 C 66.556 189.460,66.620 190.578,66.697 189.083 C 66.774 187.589,66.774 185.249,66.696 183.883 C 66.618 182.518,66.555 183.740,66.555 186.600 M195.867 182.667 C 195.369 183.164,195.597 184.300,196.300 184.832 C 196.896 185.282,196.925 185.278,196.500 184.801 C 195.633 183.829,195.906 182.867,197.100 182.687 L 198.200 182.520 197.167 182.460 C 196.598 182.427,196.013 182.520,195.867 182.667 M203.911 182.693 C 204.851 182.778,206.291 182.777,207.111 182.691 C 207.930 182.605,207.160 182.536,205.400 182.537 C 203.640 182.539,202.970 182.609,203.911 182.693 M211.500 182.695 C 212.655 182.776,214.545 182.776,215.700 182.695 C 216.855 182.614,215.910 182.548,213.600 182.548 C 211.290 182.548,210.345 182.614,211.500 182.695 M221.876 183.400 C 222.010 184.060,222.261 184.960,222.434 185.400 L 222.749 186.200 222.757 185.400 C 222.761 184.960,222.509 184.060,222.198 183.400 L 221.633 182.200 221.876 183.400 M167.276 185.200 C 167.975 186.324,168.701 187.339,168.891 187.456 C 169.080 187.573,168.673 186.755,167.986 185.638 C 167.298 184.521,166.572 183.506,166.371 183.382 C 166.170 183.258,166.578 184.076,167.276 185.200 M233.250 184.387 C 233.911 185.422,235.892 187.070,236.119 186.773 C 236.191 186.678,235.434 185.880,234.435 185.000 C 233.127 183.847,232.796 183.675,233.250 184.387 M180.364 186.733 C 180.580 187.136,181.071 187.721,181.455 188.033 C 181.887 188.384,181.790 188.104,181.201 187.300 C 180.151 185.865,179.757 185.598,180.364 186.733 M199.544 187.976 C 200.502 188.812,205.293 189.217,205.739 188.500 C 205.842 188.335,204.765 188.261,203.346 188.335 C 201.467 188.433,200.472 188.291,199.683 187.811 L 198.600 187.153 199.544 187.976 M163.328 190.800 C 163.328 192.230,163.401 192.815,163.489 192.100 C 163.578 191.385,163.578 190.215,163.489 189.500 C 163.401 188.785,163.328 189.370,163.328 190.800 M225.129 190.710 C 225.860 191.633,226.670 192.520,226.929 192.679 C 227.188 192.839,226.802 192.214,226.071 191.290 C 225.340 190.367,224.530 189.480,224.271 189.321 C 224.012 189.161,224.398 189.786,225.129 190.710 M171.473 191.500 C 172.445 193.046,173.600 194.552,173.600 194.274 C 173.600 193.948,171.184 190.400,170.962 190.400 C 170.863 190.400,171.093 190.895,171.473 191.500 M304.114 193.000 C 304.117 194.100,304.195 194.503,304.287 193.895 C 304.379 193.286,304.377 192.386,304.282 191.895 C 304.187 191.403,304.111 191.900,304.114 193.000 M246.673 192.411 C 245.972 193.093,245.983 193.117,246.973 193.059 C 247.537 193.027,248.000 192.786,248.000 192.524 C 248.000 191.717,247.435 191.668,246.673 192.411 M231.051 195.178 C 231.457 195.545,234.260 196.126,233.903 195.769 C 233.771 195.638,232.997 195.380,232.183 195.196 C 231.368 195.012,230.859 195.004,231.051 195.178 M74.674 195.499 C 78.455 195.565,84.755 195.565,88.674 195.499 C 92.593 195.434,89.500 195.380,81.800 195.380 C 74.100 195.380,70.893 195.434,74.674 195.499 M103.700 195.491 C 104.525 195.578,105.875 195.578,106.700 195.491 C 107.525 195.405,106.850 195.334,105.200 195.334 C 103.550 195.334,102.875 195.405,103.700 195.491 M119.305 195.487 C 119.914 195.579,120.814 195.577,121.305 195.482 C 121.797 195.387,121.300 195.311,120.200 195.314 C 119.100 195.317,118.697 195.395,119.305 195.487 M142.700 195.489 C 143.415 195.578,144.585 195.578,145.300 195.489 C 146.015 195.401,145.430 195.328,144.000 195.328 C 142.570 195.328,141.985 195.401,142.700 195.489 M157.900 195.489 C 158.615 195.578,159.785 195.578,160.500 195.489 C 161.215 195.401,160.630 195.328,159.200 195.328 C 157.770 195.328,157.185 195.401,157.900 195.489 M176.515 195.496 C 177.788 195.576,179.768 195.575,180.915 195.494 C 182.062 195.414,181.020 195.349,178.600 195.350 C 176.180 195.351,175.242 195.416,176.515 195.496 M207.400 195.786 C 205.822 196.508,206.179 196.520,208.400 195.821 C 209.390 195.509,209.840 195.250,209.400 195.245 C 208.960 195.240,208.060 195.483,207.400 195.786 M251.500 195.489 C 252.215 195.578,253.385 195.578,254.100 195.489 C 254.815 195.401,254.230 195.328,252.800 195.328 C 251.370 195.328,250.785 195.401,251.500 195.489 M267.331 198.200 C 267.333 199.740,267.405 200.321,267.492 199.491 C 267.579 198.661,267.577 197.401,267.489 196.691 C 267.400 195.981,267.329 196.660,267.331 198.200 M335.015 202.330 C 334.392 205.169,336.581 204.977,302.258 205.205 L 271.400 205.410 302.069 205.505 L 332.739 205.600 333.926 204.601 C 335.006 203.692,335.904 201.771,335.458 201.324 C 335.358 201.224,335.159 201.677,335.015 202.330 M81.820 219.300 C 81.735 219.575,81.583 220.250,81.484 220.800 C 81.384 221.350,81.177 222.160,81.024 222.600 C 80.840 223.128,80.953 223.060,81.358 222.400 C 81.696 221.850,81.981 221.130,81.992 220.800 C 82.037 219.468,82.769 218.939,83.408 219.776 C 83.987 220.536,84.000 220.533,84.000 219.676 C 84.000 218.697,82.108 218.371,81.820 219.300 M84.020 221.200 C 84.016 221.310,84.271 222.120,84.588 223.000 C 84.905 223.880,85.166 224.240,85.168 223.800 C 85.171 223.135,84.045 220.585,84.020 221.200 M118.100 230.687 C 118.705 230.778,119.695 230.778,120.300 230.687 C 120.905 230.595,120.410 230.520,119.200 230.520 C 117.990 230.520,117.495 230.595,118.100 230.687 M158.000 231.334 C 158.000 231.437,158.581 231.724,159.291 231.972 C 160.001 232.219,160.406 232.257,160.191 232.056 C 159.735 231.629,158.000 231.058,158.000 231.334 M130.138 234.584 C 131.789 236.235,132.410 236.072,132.367 234.000 L 132.346 233.000 131.912 233.900 C 131.369 235.026,130.921 235.030,129.626 233.923 C 129.062 233.441,129.292 233.738,130.138 234.584 M148.658 234.981 C 147.251 236.285,147.309 236.639,148.754 235.571 C 149.388 235.102,150.513 234.575,151.254 234.400 L 152.600 234.082 151.158 234.041 C 150.144 234.012,149.403 234.290,148.658 234.981 M124.800 235.053 C 125.570 235.394,126.560 235.965,127.000 236.321 C 127.440 236.677,127.350 236.502,126.800 235.932 C 126.250 235.362,125.260 234.792,124.600 234.664 C 123.448 234.442,123.456 234.458,124.800 235.053 M111.465 238.583 C 111.061 238.889,110.791 239.422,110.865 239.768 C 110.960 240.212,111.200 240.044,111.681 239.198 C 112.056 238.539,112.326 238.006,112.281 238.013 C 112.237 238.020,111.869 238.276,111.465 238.583 M75.259 239.430 C 74.614 240.846,74.968 241.210,76.924 241.140 C 78.290 241.091,78.378 241.048,77.401 240.904 C 76.034 240.703,75.521 240.112,75.836 239.100 C 76.164 238.047,75.793 238.259,75.259 239.430 M129.796 239.242 C 130.233 239.769,130.638 240.275,130.696 240.367 C 130.753 240.458,130.800 240.240,130.800 239.881 C 130.800 239.522,130.395 239.016,129.900 238.756 L 129.000 238.284 129.796 239.242 M146.825 239.138 C 146.788 239.928,148.060 241.938,148.769 242.210 C 149.159 242.359,149.067 242.109,148.515 241.522 C 148.038 241.015,147.469 240.150,147.249 239.600 C 147.030 239.050,146.839 238.842,146.825 239.138 M89.911 239.898 C 89.691 240.739,89.452 240.782,84.341 240.901 L 79.000 241.025 84.513 241.113 C 90.189 241.203,90.811 241.032,90.308 239.524 C 90.216 239.247,90.037 239.416,89.911 239.898 M131.693 244.000 C 131.693 244.770,131.775 245.085,131.876 244.700 C 131.976 244.315,131.976 243.685,131.876 243.300 C 131.775 242.915,131.693 243.230,131.693 244.000 M73.894 245.000 C 73.534 245.678,73.558 245.727,74.051 245.320 C 74.371 245.056,75.886 244.785,77.417 244.717 L 80.200 244.594 77.259 244.397 C 74.616 244.220,74.276 244.281,73.894 245.000 M84.500 244.676 C 84.885 244.776,85.515 244.776,85.900 244.676 C 86.285 244.575,85.970 244.493,85.200 244.493 C 84.430 244.493,84.115 244.575,84.500 244.676 M90.666 244.800 C 91.142 244.992,91.722 245.475,91.954 245.874 C 92.500 246.814,92.529 246.189,91.986 245.174 C 91.758 244.748,91.173 244.411,90.686 244.425 L 89.800 244.451 90.666 244.800 M149.662 246.995 C 149.977 247.311,155.337 249.197,155.488 249.045 C 155.564 248.970,155.035 248.687,154.313 248.418 C 153.591 248.149,152.522 247.675,151.938 247.364 C 150.949 246.839,149.226 246.559,149.662 246.995 M109.701 249.000 C 109.705 249.880,109.787 250.193,109.883 249.695 C 109.979 249.198,109.975 248.478,109.875 248.095 C 109.775 247.713,109.696 248.120,109.701 249.000 M158.407 251.910 C 159.352 253.672,159.365 253.875,158.614 255.313 C 158.295 255.925,158.217 256.313,158.442 256.174 C 159.745 255.369,159.524 251.163,158.150 250.636 C 157.784 250.496,157.865 250.897,158.407 251.910 M129.008 254.700 C 128.149 255.745,127.860 256.240,128.366 255.800 C 129.261 255.022,130.998 252.800,130.712 252.800 C 130.634 252.800,129.867 253.655,129.008 254.700 M107.516 255.400 C 107.744 255.840,108.586 256.920,109.389 257.800 C 111.300 259.897,110.657 258.643,108.651 256.362 C 107.799 255.393,107.288 254.960,107.516 255.400 M65.291 256.500 C 64.610 258.384,64.704 258.894,65.426 257.230 C 65.753 256.477,65.966 255.699,65.901 255.502 C 65.835 255.305,65.560 255.754,65.291 256.500 M125.000 257.646 C 123.702 258.280,122.758 258.401,120.000 258.288 C 116.605 258.148,116.603 258.149,118.400 258.692 C 120.603 259.356,122.754 259.089,125.400 257.821 C 126.500 257.294,127.220 256.863,127.000 256.864 C 126.780 256.864,125.880 257.216,125.000 257.646 M130.981 257.133 C 130.771 257.287,130.060 258.040,129.400 258.806 L 128.200 260.200 129.422 259.100 C 131.012 257.669,131.514 257.712,131.711 259.300 C 131.853 260.444,131.880 260.398,131.936 258.924 C 132.001 257.228,131.677 256.621,130.981 257.133 M156.000 257.861 C 155.449 258.152,155.269 258.388,155.600 258.388 C 156.290 258.388,157.470 257.720,157.188 257.489 C 157.085 257.404,156.550 257.571,156.000 257.861 M96.013 257.654 C 96.006 257.794,96.263 258.514,96.584 259.254 C 97.015 260.247,97.173 260.384,97.184 259.776 C 97.198 259.062,96.047 256.977,96.013 257.654 M150.000 258.830 C 151.407 259.238,153.702 259.250,154.328 258.853 C 154.639 258.656,153.652 258.522,151.928 258.529 C 150.047 258.536,149.358 258.644,150.000 258.830 "
			stroke="none"
			fill="#6cacd9"
			fill-rule="evenodd"
		/></g></svg>
