<?xml version="1.0" encoding="utf-8" ?>
<!-- Uploaded to: SVG Repo, www.svgrepo.com, Generator: SVG Repo Mixer Tools -->
<svg
	fill="#000000"
	width="800px"
	height="800px"
	viewBox="0 0 32 32"
	version="1.1"
	xmlns="http://www.w3.org/2000/svg"
>
<title>electron</title>
<path
		d="M10.409 24.405c-0.007-0-0.015-0.001-0.023-0.001-0.222 0-0.402 0.18-0.402 0.402 0 0.049 0.009 0.095 0.024 0.139l-0.001-0.003c1.342 3.747 3.537 6.053 6.005 6.053 2.12-0.214 3.89-1.526 4.749-3.352l0.015-0.036c0.035-0.058 0.056-0.129 0.056-0.204 0-0.222-0.18-0.402-0.402-0.402-0.144 0-0.271 0.076-0.342 0.19l-0.001 0.002c-0.739 1.62-2.251 2.773-4.050 2.995l-0.025 0.003c-2.050 0-4.008-2.058-5.248-5.521-0.055-0.15-0.192-0.256-0.355-0.266l-0.001-0zM27.91 22.696c0 0 0.001 0 0.001 0 0.618 0 1.12 0.501 1.12 1.12s-0.501 1.12-1.12 1.12c-0.281 0-0.539-0.104-0.735-0.275l0.001 0.001-0.008-0.015c-0.032-0.046-0.072-0.084-0.118-0.113l-0.002-0.001c-0.161-0.193-0.259-0.443-0.259-0.716 0-0.618 0.501-1.12 1.119-1.12v0zM4.090 22.696c0 0 0 0 0 0 0.618 0 1.12 0.501 1.12 1.12s-0.501 1.12-1.12 1.12c-0.618 0-1.12-0.501-1.12-1.12 0-0.206 0.056-0.399 0.153-0.565l-0.003 0.005c0.197-0.337 0.557-0.56 0.97-0.56 0 0 0 0 0 0v0zM6.668 17.676c-0.006-0-0.013-0-0.019-0-0.222 0-0.402 0.18-0.402 0.402 0 0.104 0.040 0.199 0.105 0.271l-0-0c1.718 1.84 3.691 3.412 5.87 4.666l0.122 0.065c5.517 3.185 11.379 4.105 14.447 2.298 0.311 0.226 0.701 0.361 1.122 0.361 1.063 0 1.925-0.862 1.925-1.925s-0.862-1.925-1.925-1.925c-1.063 0-1.925 0.862-1.925 1.925 0 0.35 0.093 0.677 0.256 0.96l-0.005-0.009c-2.805 1.517-8.286 0.625-13.493-2.381-2.226-1.276-4.136-2.796-5.786-4.561l-0.013-0.014c-0.069-0.076-0.168-0.126-0.277-0.131l-0.001-0zM16 15.369c-0.763 0.008-1.379 0.628-1.379 1.392 0 0.769 0.623 1.392 1.392 1.392s1.392-0.623 1.392-1.392c0-0.104-0.011-0.205-0.033-0.303l0.002 0.009c-0.142-0.633-0.7-1.098-1.365-1.098-0.003 0-0.006 0-0.009 0h0zM19.598 7.575c-0.029 0-0.057 0.004-0.084 0.010l0.003-0c-2.709 0.626-5.099 1.604-7.277 2.902l0.115-0.064c-5.711 3.297-9.488 8.116-9.197 11.711-0.594 0.335-0.988 0.961-0.988 1.68 0 1.062 0.861 1.922 1.922 1.922s1.922-0.861 1.922-1.922c0-1.062-0.861-1.922-1.922-1.922-0 0-0.001 0-0.001 0h0c-0.047 0-0.094 0.004-0.141 0.007-0.125-3.199 3.428-7.674 8.807-10.78 1.995-1.195 4.308-2.142 6.764-2.716l0.164-0.032c0.182-0.041 0.316-0.201 0.316-0.393 0-0.222-0.18-0.402-0.402-0.402-0.001 0-0.001 0-0.002 0h0zM22.97 7.21c-0.221 0.001-0.399 0.181-0.399 0.402 0 0.217 0.173 0.395 0.388 0.402l0.001 0c0.167-0.019 0.36-0.030 0.556-0.030 1.682 0 3.177 0.804 4.121 2.049l0.009 0.013c1.024 1.773 0.225 4.492-2.147 7.294-0.061 0.070-0.098 0.163-0.098 0.264 0 0.222 0.18 0.402 0.402 0.402 0.124 0 0.236-0.057 0.309-0.145l0.001-0.001c2.566-3.032 3.462-6.081 2.23-8.216-1.086-1.498-2.831-2.461-4.8-2.461-0.201 0-0.401 0.010-0.597 0.030l0.025-0.002zM9.158 7.188c-0.193-0.022-0.418-0.035-0.645-0.035-1.983 0-3.74 0.966-4.827 2.453l-0.012 0.017c-0.329 0.717-0.52 1.555-0.52 2.438 0 1.331 0.435 2.56 1.17 3.553l-0.011-0.016c0.072 0.117 0.199 0.194 0.344 0.194 0.222 0 0.402-0.18 0.402-0.402 0-0.070-0.018-0.136-0.050-0.193l0.001 0.002c-0.655-0.865-1.049-1.958-1.049-3.144 0-0.733 0.151-1.43 0.422-2.063l-0.013 0.034c1.026-1.777 3.79-2.443 7.413-1.783 0.024 0.005 0.050 0.008 0.078 0.008 0.222 0 0.402-0.18 0.402-0.402 0-0.199-0.144-0.364-0.334-0.396l-0.002-0c-0.831-0.164-1.788-0.259-2.767-0.262h-0.002zM16.014 1.808c0 0 0 0 0 0 0.618 0 1.12 0.501 1.12 1.12s-0.501 1.12-1.12 1.12c-0.618 0-1.12-0.501-1.12-1.12 0-0.206 0.056-0.399 0.153-0.565l-0.003 0.005c0.197-0.337 0.557-0.56 0.97-0.56v0zM16.014 1.004c-0 0-0.001 0-0.001 0-1.062 0-1.924 0.861-1.924 1.924s0.861 1.924 1.924 1.924c0.739 0 1.381-0.417 1.703-1.029l0.005-0.011c2.775 1.584 4.807 6.839 4.807 12.949 0 0.054 0.001 0.119 0.001 0.183 0 2.505-0.377 4.923-1.078 7.198l0.046-0.173c-0.010 0.034-0.016 0.073-0.016 0.113 0 0.222 0.18 0.402 0.402 0.402 0.177 0 0.327-0.114 0.381-0.273l0.001-0.003c0.678-2.174 1.068-4.674 1.068-7.264 0-0.065-0-0.129-0.001-0.194l0 0.010c0-6.489-2.214-12.104-5.399-13.749 0.001-0.028 0.004-0.055 0.004-0.084-0-1.062-0.861-1.923-1.924-1.923-0 0-0 0-0 0v0z"
	/>
</svg>
