<?xml version="1.0" standalone="no" ?>
<svg
	version="1.0"
	xmlns="http://www.w3.org/2000/svg"
	width="1024.000000pt"
	height="811.000000pt"
	viewBox="0 0 1024.000000 811.000000"
	preserveAspectRatio="xMidYMid meet"
>

<g
		transform="translate(0.000000,811.000000) scale(0.100000,-0.100000)"
		fill="#000000"
		stroke="none"
	>
<path
			d="M7525 7598 c-418 -269 -769 -493 -780 -499 -20 -10 -20 -10 -1 5 11
9 16 16 10 16 -41 1 -2458 -172 -2487 -178 l-37 -7 305 -383 c273 -343 308
-382 328 -376 57 18 731 193 734 190 4 -4 -592 -386 -603 -386 -5 0 -43 43
-84 95 l-75 95 -60 0 c-33 0 -856 27 -1830 59 -974 32 -1771 58 -1771 57 -1 0
176 -182 395 -402 l396 -402 1100 -20 1100 -21 343 -346 c188 -190 342 -349
342 -353 0 -4 -537 -67 -1193 -141 -655 -74 -1211 -137 -1234 -140 l-41 -6
368 -375 367 -375 1049 233 c577 128 1086 241 1132 251 l82 19 197 -232 c108
-127 202 -238 210 -247 12 -14 -64 -94 -633 -670 l-645 -654 1552 -3 c854 -1
1554 -1 1555 1 2 2 -145 473 -326 1047 -181 574 -328 1045 -326 1047 1 2 209
-290 461 -648 252 -358 463 -653 469 -655 6 -2 508 -3 1115 -2 l1105 3 -1125
505 -1124 505 860 5 860 5 -1000 449 c-550 247 -1056 475 -1124 505 l-125 56
859 5 859 5 -1074 483 c-591 266 -1079 487 -1083 492 -5 4 94 144 220 311
l228 304 838 220 c460 121 829 221 820 223 -10 1 -326 -20 -703 -47 -377 -27
-686 -48 -688 -47 -1 2 151 207 338 456 187 249 339 454 338 455 -2 1 -345
-218 -763 -487z m-895 -573 c0 -2 -10 -9 -22 -15 -22 -11 -22 -10 -4 4 21 17
26 19 26 11z m-140 -90 c0 -2 -10 -9 -22 -15 -22 -11 -22 -10 -4 4 21 17 26
19 26 11z"
		/>
<path
			d="M30 5167 c8 -8 2301 -428 2314 -424 6 2 -81 96 -194 210 l-205 206
-960 7 c-528 3 -958 4 -955 1z"
		/>
<path
			d="M8362 1719 c-239 -31 -380 -248 -310 -479 15 -49 52 -100 151 -208
91 -100 115 -150 99 -207 -10 -37 -64 -75 -107 -75 -48 0 -124 26 -186 63
l-56 34 -27 -151 c-14 -83 -26 -156 -26 -162 0 -16 78 -51 150 -68 77 -19 208
-21 282 -5 208 45 329 211 316 437 -6 108 -34 161 -153 291 -52 57 -99 119
-105 137 -14 43 3 83 45 103 38 18 117 3 196 -38 l55 -29 23 146 c25 163 29
149 -55 181 -45 17 -186 43 -217 40 -7 -1 -41 -5 -75 -10z"
		/>
<path
			d="M1957 1123 c12 -318 22 -595 22 -616 l1 -38 156 3 156 3 117 372 c64
204 118 374 121 376 3 3 4 -165 2 -374 l-3 -380 158 3 158 3 212 600 c116 330
212 606 212 613 1 10 -36 12 -166 10 l-167 -3 -95 -355 -96 -355 -3 358 -2
358 -137 -3 -137 -3 -88 -285 c-49 -157 -97 -316 -109 -353 -11 -38 -22 -67
-25 -65 -2 2 3 141 11 309 8 167 15 325 15 352 l0 47 -167 0 -168 0 22 -577z"
		/>
<path
			d="M3937 1093 c-125 -335 -227 -611 -227 -616 0 -4 77 -6 172 -5 l172 3
27 90 26 90 102 3 101 3 0 -96 0 -95 170 0 170 0 0 43 c0 23 -18 294 -40 602
-22 308 -40 566 -40 573 0 9 -47 12 -203 12 l-202 0 -228 -607z m383 27 l0
-220 -71 0 c-53 0 -70 3 -67 13 3 6 34 105 69 220 35 114 65 207 66 207 2 0 3
-99 3 -220z"
		/>
<path
			d="M5536 1688 c-8 -24 -186 -1173 -186 -1195 0 -23 1 -23 165 -23 163 0
165 0 170 22 3 13 46 279 95 593 49 314 92 580 95 593 l5 22 -170 0 c-128 0
-172 -3 -174 -12z"
		/>
<path
			d="M6760 1697 c0 -2 -43 -272 -95 -601 -52 -328 -95 -603 -95 -611 0
-13 43 -15 295 -15 162 0 295 2 295 5 0 9 40 260 45 283 5 22 5 22 -120 22
-93 0 -125 3 -125 13 0 6 31 210 70 452 38 242 70 443 70 448 0 4 -76 7 -170
7 -93 0 -170 -1 -170 -3z"
		/>
</g>
</svg>
