<svg xmlns="http://www.w3.org/2000/svg" viewBox="0 0 320.03 320"><circle
		cx="160.03"
		cy="160"
		r="160"
		style="fill:#fff"
	/><path
		d="M182.32 94.74H119.7c1.58.03 3.19.54 4.63 1.64l17.19 13.19h40.81c7.38 0 13.35 5.98 13.35 13.35v57.87c0 7.38-5.98 13.35-13.35 13.35h-11.87c-1.09 0-1.98.89-1.98 1.98V207c0 1.09.89 1.98 1.98 1.98h11.87c15.57 0 28.19-12.62 28.19-28.19v-57.87c0-15.57-12.62-28.19-28.19-28.19"
		style="fill:#181818"
	/><path
		d="m148.32 238.13-30.54-23.43c-3.9-2.99-6.19-7.64-6.19-12.56v-99.47c0-6.56 7.53-10.27 12.73-6.28l30.54 23.43c3.9 2.99 6.19 7.64 6.19 12.56v99.47c0 6.56-7.53 10.27-12.73 6.28"
		style="fill:#03eab3"
	/></svg>
