<?xml version="1.0" encoding="UTF-8" standalone="no" ?>
<svg
	width="106px"
	height="21px"
	viewBox="0 0 106 21"
	version="1.1"
	xmlns="http://www.w3.org/2000/svg"
	xmlns:xlink="http://www.w3.org/1999/xlink"
>
    <!-- Generator: Sketch 39.1 (31720) - http://www.bohemiancoding.com/sketch -->
    <title>Logo</title>
    <desc>Created with Sketch.</desc>
    <defs />
    <g
		id="Components"
		stroke="none"
		stroke-width="1"
		fill="none"
		fill-rule="evenodd"
	>
        <g
			id="Transifex-Press-Release---Version-1c"
			transform="translate(-1027.000000, -209.000000)"
			fill="#223657"
		>
            <g id="Box" transform="translate(951.000000, 149.000000)">
                <g id="Logo" transform="translate(76.000000, 60.000000)">
                    <path
						d="M7.38495765,6.2728575 L5.95582824,6.2728575 C5.72761647,6.2728575 5.54305176,6.0989075 5.54305176,5.8845325 L5.54305176,2.2744575 C5.54305176,2.0600825 5.35724,1.8849075 5.12902824,1.8849075 L2.89679294,1.8849075 C2.66858118,1.8849075 2.48276941,2.0600825 2.48276941,2.2744575 L2.48276941,5.8845325 C2.48276941,6.0989075 2.29820471,6.2728575 2.06874588,6.2728575 L0.413898824,6.2728575 C0.185687059,6.2728575 -0.000124705883,6.4468075 -0.000124705883,6.6611825 L-0.000124705883,8.3823075 C-0.000124705883,8.5979075 0.185687059,8.7718575 0.413898824,8.7718575 L2.06874588,8.7718575 C2.29820471,8.7718575 2.48276941,8.9458075 2.48276941,9.1601825 L2.48276941,17.1092075 C2.48276941,19.4048575 4.05905176,20.6543575 6.19152235,20.6543575 L7.38495765,20.6543575 C7.61316941,20.6543575 7.79898118,20.4791825 7.79898118,20.2648075 L7.79898118,18.3415575 C7.79898118,18.1443325 7.63062824,17.9850825 7.42112235,17.9801825 L7.40615765,17.9801825 L6.65542824,17.9801825 C5.88225176,17.9801825 5.54305176,17.3701325 5.54305176,16.5861325 L5.54305176,9.1601825 C5.54305176,8.9458075 5.72761647,8.7718575 5.95582824,8.7718575 L7.38495765,8.7718575 C7.61316941,8.7718575 7.79898118,8.5979075 7.79898118,8.3823075 L7.79898118,6.6611825 C7.79898118,6.4468075 7.61316941,6.2728575 7.38495765,6.2728575 L7.38495765,6.2728575 Z M105.915075,19.9781575 L101.317169,13.5444575 C101.212416,13.3986825 101.212416,13.2075825 101.317169,13.0618075 L105.700581,6.9184325 C105.906346,6.6305575 105.686864,6.2434575 105.317734,6.2434575 L102.79244,6.2434575 C102.632816,6.2434575 102.483169,6.3206325 102.399616,6.4492575 L99.8369106,10.3521075 C99.6560871,10.6265075 99.2320871,10.6265075 99.0525106,10.3521075 L96.4885576,6.4492575 C96.4050047,6.3206325 96.2566047,6.2434575 96.0969812,6.2434575 L93.5716871,6.2434575 C93.2025576,6.2434575 92.9830753,6.6305575 93.18884,6.9184325 L97.5722518,13.0618075 C97.6770047,13.2075825 97.6770047,13.3986825 97.5722518,13.5444575 L92.9730988,19.9781575 C92.7673341,20.2672575 92.9868165,20.6543575 93.3559459,20.6543575 L95.8849812,20.6543575 C96.0421106,20.6543575 96.1892635,20.5784075 96.2740635,20.4546825 L99.0562518,16.3717575 C99.2383224,16.1047075 99.6510988,16.1047075 99.8331694,16.3717575 L102.615358,20.4546825 C102.700158,20.5784075 102.846064,20.6543575 103.003193,20.6543575 L105.532228,20.6543575 C105.901358,20.6543575 106.12084,20.2672575 105.915075,19.9781575 L105.915075,19.9781575 Z M88.4574988,12.1994075 L82.8756635,12.1994075 C82.6062988,12.1994075 82.3818282,11.9789075 82.4154988,11.7277825 C82.6686518,9.7947325 83.9630988,8.7718575 85.6815459,8.7718575 C87.40124,8.7718575 88.6694988,9.7959575 88.9189106,11.7277825 C88.9513341,11.9789075 88.7268635,12.1994075 88.4574988,12.1994075 L88.4574988,12.1994075 Z M85.6815459,6.0976825 C82.7147929,6.0976825 79.3153106,7.8996575 79.3153106,13.5064825 C79.3153106,19.4048575 82.9928871,20.8283075 86.1454518,20.8283075 C87.9798753,20.8283075 89.6821106,20.3027825 91.1025106,19.0912575 C91.2883224,18.9320075 91.2958047,18.6539325 91.1286988,18.4787575 L89.7906047,17.0822575 C89.6210047,16.9046325 89.3379224,16.8997325 89.1446282,17.0540825 C88.2430047,17.7682575 87.1518282,18.1553575 86.0830988,18.1553575 C84.7549812,18.1553575 83.5503224,17.6322825 82.9006047,16.6155325 C82.5963224,16.1157325 82.4379459,15.6159325 82.3905576,14.9409575 C82.3730988,14.6861575 82.5776165,14.4656575 82.8494753,14.4656575 L91.5576871,14.4656575 C91.8120871,14.4656575 92.0178518,14.2721075 92.0178518,14.0332325 L92.0178518,12.4321575 C92.0178518,8.4803075 89.0822753,6.0976825 85.6815459,6.0976825 L85.6815459,6.0976825 Z M77.7951459,0.4332825 L76.2687459,0.4332825 C73.8881106,0.4332825 72.0960871,1.6533825 72.0960871,4.3251075 L72.0960871,5.8477825 C72.0960871,6.0829825 71.8940635,6.2728575 71.6446518,6.2728575 L70.0646282,6.2728575 C69.8152165,6.2728575 69.6131929,6.4627325 69.6131929,6.6967075 L69.6131929,8.3467825 C69.6131929,8.5819825 69.8152165,8.7718575 70.0646282,8.7718575 L71.6446518,8.7718575 C71.8940635,8.7718575 72.0960871,8.9617325 72.0960871,9.1957075 L72.0960871,20.2292825 C72.0960871,20.4632575 72.2993576,20.6543575 72.5475224,20.6543575 L74.7036871,20.6543575 C74.9530988,20.6543575 75.1551224,20.4632575 75.1551224,20.2292825 L75.1551224,9.1957075 C75.1551224,8.9617325 75.3583929,8.7718575 75.6078047,8.7718575 L77.7951459,8.7718575 C78.0445576,8.7718575 78.2465812,8.5819825 78.2465812,8.3467825 L78.2465812,6.6967075 C78.2465812,6.4627325 78.0445576,6.2728575 77.7951459,6.2728575 L75.6078047,6.2728575 C75.3583929,6.2728575 75.1551224,6.0829825 75.1551224,5.8477825 L75.1551224,4.6166575 C75.1551224,3.7162825 75.4955694,3.1050075 76.5156635,3.1050075 L77.7951459,3.1050075 C78.0445576,3.1050075 78.2465812,2.9151325 78.2465812,2.6811575 L78.2465812,0.8571325 C78.2465812,0.6231575 78.0445576,0.4332825 77.7951459,0.4332825 L77.7951459,0.4332825 Z M66.3608635,-0.0003675 L66.3209576,-0.0003675 C65.2310282,-0.0003675 64.3468635,0.8314075 64.3468635,1.8567325 C64.3468635,2.8820575 65.2310282,3.7126075 66.3209576,3.7126075 L66.3608635,3.7126075 C67.45204,3.7126075 68.3362047,2.8820575 68.3362047,1.8567325 C68.3362047,0.8314075 67.45204,-0.0003675 66.3608635,-0.0003675 L66.3608635,-0.0003675 Z M67.2762047,6.2728575 L65.4068635,6.2728575 C65.07764,6.2728575 64.8120165,6.5227575 64.8120165,6.8314575 L64.8120165,20.0945325 C64.8120165,20.4032325 65.07764,20.6543575 65.4068635,20.6543575 L67.2762047,20.6543575 C67.6041812,20.6543575 67.8710518,20.4032325 67.8710518,20.0945325 L67.8710518,6.8314575 C67.8710518,6.5227575 67.6041812,6.2728575 67.2762047,6.2728575 L67.2762047,6.2728575 Z M58.8647929,12.3451825 C58.2774282,12.1994075 57.6601341,12.1406075 56.9493106,12.0536325 C56.2995929,11.9666575 55.6511224,11.9666575 54.9402988,11.9384825 C53.3640165,11.8515075 52.8689341,11.2120575 52.8689341,10.5432075 C52.8689341,9.5264575 53.5485812,8.7718575 55.55884,8.7718575 C57.0665341,8.7718575 58.1863929,9.1834575 59.2838047,9.8449575 C59.5182518,9.9858325 59.8275224,9.9368325 59.9871459,9.7224575 L61.0858047,8.2487825 C61.2441812,8.0368575 61.2005341,7.7404075 60.9785576,7.5885075 C59.5793576,6.6317825 57.9294988,6.0976825 55.55884,6.0976825 C52.3439224,6.0976825 49.8098988,7.5799325 49.8098988,10.5150325 C49.8098988,12.7224825 51.3238282,14.0589575 53.5485812,14.4938325 C54.6622047,14.6984075 55.8057576,14.5526325 56.9181341,14.7278075 C57.9993341,14.9005325 58.8959694,15.1920825 58.8959694,16.2664075 C58.8959694,17.5159075 57.5977812,18.1553575 55.8356871,18.1553575 C53.9414047,18.1553575 52.5746282,17.6592325 51.3500165,16.6473825 C51.1292871,16.4636325 50.7950753,16.4771075 50.6067694,16.6902575 L49.3933812,18.0745075 C49.2138047,18.2803075 49.24124,18.5926825 49.4607224,18.7592825 C51.3088635,20.1692575 53.3677576,20.8283075 55.5887694,20.8283075 C59.1740635,20.8283075 61.9562518,19.1721075 61.9562518,16.4121825 C61.9562518,13.8556075 60.6268871,12.8094575 58.8647929,12.3451825 L58.8647929,12.3451825 Z M42.3412635,6.0976825 C40.6415224,6.0976825 39.29844,6.6354575 38.32324,7.7832825 C38.2820871,7.8322825 38.2309576,7.8469825 38.2309576,7.7832825 L38.2309576,6.7653075 C38.2309576,6.4774325 37.9827929,6.2434575 37.6772635,6.2434575 L35.7256165,6.2434575 C35.4200871,6.2434575 35.1719224,6.4774325 35.1719224,6.7653075 L35.1719224,20.1325075 C35.1719224,20.4203825 35.4200871,20.6543575 35.7256165,20.6543575 L37.6772635,20.6543575 C37.9827929,20.6543575 38.2309576,20.4203825 38.2309576,20.1325075 L38.2309576,12.0830325 C38.2309576,10.0789325 39.5603224,8.9458075 41.3224165,8.9458075 C43.0832635,8.9458075 44.4126282,10.0789325 44.4126282,12.0830325 L44.4126282,20.1325075 C44.4126282,20.4203825 44.6607929,20.6543575 44.9663224,20.6543575 L46.9167224,20.6543575 C47.2234988,20.6543575 47.4716635,20.4203825 47.4716635,20.1325075 L47.4716635,11.0662825 C47.4716635,7.8114575 44.7206518,6.0976825 42.3412635,6.0976825 L42.3412635,6.0976825 Z M29.7896165,15.5987825 C29.7896165,16.4415825 29.6038047,17.0516325 29.2022518,17.4289325 C28.7071694,17.9226075 27.7182518,18.1553575 26.2654282,18.1553575 C24.1641341,18.1553575 23.2986753,17.3125575 23.2986753,16.2958075 C23.2986753,15.2214825 24.1641341,14.5232325 26.0185106,14.5232325 L29.7896165,14.5232325 L29.7896165,15.5987825 Z M31.0566282,7.1156575 C29.9442518,6.3892325 28.3679694,6.0976825 26.4213106,6.0976825 C24.4397341,6.0976825 22.9133341,6.5950325 21.8159224,7.5885075 C21.61764,7.7685825 21.6326047,8.0736075 21.8283929,8.2549075 L23.1378047,9.4664325 C23.3310988,9.6452825 23.6328871,9.6428325 23.8324165,9.4701075 C24.3886047,8.9886825 25.2515694,8.7718575 26.5746988,8.7718575 C28.8006988,8.7718575 29.7896165,9.2361325 29.7896165,10.6314075 L29.7896165,12.1994075 L28.5226047,12.1994075 L25.4311459,12.1994075 C22.1251929,12.1994075 20.4553812,14.1165325 20.4553812,16.4415825 C20.4553812,17.9226075 21.1362753,19.1721075 22.4032871,19.9561075 C23.2986753,20.5085825 24.4734047,20.8283075 25.8638753,20.8283075 C27.9651694,20.8283075 29.2396635,20.0749325 29.6661576,19.3754575 C29.7222753,19.2835825 29.7896165,19.3203325 29.7896165,19.3754575 L29.7896165,20.1815075 C29.7896165,20.4424325 30.0140871,20.6543575 30.2921812,20.6543575 L32.3149106,20.6543575 C32.5930047,20.6543575 32.8174753,20.4424325 32.8174753,20.1815075 L32.8174753,10.7759575 C32.8174753,9.0327825 32.1690047,7.8996575 31.0566282,7.1156575 L31.0566282,7.1156575 Z M20.1947459,6.7591825 C19.4090988,6.3120575 18.5710753,6.0976825 17.6420165,6.0976825 C15.9422753,6.0976825 14.6129106,6.6501575 13.6239929,7.7832825 L13.5317106,7.7832825 L13.5317106,6.6599575 C13.5317106,6.4296575 13.3334282,6.2434575 13.0877576,6.2434575 L10.9153812,6.2434575 C10.6697106,6.2434575 10.4714282,6.4296575 10.4714282,6.6599575 L10.4714282,20.2378575 C10.4714282,20.4669325 10.6697106,20.6543575 10.9153812,20.6543575 L13.0877576,20.6543575 C13.3334282,20.6543575 13.5317106,20.4669325 13.5317106,20.2378575 L13.5317106,11.9960575 C13.5317106,9.8167825 15.04564,8.9458075 16.5608165,8.9458075 C17.2554282,8.9458075 17.7143459,9.0462575 18.2593106,9.3990575 C18.4550988,9.5264575 18.7257106,9.4750075 18.8628871,9.2912575 L20.3144635,7.3520825 C20.4578753,7.1585325 20.40924,6.8816825 20.1947459,6.7591825 L20.1947459,6.7591825 Z"
						id="Fill-1"
					/>
                </g>
            </g>
        </g>
    </g>
</svg>
