<?xml version="1.0" encoding="utf-8" ?>
<!-- Generator: Adobe Illustrator 21.1.0, SVG Export Plug-In . SVG Version: 6.00 Build 0)  -->
<svg
	version="1.1"
	id="Layer_1"
	xmlns="http://www.w3.org/2000/svg"
	xmlns:xlink="http://www.w3.org/1999/xlink"
	x="0px"
	y="0px"
	viewBox="0 0 100 100"
	style="enable-background:new 0 0 100 100;"
	xml:space="preserve"
>
<style type="text/css">
.st0 {
	fill: #a164fd;
}
	</style>
<g>
	<g>
		<path
				class="st0"
				d="M50,76.2c-2,1.2-3.9,2.3-5.9,3.4c-0.8,0.5-1.5,0.5-2.3,0c-4.5-2.7-9.1-5.3-13.6-8c-0.9-0.5-1.2-1.3-1.2-2.3
			c0-2,0-4,0-5.9c0-0.7-0.2-1.2-0.8-1.6c-1.6-1.2-3.2-2.5-4.9-3.7c-0.9-0.7-1.4-1.5-1.4-2.7c0.1-3.7,0.1-7.4,0-11.1
			c0-1.1,0.4-1.8,1.2-2.5c1.6-1.2,3.2-2.5,4.8-3.7c0.7-0.5,1-1.1,1-2c-0.1-1.9,0-3.8,0-5.7c0-1,0.4-1.7,1.2-2.2
			c3.9-2.5,7.8-5.1,11.6-7.6c0.4-0.3,0.9-0.5,1.4-0.7c0.6-0.2,1.1,0,1.7,0.4c2.1,1.4,4.3,2.8,6.4,4.2c0.5,0.4,0.9,0.3,1.4,0
			c2.1-1.4,4.2-2.7,6.2-4.1c1.1-0.7,2-0.7,3.1,0c4,2.6,8,5.2,12,7.8c0.7,0.4,1,1,1,1.8c0,2,0.1,4,0,6c0,0.9,0.4,1.5,1,2
			c1.7,1.2,3.3,2.6,4.9,3.8c0.8,0.6,1.2,1.4,1.1,2.4c0,3.7,0,7.4,0,11.1c0,1.1-0.3,1.8-1.2,2.5c-1.7,1.2-3.3,2.5-4.9,3.8
			c-0.7,0.5-1,1.1-1,2c0.1,1.9,0,3.7,0,5.6c0,1.1-0.4,1.8-1.4,2.4c-4.3,2.5-8.6,5-12.9,7.6c-1.2,0.7-2.2,0.7-3.4,0
			C53.6,78.3,51.8,77.3,50,76.2z M73.1,57.6c-1.3-0.8-2.3-1.5-3.5-2c-0.5-0.2-1.2-0.1-1.8-0.2c-1-0.2-1.8-0.8-2.1-1.8
			c-0.4-1-0.3-2,0.4-2.8c1.5-1.8,4.2-1.4,5.1,0.7c0.2,0.3,0.3,0.8,0.5,1c1.4,0.9,2.8,1.7,4.3,2.6c0-0.2,0.1-0.3,0.1-0.4
			c0-3.1,0-6.2,0-9.4c0-0.5-0.2-0.7-0.5-0.9c-1.8-1.4-3.5-2.8-5.2-4.1c-0.9-0.7-1.4-1.5-1.3-2.6c0-0.5,0-1.1,0-1.7
			c-0.4,0-0.7,0-1.1,0c-1.8,0-3.7,0-5.5,0c-0.8,0-1.4,0.1-2.1,0.6c-1,0.7-2.4,0.6-3.4-0.1c-1-0.8-1.4-2.1-1-3.2
			c0.6-1.8,2.8-2.6,4.4-1.6c0.7,0.4,1.3,0.6,2,0.6c1.8,0,3.7,0,5.5,0c0.4,0,0.7,0,1.1,0c0.3-0.7,0-1.1-0.6-1.4
			c-0.6-0.4-1.2-0.8-1.8-1.2c-2.5-1.6-5-3.3-7.6-4.9c-0.4-0.2-0.7-0.5-1.1-0.2c-1.8,1.2-3.7,2.4-5.6,3.6c-0.4,0.3-0.5,0.6-0.5,1
			c0,4,0,8,0,12c0,0.5,0.2,0.8,0.6,1c0.9,0.5,1.7,1,2.6,1.5c0.7,0.4,1.4,0.8,2.3,0.6c1.5-0.2,3.3,1.2,3,3.4
			c-0.2,1.3-1.3,2.3-2.5,2.4c-1.4,0.2-2.7-0.5-3.2-1.8c-0.2-0.6-0.6-0.9-1.1-1.2c-1.3-0.8-2.6-1.6-3.9-2.3c-1.2-0.6-1.6-1.5-1.5-2.8
			c0.1-4.2,0-8.5,0-12.7c0-0.7-0.2-1.1-0.8-1.4c-1.8-1.1-3.6-2.3-5.3-3.4c-0.4-0.3-0.7-0.2-1,0c-0.7,0.5-1.5,1-2.3,1.5
			c-0.6,0.4-0.8,0.8-0.8,1.5c0,2.6,0,5.2,0,7.8c0,1.3-0.8,2.3-1.9,2.2c-0.9,0-1.9-0.8-1.9-2.2c0.1-1.7,0-3.4,0-5.1
			c0-0.4,0-0.7-0.1-1.2c-1.1,0.7-2,1.3-2.9,1.9c-0.2,0.2-0.4,0.6-0.4,0.9c0,1.7,0,3.3,0,5c0,0.3,0.2,0.7,0.4,0.9
			c1.5,1.1,3,2.1,4.5,3.2c0.3,0.2,0.6,0.2,1,0c1.3-0.7,2.6-1.5,3.9-2.2c0.4-0.2,0.6-0.5,0.6-1c0-1.3,0-2.6,0-3.8c0-0.8,0-1.5,0-2.3
			c0.1-1.2,1-2,2-1.9c1,0.1,1.7,0.9,1.7,2c0,2.5,0,4.9,0,7.4c0,1.2-0.4,1.9-1.4,2.4c-1.7,0.9-3.3,1.8-4.9,2.7
			c-0.3,0.2-0.6,0.3-0.6,0.8c0,1.7,0,3.4,0,5.1c0.4,0.2,0.7,0.4,1,0.5c1.4,0.7,2.8,1.4,4.2,2.1c0.9,0.4,1.3,1.1,1.3,2.1
			c0,0.6,0,1.2,0,1.9c0,1.1,0,2.1,0,3.3c1-0.6,1.9-1,2.8-1.5c0.2-0.1,0.4-0.2,0.5-0.3c0.2-0.3,0.3-0.6,0.4-0.9c0-1.2,0-2.4,0-3.5
			c0-0.8-0.2-1.2-0.9-1.6c-1-0.6-1.9-1.2-2.8-1.8c-1.2-0.9-1.1-2.4,0.1-3.2c0.8-0.5,1.5-0.3,2.1,0.2c1.3,0.8,2.6,1.7,3.9,2.5
			c0.9,0.5,1.2,1.3,1.2,2.3c0,3.1,0,6.2,0,9.4c0,0.4,0,0.8,0,1.3c1.4,0,2.6,0,3.8,0c0.2,0,0.4,0,0.6,0c0.2-0.1,0.5-0.2,0.6-0.3
			c0.7-0.5,1.4-0.7,2.2-0.7c1.9,0.1,3.2,2,2.6,3.8c-0.7,1.9-2.8,2.7-4.6,1.5c-0.5-0.4-1-0.5-1.6-0.5c-0.9,0-1.9,0-2.8,0
			c-0.3,0-0.5,0.1-0.8,0.1c0,2,0,4,0,6c0,0.4,0.3,0.6,0.6,0.8c1.3,0.8,2.6,1.5,3.9,2.3c0.4,0.3,0.8,0.3,1.2,0
			c3.6-2.1,7.2-4.3,10.8-6.4c0.5-0.3,0.7-0.6,0.7-1.2c0-1.7,0.1-3.3,0-5c-0.1-1.7,0.5-2.9,1.9-3.7C71.7,58.9,72.3,58.3,73.1,57.6z
			 M29,40.7c-1.7,1.3-3.3,2.5-4.9,3.8c-0.1,0.1-0.3,0.3-0.3,0.5c0,0.9,0,1.8,0,2.9c0.5-0.3,0.8-0.4,1.2-0.6c1.1-0.6,2.3-1.3,3.4-2
			c1.2-0.6,2.4-0.1,2.8,1.2c0.2,0.8-0.1,1.6-1,2.2c-1.7,1-3.4,2.1-5.2,3c-0.9,0.5-1.2,1-1.2,2c0,1.2,0.3,2,1.3,2.8
			c1.7,1.2,3.3,2.6,5,3.8c0.4-0.2,0.7-0.3,1-0.5c1.4-0.8,2.8-1.6,4.2-2.4c1.2-0.7,2.7,0.1,2.8,1.4c0.1,1-0.5,1.6-1.3,2.1
			c-1.7,0.9-3.4,1.9-5.1,2.8c-0.7,0.4-1,0.8-1,1.5c0,1,0,1.9,0,2.9c0,0.6,0.2,0.9,0.7,1.2c1.2,0.7,2.4,1.4,3.6,2.1
			c0.7,0.5,1.3,0.5,2.1,0c1.8-1.1,3.6-2.1,5.4-3.1c1-0.5,2.1-0.2,2.6,0.8c0.5,0.9,0.1,2-0.9,2.6c-1.1,0.6-2.2,1.3-3.3,1.9
			c-0.3,0.2-0.6,0.4-1,0.6c0.9,0.5,1.6,0.9,2.3,1.4c0.5,0.3,0.9,0.3,1.4,0c1.2-0.7,2.4-1.5,3.7-2.2c0.6-0.3,0.8-0.7,0.8-1.4
			c0-3,0-6,0-8.9c0-0.3,0-0.6-0.1-0.9c-0.3,0.1-0.5,0.2-0.8,0.3c-2.3,1.3-4.6,2.6-7,3.9c-1.1,0.6-2.2,1.2-3.3,1.8
			c-0.9,0.5-1.8,0.3-2.4-0.3c-0.9-1-0.6-2.3,0.6-3c1.5-0.9,3.1-1.7,4.6-2.6c0.5-0.3,0.8-0.6,0.8-1.3c-0.1-1.6,0-3.3,0-4.9
			c0-0.5-0.2-0.8-0.7-1c-0.8-0.3-1.5-0.7-2.2-1.1c-1.6-0.8-1.6-0.8-3.1,0.2c-1.2,0.8-2.4,1.6-3.6,2.3c-0.9,0.6-2,0.3-2.6-0.5
			c-0.6-0.8-0.4-1.9,0.5-2.6c0.2-0.2,0.5-0.4,0.8-0.5c1.2-0.8,2.5-1.6,3.7-2.4c0.3-0.2,0.6-0.5,0.6-0.8c0.1-1.8,0-3.6,0-5.4
			C32.4,43.1,30.7,41.9,29,40.7z"
			/>
	</g>
</g>
</svg>
