<svg
	version="1.2"
	baseProfile="tiny-ps"
	xmlns="http://www.w3.org/2000/svg"
	viewBox="0 0 930 1534"
	width="930"
	height="1534"
>
	<title>image6-1024x366 (1)-svg</title>
	<style>
		tspan { white-space:pre }
		.shp0 { fill: #e20626 } 
	</style>
	<g id="#e20626ff">
		<path
			id="Layer"
			class="shp0"
			d="M295.6 0.34C359.54 44.73 407.68 106.65 456.9 165.92C500.83 219.66 524.2 291.7 512.2 360.78C500.99 435.86 439.77 492.55 430.89 568.25C421.85 641.54 461.66 707.97 469.91 779.31C478.09 843.33 474.27 916.7 427.38 966.07C344.59 1050.97 188.81 1045.44 112.87 953.85C68.24 898.4 37.17 828.22 40.59 755.95C40.44 697.77 64.19 642.55 94.02 593.64C127.83 538.43 171.29 489.91 216.31 443.64C289.06 364.75 340.62 260.23 335.17 150.96C331.5 98.55 314.21 49.02 295.6 0.34Z"
		/>
		<path
			id="Layer"
			class="shp0"
			d="M605.44 450.65C628.88 422.54 659.18 401.43 690.96 383.67C667.44 427.83 646.25 477.37 652.64 528.46C666.81 614.2 721.02 685.7 777.88 748.55C829.37 810.39 882.56 873.94 910.06 950.65C936.54 1029.94 937.94 1121.29 897.05 1195.98C846.34 1291 722.42 1340.22 620.94 1302.76C552.94 1278.07 507.38 1207.74 506.6 1136.25L502.24 1131.03C505.58 1095.2 507.06 1057.82 523.19 1024.87C541.1 982.51 573.97 945.83 577.94 898.32C592.59 800.19 532.61 712.57 526.07 616.77C522.64 551.74 563.07 495.75 605.44 450.65Z"
		/>
		<path
			id="Layer"
			class="shp0"
			d="M4.69 977.91C7.33 976.98 12.63 975.19 15.28 974.25C63.02 1075.03 177.05 1134.69 286.87 1128.07C324.73 1130.72 361.02 1115.53 398.72 1118.33C405.19 1163.27 402.85 1210.47 421.62 1252.76C444.21 1307.82 486.11 1356.73 542.74 1378.22C630.28 1413.43 728.73 1399.95 814.72 1367.01C813.32 1375.5 810.75 1383.83 804.21 1389.91C739.87 1455.48 657.15 1503.69 566.73 1522.07C450.91 1548.08 325.58 1527.29 224.72 1464.59C98.93 1388.66 14.34 1250.11 2.12 1104C-0.07 1061.95 0.4 1019.73 4.69 977.91Z"
		/>
	</g>
</svg>
