<?xml version="1.0" encoding="utf-8" ?>
<!-- Generator: Adobe Illustrator 26.0.3, SVG Export Plug-In . SVG Version: 6.00 Build 0)  -->
<svg
	version="1.0"
	id="katman_1"
	xmlns="http://www.w3.org/2000/svg"
	xmlns:xlink="http://www.w3.org/1999/xlink"
	x="0px"
	y="0px"
	viewBox="0 0 800 600"
	style="enable-background:new 0 0 800 600;"
	xml:space="preserve"
>
<style type="text/css">
.st0 {
	fill: #231f20;
}
.st1 {
	filter: url(#Adobe_OpacityMaskFilter);
}
.st2 {
	fill: #ffffff;
}
.st3 {
	fill: url(#SVGID_1_);
}
.st4 {
	fill: url(#SVGID_00000176008037968579500960000017929228888075724677_);
}
.st5 {
	fill: url(#SVGID_00000011730755772013091640000018168610862041403300_);
}

.st6 {
	mask: url(#SVGID_00000080927719334466558720000003985512822422240655_);
	fill: url(#SVGID_00000062876045614308681980000013212801694090189234_);
}
	</style>
<path
		id="IBM_Cloud"
		class="st0"
		d="M298.3,344.4v-5.9h8.2v-46.9h-8.2v-5.9h23.5v5.9h-8.2v46.9h8.2v5.9
	C321.8,344.4,298.3,344.4,298.3,344.4z M334.7,285.7h24.1c9.7,0,15.6,6,15.6,15.1c0,8.7-5.6,11.9-9.5,12.4v0.5
	c4.2,0.3,11.5,3.9,11.5,13.6c0,9.7-6.5,17-15.1,17h-26.6C334.7,344.4,334.7,285.7,334.7,285.7z M341.7,311.1h16.2
	c5.5,0,8.9-2.9,8.9-8.1v-2.9c0-5.2-3.4-8.1-8.9-8.1h-16.2V311.1z M341.7,338.2h17.4c6.1,0,9.7-3.2,9.7-9.1v-2.9
	c0-5.9-3.7-9.1-9.7-9.1h-17.4C341.7,317.2,341.7,338.2,341.7,338.2z M435.1,295h-0.4l-5,9.8l-14,25.5l-13.9-25.5l-5-9.7h-0.4v49.3
	h-6.9v-58.7h9.2l16.8,31.6h0.3l16.9-31.6h9.2v58.6h-6.9L435.1,295L435.1,295z M470.5,315.5c0-19.8,10.2-30.7,26-30.7
	c10.8,0,17.6,4.4,21.9,13.8l-11,5.7c-1.5-4.9-4.6-8.1-10.9-8.1c-7.5,0-12.4,5-12.4,14.3v9.4c0,9.2,5,14.3,12.4,14.3
	c6.3,0,9.9-3.9,11.7-8.7l10.4,6.1c-4.4,8.9-11.3,14-22.1,14C480.7,345.4,470.5,335.3,470.5,315.5z M539.2,344.4
	c-8.5,0-12.4-4.3-12.4-12.1v-50.1h12.4v52.5h5.5v9.7L539.2,344.4L539.2,344.4z M549.5,322.3c0-14.2,7.7-23,20.7-23
	c12.9,0,20.7,8.8,20.7,23s-7.7,23.1-20.7,23.1C557.2,345.4,549.5,336.5,549.5,322.3z M577.9,326.8v-9c0-5.5-2.9-8.7-7.7-8.7
	c-4.9,0-7.7,3.2-7.7,8.7v9c0,5.5,2.9,8.7,7.7,8.7C575,335.6,577.9,332.4,577.9,326.8z M625.7,337h-0.4c-1.5,4.5-5.1,8.4-12.4,8.4
	c-9,0-13.8-6.3-13.8-17.4v-27.7h12.4v26.6c0,5.4,1.8,8.4,6.3,8.4c3.9,0,7.8-2.2,7.8-6.4v-28.7h12.4v44.1h-12.4
	C625.7,344.4,625.7,337,625.7,337z M676.8,337h-0.4c-1.3,4.8-6.1,8.4-11.9,8.4c-11.2,0-17-8.1-17-23.1c0-15,5.8-23,17-23
	c5.7,0,10.6,3.5,11.9,8.4h0.4v-25.5h12.4v62.2h-12.4C676.8,344.4,676.8,337,676.8,337z M676.8,328.8v-13c0-4-3.4-6.5-8.1-6.5
	s-8.1,3.6-8.1,9.2v7.6c0,5.5,3.4,9.2,8.1,9.2S676.8,332.9,676.8,328.8z"
	/>
<g id="Layer_2">
	<defs>
		<filter
				id="Adobe_OpacityMaskFilter"
				filterUnits="userSpaceOnUse"
				x="107"
				y="231.9"
				width="152.4"
				height="134.9"
			>
			<feColorMatrix
					type="matrix"
					values="1 0 0 0 0  0 1 0 0 0  0 0 1 0 0  0 0 0 1 0"
				/>
		</filter>
	</defs>
	
		<mask
			maskUnits="userSpaceOnUse"
			x="107"
			y="231.9"
			width="152.4"
			height="134.9"
			id="SVGID_00000080927719334466558720000003985512822422240655_"
		>
		<g class="st1">
			<path d="M90,222.7h184.5v154H90V222.7z" />
			<path
					class="st2"
					d="M127.2,285.8c-0.5,0-1-0.1-1.4-0.4l-13.6-7.9c-1.3-0.7-1.9-2.2-1.4-3.6c0.5-1.5,2.2-2.3,3.7-1.7
				c0.2,0.1,0.3,0.1,0.5,0.2l13.6,7.9c1.4,0.8,1.9,2.5,1.3,3.9C129.3,285.2,128.3,285.8,127.2,285.8z M150.8,262.3
				c-1,0-2-0.6-2.5-1.4l-7.9-13.6c-0.7-1.2-0.5-2.8,0.6-3.8c1.2-1,3-0.9,4.1,0.3c0,0,0,0,0,0c0.1,0.1,0.2,0.3,0.3,0.4l7.9,13.6
				c0.8,1.3,0.5,3-0.8,4C151.9,262.1,151.4,262.3,150.8,262.3z M180,250.6v-15.5c0-1.6,1.2-2.9,2.8-3.1c1.6-0.1,2.9,1.2,3,2.8v16
				c0,1.6-1.3,2.9-2.9,2.9h-0.1C181.2,253.5,180,252.2,180,250.6z M215.1,262.3c-0.6,0-1.2-0.2-1.6-0.5c-1.2-0.9-1.6-2.6-0.8-4
				l7.9-13.6c0.8-1.4,2.6-1.9,3.9-1.1c0.1,0.1,0.3,0.2,0.4,0.3c1.1,1,1.3,2.6,0.6,3.8l-7.9,13.6
				C217.1,261.7,216.1,262.3,215.1,262.3z M238.6,285.8c-1.1,0-2.1-0.6-2.6-1.5c-0.7-1.4-0.1-3.2,1.3-3.9l13.5-7.8
				c1.2-0.7,2.8-0.5,3.7,0.5c1,1.2,0.9,3-0.3,4.1c0,0,0,0,0,0c-0.1,0.1-0.3,0.2-0.4,0.3l-13.8,7.9
				C239.6,285.7,239.1,285.8,238.6,285.8z"
				/>
			
				<linearGradient
					id="SVGID_1_"
					gradientUnits="userSpaceOnUse"
					x1="-19192.7051"
					y1="-10879.7207"
					x2="-16274.8984"
					y2="-10365.2529"
					gradientTransform="matrix(-1.450306e-02 -1.450306e-02 1.450306e-02 -1.450306e-02 67.5306 -113.6915)"
				>
				<stop offset="0.195" style="stop-color:#FFFFFF;stop-opacity:0" />
				<stop offset="0.287" style="stop-color:#FFFFFF;stop-opacity:3.000000e-02" />
				<stop offset="0.501" style="stop-color:#FFFFFF;stop-opacity:0.2" />
				<stop offset="0.793" style="stop-color:#FFFFFF;stop-opacity:0.74" />
				<stop offset="1" style="stop-color:#FFFFFF" />
			</linearGradient>
			<path
					class="st3"
					d="M146.3,351.7c-20.2-20.2-20.2-53,0-73.2c20.2-20.2,53-20.2,73.2,0c1.5,1.5,2.8,3,4.1,4.6
				c0.9,1.1,1.7,2.3,2.5,3.5l-4.8,3.2c-0.7-1.1-1.4-2.1-2.2-3.1c-1.1-1.4-2.4-2.8-3.7-4.1c-18-18-47.1-18-65.1,0
				c-18,18-18,47.1,0,65.1C150.4,347.6,146.3,351.7,146.3,351.7z"
				/>
			<path
					class="st2"
					d="M219.8,366.9h-79.7c-18.5-0.1-33.3-15.2-33.2-33.7v0l5.8,0c-0.1,15.3,12.2,27.8,27.5,27.9h79.6
				c18.7,0,33.8-15.1,33.8-33.8c0-8.3-3.1-16.3-8.6-22.5l4.3-3.8c14.6,16.3,13.2,41.3-3.1,55.9C239,363.3,229.6,366.9,219.8,366.9z"
				/>
			
				<linearGradient
					id="SVGID_00000043415938796937368740000001250501632105575082_"
					gradientUnits="userSpaceOnUse"
					x1="7656.8525"
					y1="17970.0625"
					x2="9366.9883"
					y2="16982.7031"
					gradientTransform="matrix(2.051043e-02 0 0 2.051043e-02 -53.4995 -41.2908)"
				>
				<stop offset="8.000000e-02" style="stop-color:#FFFFFF" />
				<stop offset="0.753" style="stop-color:#FFFFFF;stop-opacity:7.000000e-02" />
				<stop offset="0.875" style="stop-color:#FFFFFF;stop-opacity:0" />
			</linearGradient>
			<path
					style="fill:url(#SVGID_00000043415938796937368740000001250501632105575082_);"
					d="M112.7,333.2l-5.8,0
				c0.1-16.2,11.9-30,27.9-32.7l1,5.7C122.5,308.4,112.8,319.8,112.7,333.2z"
				/>
			
				<linearGradient
					id="SVGID_00000004528429678159218410000005172733148142063283_"
					gradientUnits="userSpaceOnUse"
					x1="11565.6514"
					y1="18156.1699"
					x2="14166.6895"
					y2="15973.6426"
					gradientTransform="matrix(2.051043e-02 0 0 2.051043e-02 -53.4995 -41.2908)"
				>
				<stop offset="0.138" style="stop-color:#FFFFFF;stop-opacity:0" />
				<stop offset="0.32" style="stop-color:#FFFFFF;stop-opacity:7.000000e-02" />
				<stop offset="0.847" style="stop-color:#FFFFFF;stop-opacity:0.764" />
				<stop offset="0.947" style="stop-color:#FFFFFF" />
			</linearGradient>
			<path
					style="fill:url(#SVGID_00000004528429678159218410000005172733148142063283_);"
					d="M186.1,327.1l-5.8,0
				c0.2-21.8,18-39.4,39.8-39.3c11.2,0.1,21.8,4.9,29.2,13.2l-4.3,3.8c-12.4-13.9-33.8-15.1-47.7-2.7
				C190.2,308.5,186.1,317.5,186.1,327.1z"
				/>
		</g>
	</mask>
	
		<linearGradient
			id="SVGID_00000067946601360995204440000011549237995636409740_"
			gradientUnits="userSpaceOnUse"
			x1="6738.999"
			y1="6799.4102"
			x2="4597.2676"
			y2="10509.0029"
			gradientTransform="matrix(3.588248e-02 0 0 3.588248e-02 -19.6345 -2.3195)"
		>
		<stop offset="0" style="stop-color:#50FFD2" />
		<stop offset="1" style="stop-color:#0064FF" />
	</linearGradient>
	
		<path
			style="mask:url(#SVGID_00000080927719334466558720000003985512822422240655_);fill:url(#SVGID_00000067946601360995204440000011549237995636409740_);"
			d="
		M127.3,285.7c-0.5,0-1-0.1-1.4-0.4l-13.6-7.9c-1.3-0.7-1.9-2.2-1.4-3.6c0.5-1.5,2.2-2.3,3.7-1.7c0.2,0.1,0.3,0.1,0.5,0.2l13.6,7.9
		c1.4,0.8,1.9,2.5,1.3,3.9C129.3,285.1,128.4,285.7,127.3,285.7z M150.8,262.2c-1,0-2-0.6-2.5-1.4l-7.9-13.6
		c-0.7-1.2-0.5-2.8,0.6-3.8c1.2-1,3-0.9,4.1,0.3c0,0,0,0,0,0c0.1,0.1,0.2,0.3,0.3,0.4l7.9,13.6c0.8,1.3,0.5,3-0.8,4
		C152,262,151.4,262.2,150.8,262.2z M180.1,250.5V235c0-1.6,1.2-2.9,2.8-3.1c1.6-0.1,2.9,1.2,3,2.8c0,0,0,0.1,0,0.1v15.9
		c0,1.6-1.3,2.9-2.9,2.9h-0.1C181.3,253.4,180.1,252.1,180.1,250.5z M215.2,262.2c-0.6,0-1.2-0.2-1.6-0.5c-1.2-0.9-1.6-2.6-0.8-4
		l7.9-13.6c0.8-1.4,2.6-1.9,3.9-1.1c0.1,0.1,0.3,0.2,0.4,0.3c1.1,1,1.3,2.6,0.6,3.8l-7.9,13.6C217.1,261.6,216.2,262.2,215.2,262.2z
		 M238.7,285.7c-1.1,0-2.1-0.6-2.6-1.5c-0.7-1.4-0.1-3.2,1.3-3.9l13.5-7.8c1.2-0.7,2.8-0.5,3.7,0.5c1,1.2,0.9,3-0.3,4.1c0,0,0,0,0,0
		c-0.1,0.1-0.3,0.2-0.4,0.3l-13.8,8C239.7,285.6,239.2,285.7,238.7,285.7z M146.4,351.6c-20.2-20.2-20.2-53,0-73.2
		c20.2-20.2,53-20.2,73.2,0c1.5,1.5,2.8,3,4.1,4.6c0.9,1.1,1.7,2.3,2.5,3.5l-4.8,3.2c-0.7-1.1-1.4-2.1-2.2-3.1
		c-1.1-1.4-2.4-2.8-3.7-4.1c-18-18-47.1-18-65.1,0c-18,18-18,47.1,0,65.1C150.5,347.5,146.4,351.6,146.4,351.6z M219.9,366.8h-79.7
		c-18.5-0.1-33.3-15.2-33.2-33.7v0l5.8,0c-0.1,15.3,12.2,27.8,27.5,27.9h79.6c18.7,0,33.8-15.1,33.8-33.8c0-8.3-3.1-16.3-8.6-22.5
		l4.3-3.8c14.6,16.3,13.2,41.3-3.1,55.9C239,363.2,229.6,366.8,219.9,366.8z M112.8,333.1l-5.8,0c0.1-16.2,11.9-30,27.9-32.7l1,5.7
		C122.6,308.3,112.9,319.7,112.8,333.1z M186.1,327l-5.8,0c0.2-21.8,18-39.4,39.8-39.3c11.2,0.1,21.8,4.9,29.2,13.2l-4.3,3.8
		c-12.4-13.9-33.8-15.1-47.7-2.7C190.3,308.4,186.2,317.4,186.1,327z"
		/>
</g>
</svg>
