<svg
	clip-rule="evenodd"
	fill-rule="evenodd"
	stroke-linejoin="round"
	stroke-miterlimit="1.41421"
	viewBox="0 0 560 400"
	xmlns="http://www.w3.org/2000/svg"
><g fill-rule="nonzero" transform="matrix(2.32042 0 0 2.32042 76.095 155)"><path
			d="m0 0h175.748v38.786h-175.748z"
			fill="#fecc00"
		/><path
			d="m56.665 16.206c-.768 1.04-2.053 2.848-2.835 3.904-.397.537-1.114 1.512 1.263 1.512h12.515s2.017-2.744 3.708-5.039c2.3-3.122.199-9.618-8.024-9.618h-32.384l-5.615 7.629h30.603c1.545 0 1.524.588.769 1.612zm-9.194 7.298c-2.377 0-1.66-.977-1.263-1.514.782-1.056 2.088-2.845 2.856-3.885.756-1.024.776-1.612-.771-1.612h-13.996l-11.277 15.326h27.501c9.083 0 14.14-6.178 15.699-8.314 0-.001-16.235-.001-18.749-.001zm17.89 8.315h16.133l6.116-8.316-16.131.002c-.005-.001-6.118 8.314-6.118 8.314zm41.625-24.854-6.188 8.405h-7.2l6.185-8.405h-16.128l-10.79 14.657h39.46l10.787-14.657zm-18.292 24.854h16.127l6.119-8.314h-16.127c-.006-.001-6.119 8.314-6.119 8.314zm-88.694-5.035v1.766h22.468l1.298-1.766zm26.181-3.28h-26.181v1.764h24.88zm-26.181 8.315h20.061l1.292-1.756h-21.353zm152.072-3.27h23.676v-1.766h-22.376zm-2.405 3.27h26.081v-1.756h-24.79zm6.116-8.315-1.297 1.766h21.262v-1.766zm-21.124-1.882 10.789-14.657h-17.081c-.006 0-10.797 14.657-10.797 14.657zm-18.472 1.882s-1.179 1.611-1.752 2.387c-2.025 2.736-.234 5.928 6.376 5.928h25.901l6.119-8.314h-36.644z"
			fill="#d50029"
		/></g></svg>
