<?xml version="1.0" encoding="utf-8" ?>
<!-- Generator: Adobe Illustrator 27.5.0, SVG Export Plug-In . SVG Version: 6.00 Build 0)  -->
<svg
	version="1.1"
	id="katman_1"
	xmlns="http://www.w3.org/2000/svg"
	xmlns:xlink="http://www.w3.org/1999/xlink"
	x="0px"
	y="0px"
	viewBox="0 0 841.89 595.28"
	style="enable-background:new 0 0 841.89 595.28;"
	xml:space="preserve"
>
<style type="text/css">
.st0 {
	clip-path: url(#SVGID_00000097477000740884026140000006130140040436637331_);
	fill: url(#SVGID_00000127746733727393867860000015767816628752744875_);
}

.st1 {
	clip-path: url(#SVGID_00000097477000740884026140000006130140040436637331_);
	fill: url(#SVGID_00000144320853837749463820000011862851916828330675_);
}
.st2 {
	clip-path: url(#SVGID_00000097477000740884026140000006130140040436637331_);
	fill: #f5ff80;
}
.st3 {
	fill-rule: evenodd;
	clip-rule: evenodd;
	fill: #1d1d1b;
}
.st4 {
	fill: #1d1d1b;
}
	</style>
<g>
	<defs>
		<path
				id="SVGID_1_"
				d="M141.44,216.62L141.44,216.62c44.8,0,81.12,36.32,81.12,81.12l0,0c0,44.8-36.32,81.12-81.12,81.12l0,0
			c-44.8,0-81.12-36.32-81.12-81.12l0,0C60.33,252.93,96.64,216.62,141.44,216.62z"
			/>
	</defs>
	<clipPath id="SVGID_00000009574874400771299650000000569526702565037495_">
		<use xlink:href="#SVGID_1_" style="overflow:visible;" />
	</clipPath>
	
		<linearGradient
			id="SVGID_00000025420199602384909850000017341421667914386059_"
			gradientUnits="userSpaceOnUse"
			x1="131.187"
			y1="320.0198"
			x2="118.1042"
			y2="320.2144"
			gradientTransform="matrix(1 0 0 -1 -0.0151 596.7022)"
		>
		<stop offset="0" style="stop-color:#F5FF80;stop-opacity:0" />
		<stop offset="1" style="stop-color:#F5FF80" />
	</linearGradient>
	
		<path
			style="clip-path:url(#SVGID_00000009574874400771299650000000569526702565037495_);fill:url(#SVGID_00000025420199602384909850000017341421667914386059_);"
			d="
		M130.98,289.63l-0.01-13.37c0-0.8-0.32-1.56-0.88-2.12l-11.57-11.59l-8.07,8.91l18.87,18.87
		C129.93,290.94,130.98,290.5,130.98,289.63L130.98,289.63z"
		/>
	
		<linearGradient
			id="SVGID_00000145771306817102659120000017637541435764909443_"
			gradientUnits="userSpaceOnUse"
			x1="106.033"
			y1="277.9458"
			x2="89.7308"
			y2="277.9458"
			gradientTransform="matrix(1 0 0 -1 -0.0151 596.7022)"
		>
		<stop offset="0" style="stop-color:#F5FF80;stop-opacity:0" />
		<stop offset="0.96" style="stop-color:#F5FF80" />
	</linearGradient>
	
		<path
			style="clip-path:url(#SVGID_00000009574874400771299650000000569526702565037495_);fill:url(#SVGID_00000145771306817102659120000017637541435764909443_);"
			d="
		M105.41,321.86l-22.74-22.69L74.54,308l30.09,30.06c0.61,0.61,1.67,0.18,1.67-0.69v-13.38
		C106.29,323.19,105.98,322.43,105.41,321.86L105.41,321.86z"
		/>
	<path
			style="clip-path:url(#SVGID_00000009574874400771299650000000569526702565037495_);fill:#F5FF80;"
			d="M135.71,217.11
		c-40.82,2.82-73.44,36.61-74.98,77.5c-1.5,39.92,25.95,73.7,63.02,81.98l-49.41-49.42c-0.71-0.71-1.11-1.67-1.1-2.67l0.04-15.97
		c0-0.67,0.81-1,1.28-0.53l8.13-8.83c-0.51-0.51-0.51-1.34,0-1.85l7.82-7.8c0.51-0.51,1.34-0.51,1.84,0l26.41,26.41
		c1.12,1.12,1.75,2.64,1.75,4.23v27.56c0,3.97,1.58,7.78,4.38,10.59l20.14,20.14c5.12-0.22,10.1-0.92,14.93-2.05l-25.51-25.52
		c-1.26-1.26-1.97-2.97-1.97-4.76V319.5c0-4.37-1.73-8.55-4.82-11.64l-26.81-26.81c-0.51-0.51-0.51-1.34,0-1.85l7.76-7.74
		c0.51-0.51,1.34-0.51,1.84,0l8.07-8.91c-0.15-0.17-0.29-0.36-0.44-0.56c-2.31-3.11-3.71-8.24-2.07-14.03
		c0.98-3.7,3.01-6.5,6.76-9.89c0.33-0.3,0.85-0.31,1.18-0.02l9.7,8.41l1.91,1.66c0.73,0.64,1.61,1.09,2.56,1.31l30.26,7.19
		c0.35,0.08,0.68,0.26,0.93,0.51l31.08,31c0.54,0.52,0.85,1.24,0.85,2v6.59c0,1.01-0.26,2.01-0.74,2.9l-15.38,28.02
		c-0.67,1.23-2.17,1.74-3.45,1.18l-7.09-3.09h-25.91c-1.67,0-3.01,1.35-3.01,3.01v11.55c0,1.59,0.63,3.12,1.75,4.25l26.84,27.04
		c28.26-12.58,47.97-40.93,47.97-73.87C222.21,251.19,182.91,213.85,135.71,217.11L135.71,217.11z"
		/>
</g>
<path
		class="st3"
		d="M346.63,272.07c1.65,1.58,3.63,2.37,5.94,2.37c2.31,0,4.25-0.79,5.84-2.37c1.58-1.64,2.37-3.65,2.37-6.01
	c0-2.37-0.79-4.21-2.37-5.72c-1.58-1.58-3.53-2.37-5.84-2.37c-2.31,0-4.29,0.79-5.94,2.37c-1.58,1.51-2.37,3.42-2.37,5.72
	C344.26,268.35,345.05,270.43,346.63,272.07z"
	/>
<path class="st4" d="M359.7,281.42h-14.37v55.43h14.37V281.42z" />
<path
		class="st3"
		d="M299.41,336.85h14.48v-64.22h22.49v-12.86h-59.45v12.86h22.49V336.85z"
	/>
<path
		class="st3"
		d="M371.22,336.85v-55.43h11.54l1.05,7.43c1.68-2.72,4.13-4.92,7.34-6.59c3.22-1.74,6.85-2.62,10.91-2.62
	c4.06,0,7.31,0.87,10.18,2.62c2.87,1.74,5.07,4.22,6.61,7.43c1.61-2.93,4.06-5.33,7.34-7.22c3.36-1.88,7.17-2.82,11.44-2.82
	c5.74,0,10.32,1.88,13.74,5.65c3.5,3.7,5.25,8.65,5.25,14.85v36.71h-14.27v-36.08c0-2.72-0.8-4.88-2.41-6.48
	c-1.54-1.67-3.64-2.51-6.29-2.51c-3.71,0-6.75,1.08-9.13,3.24c-2.31,2.16-3.46,4.92-3.46,8.26v33.57h-14.27v-36.08
	c0-2.72-0.8-4.88-2.41-6.48c-1.54-1.67-3.64-2.51-6.29-2.51c-3.71,0-6.71,1.08-9.02,3.24c-2.31,2.16-3.46,4.92-3.46,8.26v33.57
	L371.22,336.85L371.22,336.85z"
	/>
<path
		class="st3"
		d="M519.08,308.93c-0.07-5.93-1.26-11.09-3.57-15.48c-2.31-4.46-5.49-7.88-9.55-10.25
	c-4.06-2.37-8.74-3.56-14.06-3.56c-5.32,0-10.21,1.25-14.48,3.77c-4.27,2.44-7.62,5.93-10.07,10.46c-2.38,4.46-3.57,9.62-3.57,15.48
	c0,5.86,1.22,10.7,3.67,15.16c2.45,4.39,5.87,7.84,10.28,10.35c4.48,2.44,9.55,3.66,15.21,3.66c6.64,0,12.24-1.67,16.78-5.02
	c3.25-2.44,5.73-5.57,7.44-9.39l-12.83-3.43c-0.92,1.72-2.19,3.1-3.84,4.14c-2.03,1.25-4.51,1.88-7.45,1.88
	c-4.13,0-7.56-1.33-10.28-3.97c-2.73-2.65-4.37-6.14-4.93-10.46h41.23V308.93L519.08,308.93z M478.48,302.76
	c0.91-3.49,2.55-6.21,4.93-8.16c2.38-2.02,5.21-3.03,8.5-3.03c3.29,0,5.91,0.98,8.08,2.93c2.17,1.95,3.64,4.71,4.41,8.26H478.48
	L478.48,302.76z"
	/>
<path
		class="st3"
		d="M549.75,338.53c-8.04,0-14.23-1.67-18.57-5.02c-3.01-2.32-5.05-5.35-6.15-9.08l13.07-3.49
	c0.47,1.75,1.41,3.16,2.83,4.2c1.96,1.33,4.55,1.99,7.77,1.99c2.73,0,4.82-0.49,6.29-1.46c1.47-1.05,2.2-2.48,2.2-4.29
	c0-1.19-0.31-2.09-0.94-2.72c-0.56-0.7-1.22-1.19-1.99-1.46c-0.77-0.35-2.31-0.91-4.62-1.67l-7.03-2.3
	c-3.78-1.19-6.92-2.41-9.44-3.66c-2.45-1.32-4.44-3.03-5.98-5.12c-1.47-2.16-2.2-4.85-2.2-8.05c0-5.09,1.89-9.13,5.67-12.13
	c3.77-3.07,9.09-4.6,15.95-4.6c6.86,0,12.13,1.71,16.26,5.12c3.18,2.54,5.36,5.92,6.53,10.15l-12.54,3.35
	c-0.41-2.25-1.41-3.96-3.02-5.13c-1.82-1.39-4.23-2.09-7.24-2.09c-2.38,0-4.24,0.45-5.56,1.36c-1.33,0.91-1.99,2.16-1.99,3.76
	c0,1.12,0.35,2.06,1.05,2.82c0.77,0.7,1.57,1.22,2.41,1.57c0.84,0.35,2.31,0.87,4.41,1.57l6.4,2.2c4.34,1.39,7.77,2.79,10.28,4.18
	c2.52,1.32,4.44,3.03,5.77,5.12c1.4,2.02,2.1,4.67,2.1,7.95c0,5.3-1.92,9.45-5.77,12.45S556.53,338.53,549.75,338.53"
	/>
<path
		class="st3"
		d="M591.32,334.76c4.41,2.51,9.58,3.77,15.53,3.77c7.48,0,13.64-2.13,18.47-6.38c3.01-2.65,5.21-5.86,6.61-9.64
	l-13.38-3.57c-0.76,1.77-1.82,3.28-3.2,4.53c-2.24,2.02-5.07,3.03-8.5,3.03c-4.41,0-7.97-1.6-10.7-4.81
	c-2.73-3.21-4.09-7.53-4.09-12.97c0-5.44,1.33-9.38,3.99-12.45c2.66-3.14,6.16-4.71,10.49-4.71c3.5,0,6.43,1.05,8.81,3.14
	c1.68,1.43,2.89,3.2,3.62,5.32l13.52-3.61c-0.63-1.99-1.52-3.85-2.66-5.58c-2.31-3.56-5.46-6.31-9.44-8.26
	c-3.98-1.95-8.56-2.93-13.74-2.93c-5.59,0-10.6,1.19-15,3.56c-4.34,2.37-7.76,5.75-10.28,10.15c-2.45,4.39-3.67,9.52-3.67,15.38
	c0,5.86,1.15,10.84,3.46,15.38C583.52,328.62,586.91,332.18,591.32,334.76"
	/>
<path
		class="st3"
		d="M681.9,281.42l-1.26,8.37c-1.61-3.14-4.12-5.61-7.55-7.43c-3.36-1.81-7.17-2.72-11.44-2.72
	c-4.89,0-9.3,1.25-13.22,3.77c-3.85,2.44-6.85,5.89-9.02,10.35c-2.17,4.39-3.25,9.41-3.25,15.06s1.12,10.95,3.36,15.48
	c2.24,4.46,5.32,7.95,9.23,10.46c3.98,2.51,8.46,3.77,13.43,3.77c3.78,0,7.13-0.73,10.07-2.2c2.94-1.46,5.25-3.49,6.93-6.07v6.59
	h14.27v-55.43L681.9,281.42L681.9,281.42z M675.19,321.79c-2.59,3.35-6.02,5.02-10.28,5.02c-4.27,0-7.63-1.64-10.29-4.92
	c-2.66-3.35-3.98-7.67-3.98-12.97c0-5.3,1.33-9.34,3.98-12.55c2.66-3.28,6.12-4.92,10.39-4.92c4.27,0,7.59,1.6,10.18,4.81
	c2.66,3.21,3.98,7.39,3.98,12.55C679.17,313.98,677.85,318.44,675.19,321.79"
	/>
<path class="st4" d="M718.22,259.77h-14.27v77.08h14.27V259.77z" />
<path
		class="st3"
		d="M781.99,308.93c-0.07-5.93-1.26-11.09-3.57-15.48c-2.31-4.46-5.49-7.88-9.55-10.25
	c-4.06-2.37-8.74-3.56-14.06-3.56c-5.32,0-10.21,1.25-14.48,3.77c-4.27,2.44-7.63,5.93-10.07,10.46c-2.38,4.46-3.56,9.62-3.56,15.48
	c0,5.86,1.22,10.7,3.67,15.16c2.45,4.39,5.87,7.84,10.28,10.35c4.47,2.44,9.55,3.66,15.21,3.66c6.64,0,12.24-1.67,16.79-5.02
	c3.24-2.44,5.73-5.57,7.44-9.39l-12.83-3.43c-0.91,1.72-2.19,3.1-3.84,4.14c-2.03,1.25-4.51,1.88-7.45,1.88
	c-4.13,0-7.55-1.33-10.28-3.97c-2.73-2.65-4.37-6.14-4.93-10.46h41.23V308.93L781.99,308.93z M741.38,302.76
	c0.91-3.49,2.55-6.21,4.93-8.16c2.38-2.02,5.21-3.03,8.5-3.03c3.29,0,5.91,0.98,8.08,2.93c2.17,1.95,3.64,4.71,4.41,8.26H741.38
	L741.38,302.76z"
	/>
</svg>
