<svg
	version="1.2"
	xmlns="http://www.w3.org/2000/svg"
	viewBox="0 0 1100 1593"
	width="1100"
	height="1593"
>
	<title>TomTom_logo-svg</title>
	<style>
		.s0 { fill: #df1b12 } 
	</style>
	<g id="Layer">
		<path
			id="Layer"
			fill-rule="evenodd"
			class="s0"
			d="m339.1 1228.9h421.5l-210.8 364.1zm210.8-131.8c-304.1 0-549.9-245.2-549.9-548.5 0-303.4 245.8-548.6 549.9-548.6 304 0 549.8 245.2 549.8 548.6 0 303.3-245.8 548.5-549.8 548.5zm109.8-283.6c34.8-14.4 66.5-35.5 93.2-62.1 26.6-26.6 47.8-58.2 62.3-93 14.5-34.8 22-72.1 22.1-109.8-0.1-37.7-7.6-75.1-22.1-109.9-14.5-34.8-35.7-66.4-62.3-93-26.7-26.6-58.4-47.7-93.2-62.1-34.8-14.4-72.2-21.8-109.8-21.8-37.7 0-75 7.4-109.9 21.8-34.8 14.4-66.5 35.5-93.1 62.1-26.7 26.6-47.9 58.2-62.4 93-14.5 34.8-22 72.2-22.1 109.9 0.1 37.7 7.6 75 22.1 109.8 14.5 34.8 35.7 66.4 62.4 93 26.6 26.6 58.3 47.7 93.1 62.1 34.9 14.4 72.2 21.8 109.9 21.8 37.6 0 75-7.4 109.8-21.8z"
		/>
	</g>
</svg>
