<svg
	xmlns="http://www.w3.org/2000/svg"
	width="498"
	height="259.01"
	viewBox="0 0 498 259.01"
><path
		d="M706.57,501.19c-.44-.91-.63-1.38-.86-1.82-6.25-11.88-12.47-23.73-18.77-35.57a2.2,2.2,0,0,1,.31-2.92Q702.13,443.5,716.93,426a3.18,3.18,0,0,0,.78-1.57L709,426.72q-18,4.77-36,9.55a1.66,1.66,0,0,1-2.18-1q-10.24-17.07-20.5-34.08a4.68,4.68,0,0,0-1.48-1.67c-.55,3-1.12,6.07-1.64,9.09l-5.7,32.1c-.21,1.15-.5,2.32-.6,3.47s-.65,1.51-1.67,1.82Q618.1,452.69,597,459.42a5,5,0,0,0-1.9,1c11.56,4.59,23.09,9.2,34.84,13.86-.42.34-.71.6-1,.8-7.21,4.67-14.45,9.33-21.66,14a2.3,2.3,0,0,1-2.53.21c-8.62-3.88-17.29-7.68-25.93-11.56a26.65,26.65,0,0,1-10.08-7.35c-6.15-7.52-4.92-16.06,3.25-21.27a38.6,38.6,0,0,1,8.75-4c13.86-4.51,27.73-8.86,41.61-13.23a2.4,2.4,0,0,0,1.93-2.14q2.77-16.05,5.7-32.1c1-5.73,1.59-11.59,4.38-16.82a27.45,27.45,0,0,1,3.88-5.68c5.52-6.12,13.2-6.35,19-.52a36.44,36.44,0,0,1,5.13,6.67c6.43,10.46,12.73,21,19,31.55a2,2,0,0,0,2.79,1.12c15.49-4.14,31-8.22,46.48-12.34a22.43,22.43,0,0,1,9.71-.55c7.14,1.33,10.26,6.77,7.86,13.68a25.93,25.93,0,0,1-5.13,8.3q-16.2,19.1-32.47,38.15a2.2,2.2,0,0,0-.28,2.94q9.72,18.31,19.32,36.66a20.72,20.72,0,0,1,2.76,9.32,15,15,0,0,1-13.1,15c-4.24.63-8.2-.28-12.18-1.51q-14.58-4.49-29.17-8.88a1.63,1.63,0,0,1-1.4-1.59c-1.12-6.84-2.35-13.67-3.52-20.51,0-.19,0-.39.05-.81,11.07,3.07,22.06,6.09,33.49,9.27"
		transform="translate(-251 -370.49)"
		fill="#e25c26"
		fill-rule="evenodd"
	/><path
		d="M687.64,600.92c-8.75,0-17.53-.06-26.27,0a2.54,2.54,0,0,1-2.45-1.33q-15.54-23.67-31.2-47.31c-.33-.49-.67-1-1.27-1.82-2.24,17-4.43,33.67-6.62,50.36H596.89c.27-2.24.5-4.4.79-6.54q3.36-25.66,6.74-51.3,3.21-24.48,6.46-49a2.06,2.06,0,0,1,.78-1.35c7.89-5.16,15.8-10.24,23.72-15.37.1-.07.29-.07.68-.21-2.4,18.26-4.77,36.38-7.16,54.5a2.55,2.55,0,0,1,.28.21C641.6,518,654,504.18,666.73,490.12l1,5.73c.88,5.18,1.74,10.39,2.71,15.57a2.49,2.49,0,0,1-.78,2.42q-12,12.61-24,25.26c-.34.37-.67.76-1.09,1.17.26.42.47.81.73,1.17l41.45,58.17a10.06,10.06,0,0,0,.91.94,1.76,1.76,0,0,1,0,.37M415.82,550.51a53.12,53.12,0,0,0-1.38-6.85c-3.85-11.85-16-18.36-28.59-15.42-13.8,3.21-23.67,14.06-25.1,28.15a22.84,22.84,0,0,0,15,24.22c8.41,3,16.48,1.77,24-2.74C409.7,571.91,415.12,563,415.82,550.51Zm-60.61,44c-.68,5.11-1.33,9.9-2,14.71-.83,6.38-1.66,12.79-2.47,19.17-.1.75-.31,1.07-1.12,1.07q-9.45,0-18.9,0a3.47,3.47,0,0,1-.63-.18c.39-3,.76-6,1.15-9.06q2.07-15.9,4.19-31.8c1.61-12.1,2.89-24.29,4.95-36.32,3.64-21.33,21.74-39.68,43-44.27,12.29-2.65,24.09-1.43,34.81,5.5a38.89,38.89,0,0,1,18.26,29.53c2,17.81-4.59,32.6-17.24,44.83a53.35,53.35,0,0,1-29.74,14.87c-11.82,1.77-22.94-.18-32.88-7.16-.37-.26-.76-.47-1.38-.86M345,493.25l-20.7,15.41c-1.1-1.74-2.09-3.46-3.26-5.08-3-4.14-6.66-7.23-12-7.63a13.37,13.37,0,0,0-11.3,4.46,7.92,7.92,0,0,0-.55,10.44c2.79,3.64,5.86,7.11,9,10.49,5.18,5.6,10.57,11,15.72,16.64,4.69,5.13,8.41,10.88,9.56,17.89a36.44,36.44,0,0,1-4.24,23.62c-7.29,13.56-18.8,21.43-34,23.87a44.72,44.72,0,0,1-19.92-1c-8.67-2.55-14.71-8.25-18.59-16.27-1.38-2.84-2.42-5.83-3.67-8.88l22.47-12c.26.62.44,1.14.68,1.64a68.44,68.44,0,0,0,3.9,7.63c4.69,7,12.27,9.09,19.95,5.65a22,22,0,0,0,5.49-3.57c4.95-4.4,5.89-10.52,2.22-16a79.86,79.86,0,0,0-7.32-8.88c-6.12-6.79-12.5-13.38-18.49-20.31a32.34,32.34,0,0,1-7.81-16.77A28.74,28.74,0,0,1,276.15,495c9-14.6,22.16-22.21,39.53-21.58,9.89.36,17.78,5,23.9,12.68,1.83,2.26,3.52,4.63,5.37,7.11M512.69,571.7c-1.15,8.8-2.24,17.16-3.36,25.52a1.72,1.72,0,0,1-.76,1.17c-17.08,7.92-39.6,6.82-53.64-9.14-7.55-8.57-10.7-18.72-10.23-30,1.09-26.17,22.78-49,48.74-52.21,15.16-1.87,28.46,2.24,38.75,14A39,39,0,0,1,542,549.2c-.31,7-1.4,13.93-2.29,20.89-1.22,9.84-2.58,19.68-3.88,29.52a11,11,0,0,1-.21,1.15H515.13c.26-2.27.52-4.48.81-6.69,1.49-11.38,3.1-22.71,4.4-34.11.81-7.09.31-14.14-2.94-20.7-3.44-7-9.24-10.68-16.85-11.49a31.92,31.92,0,0,0-34.08,24.77c-2.22,10.23,1.27,20,9.42,25.46,7.95,5.29,16.46,5.29,25.11,1.88a32.72,32.72,0,0,0,11.69-8.18M598.77,509c-.94,7.08-1.85,14.06-2.79,21.2-4.32,0-8.56,0-12.81,0a8.05,8.05,0,0,0-7.6,5.44,21.46,21.46,0,0,0-.73,3.9q-3.24,24.42-6.43,48.85c-.55,4.12-1.07,8.2-1.62,12.37H545.52c.39-3.13.78-6.17,1.17-9.19q2.07-15.83,4.17-31.64c1.22-9.11,2.29-18.28,3.72-27.37,1.9-12.18,14-23,26.35-23.53,5.89-.24,11.77,0,17.84,0"
		transform="translate(-251 -370.49)"
		fill="#3d3b3e"
		fill-rule="evenodd"
	/><path
		d="M712.74,600.79v-9h0l-3.52,9h-1.12l-3.51-9h0v9h-1.78V590h2.74l3.2,8.18L711.8,590h2.71v10.76Zm-15.62-9.33v9.33h-1.77v-9.33H692V590h8.51v1.43ZM373.46,478.14h5.28l-1.25-8Zm6.09,5.16h-8.77L368,488.77h-6.22l13.72-25.62h6l4.66,25.62h-5.75Zm31.43-15h-3.12l-1.05,5.91h3.13a3.27,3.27,0,0,0,3.38-3.56A2.15,2.15,0,0,0,411,468.3Zm-7.58-5.15h8.21c4.29,0,7.31,2.55,7.31,7,0,5.55-3.9,9.27-9.5,9.27h-3.54l-1.67,9.38h-5.34Zm33.7,15h5.28l-1.25-8Zm6.12,5.16h-8.78l-2.79,5.47h-6.22l13.72-25.62h6l4.66,25.62h-5.75Zm34.68,4.56a14,14,0,0,1-5.81,1.32c-6.77,0-11-5.07-11-11.45a15.18,15.18,0,0,1,15-15,11.09,11.09,0,0,1,5.39,1.33l-.75,6.14a6.9,6.9,0,0,0-5.21-2.11,9.22,9.22,0,0,0-8.83,9.12c0,3.72,2.34,6.64,6,6.64a9.41,9.41,0,0,0,5.91-2.09Zm32.7-9.43H499.46l-1.82,10.31H492.3l4.53-25.62h5.34l-1.8,10.13h11.14l1.8-10.13h5.37l-4.54,25.62h-5.33Zm19.64,10.34,4.5-25.62H549l-.91,5.15h-8.86l-.91,5h8.13l-.92,5.15h-8.15l-.91,5.16h8.86l-.91,5.15Z"
		transform="translate(-251 -370.49)"
		fill="#3d3b3e"
	/></svg>
