<?xml version="1.0" encoding="utf-8" ?>
<!-- Generator: Adobe Illustrator 24.2.0, SVG Export Plug-In . SVG Version: 6.00 Build 0)  -->
<svg
	version="1.2"
	baseProfile="tiny"
	id="Ebene_1"
	xmlns="http://www.w3.org/2000/svg"
	xmlns:xlink="http://www.w3.org/1999/xlink"
	x="0px"
	y="0px"
	viewBox="0 0 1223 489"
	overflow="visible"
	xml:space="preserve"
>
<g>
	<path
			fill="#01739F"
			d="M657.5,183.1c4.4,3.1,8.9,6.3,13.3,9.4c-8.1,14.3-29.4,21.8-47.9,17.1c-21-5.4-33.4-21.7-33.4-43.7
		c0-20.7,12.8-37,33.2-42.3c19.1-5,39.8,2.4,48.7,18c-4.7,2.9-9.5,5.8-14.2,8.7c-12.8-16.4-31.9-13.3-41.4-4.6
		c-10.5,9.6-11.1,30-1,40.8C625.8,198.2,642.9,196.9,657.5,183.1z"
		/>
	<path
			fill="#01739F"
			d="M671.5,285.2c-4.9,3-9.6,5.9-14.5,8.9c-5.4-7.5-12.6-11.6-21.8-11.7c-7.7-0.2-14.4,2.3-19.9,7.6
		c-10.4,10.1-10.3,30.7,0.1,40.8c8.8,8.6,28.3,12.8,42.1-4c4.5,3.2,9,6.4,13.5,9.6c-10.1,15.4-30.8,22.1-50.1,16.4
		c-19.6-5.8-31.4-22.1-31.3-43.3c0.1-19.9,12.3-36,31.5-41.6C640.6,262.1,661,268.9,671.5,285.2z"
		/>
	<path
			fill="#01739F"
			d="M919.1,299c0-11.4,0-22.2,0-33c0-0.1,0.1-0.3,0.3-0.8c4.9,0,10,0,15.3,0c0,29.2,0,58.4,0,87.8
		c-4.9,0-9.7,0-14.4,0c-1.7-1.3-0.3-3.3-1.6-5.1c-5.7,5.1-12.5,7.8-20.2,6.7c-7.5-1-14-4.2-18.8-10.1c-9.7-12.1-9.4-31.1,0.5-42.3
		C890.1,290.8,903.6,289.5,919.1,299z M920,323.4c-0.1-9.2-6.8-16.2-15.5-16.1c-9,0.1-15.6,7.1-15.5,16.6c0.1,9.3,6.6,15.9,15.5,16
		C913.6,339.8,920,333,920,323.4z"
		/>
	<path
			fill="#01739F"
			d="M715.2,211c-18.4-0.1-31.9-13.5-31.8-31.7c0.1-17.4,13.9-30.7,31.8-30.8C734,148.5,748,162,748,180
		C747.9,197.8,733.8,211.1,715.2,211z M715.2,196c9.4,0.1,16.2-6.7,16.3-16.2c0.1-9.2-6.9-16.2-16.3-16.3
		c-8.5-0.1-15.7,7.1-15.8,15.9C699.2,188.8,706,195.9,715.2,196z"
		/>
	<path
			fill="#01739F"
			d="M753.1,354.8c-18.5,0-32.2-13.4-32.1-31.4c0.1-17.7,13.8-31.1,32-31.1c18.2,0,32.4,13.4,32.6,30.7
		C785.6,341.1,771.8,354.7,753.1,354.8z M752.7,339.8c9.4,0.1,16.2-6.7,16.3-16.2c0-9.3-6.6-16.2-15.7-16.3
		c-9-0.2-16.1,6.7-16.3,15.8C736.8,332.7,743.4,339.7,752.7,339.8z"
		/>
	<path
			fill="#01739F"
			d="M1062,184.9c-14.4,0-28,0-42.2,0c0.7,4.9,2.7,8.4,6.9,10.5c8.5,4.3,16,1.4,23.5-3.5
		c2.9,3.3,5.9,6.6,8.8,9.9c-17,16.5-47.3,10.2-54.2-11c-5.7-17.6,2.6-35.8,18.5-40.6c19.9-6,37.7,6.4,38.8,27.2
		C1062.1,179.6,1062,181.9,1062,184.9z M1045.8,173.8c-2.4-8.4-7.1-12.2-13.7-11.7c-6.9,0.5-11.1,4.6-12,11.7
		C1028.6,173.8,1037,173.8,1045.8,173.8z"
		/>
	<path
			fill="#01739F"
			d="M779.7,209.3c-5.4,0-10.3,0-15.5,0c0-19.8,0-39.3,0-59c5,0,9.7,0,14.6,0c1.6,1.4,0,3.6,1.3,5.5
		c5.6-5.5,12.2-8.1,20-7.1c11.6,1.5,19.2,8.3,19.9,20c0.8,13.4,0.2,26.8,0.2,40.5c-5.1,0-10,0-15.8,0c0-5.6,0-11.2,0-16.8
		c0-5.8,0.3-11.7-0.1-17.4c-0.5-7.7-5.1-11.8-12.2-11.5c-6.9,0.2-12,5.4-12.1,12.5c-0.1,10.1,0,20.3,0,30.4
		C779.9,207.3,779.8,208.1,779.7,209.3z"
		/>
	<path
			fill="#01739F"
			d="M1078.3,150.3c5.1,0,9.8,0,14.9,0c0.2,1.7,0.4,3.3,0.6,5.4c4.2-2.8,7.8-5.8,12.7-6.6
		c14.8-2.4,26.7,5.7,27.6,20.5c0.9,13,0.2,26.2,0.2,39.7c-5.3,0.4-10.3,0.5-15.9,0c0-10.8,0-21.4,0-32c-0.1-10.3-6.4-15.6-15.5-13.1
		c-5.5,1.5-8.9,6-8.9,12.3c-0.1,9.3,0,18.6,0,27.9c0,1.6,0,3.2,0,5.1c-5.4,0-10.3,0-15.6,0C1078.3,189.7,1078.3,170.2,1078.3,150.3z
		"
		/>
	<path
			fill="#01739F"
			d="M844.6,164.5c-4.1,0-7.2,0-10.8,0c0-4.8,0-9.3,0-14.5c3.4,0,6.8,0,10.5,0c0.4-10.9-0.6-22,10.7-27.9
		c9.2-4.7,18.3-2.7,27.6,1.7c-1.8,4.4-3.4,8.6-5.1,12.8c-15.4-4-18.8-1.3-16.5,13.3c5.7,0,11.5,0,17.5,0c0.8,4.9,0.4,9.5,0.3,14.5
		c-6,0-11.8,0-18.2,0c0,15.1,0,29.8,0,44.8c-5.6,0-10.5,0-16.1,0C844.6,194.5,844.6,179.9,844.6,164.5z"
		/>
	<path
			fill="#01739F"
			d="M930.4,150.3c5.6,0,10.6,0,16,0c0,11.1-0.1,22.1,0,33c0.1,10.1,8,15.3,17.4,11.8c4.5-1.7,7-5.8,7-12
		c0.1-10.8,0-21.6,0-32.7c5.4,0,10.4,0,15.9,0c0,12.5,0.9,25-0.2,37.3c-1.8,19.9-19.1,25.2-33.2,22.8c-16-2.7-22.9-11.6-23-28
		C930.4,171.9,930.4,161.3,930.4,150.3z"
		/>
	<path
			fill="#01739F"
			d="M817,294.2c0,11.4-0.1,22.3,0,33.3c0.1,9.8,8.7,15.2,17.7,11.3c5.3-2.3,6.7-7.1,6.7-12.3
		c0.1-10.6,0-21.2,0-32.2c5.4,0,10.4,0,16.1,0c-0.5,13.5,1.4,27.2-1,40.6c-3,16.6-19,21.8-33.1,19.4c-15.3-2.6-22.5-11.8-22.5-27.4
		c0-10.8,0-21.6,0-32.7C806.3,294.2,811.3,294.2,817,294.2z"
		/>
	<path
			fill="#01739F"
			d="M1194.7,192.5c2,4.2,3.7,8,5.7,12.2c-9.5,6.1-19.2,8.3-29.9,4.4c-7.2-2.7-10.3-8.5-11.5-15.5
		c-1.1-6.6-0.4-13.3-0.6-19.9c-0.1-2.8,0-5.6,0-8.4c-3.8-1.6-7.6,0.1-11.3-1.1c0-4.4,0-8.9,0-13.6c3.4-1.2,7.2,0.2,11.2-1
		c0-5.6,0-11.4,0-17.3c5.5,0,10.4,0,15.9,0c0,5.7,0,11.5,0,17.7c7.4,0,14.3,0,21.4,0c0,4.9,0,9.4,0,14.4c-6.9,0-13.7,0-21.1,0
		c-0.1,8.7-0.6,16.8,0.3,24.9c0.6,5.2,5.8,7.9,11.4,6.4C1189,195,1191.6,193.7,1194.7,192.5z"
		/>
	<path
			fill="#01739F"
			d="M704.3,265.3c0,29.4,0,58.4,0,87.7c-5.1,0-10.1,0-15.4,0c0-29.1,0-58.2,0-87.7
		C693.8,265.3,698.8,265.3,704.3,265.3z"
		/>
	<path
			fill="#01739F"
			d="M910.7,209.2c-5.2,0-10.2,0-15.5,0c0-29.3,0-58.4,0-87.8c5.1,0,10.1,0,15.5,0
		C910.7,150.6,910.7,179.8,910.7,209.2z"
		/>
	<g>
		<path
				fill="#FFFFFF"
				d="M219.9,234.6c0-16.3,0-32.6,0-48.9C219.9,202,219.9,218.3,219.9,234.6c0,16.6-0.1,33.3,0,49.9
			C219.9,267.9,219.9,251.3,219.9,234.6z"
			/>
		<path
				fill="#FFFFFF"
				d="M280.9,231.7c0-12.6-0.1-25.3,0-37.9C280.8,206.4,280.9,219,280.9,231.7c0,12.5,0,25,0,37.4
			C280.9,256.6,280.9,244.2,280.9,231.7z"
			/>
		<path
				fill="#FFFFFF"
				d="M469.6,150c-12.1-28.8-29.4-54.6-51.5-76.8c-22.1-22.2-47.8-39.6-76.4-51.8C312,8.9,280.5,2.5,248,2.5
			s-64,6.4-93.7,19C125.7,33.7,100,51.1,77.9,73.3c-22.1,22.2-39.4,48-51.5,76.8c-12.5,29.8-18.9,61.4-18.9,94s6.4,64.2,18.9,94
			c12.1,28.8,29.4,54.6,51.5,76.8c22.1,22.2,47.8,39.6,76.4,51.8c29.7,12.6,61.2,19,93.7,19s64-6.4,93.7-19
			c28.6-12.2,54.4-29.6,76.4-51.8c22.1-22.2,39.4-48,51.5-76.8c12.5-29.8,18.9-61.4,18.9-94S482.1,179.8,469.6,150z M246.9,458.9
			c-120.7-0.2-212.7-98.2-214.6-211.5c-2-118.9,93.9-218.4,215.2-219.2c118.6-0.4,215.8,96.7,216.1,215.7
			C463.9,362.3,367.2,459.1,246.9,458.9z"
			/>
		<path
				fill="#01739F"
				d="M247.5,28.3C126.2,29.1,30.3,128.5,32.3,247.4c1.9,113.3,93.9,211.2,214.6,211.5
			c120.3,0.2,216.9-96.5,216.7-214.9C463.3,124.9,366.1,27.9,247.5,28.3z M123.5,284.9c-14.9-0.1-26.6-12-26.6-27.2
			c0-15.2,11.6-26.8,26.8-26.8c16,0,27.3,11.2,27.3,27.2C150.9,273.3,138.9,285,123.5,284.9z M212.5,252.7c-0.1,0-0.3,0-0.4,0
			c0,7,0.5,14-0.1,20.9c-1.3,13.9-12.9,23.7-26.9,23.6c-14-0.1-25.7-10.2-26.5-24.1c-0.7-13.4-0.7-27,0-40.4
			c0.8-14.2,13.2-24.7,27.3-24.4c14.7,0.4,26,11.6,26.6,26.4C212.7,240.7,212.5,246.7,212.5,252.7z M273.8,285.5
			c-0.1,13.9-13,25.2-27.3,25c-15.1-0.2-26.6-11.4-26.6-26c-0.1-16.6,0-33.3,0-49.9c0-16.3,0-32.6,0-48.9c0-14.4,11.5-26,25.8-26.3
			c15-0.3,28,10.9,28.1,25.3C274.1,218.3,274.1,251.9,273.8,285.5z M335.4,269.8c-0.1,13.2-8.2,23.3-20.2,26.5
			c-12,3.2-23.9-1.6-30.8-12.9c-2.7-4.3-3.4-9.3-3.4-14.3c-0.1-12.5,0-25,0-37.4c0-12.6-0.1-25.3,0-37.9
			c0.3-20.7,19.6-31.8,36.9-25.7c10.5,3.7,17.5,13.5,17.7,25.9C335.7,219.2,335.7,244.5,335.4,269.8z M369.2,284.9
			c-15.1,0-27.1-12.4-26.9-27.6c0.2-14.9,12.3-26.5,27.4-26.4c15.4,0.1,27.3,12,27.2,27.1C396.7,273.2,384.6,284.9,369.2,284.9z"
			/>
		<path
				fill="#FEFEFE"
				d="M245.8,159.4c-14.4,0.3-25.8,11.9-25.8,26.3c0,16.3,0,32.6,0,48.9c0,16.6-0.1,33.3,0,49.9
			c0.1,14.6,11.5,25.8,26.6,26c14.3,0.2,27.2-11.1,27.3-25c0.3-33.6,0.3-67.2,0-100.8C273.7,170.3,260.8,159.1,245.8,159.4z"
			/>
		<path
				fill="#FEFEFE"
				d="M317.8,168c-17.3-6-36.6,5-36.9,25.7c-0.2,12.6,0,25.3,0,37.9c0,12.5,0,25,0,37.4c0,5,0.7,10,3.4,14.3
			c7,11.2,18.8,16.1,30.8,12.9c12-3.2,20.1-13.3,20.2-26.5c0.2-25.3,0.2-50.6,0-75.9C335.4,181.5,328.3,171.7,317.8,168z"
			/>
		<path
				fill="#FEFEFE"
				d="M185.9,208.4c-14.1-0.4-26.5,10.2-27.3,24.4c-0.7,13.4-0.7,27,0,40.4c0.7,13.9,12.4,23.9,26.5,24.1
			c14,0.1,25.6-9.7,26.9-23.6c0.7-6.9,0.1-13.9,0.1-20.9c0.1,0,0.3,0,0.4,0c0-6,0.2-12,0-18C212,219.9,200.6,208.7,185.9,208.4z"
			/>
		<path
				fill="#FEFEFE"
				d="M369.7,230.9c-15.1-0.1-27.1,11.5-27.4,26.4c-0.2,15.2,11.8,27.6,26.9,27.6c15.4,0,27.5-11.8,27.7-26.9
			C397.1,242.9,385.1,231,369.7,230.9z"
			/>
		<path
				fill="#FEFEFE"
				d="M123.7,230.9c-15.2,0-26.8,11.6-26.8,26.8c0,15.2,11.7,27.1,26.6,27.2c15.5,0.1,27.4-11.6,27.5-26.8
			C151,242.1,139.7,230.9,123.7,230.9z"
			/>
	</g>
</g>
</svg>
