<svg
	width="152"
	height="24"
	viewBox="0 0 152 24"
	fill="none"
	xmlns="http://www.w3.org/2000/svg"
>
<g clip-path="url(#clip0_3022_1944)">
<path
			d="M21.0053 9.89728L11.108 15.4831L0.509734 9.51498L0 9.79109V14.1238L11.108 20.3681L21.0053 14.8035V17.0973L11.108 22.6831L0.509734 16.715L0 16.9911V17.7345L11.108 23.9787L22.1947 17.7345V13.4017L21.685 13.1256L11.108 19.0725L1.18938 13.5079V11.2141L11.108 16.7787L22.1947 10.5345V6.26543L21.6425 5.94684L11.108 11.8725L1.69911 6.60525L11.108 1.31675L18.8389 5.67074L19.5186 5.28844V4.75746L11.108 0.0211792L0 6.26543V6.94507L11.108 13.1893L21.0053 7.60348V9.89728Z"
			fill="#EE3D2C"
		/>
<path
			d="M42.9449 20.4318V1.35919H40.014V8.49547C40.014 8.60167 39.9502 8.68662 39.844 8.7291C39.7379 8.77158 39.6317 8.7291 39.5679 8.66539C38.5697 7.49724 37.0193 6.83884 35.3202 6.83884C31.6883 6.83884 28.8423 9.89724 28.8423 13.8052C28.8423 15.7167 29.5007 17.4795 30.7113 18.7751C31.9219 20.0707 33.5573 20.7716 35.3202 20.7716C36.998 20.7716 38.5485 20.0707 39.5679 18.8601C39.6317 18.7751 39.7591 18.7539 39.844 18.7751C39.9502 18.8176 40.014 18.9026 40.014 19.0087V20.4318H42.9449ZM35.9573 18.1167C33.621 18.1167 31.7945 16.2264 31.7945 13.8052C31.7945 11.384 33.621 9.4937 35.9573 9.4937C38.2936 9.4937 40.1201 11.384 40.1201 13.8052C40.1201 16.2264 38.2936 18.1167 35.9573 18.1167Z"
			fill="black"
		/>
<path
			d="M58.619 20.4318V7.15745H55.7093V8.4955C55.7093 8.6017 55.6456 8.68665 55.5394 8.72913C55.4332 8.77161 55.327 8.72913 55.2633 8.64418C54.2863 7.47603 52.7571 6.81763 51.0155 6.81763C47.3836 6.81763 44.5376 9.87603 44.5376 13.784C44.5376 17.692 47.3836 20.7504 51.0155 20.7504C52.6934 20.7504 54.2438 20.0495 55.2633 18.8176C55.327 18.7327 55.4544 18.7114 55.5394 18.7327C55.6456 18.7751 55.7093 18.8601 55.7093 18.9663V20.4105H58.619V20.4318ZM51.6739 18.1167C49.3376 18.1167 47.5111 16.2265 47.5111 13.8052C47.5111 11.384 49.3376 9.49373 51.6739 9.49373C54.0102 9.49373 55.8367 11.384 55.8367 13.8052C55.8367 16.2265 54.0102 18.1167 51.6739 18.1167Z"
			fill="black"
		/>
<path
			d="M83.5326 20.4318V7.15745H80.6229V8.4955C80.6229 8.6017 80.5592 8.68665 80.453 8.72913C80.3468 8.77161 80.2406 8.72913 80.1769 8.64418C79.1999 7.47603 77.6707 6.81763 75.9291 6.81763C72.276 6.81763 69.4512 9.87603 69.4512 13.8052C69.4512 17.7344 72.2972 20.7716 75.9291 20.7716C77.6069 20.7716 79.1574 20.0707 80.1769 18.8389C80.2406 18.7539 80.368 18.7327 80.453 18.7539C80.5592 18.7964 80.6229 18.8813 80.6229 18.9875V20.4318H83.5326V20.4318ZM76.5875 18.1167C74.2512 18.1167 72.4246 16.2265 72.4246 13.8052C72.4246 11.384 74.2512 9.49373 76.5875 9.49373C78.9238 9.49373 80.7503 11.384 80.7503 13.8052C80.7503 16.2265 78.9238 18.1167 76.5875 18.1167Z"
			fill="black"
		/>
<path
			d="M88.8636 18.8601C88.8848 18.8601 88.9273 18.8388 88.9485 18.8388C89.0122 18.8388 89.0972 18.8813 89.1397 18.9238C90.1379 20.0919 91.6884 20.7503 93.3875 20.7503C97.0193 20.7503 99.8653 17.6919 99.8653 13.784C99.8653 11.8725 99.2069 10.1096 97.9963 8.81406C96.7857 7.51848 95.1503 6.8176 93.3875 6.8176C91.7096 6.8176 90.1592 7.51848 89.1397 8.7291C89.076 8.81406 88.9698 8.8353 88.8636 8.81406C88.7574 8.77158 88.6937 8.68663 88.6937 8.58043V1.35919H85.7627V20.4318H88.6937V19.0937C88.6937 18.9875 88.7574 18.9026 88.8636 18.8601ZM88.5662 13.8052C88.5662 11.384 90.3928 9.4937 92.7291 9.4937C95.0653 9.4937 96.8919 11.384 96.8919 13.8052C96.8919 16.2264 95.0653 18.1167 92.7291 18.1167C90.3928 18.1167 88.5662 16.2052 88.5662 13.8052Z"
			fill="black"
		/>
<path
			d="M108.339 9.87598C108.616 9.87598 108.87 9.89722 109.04 9.93969V6.92376C108.934 6.90252 108.743 6.88129 108.552 6.88129C107.023 6.88129 105.621 7.66713 104.877 8.92022C104.814 9.02642 104.708 9.0689 104.601 9.02642C104.495 9.00518 104.41 8.89899 104.41 8.79279V7.15739H101.5V20.453H104.431V14.591C104.431 11.6813 105.918 9.87598 108.339 9.87598Z"
			fill="black"
		/>
<path d="M113.862 7.15741H110.888V20.453H113.862V7.15741Z" fill="black" />
<path
			d="M112.333 1.38037C111.334 1.38037 110.527 2.18745 110.527 3.18568C110.527 4.18391 111.334 4.99099 112.333 4.99099C113.331 4.99099 114.138 4.18391 114.138 3.18568C114.138 2.18745 113.331 1.38037 112.333 1.38037Z"
			fill="black"
		/>
<path
			d="M122.57 6.81763C118.492 6.81763 115.54 9.7486 115.54 13.8052C115.54 15.7805 116.24 17.5433 117.494 18.8176C118.768 20.092 120.552 20.7928 122.548 20.7928C124.205 20.7928 125.479 20.4743 127.901 18.6902L126.223 16.9274C125.033 17.7132 123.929 18.0955 122.846 18.0955C120.382 18.0955 118.534 16.2477 118.534 13.8052C118.534 11.3628 120.382 9.51497 122.846 9.51497C124.014 9.51497 125.097 9.89727 126.18 10.6831L128.049 8.92028C125.862 7.05126 123.886 6.81763 122.57 6.81763Z"
			fill="black"
		/>
<path
			d="M133.062 14.591C133.104 14.5485 133.168 14.5273 133.232 14.5273H133.253C133.317 14.5273 133.38 14.5698 133.444 14.6122L138.138 20.4317H141.749L135.674 13.083C135.589 12.9768 135.589 12.8282 135.695 12.7432L141.281 7.15736H137.692L132.871 11.9998C132.807 12.0636 132.701 12.0848 132.595 12.0636C132.51 12.0211 132.446 11.9361 132.446 11.8299V1.38037H129.494V20.4529H132.425V15.2706C132.425 15.2069 132.446 15.122 132.51 15.0795L133.062 14.591Z"
			fill="black"
		/>
<path
			d="M146.527 20.7715C148.927 20.7715 151.37 19.306 151.37 16.5237C151.37 14.6972 150.223 13.4441 147.887 12.6795L146.294 12.1485C145.21 11.7874 144.701 11.2777 144.701 10.5768C144.701 9.76972 145.423 9.2175 146.442 9.2175C147.419 9.2175 148.29 9.85467 148.842 10.9591L151.2 9.68476C150.329 7.90069 148.524 6.79626 146.442 6.79626C143.809 6.79626 141.897 8.49538 141.897 10.8104C141.897 12.6582 143.002 13.8901 145.274 14.6122L146.91 15.1432C148.056 15.5042 148.545 15.9715 148.545 16.7148C148.545 17.8405 147.504 18.2441 146.612 18.2441C145.423 18.2441 144.361 17.4795 143.851 16.2264L141.451 17.5007C142.237 19.5184 144.17 20.7715 146.527 20.7715Z"
			fill="black"
		/>
<path
			d="M66.7752 20.6441C67.7097 20.6441 68.5381 20.5592 69.0053 20.4955V17.9468C68.623 17.9893 67.9434 18.0317 67.5398 18.0317C66.3505 18.0317 65.4372 17.8194 65.4372 15.2494V9.79103C65.4372 9.64236 65.5434 9.53617 65.692 9.53617H68.5593V7.13616H65.692C65.5434 7.13616 65.4372 7.02997 65.4372 6.8813V3.05829H62.5062V6.90254C62.5062 7.05121 62.4 7.1574 62.2513 7.1574H60.2124V9.5574H62.2513C62.4 9.5574 62.5062 9.6636 62.5062 9.81227V15.9928C62.5062 20.6441 65.6071 20.6441 66.7752 20.6441Z"
			fill="black"
		/>
</g>
<defs>
<clipPath id="clip0_3022_1944">
<rect width="151.391" height="24" fill="white" />
</clipPath>
</defs>
</svg>
