<?xml version="1.0" encoding="utf-8" ?>
<!-- Generator: Adobe Illustrator 19.2.1, SVG Export Plug-In . SVG Version: 6.00 Build 0)  -->
<svg
	version="1.1"
	id="layer"
	xmlns="http://www.w3.org/2000/svg"
	xmlns:xlink="http://www.w3.org/1999/xlink"
	x="0px"
	y="0px"
	viewBox="0 0 652 652"
	style="enable-background:new 0 0 652 652;"
	xml:space="preserve"
>
<style type="text/css">
.st0 {
	fill: #3be081;
}
.st1 {
	fill: #0037ff;
}
.st2 {
	fill: #00ccff;
}
.st3 {
	fill: #861dff;
}
.st4 {
	fill: #ff8110;
}
	</style>
<path
		class="st0"
		d="M69.4,327.4v16.7c12.7,0,24.9-4.9,33.9-13.6c9-8.7,14.1-20.6,14.1-32.9h-17.2c0,7.9-3.3,15.5-9,21.1
	C85.4,324.2,77.6,327.4,69.4,327.4z"
	/>
<path
		class="st1"
		d="M69.4,373.4c-8.1,0-15.9-3.1-21.6-8.7c-5.7-5.6-9-13.1-9-21c0-7.9,3.2-15.4,9-21c5.7-5.6,13.5-8.7,21.6-8.7
	v-16.6c-6.3,0-12.5,1.2-18.2,3.5c-5.8,2.3-11,5.7-15.5,10c-4.4,4.3-8,9.4-10.4,15c-2.4,5.6-3.6,11.6-3.7,17.7
	c0,6.1,1.2,12.1,3.6,17.7c2.4,5.6,5.9,10.7,10.3,15c4.4,4.3,9.7,7.7,15.5,10c5.8,2.3,12,3.5,18.2,3.5h0.1V373.4z"
	/>
<path
		class="st2"
		d="M69.4,373.4v16.6c12.6,0,24.8-4.9,33.7-13.5s14-20.4,14-32.7H100c0,7.9-3.2,15.4-9,21
	C85.3,370.2,77.5,373.3,69.4,373.4z"
	/>
<path
		class="st3"
		d="M69.4,281v16.6c12.6,0,24.8-4.9,33.7-13.5c8.9-8.7,14-20.4,14-32.7H100c0,7.9-3.2,15.4-9,21
	C85.3,277.8,77.5,281,69.4,281z"
	/>
<path
		class="st4"
		d="M117.3,281v16.6c12.6,0,24.8-4.9,33.7-13.5c8.9-8.7,14-20.4,14-32.7h-17.1c0,7.9-3.2,15.4-9,21
	C133.2,277.8,125.5,281,117.3,281z"
	/>
<path
		d="M244.6,320.5h8.8l2.1,4.5c1.1-1,2.3-1.8,3.6-2.5c1.4-0.7,2.8-1.2,4.2-1.7c1.8-0.6,3.7-0.8,5.6-0.8c2.9,0,5.8,0.6,8.5,1.7
	c2.7,1.2,5.1,2.8,7.1,4.9c2.1,2.2,3.7,4.7,4.9,7.5c2.4,6.1,2.4,12.8,0,18.9c-1.1,2.8-2.8,5.3-4.9,7.5c-2,2.1-4.4,3.8-7.1,4.9
	c-2.7,1.2-5.6,1.8-8.5,1.8c-1.8,0-3.5-0.2-5.2-0.7c-1.3-0.4-2.6-0.9-3.9-1.5c-1.2-0.6-2.3-1.4-3.3-2.3v20.1h-11.9L244.6,320.5z
	 M267.4,356.1c1.6,0,3.2-0.2,4.6-0.8c1.5-0.6,2.8-1.5,3.9-2.6c2.3-2.3,3.4-5.3,3.4-9.1c0.1-1.7-0.2-3.3-0.8-4.9
	c-0.6-1.6-1.5-3-2.7-4.2c-1.1-1.1-2.4-1.9-3.9-2.5c-1.5-0.6-3-0.9-4.6-0.9c-1.6,0-3.1,0.3-4.6,0.9c-1.5,0.6-2.8,1.4-3.9,2.5
	c-2.3,2.3-3.4,5.3-3.4,9.1s1.1,6.9,3.4,9.1c1.1,1.1,2.4,2,3.9,2.6C264.3,355.9,265.8,356.2,267.4,356.1L267.4,356.1z M319.7,367.2
	c-2.2,0-4.4-0.4-6.5-1.2c-1.9-0.7-3.7-1.9-5.1-3.4c-1.4-1.5-2.6-3.3-3.3-5.2c-0.8-2.2-1.2-4.5-1.2-6.8V331h-7.2v-9.5h3.1
	c3.8,0,5.7-1.8,5.7-5.5v-6.5h10.4v11.1h10.4v10.5h-10.4v19.1c-0.1,0.8,0,1.6,0.3,2.4c0.3,0.8,0.7,1.5,1.2,2.1
	c0.5,0.6,1.2,1.1,1.9,1.5c0.7,0.4,1.5,0.6,2.3,0.6c0.3,0,0.6,0,1,0c0.4,0,0.9,0,1.3,0c0.3,0,0.7-0.1,1-0.2c0.3-0.1,0.6-0.2,0.8-0.3
	v10c-0.5,0.2-1.1,0.4-1.7,0.5C322.5,367.1,321.1,367.2,319.7,367.2L319.7,367.2z M342,315c-1.6,0-3.2-0.5-4.4-1.4
	c-1.3-1-2.1-2.3-2.5-3.8c-0.3-1.5-0.1-3.1,0.6-4.5c0.7-1.4,1.9-2.5,3.4-3.1c1.5-0.6,3.1-0.7,4.7-0.3c1.5,0.4,2.9,1.4,3.8,2.7
	c0.9,1.3,1.3,2.8,1.2,4.4c-0.2,1.5-0.9,3-2,4.1c-0.6,0.6-1.3,1.1-2.1,1.5C343.7,314.8,342.9,315,342,315z M335.8,320.5h11.9v46.2
	h-11.9V320.5z M359.1,320.5h8.8l2.1,4.5c1-0.9,2.1-1.8,3.2-2.5c1.1-0.7,2.3-1.2,3.5-1.7c1.5-0.5,3.1-0.8,4.7-0.8
	c2.1-0.1,4.2,0.3,6.2,0.9c1.5,0.5,2.9,1.2,4.2,2.1c1.2,0.8,2.2,1.8,3,3c1.1-1.2,2.4-2.2,3.8-3c1.4-0.8,2.9-1.5,4.5-2.1
	c1.8-0.6,3.7-1,5.7-0.9c5.2,0,9.3,1.6,12.4,4.8c3.1,3.2,4.7,8,4.7,14.3v27.6H414v-26.6c0.1-2.4-0.7-4.8-2.3-6.6
	c-0.6-0.7-1.4-1.3-2.2-1.7c-0.8-0.4-1.8-0.7-2.7-0.7c-0.9-0.1-1.9,0-2.8,0.3s-1.7,0.7-2.4,1.3c-0.3,0.2-0.5,0.5-0.7,0.7
	c-1.6,1.8-2.5,4.2-2.3,6.6v26.6h-11.9v-26.6c0.1-2.4-0.7-4.8-2.3-6.6c-0.6-0.7-1.4-1.3-2.2-1.7c-0.8-0.4-1.8-0.7-2.7-0.7
	c-0.9-0.1-1.9,0-2.8,0.3s-1.7,0.7-2.4,1.3c-0.3,0.2-0.5,0.5-0.7,0.7c-1.6,1.8-2.5,4.2-2.3,6.6v26.6h-11.9L359.1,320.5z M443,315
	c-1.6,0-3.2-0.5-4.4-1.4c-1.3-1-2.1-2.3-2.5-3.8c-0.3-1.5-0.1-3.1,0.6-4.5c0.7-1.4,1.9-2.5,3.4-3.1c1.5-0.6,3.1-0.7,4.7-0.3
	c1.5,0.4,2.9,1.4,3.8,2.7c0.9,1.3,1.3,2.8,1.2,4.4c-0.2,1.6-0.9,3-2,4.1c-0.6,0.6-1.3,1.1-2.1,1.5C444.7,314.8,443.9,315,443,315
	L443,315z M436.8,320.5h11.9v46.2h-11.9V320.5z M457.4,357.1l20.7-25.6h-20.7v-11h35.7v9.5l-20.7,25.7h21.7v11h-36.8V357.1z
	 M524.3,367.2c-3.2,0-6.3-0.6-9.2-1.9c-2.8-1.2-5.4-2.9-7.6-5.1c-2.2-2.2-4-4.7-5.2-7.5c-1.3-2.9-1.9-6-1.9-9.2s0.6-6.3,1.9-9.2
	c1.2-2.8,3-5.3,5.2-7.5c2.2-2.1,4.7-3.9,7.6-5.1c2.8-1.2,5.9-1.8,9-1.9c3.1,0,6.1,0.6,9,1.7c2.7,1.1,5.2,2.8,7.2,4.8
	c2.1,2.2,3.8,4.7,4.9,7.5c1.2,3.1,1.8,6.3,1.8,9.6c0,0.5,0,1-0.1,1.6c-0.1,0.5-0.1,1-0.2,1.5c-0.1,0.5-0.1,1-0.2,1.5h-33.1
	c0.5,2.2,1.7,4.2,3.5,5.7c2.1,1.6,4.7,2.5,7.4,2.3c1.3,0,2.7-0.1,4-0.5c1-0.3,1.9-0.7,2.7-1.2c0.8-0.5,1.5-1.1,2.1-1.8h12.4
	c-0.7,1.9-1.7,3.6-2.9,5.2c-1.3,1.8-2.9,3.4-4.7,4.7c-1.9,1.4-4,2.5-6.2,3.4C529.4,366.8,526.9,367.2,524.3,367.2z M535.7,340.1
	c-0.5-2.6-1.9-4.9-4-6.6c-2.1-1.7-4.7-2.6-7.4-2.6c-2.7,0-5.3,0.9-7.4,2.6c-2.1,1.7-3.5,4-4,6.6H535.7z M555.9,303.4h11.9v63.3
	h-11.9V303.4z M585.9,383.3c-0.5,0-1.1,0-1.6-0.1c-0.4,0-0.9-0.1-1.3-0.2c-0.4,0-0.8-0.2-1.2-0.3v-9.5c2.2,0.1,4.3-0.5,6.1-1.7
	c1.4-1.2,2.6-2.6,3.3-4.3l1-2.5L574,320.5h12.4l11.9,30.1l10.9-30.1h12.4c-3.4,8.4-6.5,16.1-9.2,22.9c-1.2,2.9-2.3,5.8-3.5,8.6
	c-1.1,2.8-2.1,5.4-3.1,7.7c-0.9,2.3-1.7,4.2-2.3,5.8c-0.6,1.5-1,2.4-1.1,2.7c-1,2.4-2.2,4.7-3.5,7c-1,1.7-2.2,3.3-3.7,4.7
	c-1.2,1.1-2.7,2-4.2,2.6C589.4,383,587.6,383.3,585.9,383.3L585.9,383.3z M200.5,297.5c-7.1,0-14,2-20,5.9
	c-5.9,3.8-10.5,9.3-13.2,15.6c-2.7,6.4-3.4,13.4-2,20.1c1.4,6.8,4.8,13,9.8,17.8c5,4.9,11.4,8.2,18.4,9.5c7,1.3,14.2,0.7,20.8-2
	c6.6-2.6,12.2-7.1,16.1-12.8c3.9-5.7,6.1-12.5,6.1-19.3c0-4.6-0.9-9.1-2.7-13.3c-1.8-4.2-4.5-8.1-7.8-11.3
	c-3.3-3.2-7.3-5.8-11.7-7.5C209.9,298.4,205.2,297.5,200.5,297.5z M200.5,355.1c-4.6,0.1-9.2-1.2-13.1-3.7c-3.9-2.5-6.9-6-8.8-10.1
	c-1.8-4.1-2.3-8.7-1.5-13.1c0.9-4.4,3-8.5,6.3-11.7c3.2-3.2,7.4-5.4,12-6.3c4.5-0.9,9.3-0.5,13.6,1.2c4.3,1.7,8,4.6,10.6,8.3
	c2.6,3.7,4,8.1,4.1,12.6v0.3c0,6-2.4,11.7-6.8,16C212.6,352.6,206.7,355,200.5,355.1L200.5,355.1z"
	/>
</svg>
