<?xml version="1.0" encoding="UTF-8" standalone="no" ?>
<svg xmlns="http://www.w3.org/2000/svg" version="1.1" viewBox="0 0 399 399">
<g stroke-width="2.00" fill="none" stroke-linecap="butt">
<path
			stroke="#8985ee"
			vector-effect="non-scaling-stroke"
			d="
  M 228.34 80.05
  C 208.71 88.28 184.63 88.06 165.03 79.62
  C 148.19 72.36 138.80 59.15 118.20 63.11
  C 80.80 70.30 76.24 122.24 111.92 135.76
  Q 130.18 142.67 148.51 131.15
  Q 156.43 126.17 161.18 123.44
  C 178.47 113.52 201.83 112.61 220.71 117.72
  C 239.69 122.85 252.29 139.71 272.67 138.17
  C 303.76 135.82 318.96 98.65 298.28 75.26
  C 286.63 62.08 268.28 59.01 252.24 66.23
  C 243.84 70.01 236.50 76.63 228.34 80.05"
		/>
<path
			stroke="#8985ee"
			vector-effect="non-scaling-stroke"
			d="
  M 111.67 201.49
  A 37.99 37.99 0.0 0 0 73.68 163.50
  A 37.99 37.99 0.0 0 0 35.69 201.49
  A 37.99 37.99 0.0 0 0 73.68 239.48
  A 37.99 37.99 0.0 0 0 111.67 201.49"
		/>
<path
			stroke="#8985ee"
			vector-effect="non-scaling-stroke"
			d="
  M 254.56 187.68
  C 241.84 185.72 233.98 179.04 224.41 172.11
  C 210.85 162.29 191.25 159.78 177.33 170.34
  C 159.17 184.12 155.98 210.43 171.94 227.32
  C 185.33 241.48 206.59 243.63 222.15 231.88
  C 226.96 228.24 231.83 223.96 236.29 221.43
  C 252.72 212.10 275.66 211.90 291.19 223.82
  C 302.42 232.44 310.93 238.44 323.95 239.38
  C 350.83 241.32 371.29 213.45 361.28 188.24
  C 351.87 164.54 323.86 155.76 303.08 171.37
  Q 299.04 174.40 294.99 177.46
  C 282.96 186.55 269.75 190.02 254.56 187.68"
		/>
<path
			stroke="#8985ee"
			vector-effect="non-scaling-stroke"
			d="
  M 250.10 334.87
  C 266.83 344.99 287.69 341.18 299.54 326.19
  C 315.05 306.56 307.65 277.67 284.78 267.81
  C 270.27 261.55 257.37 265.02 244.38 273.02
  C 236.08 278.12 228.33 283.44 219.00 285.75
  C 200.51 290.34 176.09 289.01 159.58 279.17
  C 144.57 270.22 133.86 260.91 114.79 266.33
  C 74.25 277.86 80.64 336.03 122.23 340.57
  C 132.79 341.72 141.21 338.07 150.89 332.08
  C 161.42 325.56 169.91 320.16 183.26 318.03
  Q 195.27 316.11 209.50 317.73
  C 225.69 319.56 236.66 326.73 250.10 334.87"
		/>
</g>
<path
		fill="#ffffff"
		d="
  M 0.00 0.00
  L 399.00 0.00
  L 399.00 399.00
  L 0.00 399.00
  L 0.00 0.00
  Z
  M 228.34 80.05
  C 208.71 88.28 184.63 88.06 165.03 79.62
  C 148.19 72.36 138.80 59.15 118.20 63.11
  C 80.80 70.30 76.24 122.24 111.92 135.76
  Q 130.18 142.67 148.51 131.15
  Q 156.43 126.17 161.18 123.44
  C 178.47 113.52 201.83 112.61 220.71 117.72
  C 239.69 122.85 252.29 139.71 272.67 138.17
  C 303.76 135.82 318.96 98.65 298.28 75.26
  C 286.63 62.08 268.28 59.01 252.24 66.23
  C 243.84 70.01 236.50 76.63 228.34 80.05
  Z
  M 111.67 201.49
  A 37.99 37.99 0.0 0 0 73.68 163.50
  A 37.99 37.99 0.0 0 0 35.69 201.49
  A 37.99 37.99 0.0 0 0 73.68 239.48
  A 37.99 37.99 0.0 0 0 111.67 201.49
  Z
  M 254.56 187.68
  C 241.84 185.72 233.98 179.04 224.41 172.11
  C 210.85 162.29 191.25 159.78 177.33 170.34
  C 159.17 184.12 155.98 210.43 171.94 227.32
  C 185.33 241.48 206.59 243.63 222.15 231.88
  C 226.96 228.24 231.83 223.96 236.29 221.43
  C 252.72 212.10 275.66 211.90 291.19 223.82
  C 302.42 232.44 310.93 238.44 323.95 239.38
  C 350.83 241.32 371.29 213.45 361.28 188.24
  C 351.87 164.54 323.86 155.76 303.08 171.37
  Q 299.04 174.40 294.99 177.46
  C 282.96 186.55 269.75 190.02 254.56 187.68
  Z
  M 250.10 334.87
  C 266.83 344.99 287.69 341.18 299.54 326.19
  C 315.05 306.56 307.65 277.67 284.78 267.81
  C 270.27 261.55 257.37 265.02 244.38 273.02
  C 236.08 278.12 228.33 283.44 219.00 285.75
  C 200.51 290.34 176.09 289.01 159.58 279.17
  C 144.57 270.22 133.86 260.91 114.79 266.33
  C 74.25 277.86 80.64 336.03 122.23 340.57
  C 132.79 341.72 141.21 338.07 150.89 332.08
  C 161.42 325.56 169.91 320.16 183.26 318.03
  Q 195.27 316.11 209.50 317.73
  C 225.69 319.56 236.66 326.73 250.10 334.87
  Z"
	/>
<path
		fill="#130bdc"
		d="
  M 165.03 79.62
  C 184.63 88.06 208.71 88.28 228.34 80.05
  C 236.50 76.63 243.84 70.01 252.24 66.23
  C 268.28 59.01 286.63 62.08 298.28 75.26
  C 318.96 98.65 303.76 135.82 272.67 138.17
  C 252.29 139.71 239.69 122.85 220.71 117.72
  C 201.83 112.61 178.47 113.52 161.18 123.44
  Q 156.43 126.17 148.51 131.15
  Q 130.18 142.67 111.92 135.76
  C 76.24 122.24 80.80 70.30 118.20 63.11
  C 138.80 59.15 148.19 72.36 165.03 79.62
  Z"
	/>
<circle fill="#130bdc" cx="73.68" cy="201.49" r="37.99" />
<path
		fill="#130bdc"
		d="
  M 254.56 187.68
  C 269.75 190.02 282.96 186.55 294.99 177.46
  Q 299.04 174.40 303.08 171.37
  C 323.86 155.76 351.87 164.54 361.28 188.24
  C 371.29 213.45 350.83 241.32 323.95 239.38
  C 310.93 238.44 302.42 232.44 291.19 223.82
  C 275.66 211.90 252.72 212.10 236.29 221.43
  C 231.83 223.96 226.96 228.24 222.15 231.88
  C 206.59 243.63 185.33 241.48 171.94 227.32
  C 155.98 210.43 159.17 184.12 177.33 170.34
  C 191.25 159.78 210.85 162.29 224.41 172.11
  C 233.98 179.04 241.84 185.72 254.56 187.68
  Z"
	/>
<path
		fill="#130bdc"
		d="
  M 299.54 326.19
  C 287.69 341.18 266.83 344.99 250.10 334.87
  C 236.66 326.73 225.69 319.56 209.50 317.73
  Q 195.27 316.11 183.26 318.03
  C 169.91 320.16 161.42 325.56 150.89 332.08
  C 141.21 338.07 132.79 341.72 122.23 340.57
  C 80.64 336.03 74.25 277.86 114.79 266.33
  C 133.86 260.91 144.57 270.22 159.58 279.17
  C 176.09 289.01 200.51 290.34 219.00 285.75
  C 228.33 283.44 236.08 278.12 244.38 273.02
  C 257.37 265.02 270.27 261.55 284.78 267.81
  C 307.65 277.67 315.05 306.56 299.54 326.19
  Z"
	/>
</svg>
