<svg
	xmlns="http://www.w3.org/2000/svg"
	viewBox="0 0 40 40"
	width="40px"
	height="40px"
><path
		fill="#8bb7f0"
		d="M33.553,24.076c-0.099-7.07-5.66-12.941-12.743-13.407l-3.738,0.216l0.476,1.89l3.194-0.109 c0.699,0.05,1.382,0.159,2.044,0.325c-3.219,1.112-6.27,3.804-8.326,7.355c0.505,0.423,1.043,0.828,1.612,1.21 c2.387-4.254,6.322-7.123,9.939-7.123l0.104,0.002c0.634,0.4,1.222,0.855,1.761,1.359c-0.345-0.041-0.707-0.061-1.086-0.061 c-0.49,0-1.013,0.034-1.554,0.102l-1.06,0.131l0.48,1.926l0.938-0.103c0.395-0.045,0.777-0.068,1.137-0.068 c1.591,0,2.751,0.446,3.266,1.255c0.88,1.385,0.012,3.783-2.028,6.174c0.93-0.013,1.831-0.097,2.692-0.248 c0.334-0.502,0.622-1.004,0.859-1.501c0.024,0.292,0.036,0.582,0.036,0.869c0,0.15-0.004,0.3-0.01,0.45 C32.249,24.551,32.921,24.336,33.553,24.076z"
	/><path
		fill="#4e7ab5"
		d="M20.983,12.184c-0.354-0.041-0.711-0.067-1.066-0.078c-0.827-0.025-1.686,0.048-2.49,0.189 l0.207,0.972c0.738-0.129,1.495-0.184,2.255-0.161c0.003,0,1.09,0.084,1.145,0.092c-2.704,1.376-5.187,3.79-6.96,6.816 c0.25,0.222,0.509,0.439,0.776,0.651c2.362-4.132,6.038-7.003,9.707-7.613C23.44,12.587,22.237,12.294,20.983,12.184z"
	/><path
		fill="#b2cff5"
		d="M18.294,12.074c0.041,0.248,0.102,0.474,0.176,0.67l1.431-0.049c0.105-0.437,0.124-0.991,0.032-1.542 c-0.025-0.152-0.058-0.294-0.096-0.428l-1.564,0.091C18.219,11.197,18.221,11.636,18.294,12.074z"
	/><path
		fill="#d8e7fa"
		d="M17.602,12.773l1.485-0.051c0.076-0.406,0.08-0.899-0.005-1.396c-0.034-0.198-0.08-0.382-0.135-0.55 l-1.53,0.089c-0.057,0.383-0.053,0.831,0.024,1.282C17.48,12.376,17.535,12.586,17.602,12.773z"
	/><path
		fill="#4e7ab5"
		d="M34.049,23.858c-0.209-7.235-5.934-13.21-13.206-13.688c0,0-1.598-0.202-3.89,0.226l0.242,0.978 c0.688-0.139,1.501-0.305,2.756-0.261l0.826,0.055c6.843,0.45,12.278,6.145,12.278,13.101v0 C33.397,24.144,33.729,24.007,34.049,23.858z"
	/><path
		fill="#4e7ab5"
		d="M26.413,15.238c-0.398,0.013-0.814,0.046-1.24,0.1l-1.119,0.14l0.241,0.968l1.002-0.115 c0.519-0.065,1.018-0.098,1.492-0.098c0.981,0,1.855,0.143,2.584,0.441c-0.87-1.082-1.924-2.004-3.11-2.736 c-0.084-0.003-0.167-0.004-0.252-0.004c-3.793,0-7.859,2.902-10.354,7.337c0.27,0.192,0.549,0.379,0.834,0.56 c2.287-4.1,6.037-6.873,9.475-6.897C26.117,15.031,26.266,15.133,26.413,15.238z"
	/><path
		fill="#bae0bd"
		d="M17.002,30.422c-5.692-2.586-9.307-7.49-9.397-12.085c-0.919,2.214-0.46,4.837,1.302,7.402 c0.779,1.135,1.781,2.207,2.979,3.19c-0.075,1.453,0.03,2.817,0.312,4.078c-1.431-1.264-2.522-2.871-3.194-4.713L8.645,27.34 l-1.871,0.724L7.127,29c1.98,5.415,6.998,8.913,12.783,8.913c5.602,0,10.572-3.371,12.653-8.566l0.023-0.061 C29.119,32.473,22.86,33.083,17.002,30.422z M19.91,35.913c-1.737,0-3.406-0.369-4.964-1.098c-0.651-1.285-1.023-2.814-1.093-4.474 c0.869,0.548,1.786,1.036,2.736,1.455c2.596,1.145,5.279,1.75,7.759,1.75c1.067,0,2.085-0.116,3.021-0.342 C25.291,34.945,22.667,35.913,19.91,35.913z"
	/><path
		fill="#4e7ab5"
		d="M30.419,18.707c-0.627-0.986-1.948-1.487-3.687-1.487c-0.379,0-0.779,0.024-1.195,0.072l-1.002,0.116 l0.244,0.977l0.872-0.1c0.376-0.043,0.74-0.065,1.081-0.065c1.414,0,2.423,0.363,2.843,1.023c0.71,1.117-0.032,3.436-2.257,5.903 c0.449,0.009,0.891,0.003,1.327-0.02C30.619,22.685,31.397,20.246,30.419,18.707z"
	/><path
		fill="#a3ccd7"
		d="M26.09,29.608c1.933-1.468,3.494-3.088,4.571-4.707c-0.861,0.151-1.762,0.235-2.692,0.248 c-0.842,0.986-1.882,1.971-3.082,2.884l-0.7,0.733l1.095,1.428L26.09,29.608z"
	/><path
		fill="#8bb7f0"
		d="M11.413,16.99c0.88-0.504,1.985-0.842,3.257-0.977l0.947-0.181v-1.934l-1.05,0.116 c-1.585,0.158-2.983,0.583-4.125,1.231C10.709,15.835,11.034,16.419,11.413,16.99z"
	/><path
		fill="#7496c4"
		d="M25.19,28.43c1.372-1.042,2.542-2.173,3.456-3.303c-0.436,0.023-0.878,0.029-1.327,0.02 c-0.745,0.826-1.656,1.668-2.734,2.487l-0.8,0.608l0.611,0.797L25.19,28.43z"
	/><path
		fill="#4e7ab5"
		d="M14.617,15.516c-1.349,0.144-2.528,0.503-3.474,1.05c0.172,0.282,0.357,0.561,0.555,0.837 c0.812-0.458,1.839-0.765,3.025-0.892l0.894-0.095v-0.992L14.617,15.516z"
	/><path
		fill="#4e7ab5"
		d="M15.617,14.401v-0.996l-1.099,0.11c-1.633,0.163-3.079,0.599-4.273,1.266 c0.122,0.306,0.26,0.611,0.412,0.913c1.091-0.626,2.434-1.031,3.96-1.184L15.617,14.401z"
	/><path
		fill="#5e9c76"
		d="M19.91,36.413c3.773,0,7.148-1.73,9.378-4.437c-1.364,0.702-3.057,1.07-4.94,1.07 c-2.331,0-4.944-0.555-7.557-1.708c-1.239-0.547-2.395-1.2-3.446-1.934c-0.052,2.137,0.358,4.139,1.234,5.79 C16.193,35.976,18.002,36.413,19.91,36.413z M16.387,32.253c2.659,1.173,5.412,1.793,7.961,1.793c0.326,0,0.648-0.011,0.965-0.031 c-1.633,0.908-3.485,1.399-5.403,1.399c-1.605,0-3.148-0.329-4.594-0.978c-0.451-0.938-0.75-2.009-0.888-3.166 C15.062,31.628,15.716,31.957,16.387,32.253z"
	/><path
		fill="#4e7ab5"
		d="M29.975,25.006c0.719-0.094,1.413-0.234,2.076-0.417c0.003-0.107,0.005-0.213,0.005-0.32 c0-0.994-0.133-1.956-0.36-2.882C31.453,22.532,30.86,23.767,29.975,25.006z"
	/><path
		fill="#a3ccd7"
		d="M33.553,24.076c-0.632,0.26-1.303,0.476-2.007,0.643c-0.051,1.312-0.326,2.6-0.81,3.816 c-0.88,1.873-3.28,2.99-6.419,2.99c-2.216,0-4.608-0.539-6.92-1.559c-1.222-0.539-2.375-1.2-3.432-1.965 c0.208-1.77,0.695-3.502,1.45-5.153c0.203-0.443,0.422-0.874,0.657-1.292c-0.569-0.382-1.108-0.787-1.612-1.21 c-0.311,0.538-0.6,1.095-0.863,1.67c-0.662,1.446-1.141,2.949-1.431,4.478c-0.628-0.61-1.167-1.242-1.61-1.887 c-1.387-2.02-1.766-4.003-1.068-5.586c0.365-0.827,1.028-1.516,1.926-2.031c-0.379-0.571-0.704-1.154-0.971-1.746 c-1.281,0.727-2.241,1.736-2.785,2.97c-0.018,0.041-0.035,0.082-0.052,0.123c0.09,4.596,3.705,9.499,9.397,12.085 c5.858,2.661,12.117,2.051,15.585-1.137l0.02-0.052c0.629-1.604,0.949-3.274,0.949-4.965C33.555,24.204,33.554,24.14,33.553,24.076z"
	/><path
		fill="#7496c4"
		d="M33.055,24.269c0,1.688-0.331,3.298-0.914,4.782c0,0-0.019,0.059-0.032,0.088 c-0.114,0.284-0.237,0.562-0.37,0.836c0.638-0.458,1.206-0.988,1.692-1.586c0.414-1.344,0.624-2.725,0.624-4.121 c0-0.137-0.002-0.274-0.006-0.41C33.729,24.007,33.397,24.144,33.055,24.269z"
	/><path
		fill="#7496c4"
		d="M8.115,18.416c0.5-1.133,1.377-2.053,2.542-2.721c-0.153-0.302-0.29-0.607-0.412-0.913 c-1.089,0.608-1.966,1.409-2.583,2.371c-0.098,0.833-0.072,1.683,0.069,2.536C7.807,19.25,7.935,18.824,8.115,18.416z"
	/><path
		fill="#7496c4"
		d="M9.03,18.819c-0.771,1.747-0.375,3.903,1.113,6.071c0.633,0.922,1.437,1.793,2.365,2.597 c0.242-1.751,0.753-3.538,1.542-5.263c0.246-0.537,0.513-1.057,0.8-1.559c-0.268-0.212-0.526-0.429-0.776-0.651 c-0.338,0.577-0.65,1.176-0.933,1.794c-0.544,1.189-0.968,2.415-1.268,3.662c-0.338-0.376-0.64-0.759-0.906-1.146 c-1.285-1.872-1.648-3.683-1.023-5.101c0.326-0.74,0.93-1.357,1.753-1.821c-0.198-0.276-0.383-0.555-0.555-0.837 C10.168,17.128,9.44,17.89,9.03,18.819z"
	/><path
		fill="#7496c4"
		d="M29.975,25.006c-1.029,1.44-2.454,2.886-4.187,4.204l-0.794,0.609l0.606,0.79l0.793-0.602 c1.935-1.471,3.51-3.095,4.616-4.729c-0.097,1.046-0.343,2.075-0.737,3.071c-0.807,1.677-3.03,2.677-5.955,2.677 c-2.146,0-4.47-0.524-6.718-1.517c-1.097-0.484-2.138-1.069-3.1-1.742c0.219-1.617,0.68-3.199,1.371-4.711 c0.192-0.42,0.4-0.829,0.621-1.226c-0.285-0.181-0.563-0.368-0.834-0.56c-0.249,0.442-0.482,0.899-0.697,1.37 c-0.842,1.842-1.338,3.748-1.524,5.593c1.121,0.839,2.383,1.584,3.758,2.191c2.45,1.081,4.927,1.602,7.122,1.602 c3.241,0,5.865-1.136,6.873-3.277c0.516-1.294,0.823-2.693,0.862-4.159C31.388,24.772,30.694,24.912,29.975,25.006z"
	/><path
		fill="#8bb7f0"
		d="M19.966,6.513L19.966,6.513c-0.599,0-1.084-0.485-1.084-1.084V2.584 c0-0.599,0.485-1.084,1.084-1.084h0c0.599,0,1.084,0.485,1.084,1.084v2.845C21.05,6.028,20.564,6.513,19.966,6.513z"
	/><path
		fill="#4e7ab5"
		d="M19.966,7.013c-0.874,0-1.584-0.71-1.584-1.584V2.584C18.382,1.71,19.092,1,19.966,1 s1.584,0.71,1.584,1.584v2.845C21.55,6.303,20.839,7.013,19.966,7.013z M19.966,2c-0.322,0-0.584,0.262-0.584,0.584v2.845 c0,0.322,0.262,0.584,0.584,0.584s0.584-0.262,0.584-0.584V2.584C20.55,2.262,20.288,2,19.966,2z"
	/><path
		fill="#8bb7f0"
		d="M11.837,8.764L11.837,8.764c-0.518,0.299-1.181,0.122-1.481-0.397L8.934,5.903 C8.635,5.385,8.812,4.722,9.331,4.422l0,0c0.518-0.299,1.181-0.122,1.481,0.397l1.423,2.464 C12.534,7.802,12.356,8.465,11.837,8.764z"
	/><path
		fill="#4e7ab5"
		d="M11.298,9.41c-0.138,0-0.276-0.018-0.413-0.055c-0.409-0.11-0.75-0.372-0.962-0.738L8.501,6.153 c-0.437-0.756-0.177-1.727,0.58-2.164c0.367-0.212,0.793-0.268,1.202-0.158c0.409,0.11,0.75,0.372,0.962,0.738l1.423,2.464 c0.211,0.367,0.268,0.793,0.158,1.202c-0.11,0.409-0.372,0.75-0.738,0.962C11.843,9.338,11.572,9.41,11.298,9.41z M9.872,4.777 c-0.101,0-0.201,0.026-0.291,0.079C9.302,5.017,9.206,5.375,9.367,5.653l1.422,2.464c0.078,0.135,0.204,0.232,0.354,0.272 c0.149,0.039,0.308,0.02,0.443-0.059s0.232-0.204,0.272-0.354c0.04-0.151,0.02-0.308-0.059-0.443l-1.423-2.464 c-0.078-0.135-0.204-0.232-0.354-0.272C9.974,4.784,9.922,4.777,9.872,4.777z"
	/><path
		fill="#a3ccd7"
		d="M5.779,14.777L5.779,14.777c-0.299,0.518-0.962,0.696-1.481,0.397l-2.464-1.423 c-0.518-0.299-0.696-0.962-0.397-1.481l0,0c0.299-0.518,0.962-0.696,1.481-0.397l2.464,1.423C5.9,13.596,6.078,14.259,5.779,14.777 z"
	/><path
		fill="#7496c4"
		d="M4.837,15.82c-0.274,0-0.545-0.072-0.79-0.213l-2.464-1.423c-0.366-0.211-0.628-0.553-0.738-0.961 c-0.109-0.409-0.053-0.835,0.158-1.202c0.211-0.366,0.553-0.628,0.962-0.738c0.409-0.108,0.835-0.052,1.202,0.158l2.464,1.423 c0.366,0.211,0.628,0.553,0.738,0.961c0.109,0.409,0.053,0.835-0.158,1.202C6,15.393,5.659,15.655,5.25,15.765 C5.113,15.802,4.975,15.82,4.837,15.82z M2.377,12.228c-0.051,0-0.102,0.007-0.152,0.02c-0.15,0.041-0.276,0.137-0.354,0.272 s-0.099,0.292-0.059,0.443c0.041,0.151,0.137,0.276,0.272,0.354l2.464,1.423c0.135,0.078,0.292,0.097,0.443,0.059 c0.15-0.041,0.276-0.137,0.354-0.272s0.099-0.292,0.059-0.443c-0.041-0.151-0.137-0.276-0.272-0.354l-2.464-1.423 C2.578,12.254,2.478,12.228,2.377,12.228z"
	/><path
		fill="#8bb7f0"
		d="M28.163,8.749L28.163,8.749c0.518,0.299,1.181,0.122,1.481-0.397l1.423-2.464 c0.299-0.518,0.122-1.181-0.397-1.481l0,0c-0.518-0.299-1.181-0.122-1.481,0.397l-1.423,2.464 C27.466,7.787,27.644,8.45,28.163,8.749z"
	/><path
		fill="#4e7ab5"
		d="M28.703,9.395c-0.275,0-0.546-0.072-0.79-0.213c-0.366-0.211-0.628-0.553-0.738-0.961 c-0.109-0.409-0.053-0.835,0.158-1.202l1.423-2.464c0.437-0.756,1.407-1.015,2.164-0.58c0.366,0.212,0.628,0.553,0.738,0.962 s0.053,0.835-0.158,1.202l-1.422,2.464c-0.211,0.367-0.553,0.628-0.962,0.738C28.978,9.377,28.84,9.395,28.703,9.395z M30.128,4.763c-0.202,0-0.398,0.104-0.506,0.292l-1.423,2.464C28.121,7.654,28.1,7.811,28.14,7.961 c0.041,0.151,0.137,0.276,0.272,0.354c0.278,0.16,0.636,0.065,0.798-0.213l1.422-2.464c0.078-0.135,0.099-0.292,0.059-0.443 c-0.041-0.151-0.137-0.277-0.272-0.354C30.328,4.788,30.227,4.763,30.128,4.763z"
	/><path
		fill="#8bb7f0"
		d="M34.221,14.762L34.221,14.762c0.299,0.518,0.962,0.696,1.481,0.397l2.464-1.423 c0.518-0.299,0.696-0.962,0.397-1.481v0c-0.299-0.518-0.962-0.696-1.481-0.397l-2.464,1.423 C34.1,13.581,33.922,14.244,34.221,14.762z"
	/><path
		fill="#4e7ab5"
		d="M35.163,15.805c-0.138,0-0.276-0.018-0.413-0.055c-0.409-0.11-0.75-0.372-0.962-0.738 c-0.211-0.367-0.268-0.793-0.158-1.202c0.11-0.409,0.372-0.75,0.738-0.962l2.464-1.422c0.366-0.212,0.792-0.268,1.202-0.158 c0.409,0.109,0.75,0.372,0.962,0.738c0.211,0.367,0.268,0.793,0.158,1.202c-0.11,0.409-0.372,0.75-0.738,0.962l-2.464,1.423 C35.708,15.733,35.437,15.805,35.163,15.805z M37.624,12.213c-0.102,0-0.201,0.026-0.292,0.079l-2.464,1.422 c-0.135,0.078-0.232,0.204-0.272,0.354c-0.04,0.151-0.02,0.308,0.059,0.443s0.204,0.232,0.354,0.272 c0.149,0.038,0.308,0.02,0.443-0.059l2.464-1.423c0.135-0.078,0.232-0.204,0.272-0.354c0.04-0.151,0.02-0.308-0.059-0.443 c-0.078-0.135-0.204-0.231-0.354-0.272C37.725,12.22,37.674,12.213,37.624,12.213z"
	/><path
		fill="#b2cff5"
		d="M14.349,14.657c-0.048-0.22-0.109-0.421-0.179-0.598c-0.432,0.056-0.849,0.133-1.249,0.229 c-0.035,0.396-0.006,0.865,0.096,1.329c0.054,0.245,0.123,0.466,0.202,0.656c0.385-0.1,0.793-0.178,1.22-0.233 C14.482,15.632,14.455,15.142,14.349,14.657z"
	/><path
		fill="#d8e7fa"
		d="M13.775,14.117c-0.063,0.372-0.074,0.816-0.019,1.265c0.033,0.275,0.088,0.524,0.157,0.738 c0.245-0.044,0.498-0.081,0.757-0.108l0.489-0.094c0.06-0.369,0.071-0.806,0.017-1.249c-0.032-0.262-0.083-0.501-0.148-0.708 l-0.461,0.051C14.298,14.04,14.034,14.075,13.775,14.117z"
	/><path
		fill="#fff"
		d="M15.832,13.897l-1.014,0.112c-0.079,0.337-0.12,0.731-0.108,1.139 c0.009,0.325,0.05,0.621,0.115,0.871c0.021-0.002,0.041-0.005,0.061-0.007l0.947-0.181V13.897z"
	/><path
		fill="#4e7ab5"
		d="M13.522,14.644c-0.122-0.378-0.276-0.687-0.439-0.906c-0.339,0.073-0.667,0.159-0.984,0.257 c-0.055,0.292-0.057,0.66-0.003,1.052c0.451-0.156,0.93-0.283,1.434-0.38C13.526,14.66,13.524,14.652,13.522,14.644z"
	/><path
		fill="#89a6ce"
		d="M13.926,13.588c-0.309,0.045-0.611,0.1-0.904,0.164c-0.089,0.277-0.128,0.648-0.111,1.053 c0.449-0.113,0.92-0.201,1.411-0.262C14.223,14.141,14.082,13.812,13.926,13.588z"
	/><path
		fill="#c4d3e6"
		d="M13.919,13.589c-0.111,0.269-0.18,0.636-0.195,1.044c0.29-0.051,0.588-0.092,0.893-0.122l0.528-0.058 c-0.068-0.402,0.138-0.769,0-1l-0.627,0.063C14.315,13.536,14.116,13.56,13.919,13.589z"
	/><path
		fill="#fff"
		d="M14.733,14.501c0.033-0.004,0.066-0.008,0.099-0.011l1-0.109v-1.038l-0.842,0.084 C14.866,13.696,14.775,14.099,14.733,14.501z"
	/><path
		fill="#4e7ab5"
		d="M12.841,16.904c0.259-0.086,0.531-0.16,0.815-0.223c0.083-0.267,0.107-0.633,0.071-1.034 c-0.493,0.093-0.958,0.218-1.391,0.372C12.48,16.41,12.659,16.715,12.841,16.904z"
	/><path
		fill="#89a6ce"
		d="M13.467,16.725c0.276-0.067,0.565-0.122,0.864-0.166c0.092-0.266,0.136-0.627,0.125-1.025 c-0.49,0.059-0.957,0.147-1.397,0.262C13.164,16.192,13.309,16.512,13.467,16.725z"
	/><path
		fill="#c4d3e6"
		d="M13.793,15.634c0.071,0.4,0.189,0.732,0.33,0.957c0.195-0.032,0.395-0.06,0.6-0.082l0.283-0.03 c0.111-0.261,0.181-0.62,0.2-1.019l-0.589,0.055C14.335,15.546,14.06,15.586,13.793,15.634z"
	/><path
		fill="#fff"
		d="M15.832,16.435v-1.036l-1,0.093c-0.032,0.003-0.064,0.008-0.097,0.011 c0.045,0.406,0.144,0.789,0.274,1.019L15.832,16.435z"
	/><path
		fill="#7496c4"
		d="M25.849,27.909c0.401-0.329,0.782-0.665,1.142-1.005c-0.247-0.3-0.505-0.537-0.739-0.674 c-0.238,0.222-0.487,0.445-0.749,0.666C25.549,27.187,25.665,27.535,25.849,27.909z"
	/><path
		fill="#c2dde4"
		d="M27.532,27.388c-0.259-0.341-0.543-0.649-0.826-0.906c-0.37,0.355-0.765,0.705-1.182,1.047 c0.078,0.119,0.163,0.24,0.256,0.362c0.334,0.44,0.71,0.825,1.07,1.116c0.388-0.319,0.759-0.645,1.112-0.974 C27.843,27.825,27.7,27.608,27.532,27.388z"
	/><path
		fill="#e0eef2"
		d="M26.498,27.907c-0.206-0.243-0.426-0.463-0.647-0.653c-0.309,0.264-0.63,0.524-0.964,0.778 l-0.345,0.362c0.083,0.116,0.175,0.233,0.274,0.35c0.346,0.408,0.73,0.75,1.094,0.994l0.18-0.131 c0.351-0.267,0.69-0.539,1.016-0.814C26.959,28.513,26.754,28.21,26.498,27.907z"
	/><path
		fill="#fff"
		d="M26.089,29.619c-0.155-0.342-0.413-0.719-0.757-1.08c-0.16-0.168-0.327-0.321-0.497-0.457 c-0.027,0.021-0.053,0.041-0.08,0.062l-0.7,0.733l1.095,1.428l0.808-0.586C26.002,29.686,26.045,29.653,26.089,29.619z"
	/><path
		fill="#7496c4"
		d="M27.16,25.319c-0.277,0.299-0.576,0.6-0.897,0.901c0.124,0.253,0.286,0.529,0.483,0.816 c0.013,0.02,0.027,0.039,0.041,0.058c0.39-0.359,0.756-0.723,1.097-1.09C27.64,25.736,27.393,25.503,27.16,25.319z"
	/><path
		fill="#a2b9d8"
		d="M26.323,26.163c-0.329,0.311-0.681,0.622-1.056,0.931c0.132,0.251,0.305,0.52,0.514,0.796 c0.012,0.015,0.024,0.03,0.035,0.046c0.44-0.36,0.858-0.728,1.248-1.101C26.818,26.573,26.565,26.345,26.323,26.163z"
	/><path
		fill="#d1dceb"
		d="M24.802,28.728l0.388-0.297c0.357-0.271,0.7-0.549,1.028-0.83c-0.252-0.259-0.515-0.482-0.77-0.657 c-0.275,0.232-0.562,0.462-0.863,0.691l-0.353,0.269C24.373,28.166,24.565,28.446,24.802,28.728z"
	/><path
		fill="#fff"
		d="M23.626,28.345l0.639,0.806l0.794-0.609c0.053-0.04,0.105-0.081,0.157-0.121 c-0.262-0.258-0.554-0.475-0.823-0.641L23.626,28.345z"
	/><path
		fill="#7496c4"
		d="M28.124,28.563c0.32-0.294,0.627-0.591,0.918-0.892c-0.123-0.249-0.283-0.521-0.477-0.803 c-0.02-0.029-0.04-0.057-0.06-0.086c-0.345,0.366-0.714,0.729-1.106,1.086C27.643,28.139,27.89,28.376,28.124,28.563z"
	/><path
		fill="#a2b9d8"
		d="M26.472,28.67c0.272,0.263,0.547,0.481,0.8,0.637c0.32-0.266,0.627-0.536,0.923-0.81 c-0.113-0.272-0.284-0.578-0.507-0.896C27.305,27.963,26.899,28.32,26.472,28.67z"
	/><path
		fill="#d1dceb"
		d="M25.788,29.21l-0.287,0.22c0.307,0.258,0.369,0.644,0.645,0.764l0.247-0.188 c0.315-0.239,0.62-0.483,0.915-0.73c-0.082-0.272-0.24-0.588-0.465-0.917C26.506,28.648,26.154,28.932,25.788,29.21z"
	/><path
		fill="#fff"
		d="M25.468,30.72l0.778-0.591c-0.039-0.275-0.184-0.613-0.409-0.957 c-0.062,0.048-0.975,0.758-0.975,0.758L25.468,30.72z"
	/><path
		fill="#d1ead3"
		d="M9.24,28.892C9.019,28.933,8.78,29,8.531,29.094c-0.419,0.159-0.806,0.374-1.124,0.61 c0.236,0.551,0.504,1.08,0.803,1.585c0.125-0.035,0.255-0.077,0.387-0.127c0.542-0.206,1.029-0.504,1.383-0.822 C9.702,29.879,9.455,29.395,9.24,28.892z"
	/><path
		fill="#5e9c76"
		d="M12.401,28.701c-1.23-0.98-2.278-2.076-3.082-3.246c-1.359-1.979-1.902-3.981-1.589-5.768 c-0.141-0.852-0.166-1.703-0.069-2.535c-0.175,0.274-0.33,0.56-0.462,0.86c-1.061,2.404-0.601,5.249,1.295,8.01 c0.764,1.112,1.732,2.164,2.881,3.133c-0.031,0.821-0.006,1.616,0.076,2.38c-0.847-0.995-1.516-2.145-1.977-3.412L9.182,27.32 l-0.797,0.758l0.15,0.387c0.886,2.432,2.492,4.474,4.572,5.875C12.488,32.647,12.268,30.714,12.401,28.701z"
	/><path
		fill="#e8f5e9"
		d="M9.004,28.294l-0.212-0.563c-0.313,0.019-0.667,0.106-1.032,0.266 c-0.305,0.134-0.585,0.305-0.824,0.495L7.127,29c0.193,0.527,0.415,1.036,0.663,1.525c0.152-0.042,0.309-0.098,0.467-0.168 c0.507-0.223,0.942-0.546,1.244-0.894C9.316,29.085,9.15,28.695,9.004,28.294z"
	/><path
		fill="#fff"
		d="M8.926,28.096l-0.359-0.954l-1.871,0.724l0.353,0.935c0.093,0.253,0.192,0.502,0.297,0.747 c0.163-0.047,0.329-0.112,0.494-0.195c0.509-0.256,0.917-0.637,1.165-1.045C8.978,28.237,8.952,28.167,8.926,28.096z"
	/><path
		fill="#94bda4"
		d="M9.765,28.845c-0.288-0.006-0.636,0.05-1.014,0.172c0.239,0.569,0.517,1.114,0.833,1.632 c0.317-0.216,0.578-0.456,0.75-0.691C10.125,29.6,9.935,29.229,9.765,28.845z"
	/><path
		fill="#c9ded1"
		d="M9.474,28.123l-0.216-0.604C8.97,27.437,8.69,27.71,8.283,27.815l0.251,0.65 c0.171,0.469,0.369,0.923,0.591,1.362c0.319-0.262,0.564-0.56,0.699-0.85C9.697,28.698,9.58,28.414,9.474,28.123z"
	/><path
		fill="#5e9c76"
		d="M33.431,28.389c-0.486,0.598-1.054,1.127-1.692,1.586c-2.128,4.396-6.626,7.438-11.829,7.438 c-5.625,0-10.451-3.493-12.313-8.585L6.82,29.567c2.151,5.385,7.237,8.846,13.09,8.846c5.807,0,10.96-3.494,13.127-8.902l0,0 c0.014-0.035,0.028-0.074,0.039-0.104C33.208,29.07,33.326,28.731,33.431,28.389z"
	/><path
		fill="#fff"
		d="M9.272,27.558l-0.219-0.6l-0.958,0.376l0.361,0.933c0.061,0.167,0.126,0.333,0.193,0.497 C9.007,28.396,9.238,27.958,9.272,27.558z"
	/><path
		fill="#94bda4"
		d="M7.833,29.426c-0.324,0.187-0.607,0.401-0.822,0.62c0.205,0.465,0.432,0.915,0.681,1.348 c0.273-0.032,0.581-0.108,0.905-0.232c0.034-0.013,0.068-0.026,0.102-0.04C8.372,30.583,8.082,30.016,7.833,29.426z"
	/><path
		fill="#c9ded1"
		d="M7.597,28.828l-0.241-0.622c-0.32,0.189-0.598,0.416-0.812,0.656l0.114,0.31 c0.182,0.499,0.39,0.982,0.621,1.448c0.3-0.025,0.635-0.111,0.979-0.262c0.003-0.001,0.006-0.003,0.01-0.004 C8.014,29.863,7.79,29.354,7.597,28.828z"
	/><path
		fill="#fff"
		d="M7.814,29.366c-0.105-0.242-0.204-0.487-0.295-0.737l-0.361-0.933l-0.916,0.354l0.337,0.922 c0.082,0.225,0.17,0.447,0.263,0.666C7.149,29.619,7.482,29.529,7.814,29.366z"
	/><path
		fill="#c5dbf8"
		d="M24.624,15.91c-0.051,0.248-0.064,0.54-0.029,0.856c0.045,0.41,0.161,0.793,0.32,1.097l0.68-0.075 c0.263-0.03,0.52-0.05,0.769-0.06c0.045-0.24,0.055-0.52,0.022-0.821c-0.047-0.434-0.175-0.837-0.347-1.149 c-0.262,0.017-0.53,0.043-0.803,0.077L24.624,15.91z"
	/><path
		fill="#fff"
		d="M23.783,15.998l0.408,1.926l0.797-0.103c0.064-0.009,0.128-0.016,0.192-0.023 c0.034-0.275,0.029-0.592-0.023-0.926c-0.061-0.389-0.177-0.743-0.323-1.025c-0.05,0.007-0.1,0.013-0.151,0.021L23.783,15.998z"
	/><path
		fill="#a6bcda"
		d="M24.722,17.387c0.123,0.402,0.059,0.768,0.277,0.974l0.652-0.075c0.18-0.021,0.357-0.036,0.53-0.047 c0.145-0.237,0.228-0.594,0.224-1.012c-0.28,0.01-0.569,0.031-0.868,0.066L24.722,17.387z"
	/><path
		fill="#fff"
		d="M24.088,17.448l0.207,1.023c0,0,0.746-0.085,0.75-0.085c0.112-0.271,0.17-0.668,0.153-1.092 c-0.086,0.009-0.172,0.02-0.259,0.032L24.088,17.448z"
	/><path
		fill="#a6bcda"
		d="M25.297,16.33c0.325-0.041,0.642-0.069,0.949-0.084c-0.136-0.423-0.346-0.769-0.582-0.96 c-0.162,0.015-0.326,0.031-0.492,0.052l-0.68,0.085c-0.162,0.229,0.084,0.554,0.083,0.99L25.297,16.33z"
	/><path
		fill="#fff"
		d="M25.064,16.442c-0.128-0.405-0.349-0.853-0.556-1.053l-0.829,0.122l0.205,0.968l0.837,0.194 C24.82,16.658,24.967,16.454,25.064,16.442z"
	/><path
		fill="#89a6ce"
		d="M18.437,10.188c-0.112,0.268-0.182,0.618-0.198,1.002c0.467-0.062,1.013-0.1,1.687-0.078 c-0.071-0.4-0.19-0.739-0.337-0.988C19.258,10.13,18.871,10.148,18.437,10.188z"
	/><path
		fill="#c4d3e6"
		d="M17.379,11.337c0.461-0.092,0.986-0.186,1.662-0.219c-0.088-0.391-0.222-0.717-0.38-0.949 c-0.335,0.026-0.701,0.066-1.092,0.124C17.453,10.568,17.386,10.934,17.379,11.337z"
	/><path
		fill="#fff"
		d="M17.158,11.382c0.293-0.059,0.609-0.123,0.972-0.174c-0.098-0.386-0.269-0.755-0.433-0.98 c-0.258,0.035-0.528,0.078-0.808,0.13L17.158,11.382z"
	/><path
		fill="#89a6ce"
		d="M18.66,13.138c0.365-0.029,0.732-0.041,1.101-0.034c0.122-0.259,0.201-0.608,0.224-0.995 c-0.023-0.001-0.045-0.002-0.068-0.003c-0.529-0.016-1.072,0.008-1.605,0.065C18.387,12.566,18.511,12.897,18.66,13.138z"
	/><path
		fill="#c4d3e6"
		d="M17.819,13.237c0.383-0.06,0.771-0.101,1.161-0.121c0.102-0.273,0.159-0.623,0.164-1.006 c-0.565,0.022-1.133,0.085-1.677,0.178C17.547,12.672,17.672,12.997,17.819,13.237z"
	/><path
		fill="#fff"
		d="M17.593,13.343c0.178-0.031,0.357-0.058,0.537-0.08c0.09-0.279,0.139-0.699,0.131-1.082 c-0.294,0.032-0.586,0.073-0.871,0.122L17.593,13.343z"
	/><path
		fill="#fff"
		d="M17.511,12.783l0.718-0.025c0.051-0.372,0.043-0.807-0.035-1.25 c-0.044-0.246-0.105-0.472-0.179-0.672l-0.98,0.057L17.511,12.783z"
	/></svg>
