<?xml version="1.0" encoding="utf-8" ?>
<!-- Generator: Adobe Illustrator 26.0.3, SVG Export Plug-In . SVG Version: 6.00 Build 0)  -->
<svg
	version="1.0"
	id="katman_1"
	xmlns="http://www.w3.org/2000/svg"
	xmlns:xlink="http://www.w3.org/1999/xlink"
	x="0px"
	y="0px"
	viewBox="0 0 600 450"
	style="enable-background:new 0 0 600 450;"
	xml:space="preserve"
>
<style type="text/css">
.st0 {
	fill: #55b25d;
}
.st1 {
	fill: #010202;
}
	</style>
<symbol id="Icon--spotify-filled" viewBox="-14.8 -14.8 29.6 29.6">
	<path
			class="st0"
			d="M14.8,0c0,8.2-6.6,14.8-14.8,14.8S-14.8,8.2-14.8,0S-8.2-14.8,0-14.8S14.8-8.2,14.8,0z"
		/>
	<path
			class="st1"
			d="M10.8-3.2c-0.1-0.4-0.3-0.7-0.7-0.9C9-4.6,8-5.1,7-5.5C4.2-6.5,1.5-6.9-1.4-7c-1.1,0-2.3,0-3.4,0.1
		S-7-6.6-8-6.4c-0.4,0.1-0.9,0.2-1.3,0.3c-0.6,0.2-1,0.7-0.9,1.3c0,0.6,0.4,1.1,1,1.3c0.2,0.1,0.6,0.1,0.8,0C-8-3.6-7.5-3.8-7.1-3.8
		c1.2-0.2,2.4-0.4,3.6-0.5c1-0.1,2.1-0.1,3.1,0s2,0.2,3,0.3c1.4,0.2,2.8,0.6,4.2,1.1c0.7,0.2,1.4,0.6,2,1C9.8-1.4,10.9-2.1,10.8-3.2
		C10.8-3,10.8-3.1,10.8-3.2z"
		/>
	<path
			class="st1"
			d="M-2.6,0.4c-1.7,0-3.4,0.2-5.1,0.7c-0.2,0.1-0.6,0.1-0.8,0C-8.9,1-9.2,0.5-9.2,0s0.3-0.9,0.8-1s1-0.2,1.4-0.4
		c1.2-0.2,2.4-0.4,3.7-0.5c2.6-0.1,5.2,0.2,7.8,1c1.3,0.4,2.5,1,3.6,1.6c0.1,0,0.1,0.1,0.2,0.1c0.6,0.4,0.6,1.1,0.4,1.6
		C8.3,3,7.6,3.1,7,2.8c-0.3-0.2-0.6-0.4-1-0.6C4.6,1.4,3,1,1.4,0.6C0.1,0.6-1.2,0.4-2.6,0.4z"
		/>
	<path
			class="st1"
			d="M-2.3,2.9c1.9,0,3.8,0.3,5.7,0.9c1,0.3,2,0.8,2.9,1.4c0.1,0.1,0.2,0.1,0.2,0.2C6.9,5.6,7,6.1,6.7,6.5
		S6,7,5.6,6.9c-0.1,0-0.2-0.1-0.2-0.2c-1.6-1-3.3-1.5-5-1.8C-0.8,4.8-1.9,4.7-3,4.8C-4.5,4.9-5.9,5-7.3,5.4c-0.2,0-0.3,0.1-0.4,0.1
		c-0.4,0-0.8-0.3-0.9-0.7c-0.1-0.5,0.2-0.9,0.6-1c0.1,0,0.2-0.1,0.2-0.1C-6.6,3.4-5.4,3.1-4.2,3C-3.6,3-3,3-2.3,2.9z"
		/>
</symbol>
<use
		xlink:href="#Icon--spotify-filled"
		width="29.6"
		height="29.6"
		x="-14.8"
		y="-14.8"
		transform="matrix(11.9887 0 0 11.9887 300 225)"
		style="overflow:visible;"
	/>
</svg>
