<?xml version="1.0" encoding="UTF-8" ?>
<svg xmlns="http://www.w3.org/2000/svg" viewBox="0 0 713.81 296"><defs><style
		>.cls-1{fill:#006eb9;}</style></defs><g id="text"><path
			d="m458.57,224.05c-7.14,21.82-27.7,33.2-49.91,33.2-37.04,0-57.44-23.46-57.44-59.56,0-32.96,22.92-58.54,56.82-58.54,21.74,0,40.73,10.44,49.36,31l-18.36,7.77c-4.87-12.63-16.24-21.42-30.06-21.42-24.33,0-34.37,20.8-34.37,41.98s10.99,40.96,34.92,40.96c15.15,0,26.13-9.18,31.31-22.99l17.74,7.61Z"
		/><path
			d="m474.88,140.79h41.59c22.99,0,43.24,8.48,43.24,34.53,0,16.4-9.81,27-25.43,30.84l32.33,49.52h-24.01l-29.9-46.3h-15.54v46.3h-22.29v-114.89Zm40.96,53.21c12.79,0,22.21-4.87,22.21-18.6s-10.04-17.58-22.21-17.58h-18.68v36.18h18.68Z"
		/><path
			d="m581.84,140.79h28.17l33.12,83.73,32.88-83.73h27.54v114.89h-20.56v-87.58l-36.18,87.58h-9.89l-35-87.58v87.58h-20.09v-114.89Z"
		/><path
			d="m357.13,104.43l36.97-53.42h-33.23v-10.54h50.63v5.25l-36.07,53.42h35.03v10.54h-53.32v-5.25Z"
		/><path
			d="m443.07,57.96c15.36,0,27.18,10.78,27.18,26.28s-12.43,26.38-27.7,26.38-27.8-10.68-27.8-26.14,13.09-26.52,28.32-26.52Zm14.18,26.38c0-9.31-4.73-17.06-14.65-17.06s-14.28,8.13-14.28,17.4,4.77,16.64,14.56,16.64,14.37-8.13,14.37-16.97Z"
		/><path
			d="m478.52,36.12h12.1v30.96c3.26-6.29,9.93-9.12,16.92-9.12,12.1,0,18.15,8.51,18.15,20.04v31.67h-12.2v-30.49c0-7.28-3.78-11.25-10.83-11.25-7.75,0-12.05,4.77-12.05,12.01v29.73h-12.1V36.12Z"
		/><path
			d="m561.3,57.96c15.36,0,27.18,10.78,27.18,26.28s-12.43,26.38-27.7,26.38-27.8-10.68-27.8-26.14,13.09-26.52,28.32-26.52Zm14.18,26.38c0-9.31-4.73-17.06-14.65-17.06s-14.28,8.13-14.28,17.4,4.77,16.64,14.56,16.64,14.37-8.13,14.37-16.97Z"
		/></g><g id="logo"><path
			class="cls-1"
			d="m204.26,239.24c-24.19,0-46.98-9.37-64.17-26.38l-50.24-50.24c-5.85-5.85-9.06-13.63-9.03-21.9.03-8.27,3.28-16.03,9.16-21.84,12.02-11.88,31.53-11.82,43.48.13l46.01,46.01c5.39,5.39,14.18,5.41,19.59.05,2.65-2.62,4.11-6.11,4.12-9.84.01-3.72-1.43-7.23-4.07-9.86l-50.17-50.17c-14.02-13.87-32.64-21.51-52.38-21.45-20.14.05-38.94,7.96-52.94,22.27-14.02,14.33-21.52,33.32-21.12,53.47.79,40.11,34.09,72.75,74.23,72.75,7.18,0,14.27-1.02,21.08-3.03,4.5-1.33,9.23,1.24,10.55,5.74,1.33,4.5-1.24,9.23-5.74,10.56-8.37,2.47-17.08,3.73-25.89,3.73-49.33,0-90.25-40.11-91.22-89.41-.49-24.75,8.73-48.08,25.96-65.69,17.22-17.6,40.32-27.33,65.05-27.38,24.15-.06,47.14,9.31,64.39,26.38l50.22,50.22c5.85,5.86,9.07,13.64,9.05,21.92-.02,8.28-3.28,16.05-9.16,21.87-12.04,11.91-31.58,11.86-43.56-.12l-46.01-46.01c-5.37-5.37-14.12-5.39-19.52-.06-2.64,2.61-4.1,6.09-4.11,9.81-.01,3.71,1.43,7.21,4.05,9.83l50.19,50.2c13.97,13.82,32.52,21.45,52.2,21.45,40.9,0,74.21-33.27,74.25-74.17.02-19.82-7.7-38.48-21.74-52.54-14.04-14.06-32.69-21.8-52.51-21.8-6.32,0-12.59.79-18.65,2.36-.88.23-1.76.47-2.63.73-4.5,1.34-9.23-1.22-10.57-5.71-1.34-4.5,1.22-9.23,5.71-10.57,1.07-.32,2.15-.62,3.23-.9,7.44-1.92,15.15-2.9,22.9-2.9,24.36,0,47.28,9.51,64.53,26.78,17.25,17.27,26.74,40.2,26.71,64.56-.05,50.26-40.99,91.14-91.24,91.14Z"
		/></g></svg>
