<svg
	id="Group_1"
	data-name="Group 1"
	xmlns="http://www.w3.org/2000/svg"
	width="303.522"
	height="303.848"
	viewBox="0 0 303.522 303.848"
>
  <g id="Group_3">
    <path
			id="Path_20"
			d="M309.2,168.4a19.76,19.76,0,0,0,18.7,13.1,18.117,18.117,0,0,0,6.4-1.2c10.3-3.6,15.5-15.1,11.9-25.4-6.4-17.9-19.9-31.8-38.9-40.5-9.5-4.4-21.5,0-26.2,9.5-4.4,9.5,0,21.5,9.5,26.2C300.4,154.9,306.4,160.9,309.2,168.4Z"
			transform="translate(-113.2 -44.152)"
			fill="#ff9e1a"
			fill-rule="evenodd"
		/>
    <path
			id="Path_21"
			d="M302.4,44.5A19.612,19.612,0,1,0,294.9,83c44.9,8.7,75.1,38.9,82.6,82.6A19.982,19.982,0,0,0,397,181.9a8.808,8.808,0,0,0,3.2-.4,20.23,20.23,0,0,0,16.3-22.6C406.1,99.3,363.6,56,302.4,44.5Z"
			transform="translate(-113.2 -44.152)"
			fill="#ff9e1a"
			fill-rule="evenodd"
		/>
    <path
			id="Path_22"
			d="M252.4,241.5a33,33,0,1,1,0-66,19.951,19.951,0,0,0,19.9-19.9,19.7,19.7,0,0,0-19.9-19.9A72.3,72.3,0,1,0,324.7,208a19.9,19.9,0,1,0-39.8,0A32.423,32.423,0,0,1,252.4,241.5Z"
			transform="translate(-113.2 -44.152)"
			fill="#0e50f1"
			fill-rule="evenodd"
		/>
    <path
			id="Path_23"
			d="M371.5,189.5a19.951,19.951,0,0,0-19.9,19.9c0,54.8-44.9,99.7-99.7,99.7s-99.7-44.9-99.7-99.7,44.9-99.7,99.7-99.7a19.9,19.9,0,0,0,0-39.8C176,69.9,113.2,132.3,113.2,209s62.5,139,139.2,139,139.1-62.4,139.1-139.1C391.4,197.8,383.1,189.5,371.5,189.5Z"
			transform="translate(-113.2 -44.152)"
			fill="#0e50f1"
			fill-rule="evenodd"
		/>
  </g>
</svg>
