<svg
	clip-rule="evenodd"
	fill-rule="evenodd"
	stroke-linejoin="round"
	stroke-miterlimit="1.41421"
	viewBox="0 0 560 400"
	xmlns="http://www.w3.org/2000/svg"
><g
		fill-rule="nonzero"
		transform="matrix(5.73842 0 0 5.73842 141.999 62.3902)"
	><path
			d="m45.3 41.6c0 3.2-2.6 5.9-5.8 5.9h-.7c-3-.4-5.2-3.1-5.1-6.1v-34.8c-.1-3 2.1-5.6 5.1-6.1 3.2-.4 6.1 1.9 6.5 5.1z"
			fill="#f9ab00"
		/><path
			d="m8.6 35.9c3.2 0 5.8 2.6 5.8 5.8s-2.6 5.8-5.8 5.8-5.8-2.6-5.8-5.8c-.1-3.2 2.6-5.8 5.8-5.8zm15.3-17.7c-3.2.2-5.7 2.9-5.7 6.1v15.7c0 4.2 1.9 6.8 4.6 7.4 3.2.6 6.2-1.4 6.9-4.6.1-.4.1-.8.1-1.2v-17.5c0-3.2-2.6-5.9-5.8-5.9z"
			fill="#e37400"
		/></g></svg>
