<?xml version="1.0" encoding="utf-8" ?>
<!-- Generator: Adobe Illustrator 26.0.3, SVG Export Plug-In . SVG Version: 6.00 Build 0)  -->
<svg
	version="1.0"
	id="Layer_1"
	xmlns="http://www.w3.org/2000/svg"
	xmlns:xlink="http://www.w3.org/1999/xlink"
	x="0px"
	y="0px"
	viewBox="0 0 919.9 615.2"
	style="enable-background:new 0 0 919.9 615.2;"
	xml:space="preserve"
>
<style type="text/css">
.st0 {
	fill: #060119;
}
.st1 {
	fill: #ff4876;
}
	</style>
<path
		class="st0"
		d="M317,252.9c-13.7,0-26.9,5.1-36.9,14.5v-14.6h-17.5V399h17.5v-51.8c22,20.4,56.5,19.1,76.8-3
	c20.4-22,19.1-56.5-3-76.8C343.9,258.1,330.7,252.9,317,252.9z M353.9,307.3c0,20.4-16.5,36.9-36.9,36.9
	c-20.4,0-36.9-16.5-36.9-36.9c0-20.4,16.5-36.9,36.9-36.9l0,0C337.4,270.4,353.9,286.9,353.9,307.3z"
	/>
<path
		class="st0"
		d="M439.2,252.8c-30,0-54.4,24.3-54.4,54.4c0,30,24.3,54.4,54.4,54.4c0,0,0,0,0,0c16.8,0,32.2-6.3,42.3-17.2
	l5.2-5.7l0.7-0.7l-0.7-0.7l-11.4-10.5l-0.7-0.7l-0.7,0.7l-5.2,5.7c-6.7,7.3-17.7,11.6-29.4,11.6c-17-0.1-31.8-11.7-35.8-28.2h88.8
	v-8.7C492.1,276.7,468.9,252.8,439.2,252.8z M403.3,298.4c4.1-16.5,18.8-28.1,35.8-28.2c16.8,0,30.8,11.5,34.5,28.2H403.3z"
	/>
<path
		class="st0"
		d="M558.2,252.8c-12.5,0-24.6,4.8-33.7,13.3v-13.3H507v109.6h17.5v-55.9c0-20,15.1-36.2,33.7-36.2
	s33.7,16.2,33.7,36.2v55.9h17.5v-55.9C609.4,276.9,586.5,252.8,558.2,252.8z"
	/>
<path
		class="st0"
		d="M716.5,216.2h-1V268c-22-20.4-56.5-19.1-76.9,2.9c-20.4,22-19.1,56.5,2.9,76.9c20.9,19.3,53.1,19.3,74,0v14.6
	h17.4V216.2H716.5z M715.5,307.9c0,20.4-16.5,36.9-36.9,36.9c-20.4,0-36.9-16.5-36.9-36.9s16.5-36.9,36.9-36.9
	C699,271,715.5,287.5,715.5,307.9z"
	/>
<path
		class="st0"
		d="M802.5,253.5c-30,0-54.4,24.4-54.4,54.4c0,30,24.4,54.4,54.4,54.4c30,0,54.4-24.4,54.4-54.4
	C856.9,277.9,832.5,253.5,802.5,253.5z M839.3,307.9c0,20.4-16.5,36.9-36.9,36.9c-20.4,0-36.9-16.5-36.9-36.9S782,271,802.4,271
	C822.8,271,839.3,287.5,839.3,307.9z"
	/>
<polygon
		class="st1"
		points="140,234.8 58,316.9 140,316.9 140,399 222.1,316.9 222.1,234.8 "
	/>
</svg>
