<?xml version="1.0" encoding="utf-8" ?>
<!-- Generator: Adobe Illustrator 19.2.1, SVG Export Plug-In . SVG Version: 6.00 Build 0)  -->
<svg
	version="1.1"
	id="layer"
	xmlns="http://www.w3.org/2000/svg"
	xmlns:xlink="http://www.w3.org/1999/xlink"
	x="0px"
	y="0px"
	viewBox="0 0 652 652"
	style="enable-background:new 0 0 652 652;"
	xml:space="preserve"
>
<style type="text/css">
.st0 {
	fill: #652d90;
}
.st1 {
	fill: #0b8ed8;
}
	</style>
<g>
	<path
			class="st0"
			d="M112.4,273.1c0-1.7-1.3-3.1-3.1-3.1H19.7c-1.7,0-3.1,1.3-3.1,3.1v89.7c0,1.7,1.3,3.1,3.1,3.1h89.7
		c1.7,0,3.1-1.3,3.1-3.1V273.1z M97.8,330.2l-11.3-4c-1,2.7-2.3,5-4.2,7.3l9.2,7.7c-2.7,3.3-5.9,5.9-9.6,8L76,338.8
		c-2.3,1.3-5,2.3-7.9,2.9l2.1,11.9c-2.1,0.4-4.2,0.6-6.3,0.6c-2.1,0-4.2-0.2-6.1-0.6l2.1-11.9c-2.9-0.6-5.4-1.5-7.9-2.9l-5.9,10.3
		c-3.6-2.1-6.9-4.8-9.6-8l9.2-7.7c-1.7-2.1-3.3-4.6-4.2-7.3l-11.3,4c-1.3-4-2.3-8-2.3-12.3h11.7l0,0c0-2.9,0.8-5.6,1.7-8.2l-10.9-4
		c1.3-4,3.4-7.7,6.1-10.7l9.2,7.7c1.7-2.1,4-4,6.3-5.4l-5.9-10.3c3.6-2.1,7.7-3.6,11.7-4.2l2.1,11.9c1.3-0.2,2.7-0.4,4.2-0.4
		c1.3,0,2.9,0.2,4,0.4l2.1-12.1c4.2,0.8,8,2.1,11.7,4.2L76,297c2.5,1.3,4.6,3.3,6.3,5.4l9.2-7.7c2.7,3.3,4.8,6.9,6.3,10.7l-11.3,4.2
		c1,2.5,1.5,5.2,1.5,8.2h12.1C100.1,322.1,99.4,326.3,97.8,330.2z"
		/>
	<path
			class="st0"
			d="M150.1,294.7c9.6,0,15.7,4.4,15.7,11.7c0,5.2-3.1,9.2-8.2,10.3c6.3,1.1,10,5.6,10,11.9c0,8-6.5,12.8-17,12.8
		H130v-46.7H150.1L150.1,294.7z M137.9,314.1h12.1c5,0,8-2.3,8-6.3s-3.1-6.1-8-6.1h-12.1V314.1z M137.9,334.4h12.1
		c6.1,0,9.8-2.5,9.8-6.7c0-4.2-3.6-6.5-9.8-6.5h-12.1V334.4z"
		/>
	<path class="st0" d="M203.6,334.2v7.1h-28v-46.6h7.9v39.5H203.6L203.6,334.2z" />
	<path
			class="st0"
			d="M255.3,318.1c0,13.4-10.7,23.6-24.7,23.6s-24.7-10.3-24.7-23.6c0-13.4,10.7-23.6,24.7-23.6
		S255.3,304.7,255.3,318.1z M213.9,318.1c0,9.2,7.7,16.7,16.9,16.7s16.7-7.3,16.7-16.7c0-9.2-7.5-16.5-16.7-16.5
		S213.9,308.7,213.9,318.1z"
		/>
	<path
			class="st0"
			d="M302.8,301.6l-4.6,5.7c-3.4-3.6-8.2-5.9-13-5.9c-9.4,0-16.7,7.3-16.7,16.3c0,9,7.3,16.5,16.7,16.5
		c4.6,0,9.4-2.1,13-5.6l4.6,5.2c-4.8,4.6-11.5,7.7-18,7.7c-13.6,0-24.1-10.3-24.1-23.8c0-13.2,10.7-23.4,24.5-23.4
		C291.7,294.5,298.4,297.2,302.8,301.6z"
		/>
	<path
			class="st0"
			d="M324.1,320.8l-7.9,8.8v11.9h-7.9v-46.7h7.9v24.1l22.2-24.1h9.2l-18,19.9l19.2,26.6h-9.4L324.1,320.8z"
		/>
	<path
			class="st1"
			d="M393,301.6l-4.6,5.7c-3.4-3.6-8.2-5.9-13-5.9c-9.4,0-16.7,7.3-16.7,16.3c0,9,7.3,16.5,16.7,16.5
		c4.6,0,9.4-2.1,13-5.6l4.6,5.2c-4.8,4.6-11.5,7.7-18,7.7c-13.6,0-24.1-10.3-24.1-23.8c0-13.2,10.7-23.4,24.5-23.4
		C381.9,294.5,388.6,297.2,393,301.6z"
		/>
	<path
			class="st1"
			d="M420.2,341.3h-7.9v-15.3L395,294.5h7.9l13.4,22.8l13-22.8h8l-17,31V341.3z"
		/>
	<path
			class="st1"
			d="M460.9,294.7c11.7,0,18.4,5.7,18.4,15.9c0,10.5-6.7,16.7-18.4,16.7h-10.7v14h-7.9v-46.6H460.9z M450.1,320.2
		h10.3c7.3,0,11.3-3.1,11.3-9.4c0-6.1-4-9-11.3-9h-10.3V320.2z"
		/>
	<path
			class="st1"
			d="M518.1,341.3v-19.3h-24.5v19.3h-7.9v-46.6h7.9V315h24.7v-20.3h7.9v46.6H518.1z"
		/>
	<path
			class="st1"
			d="M543.6,301.8v12.6h22.8v7.1h-22.8v12.8h26.2v7.1h-34.1v-46.7h33.3v7.1H543.6L543.6,301.8z"
		/>
	<path
			class="st1"
			d="M599,327.3c-0.6,0-1.3,0-2.1,0h-11.1v14h-7.9v-46.6h19c11.9,0,18.8,5.7,18.8,15.9c0,7.5-3.4,12.6-9.6,15.1
		l10.5,15.5h-9L599,327.3z M596.9,320.2c7.3,0,11.3-3.1,11.3-9.4c0-6.1-4.2-9-11.3-9h-11.1v18.4
		C585.8,320.2,596.9,320.2,596.9,320.2z"
		/>
</g>
</svg>
