<?xml version="1.0" encoding="utf-8" ?>
<!-- Generator: Adobe Illustrator 25.4.1, SVG Export Plug-In . SVG Version: 6.00 Build 0)  -->
<svg
	version="1.0"
	id="katman_1"
	xmlns="http://www.w3.org/2000/svg"
	xmlns:xlink="http://www.w3.org/1999/xlink"
	x="0px"
	y="0px"
	viewBox="0 0 1700 1200"
	style="enable-background:new 0 0 1700 1200;"
	xml:space="preserve"
>
<style type="text/css">
.st0 {
	clip-path: url(#SVGID_00000168107833956431364040000002034315818155003577_);
}
.st1 {
	fill-rule: evenodd;
	clip-rule: evenodd;
	fill: #333333;
}
.st2 {
	fill-rule: evenodd;
	clip-rule: evenodd;
	fill: #ca312c;
}
.st3 {
	fill-rule: evenodd;
	clip-rule: evenodd;
	fill: #91b949;
}
	</style>
<g>
	<defs>
		<rect id="SVGID_1_" x="150" y="473.4" width="1401" height="253" />
	</defs>
	<clipPath id="SVGID_00000085970469064626780110000002305204518628029353_">
		<use xlink:href="#SVGID_1_" style="overflow:visible;" />
	</clipPath>
	<g
			style="clip-path:url(#SVGID_00000085970469064626780110000002305204518628029353_);"
		>
		<path
				class="st1"
				d="M565.7,665.4c-2,0.5-4.1,0.9-6.1,1.1c-1.9,0.3-3.9,0.4-5.8,0.4c-3.5,0-7-0.6-10.3-1.9c-3-1.2-5.7-3-7.9-5.3
			c-2.3-2.4-4-5.3-5.1-8.5c-1.3-3.6-1.9-7.4-1.8-11.3c0-3.8,0.5-7.5,1.7-11.1c1-3.2,2.7-6.1,4.9-8.6c2.2-2.4,4.9-4.3,7.9-5.5
			c3.3-1.4,6.9-2,10.5-2c8.1,0.1,16.2,2,23.5,5.6V598c-3.5-1-7.1-1.7-10.7-2.3c-4.8-0.7-9.6-1-14.4-0.9c-6.5-0.1-12.9,1-19,3.3
			c-5.5,2-10.4,5.2-14.6,9.3c-4.1,4.1-7.3,9.1-9.3,14.5c-2.3,6.1-3.4,12.5-3.3,19c-0.1,6.5,0.9,13,3.1,19.1
			c1.9,5.2,4.9,9.9,8.8,13.8c4,3.8,8.8,6.7,14.1,8.4c6,2,12.4,2.9,18.7,2.8c4.7,0,9.3-0.4,13.9-1.2c4.4-0.8,8.7-2,12.8-3.7v-18.7
			c-1.8,0.8-3.7,1.4-5.6,2C569.7,664.4,567.7,664.9,565.7,665.4z M671.5,605.8c-3.6-3.8-8.1-6.8-13-8.6c-5.6-2-11.5-3-17.5-2.9
			c-6.2-0.1-12.4,1-18.1,3.3c-5.2,2.1-9.8,5.3-13.6,9.3c-3.8,4.2-6.7,9.2-8.5,14.6c-2.1,6.1-3.1,12.5-3,18.9
			c-0.1,6.7,0.8,13.4,2.9,19.8c1.7,5.3,4.4,10.1,8.2,14.1c3.6,3.8,8.1,6.7,13,8.5c5.6,2,11.5,2.9,17.4,2.8c6.3,0.1,12.5-1,18.3-3.4
			c5.2-2.1,9.8-5.3,13.6-9.5c3.8-4.3,6.7-9.3,8.4-14.7c2-6.1,3-12.5,2.9-18.9c0.1-6.6-0.8-13.1-2.8-19.4
			C678,614.6,675.2,609.8,671.5,605.8z M659.4,650.7c-0.7,3.1-1.9,6.1-3.6,8.8c-1.5,2.5-3.7,4.5-6.3,5.9c-2.8,1.5-6,2.2-9.1,2.1
			c-2.9,0.1-5.8-0.4-8.4-1.7c-2.6-1.2-4.9-3-6.7-5.3c-3.7-4.6-5.5-11.5-5.5-20.6c0-3.6,0.4-7.2,1.1-10.7c0.7-3.1,1.9-6.1,3.7-8.7
			c1.6-2.5,3.8-4.5,6.4-5.9c2.9-1.5,6.1-2.2,9.4-2.1c6.6,0,11.7,2.3,15.1,6.8c3.5,4.6,5.2,11.4,5.1,20.5
			C660.6,643.5,660.2,647.2,659.4,650.7z M728.7,582c1.3,1.2,2.8,2.2,4.4,2.9c1.7,0.7,3.6,1.1,5.5,1.1c1.9,0,3.7-0.3,5.4-1.1
			c1.6-0.7,3.1-1.7,4.4-2.9c1.2-1.2,2.2-2.7,2.9-4.4c1.4-3.4,1.4-7.3,0-10.7c-1-2.5-2.8-4.7-5-6.2c-2.3-1.5-5-2.3-7.7-2.3
			c-1.9,0-3.8,0.3-5.5,1.1c-1.7,0.7-3.1,1.7-4.4,3c-1.2,1.3-2.2,2.8-2.9,4.4c-1.4,3.4-1.4,7.3,0,10.7
			C726.5,579.2,727.4,580.7,728.7,582L728.7,582z M750.5,596.2h-46.3v16.4H729v54.7h-27.9v16.4h74.6v-16.4h-25.2L750.5,596.2z
			 M864.4,602.7c-2.3-2.7-5.1-4.8-8.4-6.2c-3.7-1.5-7.7-2.3-11.7-2.2c-2.9,0-5.9,0.3-8.7,1c-2.5,0.7-5,1.7-7.2,3
			c-2.3,1.3-4.4,2.9-6.3,4.7c-2,1.9-3.8,4-5.6,6.1l-0.4-12.9h-18.2v87.5h21.1v-55.4c3-4.3,6.5-8.2,10.3-11.7
			c2.8-2.7,6.4-4.2,10.2-4.3c7.1,0,10.7,4.8,10.7,14.4v57h21.1V625c0.1-4.3-0.5-8.5-1.7-12.6C868.5,608.8,866.8,605.6,864.4,602.7
			L864.4,602.7z M965.4,606.3c-2.6-3.7-6.1-6.7-10.1-8.8c-4.3-2.1-9.1-3.2-13.9-3.1c-2.9,0-5.9,0.3-8.7,1c-2.5,0.7-5,1.6-7.3,3
			c-2.3,1.3-4.4,2.9-6.2,4.7c-2,1.9-3.9,3.9-5.6,6.1l-0.4-12.9H895v121.6h21.1v-34.2c2,0.5,3.9,0.9,5.9,1.1c2.2,0.3,4.4,0.4,6.6,0.4
			c6.1,0.1,12.2-0.9,18-2.8c5.4-1.8,10.3-4.7,14.4-8.6c4.2-4.1,7.5-9,9.5-14.5c2.4-6.7,3.6-13.7,3.4-20.8c0.1-6.2-0.7-12.3-2.2-18.3
			C970.5,615.2,968.4,610.5,965.4,606.3L965.4,606.3z M950.2,651.5c-0.9,3.3-2.4,6.5-4.4,9.3c-1.8,2.5-4.2,4.5-7,5.9
			c-2.8,1.4-5.9,2-9.1,2c-2.5,0-5-0.2-7.5-0.6c-2.1-0.3-4.2-0.8-6.2-1.6v-38.2c3-4.3,6.5-8.2,10.3-11.7c2.8-2.7,6.4-4.2,10.2-4.3
			c2.2,0,4.4,0.5,6.4,1.5c2,1.1,3.6,2.8,4.8,4.8c1.4,2.6,2.4,5.4,3,8.3c0.8,4.1,1.1,8.2,1,12.3C951.8,643.4,951.3,647.5,950.2,651.5
			L950.2,651.5z M1056.3,601.7c-3.4-2.7-7.3-4.6-11.5-5.6c-5.5-1.3-11.1-2-16.7-1.9c-5.8,0-11.5,0.5-17.1,1.6
			c-4.9,0.9-9.7,2.3-14.4,4.1v16.8c4.7-2.1,9.5-3.8,14.5-5c5-1.2,10.2-1.8,15.3-1.8c2.8-0.1,5.6,0.3,8.3,1c2,0.6,3.9,1.6,5.5,3
			c1.4,1.3,2.4,2.8,3.1,4.6c0.7,2,1,4,0.9,6.1v5.3h-11.5c-6.4-0.1-12.8,0.6-19,2.2c-4.8,1.2-9.4,3.2-13.5,5.9
			c-3.4,2.3-6.1,5.4-7.9,9c-1.8,3.6-2.7,7.5-2.6,11.5c0,3.7,0.6,7.5,1.8,11c1.1,3.2,2.9,6.1,5.2,8.5c2.4,2.4,5.3,4.3,8.5,5.5
			c3.8,1.4,7.8,2.1,11.9,2c3.2,0,6.3-0.3,9.4-1c2.7-0.6,5.4-1.5,7.9-2.8c2.4-1.2,4.6-2.6,6.7-4.3c2-1.7,4-3.5,5.8-5.4l0.5,11.4h18
			V624c0.1-4.4-0.6-8.8-2.2-13C1061.8,607.4,1059.4,604.2,1056.3,601.7L1056.3,601.7z M1044.1,656.7c-3.2,3.4-6.7,6.5-10.4,9.1
			c-2.7,1.9-5.8,3-9.1,3.2c-3.4,0.2-6.7-0.8-9.4-2.8c-1.2-1-2.1-2.2-2.7-3.7c-0.6-1.4-0.9-2.9-0.8-4.5c0-1.7,0.4-3.5,1.1-5
			c0.8-1.6,1.9-3.1,3.4-4.2c1.8-1.3,3.8-2.3,5.9-2.8c3-0.7,6-1.1,9.1-1h13V656.7z M1159.8,606.3c-2.6-3.7-6.1-6.7-10.2-8.8
			c-4.3-2.1-9.1-3.2-13.9-3.1c-2.9,0-5.9,0.3-8.7,1c-2.5,0.7-5,1.7-7.2,3c-2.3,1.3-4.4,2.9-6.3,4.7c-2,1.9-3.9,4-5.6,6.1l-0.4-12.9
			h-18.2v121.6h21.1v-34.2c2,0.5,3.9,0.9,5.9,1.1c2.2,0.3,4.4,0.4,6.6,0.4c6.1,0.1,12.2-0.9,18-2.8c5.4-1.8,10.3-4.7,14.4-8.6
			c4.2-4.1,7.5-9,9.5-14.5c2.4-6.7,3.6-13.7,3.4-20.8c0.1-6.2-0.6-12.3-2.1-18.3C1164.8,615.2,1162.7,610.5,1159.8,606.3
			L1159.8,606.3z M1144.5,651.5c-0.9,3.3-2.4,6.5-4.4,9.3c-1.9,2.5-4.3,4.5-7.1,5.9c-2.8,1.4-5.9,2.1-9,2c-2.5,0-5-0.2-7.5-0.6
			c-2.1-0.3-4.2-0.8-6.2-1.6v-38.2c3-4.3,6.5-8.2,10.3-11.7c2.8-2.7,6.4-4.2,10.2-4.3c2.2,0,4.4,0.5,6.4,1.5c2,1.1,3.6,2.8,4.7,4.8
			c1.5,2.6,2.6,5.4,3.1,8.3c0.8,4.1,1.1,8.2,1,12.3C1146.2,643.4,1145.7,647.5,1144.5,651.5L1144.5,651.5z M1257.5,603.4
			c-2.3-2.9-5.2-5.2-8.6-6.7c-3.7-1.6-7.7-2.4-11.8-2.3c-3,0-6,0.3-8.9,1c-2.6,0.6-5.1,1.6-7.4,3c-2.2,1.3-4.2,2.8-5.9,4.6
			c-1.8,1.8-3.5,3.8-4.9,5.9l-0.8-12.7h-19.1v87.5h21.6v-55.4c2.9-4.7,6.6-8.8,10.8-12.4c2.7-2.4,6.1-3.8,9.7-4c1.6,0,3.3,0.3,4.7,1
			c1.4,0.8,2.6,1.9,3.5,3.3c1.1,1.7,1.8,3.7,2.1,5.7c0.4,2.8,0.6,5.6,0.5,8.3h21.2c0.2-5.2-0.2-10.5-1.4-15.6
			C1261.8,610.5,1260,606.7,1257.5,603.4L1257.5,603.4z M1333.5,596.2h-46.3v16.4h24.8v54.7h-27.8v16.4h74.6v-16.4h-25.3V596.2z
			 M1311.7,582c1.3,1.3,2.9,2.3,4.6,3c1.7,0.7,3.5,1,5.4,1c1.9,0,3.7-0.3,5.4-1.1c1.6-0.7,3.1-1.7,4.4-2.9c1.2-1.2,2.2-2.7,2.9-4.4
			c1.4-3.4,1.4-7.3,0-10.7c-0.7-1.6-1.7-3.1-2.9-4.4c-1.2-1.3-2.7-2.3-4.4-3c-1.7-0.7-3.6-1.1-5.4-1.1c-1.9,0-3.8,0.4-5.5,1.1
			c-1.6,0.7-3.1,1.7-4.4,3c-1.9,2-3.2,4.4-3.7,7.1c-0.5,2.7-0.2,5.4,0.8,8C1309.5,579.2,1310.5,580.7,1311.7,582z M1459.7,596.2
			h-26.4l-30.6,37v-71.2h-21.1v121.6h21.1V640l32.4,43.7h27.5l-38.5-47.6L1459.7,596.2z M1549,611c-1.4-3.6-3.7-6.8-6.7-9.3
			c-3.4-2.7-7.3-4.6-11.5-5.6c-5.5-1.3-11.1-2-16.7-1.9c-5.7,0-11.5,0.5-17.1,1.6c-5,0.9-9.9,2.3-14.7,4.1v16.8
			c4.7-2.2,9.6-3.8,14.7-5c5-1.2,10.2-1.8,15.3-1.8c2.8-0.1,5.6,0.3,8.3,1c2,0.6,3.9,1.6,5.5,2.9c1.4,1.3,2.4,2.8,3,4.6
			c0.7,2,1,4,1,6.1v5.3h-11.5c-6.4-0.1-12.7,0.6-18.9,2.2c-4.8,1.2-9.4,3.2-13.5,5.9c-3.4,2.3-6.2,5.4-8,9
			c-1.8,3.6-2.7,7.5-2.6,11.5c0,3.7,0.6,7.5,1.8,11c1.1,3.2,2.9,6.1,5.2,8.5c2.4,2.4,5.3,4.3,8.5,5.5c3.8,1.4,7.8,2.1,11.9,2
			c3.1,0,6.3-0.3,9.4-1c2.8-0.6,5.4-1.5,7.9-2.8c2.4-1.2,4.6-2.6,6.7-4.3c2-1.7,4-3.5,5.8-5.4l0.5,11.4h18V624
			c0.1-4.4-0.7-8.8-2.3-13H1549z M1529.9,656.7c-3.2,3.4-6.7,6.5-10.4,9.1c-2.7,1.9-5.8,3-9.1,3.2c-3.4,0.2-6.7-0.8-9.4-2.8
			c-1.2-1-2.1-2.2-2.7-3.7c-0.6-1.4-0.9-2.9-0.8-4.5c0-1.7,0.4-3.5,1.1-5c0.8-1.7,2-3.1,3.4-4.2c1.8-1.3,3.8-2.3,5.9-2.8
			c3-0.7,6-1.1,9.1-1h12.9L1529.9,656.7z"
			/>
		<path
				class="st2"
				d="M386.9,560.4c-2.5-6.7-5.3-12.4-9.6-16.2c-19.8-22-38-30.3-68.2-16.4h-1.5c-13.1,2.1-19.7,6.8-24.1,19.6
			c-11.1,32-23.1,63.7-34.7,95.4l-5.2,6.9c-21.4,15.7-42,30.2-71.7,18.2c-10.9-4.4-28.6-3.1-19.3,19.1c1,3.3,2.3,6.2,4.5,7.4
			c1.4,2.6,8.1,6.3,9.8,7.5c41.6,27,87.1,32.7,131,11.6c49.9-23.9,86.1-61.7,89.8-121C389,579.4,389.3,568.3,386.9,560.4z"
			/>
		<path
				class="st3"
				d="M369.1,529.2c-0.2-9.1,1.7-16.7,2.7-24.7c2.5-21.2-8.8-30.5-18.3-31.1c-4.3-0.2-8.6,0.5-12.6,2
			c-4,1.6-7.6,4-10.6,7.1c-2.5,2.8-3.7,7.8-0.5,11.2c4.1,4.4,7.9,4.3,10.3-4.8c4-14.8,21.2,0.2,20.8,7.6c-1,15-11.9,20.6-21.3,27.1
			c-10.1,7-19.1,7.2-34.5,12.7c-3.2,1.1-3.7,5.9-0.5,8.8c3.9,0.7,7.9,0.7,11.9,0.2c12.6-2,16.6,1.7,20.5,14.2
			c7.8-4.1,20.1-5,24.6-3.4c8.4,3,8.4,8.1,11.3,11.7c0.6,0.2,1.2,0.2,1.7,0.1c0.6-0.1,1.1-0.3,1.6-0.7c0.5-0.4,0.8-0.8,1.1-1.4
			c0.2-0.5,0.4-1.1,0.3-1.7C370.1,550.1,369.4,541.8,369.1,529.2z"
			/>
	</g>
</g>
</svg>
