<?xml version="1.0" encoding="utf-8" ?>
<!-- Generator: Adobe Illustrator 25.0.1, SVG Export Plug-In . SVG Version: 6.00 Build 0)  -->
<svg
	version="1.0"
	id="katman_1"
	xmlns="http://www.w3.org/2000/svg"
	xmlns:xlink="http://www.w3.org/1999/xlink"
	x="0px"
	y="0px"
	viewBox="0 0 340.6 222.6"
	style="enable-background:new 0 0 340.6 222.6;"
	xml:space="preserve"
>
<style type="text/css">
.st0 {
	fill: #010202;
}
.st1 {
	fill-rule: evenodd;
	clip-rule: evenodd;
	fill: #010202;
}
	</style>
<g>
	<path
			class="st0"
			d="M110.2,118.9c-1.4,0.7-3.1,1-5.3,1c-2.8,0-5.1-0.8-6.7-2.5c-1.6-1.7-2.4-3.9-2.4-6.7c0-3,0.9-5.4,2.7-7.2
		c1.8-1.8,4.2-2.8,7.1-2.8c1.8,0,3.3,0.2,4.6,0.7v4c-1.2-0.7-2.7-1.1-4.2-1.1c-1.7,0-3.1,0.5-4.2,1.6c-1.1,1.1-1.6,2.6-1.6,4.4
		c0,1.8,0.5,3.2,1.5,4.3s2.4,1.6,4.1,1.6c1.6,0,3.1-0.4,4.5-1.2L110.2,118.9C110.3,118.9,110.2,118.9,110.2,118.9z M121.7,110
		c-0.5-0.3-1.1-0.4-1.7-0.4c-0.9,0-1.6,0.3-2.1,1c-0.5,0.6-0.7,1.5-0.7,2.7v6.3h-4.1v-13.2h4.1v2.5h0.1c0.6-1.8,1.8-2.7,3.5-2.7
		c0.4,0,0.8,0.1,1,0.2v3.6C121.8,110,121.7,110,121.7,110z M137.2,106.4l-5.4,14.3c-1.3,3.4-3.2,5.1-5.8,5.1c-1,0-1.8-0.1-2.4-0.3
		v-3.3c0.5,0.3,1.1,0.5,1.8,0.5c1,0,1.8-0.5,2.2-1.5l0.7-1.6l-5.4-13.2h4.5l2.5,8c0.2,0.5,0.3,1.1,0.4,1.8h0.1
		c0.1-0.5,0.2-1.1,0.4-1.7l2.5-8.1C133.3,106.4,137.2,106.4,137.2,106.4z M143,118l-0.1,7.6h-4.1v-19.2h4.1v2h0.1
		c1-1.5,2.4-2.3,4.2-2.3c1.7,0,3,0.6,4,1.8c0.9,1.2,1.4,2.8,1.4,4.8c0,2.2-0.5,4-1.6,5.3c-1.1,1.3-2.5,2-4.3,2
		C145,119.9,143.8,119.3,143,118z M142.8,112.6v1.1c0,0.9,0.2,1.7,0.7,2.2c0.5,0.6,1.1,0.9,1.9,0.9c0.9,0,1.6-0.4,2.2-1.1
		c0.5-0.7,0.8-1.7,0.8-3.1c0-2.3-0.9-3.5-2.7-3.5c-0.8,0-1.5,0.3-2,0.9C143.1,110.8,142.8,111.6,142.8,112.6z M163.2,119.4
		c-0.6,0.3-1.5,0.5-2.7,0.5c-2.9,0-4.3-1.5-4.3-4.5v-6.1h-2.1v-3h2.1v-2.8l4.1-1.2v4h3v3h-3v5.3c0,1.4,0.5,2.1,1.6,2.1
		c0.4,0,0.9-0.1,1.3-0.4C163.2,116.3,163.2,119.4,163.2,119.4z M171.7,119.9c-2.2,0-3.9-0.6-5.2-1.9c-1.3-1.3-1.9-2.9-1.9-5
		c0-2.2,0.7-3.9,2-5.1c1.3-1.2,3.1-1.9,5.3-1.9s3.9,0.6,5.2,1.9c1.2,1.2,1.9,2.9,1.9,4.9c0,2.2-0.6,3.9-1.9,5.2
		C175.7,119.3,173.9,119.9,171.7,119.9z M171.8,109.2c-1,0-1.7,0.3-2.2,1s-0.8,1.6-0.8,2.8c0,2.5,1,3.8,3.1,3.8c2,0,2.9-1.3,2.9-3.9
		C174.8,110.4,173.8,109.2,171.8,109.2z M195.6,119.7c-1.4,0.7-3.1,1-5.3,1c-2.8,0-5.1-0.8-6.7-2.5c-1.6-1.7-2.4-3.9-2.4-6.7
		c0-3,0.9-5.4,2.7-7.2c1.8-1.8,4.2-2.8,7.1-2.8c1.8,0,3.3,0.2,4.6,0.7v4c-1.2-0.7-2.7-1.1-4.2-1.1c-1.7,0-3.1,0.5-4.2,1.6
		s-1.6,2.6-1.6,4.4s0.5,3.2,1.5,4.3s2.4,1.6,4.1,1.6c1.6,0,3.1-0.4,4.5-1.2v3.9H195.6L195.6,119.7z M204.7,120.7
		c-2.2,0-3.9-0.6-5.2-1.9c-1.3-1.2-1.9-2.9-1.9-5c0-2.2,0.7-3.9,2-5.1c1.3-1.2,3.1-1.9,5.3-1.9s3.9,0.6,5.2,1.9
		c1.2,1.2,1.9,2.9,1.9,4.9c0,2.2-0.6,3.9-1.9,5.2C208.7,120.1,206.9,120.7,204.7,120.7L204.7,120.7z M204.8,110c-1,0-1.7,0.3-2.2,1
		c-0.5,0.7-0.8,1.6-0.8,2.8c0,2.5,1,3.8,3.1,3.8c2,0,2.9-1.3,2.9-3.9C207.7,111.2,206.8,110,204.8,110z M235.5,120.4h-4.1v-7.5
		c0-1.9-0.7-2.9-2.1-2.9c-0.7,0-1.2,0.3-1.6,0.9c-0.4,0.6-0.6,1.3-0.6,2.2v7.4H223v-7.6c0-1.9-0.7-2.8-2.1-2.8
		c-0.7,0-1.3,0.3-1.7,0.8c-0.4,0.6-0.6,1.3-0.6,2.2v7.3h-4.1v-13.2h4.1v2.1h0.1c0.4-0.7,1-1.3,1.8-1.7c0.8-0.4,1.6-0.7,2.5-0.7
		c1.9,0,3.1,0.8,3.8,2.5c1-1.6,2.5-2.5,4.4-2.5c2.9,0,4.3,1.8,4.3,5.3L235.5,120.4L235.5,120.4z M242.9,118.8l-0.1,7.6h-4.1v-19.2
		h4.1v2h0.1c1-1.5,2.4-2.3,4.2-2.3c1.7,0,3,0.6,4,1.8c0.9,1.2,1.4,2.8,1.4,4.8c0,2.2-0.5,4-1.6,5.3c-1.1,1.3-2.5,2-4.3,2
		C245,120.7,243.7,120.1,242.9,118.8L242.9,118.8z M242.8,113.4v1.1c0,0.9,0.2,1.7,0.7,2.2c0.5,0.6,1.1,0.9,1.9,0.9
		c0.9,0,1.7-0.4,2.2-1.1c0.5-0.7,0.8-1.7,0.8-3.1c0-2.3-0.9-3.5-2.7-3.5c-0.8,0-1.5,0.3-2,0.9S242.8,112.4,242.8,113.4z
		 M265.9,120.4H262v-1.9h-0.1c-0.9,1.5-2.2,2.2-3.9,2.2c-1.3,0-2.3-0.4-3-1.1c-0.7-0.7-1.1-1.7-1.1-2.9c0-2.6,1.5-4,4.6-4.4l3.6-0.5
		c0-1.4-0.8-2.2-2.4-2.2s-3.1,0.5-4.5,1.4v-3.1c0.6-0.3,1.3-0.6,2.3-0.8s1.9-0.3,2.7-0.3c3.8,0,5.7,1.9,5.7,5.6L265.9,120.4
		L265.9,120.4z M262.1,115v-0.9l-2.4,0.3c-1.3,0.2-2,0.8-2,1.8c0,0.5,0.2,0.8,0.5,1.1c0.3,0.3,0.8,0.4,1.3,0.4
		c0.8,0,1.4-0.3,1.9-0.8S262.1,115.8,262.1,115z M277.8,110.8c-0.5-0.3-1.1-0.4-1.7-0.4c-0.9,0-1.6,0.3-2.1,1
		c-0.5,0.7-0.7,1.5-0.7,2.7v6.3h-4.1v-13.2h4.1v2.5h0.1c0.6-1.8,1.8-2.7,3.5-2.7c0.4,0,0.8,0.1,1,0.2v3.6
		C277.9,110.8,277.8,110.8,277.8,110.8z M291.4,114.9h-8.6c0.1,1.9,1.3,2.9,3.6,2.9c1.5,0,2.7-0.3,3.8-1v2.9c-1.2,0.7-2.8,1-4.8,1
		c-2.1,0-3.8-0.6-5-1.8c-1.2-1.2-1.8-2.8-1.8-5c0-2.2,0.6-3.9,1.9-5.2c1.3-1.3,2.8-1.9,4.7-1.9s3.4,0.6,4.5,1.7
		c1.1,1.1,1.6,2.7,1.6,4.7v1.7H291.4z M287.7,112.4c0-1.9-0.8-2.8-2.3-2.8c-0.7,0-1.2,0.3-1.7,0.8s-0.8,1.2-0.9,2H287.7z
		 M63.1,118.1v-3.4l3.6-3.6v7 M68.4,118.1v-4.8l1.7,1.3l2.1-1.8v5.3 M73.7,118.1h4.1v-10.2l-4.1,3.7"
		/>
	<path
			class="st0"
			d="M62.9,112.8l-0.8-1l4.6-4.4l3.3,3.1l5.9-5.3l-1-1.2l4.1-0.9l-0.8,4l-1.2-0.8l-7.1,6.8l-3.2-3l-0.3-0.3
		c0,0-3.1,3.2-3.3,3.1"
		/>
	<path
			class="st1"
			d="M81.8,101c-3.5-1.1-8.2-1.2-13,0.1l-1.1-3.9c5.5-1.5,10.9-1.5,15.3-0.1c4.4,1.3,8,4.1,9.1,8.3
		c1.1,4.2-0.5,8.4-3.6,11.8c-3.1,3.4-7.8,6.2-13.3,7.7l-1-3.9c4.9-1.3,8.9-3.7,11.4-6.5c2.5-2.8,3.4-5.6,2.7-8.1
		C87.5,104.1,85.3,102.1,81.8,101L81.8,101z M56.1,108.1c-2.5,2.8-3.4,5.6-2.7,8.1c0.7,2.4,2.9,4.4,6.4,5.5c3.5,1.1,8.2,1.2,13-0.1
		l1.1,3.9c-5.5,1.5-10.9,1.5-15.3,0.1c-4.4-1.3-8-4.1-9.1-8.3c-1.1-4.2,0.5-8.4,3.6-11.8c3.1-3.4,7.8-6.2,13.3-7.7l1,3.9
		C62.6,102.9,58.6,105.3,56.1,108.1z"
		/>
</g>
</svg>
