<svg
	id="Layer_1"
	data-name="Layer 1"
	xmlns="http://www.w3.org/2000/svg"
	width="470.63"
	height="470.46"
	viewBox="0 0 470.63 470.46"
>
  <defs>
    <style>
      .cls-1 {
        fill: #a0f;
      }

      .cls-2 {
        fill: #fff;
      }
    </style>
  </defs>
  <title>nomics-logo-freelogovectors.net</title>
  <g>
    <path
			class="cls-1"
			d="M14.84,114.36C17.15,59.2,68.53,11.9,123.8,14.91,179.62,13.56,228.46,62.82,230.27,118c19.08-20,39-39.09,58.47-58.71,12.07-12.14,24.17-24.86,39.74-32.53,23.63-12.87,52.23-14.8,78.09-8.48,44,11.49,79,53.58,78.68,99.64-.16,90,.38,180.09-.24,270.13-3,59.36-63.94,106-122,95.78-50.46-5.89-91.39-51.92-92.51-102.53-23.94,24.59-48.45,48.57-72.77,72.78-27.68,28-71.27,38-108.55,25.71C46.68,466.93,14.64,425,14.68,380.4,14.88,291.7,14.57,203,14.84,114.36Zm215,30.25c-25,4.86-47.76,19.43-63.29,39.47-26.94,34-29.76,84.5-6.94,121.38,21,35.16,63.22,56.32,104,51.19,35-3.51,67.76-25.48,83.72-57,25.17-45.64,10.29-108-32.73-137.3C290.59,144.58,259,139,229.88,144.61Z"
			transform="translate(-14.68 -14.77)"
		/>
    <path
			class="cls-2"
			d="M229.88,144.61c29.14-5.59,60.71,0,84.76,17.77,43,29.34,57.9,91.66,32.73,137.3-16,31.49-48.68,53.46-83.72,57-40.78,5.13-83-16-104-51.19-22.82-36.88-20-87.38,6.94-121.38C182.12,164,204.87,149.47,229.88,144.61Z"
			transform="translate(-14.68 -14.77)"
		/>
  </g>
</svg>
