<svg xmlns="http://www.w3.org/2000/svg" fill="none" viewBox="0 0 1000 750"><g
		clip-path="url(#a)"
	><path
			fill="#009FD1"
			fill-rule="evenodd"
			d="M500 583.333c56.593 0 107.916-22.565 145.461-59.189a2.63 2.63 0 0 1 3.695.011l86.546 86.547 89.831 89.831c1.943 1.943-.058 5.181-2.665 4.312l-143.359-47.787a2.618 2.618 0 0 0-2.22.27C625.938 689.641 565.152 708.333 500 708.333c-184.095 0-333.333-149.238-333.333-333.333 0-184.095 149.238-333.334 333.333-333.334 184.095 0 333.333 149.239 333.333 333.334 0 78.63-27.225 150.901-72.763 207.901a2.587 2.587 0 0 1-3.852.206L580.717 407.106c-1.943-1.944.058-5.181 2.665-4.312l111.843 37.281a2.58 2.58 0 0 0 3.279-1.652c6.384-19.998 9.829-41.308 9.829-63.423 0-115.059-93.274-208.333-208.333-208.333S291.667 259.941 291.667 375 384.941 583.333 500 583.333Z"
			clip-rule="evenodd"
		/></g><defs><clipPath id="a"><path
				fill="#fff"
				d="M0 0h666.667v666.667H0z"
				transform="translate(166.667 41.667)"
			/></clipPath></defs></svg>
