<svg
	data-name="Artwork"
	xmlns="http://www.w3.org/2000/svg"
	viewBox="0 0 512 512"
><path
		fill="#4285f4"
		d="M422.4 183.002v164.709L256 430.383 89.6 347.711V183.024L48 161.83v211.678l208 103.309 208-103.309V161.81l-41.6 21.192z"
	/><path
		fill="#4285f4"
		d="M94.164 162.022L256 81.617l161.816 80.395 46.174-23.525L256 35.183 48 138.492v.012l46.164 23.518z"
	/><path
		fill="#669df6"
		d="M110.311 193.638v141.844l41.45 20.154V214.747l-41.45-21.109zM401.516 193.638v141.844l-41.45 20.154V214.747l41.45-21.109z"
	/><path
		fill="#aecbfa"
		d="M116.643 173.518l42.396 21.506 96.776-47.863 96.776 47.863 42.398-21.506-138.999-68.814-139.347 68.814z"
	/><path
		fill="#aecbfa"
		d="M339.121 248.752v-37.091l-83.306-41.319-83.188 40.972v37.438l83.363 42.461 83.131-42.461z"
	/><path
		fill="#669df6"
		d="M339.121 272.218l-83.306 42.233-82.988-41.525v46.911l82.988 41.018 83.306-41.176v-47.461z"
	/></svg>
