<?xml version="1.0" encoding="utf-8" ?>
<!-- Generator: Adobe Illustrator 19.2.1, SVG Export Plug-In . SVG Version: 6.00 Build 0)  -->
<svg
	version="1.1"
	id="layer"
	xmlns="http://www.w3.org/2000/svg"
	xmlns:xlink="http://www.w3.org/1999/xlink"
	x="0px"
	y="0px"
	viewBox="0 0 652 652"
	style="enable-background:new 0 0 652 652;"
	xml:space="preserve"
>
<style type="text/css">
.st0 {
	fill: #ff4612;
}
	</style>
<g>
	<path
			class="st0"
			d="M38,380.9c-14,0-18.3-10.8-15.2-17.5c4.3-9.2,39.9-85.8,43.1-92.1c3.2-6.4,9.6-10.4,22.7-10.4
		c0,0-10.5,0.3-15.6,10.8c-5.2,10.8-37.5,79.8-42.9,91.9C25.3,374.7,38,380.9,38,380.9"
		/>
	<path
			class="st0"
			d="M65.1,380.9h-8.6c-12,0-17.3-10-13-19.1c4.4-9.2,37.9-81.9,40.9-88.3c3.4-7.3,11.6-11.8,20.2-12.4h12.5
		c0,0-12.5,1.6-17.5,12c-5.2,10.8-36.9,78.4-42.3,90.5C52.4,374.7,65.1,380.9,65.1,380.9"
		/>
	<path
			class="st0"
			d="M100.2,380.9H84c-12,0-17.4-10-13-19.1c4.4-9.2,37.9-81.9,40.9-88.3c3.4-7.3,11.6-11.8,20.2-12.4h20.1
		c0,0-12.5,1.6-17.5,12c-5.2,10.8-36.9,78.4-42.3,90.5C87.5,374.7,100.2,380.9,100.2,380.9"
		/>
	<path
			class="st0"
			d="M143.3,380.9h-24.9c-12,0-17.4-10-13-19.1c4.4-9.2,37.9-81.9,40.9-88.3c3.4-7.3,11.6-11.8,20.2-12.4h28.9
		c0,0-12.5,1.6-17.5,12c-5.2,10.8-36.9,78.4-42.3,90.5C130.6,374.7,143.3,380.9,143.3,380.9"
		/>
	<path
			d="M265.3,292.4l14.6-31.4h-67.4c-8.6,0.6-16.8,5.1-20.2,12.4c-3,6.5-36.5,79.2-40.9,88.3c-4.4,9.2,1,19.1,13,19.1h59.8
		l14.6-31.6h-37.5l6.1-13.1H245l14.3-30.8h-37.3l6.1-13.1H265.3z"
		/>
	<path
			d="M320.9,380.9h-59.8c-12,0-17.3-10-13-19.1c4.4-9.2,37.9-81.9,40.9-88.3c3.4-7.3,11.6-11.8,20.2-12.4h67.4
		c6,0,11.8,10.6,9,17.2c-2.2,5.2-15,31.7-15,31.7h-39.7l8.4-17.9h-15l-26.5,57.2h14.6l8.4-17.9H361c0,0-15,32.1-17.9,38.3
		C340.1,375.7,333.3,380.9,320.9,380.9"
		/>
	<polygon
			points="432.3,335.8 411.3,380.9 455.2,380.9 511,261 467.1,261 446.9,304.4 432.2,304.4 452.4,261 408.5,261 352.7,380.9 
		396.5,380.9 417.5,335.8 	"
		/>
	<path
			d="M546.7,349.2h-17.4l26.5-57.2h17.7L546.7,349.2z M621.1,278.2c2.8-6.6-3-17.2-9-17.2h-72.2c-8.6,0.6-16.8,5.1-20.2,12.4
		c-3,6.5-36.5,79.2-40.9,88.3c-4.4,9.2,1,19.1,13,19.1h64.6c12.4,0,19.1-5.2,22.1-11.4C581.6,363.4,618.9,283.4,621.1,278.2"
		/>
	<path
			d="M590.3,371.3c0-4.5,3.6-7.8,7.9-7.8c4.3,0,7.9,3.3,7.9,7.8c0,4.5-3.6,7.8-7.9,7.8C593.9,379.2,590.3,375.9,590.3,371.3
		 M598.2,377.9c3.5,0,6.3-2.8,6.3-6.5c0-3.7-2.8-6.5-6.3-6.5c-3.6,0-6.4,2.8-6.4,6.5C591.8,375.1,594.6,377.9,598.2,377.9
		 M596.5,375.9h-1.4v-9h3.4c2.1,0,3.2,0.8,3.2,2.6c0,1.6-1,2.3-2.3,2.5l2.6,4h-1.5l-2.4-3.9h-1.6V375.9z M598.2,370.8
		c1.2,0,2.2-0.1,2.2-1.5c0-1.1-1-1.3-2-1.3h-1.9v2.8H598.2z"
		/>
</g>
</svg>
