<?xml version="1.0" encoding="utf-8" ?>
<!-- Generator: Adobe Illustrator 26.5.0, SVG Export Plug-In . SVG Version: 6.00 Build 0)  -->
<svg
	version="1.0"
	id="katman_1"
	xmlns="http://www.w3.org/2000/svg"
	xmlns:xlink="http://www.w3.org/1999/xlink"
	x="0px"
	y="0px"
	viewBox="0 0 604 464"
	style="enable-background:new 0 0 604 464;"
	xml:space="preserve"
>
<style type="text/css">
.st0 {
	fill: #f3d71d;
}
.st1 {
	fill: #d5ad2d;
}
.st2 {
	fill: #28a8dd;
}
.st3 {
	fill: #3698a6;
}
.st4 {
	fill: #008ecf;
}
.st5 {
	fill: #1b6f95;
}
.st6 {
	fill: #0c0e0e;
}
	</style>
<g>
	<path
			class="st0"
			d="M299.88,411.54c-29.82-1.28-50.55-5.24-67.1-12.83c-2.42-1.11-2.05-0.37-4.66-9.53
		c-4.54-15.97-7.98-30.43-11.68-49c-1.87-9.41-2.75-13.34-7.07-31.74c-7.76-33-10.71-48.17-12.4-63.85
		c-0.43-3.97,0.34-9.4,1.56-10.95c0.72-0.91,0.73-3.25,0.02-3.43c-0.42-0.11-0.52-0.46-0.67-2.28c-0.13-1.51-0.32-2.34-0.66-2.77
		c-0.33-0.41-0.48-1.03-0.48-1.9c0-0.71-0.12-1.36-0.26-1.45c-0.15-0.1-0.26-1.83-0.26-4.35s-0.1-4.26-0.26-4.35
		c-0.14-0.09-0.26,0.07-0.26,0.35c0,3.15-2.27-2.59-3.59-9.09c-3.39-16.69-8.96-33.28-7.68-22.88c0.45,3.66,1.28,7.26,3.66,15.88
		c2.8,10.13,4.08,17.3,3.51,19.71c-0.81,3.45-6.07-17.25-9.1-35.84c-0.77-4.72-1.92-11.8-2.57-15.74
		c-1.44-8.81-2.77-15.42-4.59-22.76c-1.83-7.35-1.77-8.54,0.49-11.43c4.68-5.96,18.4-10.59,19.89-6.71
		c1.02,2.66-1.98,4.5-10.13,6.22c-7.06,1.49-7.72,2.56-3.88,6.35c3.83,3.79,26.07,7.17,52.38,7.97c46.6,1.42,76.14,1.79,84.46,1.07
		c2.04-0.18,4.94-0.39,6.45-0.47c2.74-0.15,2.74-0.15,2.61-0.82c-0.09-0.51,0.12-0.98,0.9-1.95c0.56-0.7,1.4-1.8,1.87-2.43
		c1.58-2.15,4.23-2.98,5.33-1.65c1.38,1.66,0.16,5.49-2.11,6.67c-1.05,0.54-0.75,0.71,1.67,0.93c1.15,0.1,2.75,0.26,3.56,0.34
		c2.44,0.26,4.3-0.62,3.27-1.55c-2.26-2.04,1.99-6.16,8.57-8.31c0.99-0.32,1.9-0.69,2.03-0.81s0.43-0.22,0.65-0.22
		c0.84,0,3.24-1.86,5.91-4.58c1.52-1.55,3.23-3.11,3.79-3.46c0.57-0.36,1.15-0.88,1.31-1.17c0.46-0.86-0.44-0.63-2.43,0.63
		c-0.99,0.62-2.37,1.48-3.07,1.91c-1.46,0.89-4.71,3.05-7.84,5.2c-1.18,0.81-2.43,1.67-2.78,1.9c-0.35,0.24-0.85,0.61-1.1,0.82
		c-0.57,0.47-3.19,0.59-4.65,0.2c-3.8-1-4.07-4.34-0.83-10.12c1.42-2.53,5.33-7.71,5.82-7.71c0.12,0,0.55-0.48,0.94-1.07
		c0.72-1.06,1.17-1.41,3.46-2.61c1.64-0.87,2.6-0.96,2.86-0.28c0.15,0.4-1,2.94-2.29,5.05c-2.72,4.42-2.95,4.87-2.7,5.12
		c0.36,0.36,3.13-1.3,3.54-2.12c0.17-0.35,0.63-1.32,1.02-2.16c2.64-5.69,8.96-6.25,12.84-1.14c1.03,1.35,1.31,1.5,1.32,0.71
		c0.02-2.5,3.5-4.55,7.74-4.56c1.76-0.01,1.87-0.29,0.35-0.87c-2.08-0.79-2.2-1.19-0.83-2.76c1.9-2.17,1-2.6-2.61-1.22
		c-3.49,1.32-6.88,2.04-9.19,1.95c-1.23-0.05-2.51,0.01-2.85,0.14c-0.34,0.13-1.24,0.28-2.01,0.35c-0.77,0.07-1.48,0.18-1.6,0.25
		c-0.11,0.07-0.77,0.05-1.45-0.04c-3.8-0.52-3.45-3.81,1.31-12.24c0.64-1.13,1.51-2.8,1.95-3.71c0.44-0.91,2.21-4.54,3.94-8.06
		c1.73-3.52,3.62-7.43,4.2-8.7c0.58-1.27,1.34-2.85,1.69-3.52c0.35-0.67,0.63-1.33,0.63-1.47c0-0.14,0.29-0.86,0.66-1.6
		c2.33-4.77,6.04-16.53,5.58-17.71c-0.09-0.24-0.01-0.4,0.19-0.4c0.19,0,0.92-0.38,1.63-0.85c0.71-0.47,1.6-1.05,1.98-1.28
		c0.57-0.35,0.67-0.56,0.55-1.15c-0.66-3.3,5.44-1.19,13.02,4.51c11.16,8.38,21.06,22.54,29.33,41.95
		c7.35,17.25,9.29,46.5,4.52,68.41c-3.34,15.36-5.62,38.94-8.06,83.56c-1.56,28.41-2.45,41.23-3.73,53.75
		c-0.35,3.38-0.8,8.45-1.01,11.26c-1.04,14.13-2.61,27.26-5.28,44.15c-0.91,5.77-1.04,7.13-1.11,11.77
		c-0.26,17.5-6.68,27.44-18.84,29.19c-1.18,0.17-3.64,0.75-5.47,1.29c-14.83,4.35-30.66,6.66-52.34,7.64
		C313.78,411.84,308.7,411.92,299.88,411.54z M239.48,385.07c-3.16-12.87-5-18.99-7.23-23.91c-2.38-5.27-2.92-5.97-2.62-3.39
		c1.35,11.85,4.6,22.84,9.9,33.44C242.32,396.8,242.32,396.65,239.48,385.07L239.48,385.07z M233.95,393.6
		c0.92-3.44-0.55-10.67-4.84-23.77c-2.45-7.47-4.25-13.97-4.59-16.54c-0.22-1.68-0.45-1.83-1.41-0.87
		c-1.54,1.54-1.07,4.72,2.39,16.35c0.93,3.13,1.83,6.7,1.99,7.93C228.42,383.96,233.19,396.41,233.95,393.6z M320.73,355.49
		c4.67-3.09,4.06-12.11-1.02-14.98c-4.57-2.59-7.02,3.05-5.08,11.68C315.5,356.06,317.9,357.36,320.73,355.49z M306.96,354.81
		c3.48-1.79,4.64-7.74,2.46-12.66c-2.15-4.84-6.47-2.39-7.24,4.12c-0.11,0.94-0.38,2.82-0.59,4.17
		C300.83,355.28,302.84,356.92,306.96,354.81z M222.22,345.9c0.56-4.47-0.6-10.92-4.35-24.23c-1.06-3.77-2.29-8.67-2.72-10.88
		c-1.42-7.22-3.57-10.74-2.53-4.14c0.5,3.2,3.35,17.81,3.97,20.35c0.34,1.41,0.92,4.96,1.28,7.89c0.9,7.3,1.7,10.19,3.26,11.88
		C221.9,347.6,222.02,347.5,222.22,345.9z M281.46,321.2c19.5-4.47,25.78-28.85,10.39-40.31c-9.92-7.39-16.14-7.93-31.64-2.73
		c-3.17,1.06-6.02,2.09-6.34,2.29c-1.13,0.71-2.88,3.23-2.88,4.15c0,0.47-0.45,1.98-1,3.35
		C242.67,306.11,261.32,325.82,281.46,321.2z M256.76,307.25c-7.67-1.15-9.32-7.68-3.45-13.64c4.26-4.33,9.23-4.71,12.87-0.97
		C273.39,300.03,267.68,308.88,256.76,307.25z M353.99,317.61c13.39-2.25,21.79-17.64,16.27-29.82
		c-12.93-28.52-59.37-14.82-49.18,14.51C325.43,314.84,337.39,320.4,353.99,317.61L353.99,317.61z M327.91,305.78
		c-5.97-1.47-7.91-6.92-4.71-13.26c4-7.92,12.56-7.83,16.78,0.18c2.55,4.84,1.97,6.45-2.16,6.03c-3.72-0.37-4.94,0.16-3.12,1.36
		c1.32,0.88,3.02,2.4,3.35,3.01C339.06,305.02,332.18,306.83,327.91,305.78L327.91,305.78z M264.98,199.97
		c1-0.15,1.71-0.49,3.01-1.46c0.94-0.7,2.42-1.8,3.3-2.44c7.92-5.81,10.46-7.85,13.37-10.69c0.99-0.96,3.86-3.56,6.4-5.77
		c2.53-2.21,5.08-4.45,5.66-4.97c0.58-0.52,1.61-1.45,2.3-2.06c2.16-1.91,5.99-5.41,8.93-8.16c3.45-3.23,10.92-10.78,10.87-10.99
		c-0.12-0.5-2.33-0.92-4.98-0.95c-2.76-0.03-2.81-0.04-2.79-0.61c0.03-0.77,0.06-0.77-7.44-0.94
		c-60.02-1.39-100.24-3.46-121.97-6.28c-2.53-0.33-2.79-0.32-2.79,0.09c0,0.71,2.07,2.68,3.71,3.52c2.06,1.06,2.09,1.53,0.13,1.89
		c-2.11,0.38-2.04,0.14-1.22,4.77c3.32,18.58,8.2,22.79,18.51,15.95c5.93-3.93,43.9-8.01,68.96-7.4c4.3,0.1,7.27,0.06,8.7-0.13
		c1.2-0.16,2.83-0.35,3.63-0.42c0.8-0.07,1.59-0.3,1.76-0.5s0.74-0.36,1.28-0.36s1.3-0.13,1.7-0.3c2.71-1.11,23.37-1.54,23.37-0.48
		c0,0.19-1.06,1.2-3.53,3.36c-0.58,0.51-3.56,2.81-6.63,5.12c-4.66,3.5-7.76,5.92-9.16,7.12c-0.14,0.12-1.68,1.74-3.42,3.59
		c-7.16,7.62-14.63,12.86-21.06,14.77c-0.9,0.27-1.26,0.53-1.47,1.06c-0.35,0.89-1.46,2.87-1.81,3.22c-0.58,0.58-0.3,1,0.57,0.82
		C263.3,200.24,264.26,200.07,264.98,199.97z M277.23,197.62c0.1-0.16,2.04-0.26,4.97-0.26c5.67,0,10.26-0.25,10.26-0.55
		c0-0.12-0.16-0.22-0.37-0.22c-1.09,0-1.43-1.27-0.74-2.78c0.85-1.87,1.65-2.76,10.37-11.68c3.44-3.52,6.72-6.97,7.29-7.68
		c4.92-6.09,8.89-11.88,8.45-12.33c-0.19-0.19-3.97,3.34-4.55,4.26c-0.23,0.36-1.32,1.55-2.43,2.65c-2.18,2.15-2.3,2.29-6.39,7.09
		c-1.5,1.76-3.05,3.54-3.45,3.97c-0.4,0.42-1.29,1.4-1.99,2.18c-2.29,2.55-6.49,6.61-8.37,8.1c-4.22,3.34-10.74,6.63-12.8,6.46
		c-0.7-0.06-2.18,0.3-2.18,0.52C275.31,197.9,276.93,198.12,277.23,197.62L277.23,197.62z M335.94,196.62
		c0.33-0.49,0.6-0.53,3.84-0.53c4.75-0.01,7.3-0.99,5.53-2.15c-0.36-0.24-0.64-0.66-0.64-0.99c-0.01-1.98-1.47-3.62-2.28-2.55
		c-2.36,3.1-2.8,3.56-3.99,4.16c-7.72,3.87-12.3-5.03-8.44-16.39c3.33-9.8,3.59-10.68,4.38-14.58c0.38-1.89,0.03-5.6-0.54-5.7
		c-1.2-0.2-6.75,17.38-9.07,28.73c-1,4.89-1.02,4.94-2.37,5.79c-4.73,3-6.63,1.61-5.14-3.75c0.47-1.68,1.97-5.83,2.66-7.36
		c0.27-0.6,0.49-1.15,0.49-1.23s0.24-0.69,0.53-1.35c3.37-7.7,4.16-10.5,3.06-10.82c-3.18-0.92-7.55,1.53-9.46,5.29
		c-0.21,0.41-0.64,1.17-0.96,1.69c-0.72,1.19-1.98,3.52-4.12,7.63c-2.91,5.6-3.55,6.67-5.51,9.18c-2.08,2.66-4.24,3.96-7.72,4.65
		c-2.49,0.49-2.45,0.62,0.26,0.79C303.45,197.6,335.57,197.17,335.94,196.62L335.94,196.62z M307.1,195.31
		c-1.1-0.44-1.66-2.73-1.05-4.26c1.21-3.03,2.83-5.55,8.44-13.13c1.2-1.62,2.62-3.61,3.15-4.41c2.85-4.32,3.27,3.31,0.54,9.66
		c-2.92,6.78-7.72,12.58-10.26,12.4C307.79,195.55,307.42,195.44,307.1,195.31z M375.07,194.28c1.43-0.16,2.66-0.43,2.89-0.64
		c0.28-0.25,1.05-0.36,2.48-0.36c1.14,0,2.15-0.12,2.23-0.26c0.09-0.14,0.37-0.26,0.63-0.26c0.43,0,0.93-0.96,0.65-1.25
		c-0.06-0.06-0.72,0.02-1.46,0.18c-1.31,0.29-2.43,0.47-4.8,0.74c-3.14,0.36-11.91,0.12-14.32-0.4c-0.85-0.18-0.9-0.26-1.17-1.75
		c-0.49-2.7-1.92-3.97-3.75-3.32c-1.81,0.63-1.91,0.97-0.47,1.54c1.04,0.42,2.05,1.25,2.05,1.69c0,0.47-1.59,2.06-2.06,2.06
		c-0.26,0-0.53,0.1-0.61,0.23c-0.17,0.28-3.18,1.21-4.69,1.45c-2.83,0.45-0.26,0.62,9.42,0.62
		C367.89,194.55,373.7,194.43,375.07,194.28L375.07,194.28z M391.7,180.36c1.38-0.23,2.87-1.56,2.87-2.54
		c0-0.74-0.58-1.13-1.09-0.73c-0.32,0.25-2.28,0.76-3,0.79c-0.21,0.01-0.87,0.09-1.46,0.19c-3.93,0.63-14.85-2.83-19.95-6.32
		c-0.59-0.4-1.14-0.73-1.22-0.73c-0.24,0-2.77-1.8-3.53-2.51c-2.65-2.47,2.3-2.7,8.77-0.42c4.09,1.44,4.62,1.65,5.72,2.22
		c1.69,0.87,1.89,0.96,3.7,1.6c4.16,1.47,4.5,1.12,1.2-1.22c-4.91-3.49-10.14-5.65-12.1-5.01c-2.13,0.7-6.98-0.57-11.57-3.02
		c-8.22-4.39-11.33-5.19-8.52-2.18c3.76,4.03,8.63,8.52,11.7,10.79c1.91,1.41,4.51,3.19,5.02,3.43c0.21,0.1,0.9,0.48,1.54,0.85
		c1.48,0.86,6.36,3.05,7.61,3.42c2.44,0.72,3.66,1.01,4.95,1.17c0.76,0.1,1.53,0.25,1.7,0.34
		C384.42,180.67,390.3,180.6,391.7,180.36L391.7,180.36z M361.56,142.68c0.63-0.05,1.67-0.15,2.3-0.21
		c1.23-0.12,5.03-0.89,7.55-1.53c0.84-0.21,4.47-0.79,8.06-1.28c13.27-1.81,17.2-3.29,20.49-7.72c1.44-1.94,1.45-2.19,0.12-4.77
		c-2.67-5.17,0.13-6.76,6.39-3.63c2.19,1.1,2.18,1.1,2.18,0.01c0-0.98-0.19-1.17-1.52-1.44c-7.19-1.48-10.51-6.91-6.74-11.03
		c0.68-0.74,0.62-1.55-0.34-5.02c-0.43-1.53-0.67-1.61-1.91-0.68c-0.48,0.37-1.38,0.88-1.99,1.15c-1.11,0.49-1.11,0.49,0.03,1.62
		c3.61,3.61-0.96,8.09-8.77,8.58c-5.12,0.33-5.56,0.48-3.25,1.16c3.91,1.14,4.5,3.57,1.24,5.16c-3.04,1.48-2.9,1.59,0.87,0.73
		c6.05-1.38,10.71-1.18,11.29,0.49c1.61,4.59-1.53,9.3-7.86,11.76c-1.51,0.59-2.42,0.86-5.5,1.67c-1.56,0.41-6.06,1.1-6.21,0.95
		c-0.07-0.07-0.32-0.03-0.56,0.1s-1.34,0.3-2.46,0.4c-6.55,0.54-10.01,1-17.32,2.29c-4.05,0.71-4.55,0.84-4.55,1.18
		c0,0.25,5.02,0.47,6.4,0.28C360.01,142.83,360.93,142.74,361.56,142.68L361.56,142.68z M383.4,106.31c1.01-0.68,3.16-2.1,4.78-3.18
		c5.12-3.38,8.6-7.03,9.33-9.76c0.19-0.72,0.42-1.5,0.52-1.73c0.28-0.7-0.66-3.24-1-2.68c-1.55,2.55-2.71,4.01-5,6.27
		c-3.81,3.76-5.19,5.06-5.66,5.31c-0.76,0.41-4.89,5.08-5.25,5.94C380.41,108.18,380.64,108.16,383.4,106.31L383.4,106.31z
		 M200.84,125.23c0-0.26,0.39-0.98,0.86-1.6c1.18-1.55,1.7-2.63,1.7-3.53c0-1-0.34-0.87,5.79-2.18c13.71-2.93,19.59-3.68,30.09-3.86
		c55.38-0.92,71.63-1.43,89.23-2.79c4.48-0.35,4.47-0.35,5.7,1.59c2.66,4.19-4.87,6.95-16.53,6.05c-1.13-0.09-6.48-0.19-11.9-0.23
		c-9.85-0.07-9.85-0.07-15.2-1.15c-7.81-1.57-10.1-1.48-12.35,0.49c-1.05,0.93-0.72,0.92-3.25,0.03c-6.39-2.25-14.3-2.39-27.04-0.47
		c-4.29,0.65-9.3,1.3-11.13,1.46c-9.51,0.81-18.42,2.45-29.86,5.52C202.18,125.84,200.84,125.98,200.84,125.23z"
		/>
	<path
			class="st1"
			d="M299.88,411.54c-29.82-1.28-50.55-5.24-67.1-12.83c-2.42-1.11-2.05-0.37-4.66-9.53
		c-4.54-15.97-7.98-30.43-11.68-49c-1.87-9.41-2.75-13.34-7.07-31.74c-7.76-33-10.71-48.17-12.4-63.85
		c-0.43-3.97,0.34-9.4,1.56-10.95c0.72-0.91,0.73-3.25,0.02-3.43c-0.42-0.11-0.52-0.46-0.67-2.28c-0.13-1.51-0.32-2.34-0.66-2.77
		c-0.33-0.41-0.48-1.03-0.48-1.9c0-0.71-0.12-1.36-0.26-1.45c-0.15-0.1-0.26-1.83-0.26-4.35s-0.1-4.26-0.26-4.35
		c-0.14-0.09-0.26,0.07-0.26,0.35c0,3.15-2.27-2.59-3.59-9.09c-3.39-16.69-8.96-33.28-7.68-22.88c0.45,3.66,1.28,7.26,3.66,15.88
		c2.8,10.13,4.08,17.3,3.51,19.71c-0.81,3.45-6.07-17.25-9.1-35.84c-0.77-4.72-1.92-11.8-2.57-15.74
		c-1.44-8.81-2.77-15.42-4.59-22.76c-1.83-7.35-1.77-8.54,0.49-11.43c4.68-5.96,18.4-10.59,19.89-6.71
		c1.02,2.66-1.98,4.5-10.13,6.22c-7.06,1.49-7.72,2.56-3.88,6.35c3.83,3.79,26.07,7.17,52.38,7.97c46.6,1.42,76.14,1.79,84.46,1.07
		c2.04-0.18,4.94-0.39,6.45-0.47c2.74-0.15,2.74-0.15,2.61-0.82c-0.09-0.51,0.12-0.98,0.9-1.95c0.56-0.7,1.4-1.8,1.87-2.43
		c1.68-2.29,4.36-3,5.45-1.45c0.72,1.03,0.39,1.32-0.41,0.36c-1.26-1.53-3.17-0.92-4.97,1.59c-0.42,0.59-1.14,1.53-1.6,2.1
		c-1.78,2.21-0.16,3.77,2.97,2.87c2.21-0.64,4.13-2.9,4.13-4.87c0-0.47,0.08-0.61,0.26-0.44c0.73,0.73-1.06,4.06-2.61,4.86
		c-1.05,0.54-0.75,0.71,1.67,0.93c1.15,0.1,2.75,0.26,3.56,0.34c2.44,0.26,4.3-0.62,3.27-1.55c-2.26-2.04,1.99-6.16,8.57-8.31
		c0.99-0.32,1.9-0.69,2.03-0.81s0.43-0.22,0.65-0.22c0.84,0,3.24-1.86,5.9-4.57c2.72-2.77,3.97-3.82,4.24-3.55
		c0.08,0.08-0.3,0.46-0.84,0.86c-3.97,2.93-4.14,4.06-0.3,2.06c5.57-2.9,7.9-3.49,6.09-1.56c-2.32,2.48-9.98,6.14-10.9,5.21
		c-0.19-0.19-0.68-0.01-1.68,0.62c-0.77,0.49-2.54,1.3-3.94,1.78c-4.78,1.68-6.03,2.38-8.8,4.94c-8.86,8.21,38.75,4.79,64.91-4.66
		c4.39-1.58,5.23-2.53,4.87-5.5c-0.6-5.1-10.59-11.47-13.34-8.5c-0.66,0.71-0.92,0.51-0.33-0.24c1.02-1.29,3.79-1.03,7.23,0.69
		c2.19,1.1,2.18,1.1,2.18,0.01c0-0.95-0.49-1.4-1.58-1.44c-0.57-0.02-2.86-0.95-2.42-0.99c0.12-0.01,0.85,0.17,1.63,0.39
		c5.53,1.61,7.59-1.17,4.93-6.66c-0.28-0.57-1.07-3.29-1.77-6.03c-3.65-14.4-11.06-29.94-14.27-29.94c-0.76,0-0.75,0.04-2.01-4.86
		c-2.18-8.41-3.78-11.5-6.89-13.27c-6.75-3.84-8.4-10.81-1.93-8.15c13.88,5.72,28.03,23.22,38.36,47.44
		c7.35,17.25,9.29,46.5,4.52,68.41c-3.34,15.36-5.62,38.94-8.06,83.56c-1.56,28.41-2.45,41.23-3.73,53.75
		c-0.35,3.38-0.8,8.45-1.01,11.26c-1.04,14.13-2.61,27.26-5.28,44.15c-0.91,5.77-1.04,7.13-1.11,11.77
		c-0.26,17.5-6.68,27.44-18.84,29.19c-1.18,0.17-3.64,0.75-5.47,1.29c-14.83,4.35-30.66,6.66-52.34,7.64
		C313.78,411.84,308.7,411.92,299.88,411.54z M239.48,385.07c-3.16-12.87-5-18.99-7.23-23.91c-2.38-5.27-2.92-5.97-2.62-3.39
		c1.35,11.85,4.6,22.84,9.9,33.44C242.32,396.8,242.32,396.65,239.48,385.07L239.48,385.07z M233.95,393.6
		c0.92-3.44-0.55-10.67-4.84-23.77c-2.45-7.47-4.25-13.97-4.59-16.54c-0.22-1.68-0.45-1.83-1.41-0.87
		c-1.54,1.54-1.07,4.72,2.39,16.35c0.93,3.13,1.83,6.7,1.99,7.93C228.42,383.96,233.19,396.41,233.95,393.6z M320.73,355.49
		c4.67-3.09,4.06-12.11-1.02-14.98c-4.57-2.59-7.02,3.05-5.08,11.68C315.5,356.06,317.9,357.36,320.73,355.49z M306.96,354.81
		c3.48-1.79,4.64-7.74,2.46-12.66c-2.15-4.84-6.47-2.39-7.24,4.12c-0.11,0.94-0.38,2.82-0.59,4.17
		C300.83,355.28,302.84,356.92,306.96,354.81z M222.22,345.9c0.56-4.47-0.6-10.92-4.35-24.23c-1.06-3.77-2.29-8.67-2.72-10.88
		c-1.42-7.22-3.57-10.74-2.53-4.14c0.5,3.2,3.35,17.81,3.97,20.35c0.34,1.41,0.92,4.96,1.28,7.89c0.9,7.3,1.7,10.19,3.26,11.88
		C221.9,347.6,222.02,347.5,222.22,345.9z M281.46,321.2c19.5-4.47,25.78-28.85,10.39-40.31c-9.92-7.39-16.14-7.93-31.64-2.73
		c-3.17,1.06-6.02,2.09-6.34,2.29c-1.13,0.71-2.88,3.23-2.88,4.15c0,0.47-0.45,1.98-1,3.35
		C242.67,306.11,261.32,325.82,281.46,321.2z M256.76,307.25c-7.67-1.15-9.32-7.68-3.45-13.64c4.26-4.33,9.23-4.71,12.87-0.97
		C273.39,300.03,267.68,308.88,256.76,307.25z M353.99,317.61c13.39-2.25,21.79-17.64,16.27-29.82
		c-12.93-28.52-59.37-14.82-49.18,14.51C325.43,314.84,337.39,320.4,353.99,317.61L353.99,317.61z M327.91,305.78
		c-5.97-1.47-7.91-6.92-4.71-13.26c4-7.92,12.56-7.83,16.78,0.18c2.55,4.84,1.97,6.45-2.16,6.03c-3.72-0.37-4.94,0.16-3.12,1.36
		c1.32,0.88,3.02,2.4,3.35,3.01C339.06,305.02,332.18,306.83,327.91,305.78L327.91,305.78z M264.98,199.97
		c1.01-0.15,1.71-0.49,3-1.46c0.93-0.7,2.35-1.75,3.17-2.35c4.47-3.26,8.31-6.18,9.67-7.35c1.76-1.52,2.18-1.8,2.18-1.47
		c0,0.13-0.66,0.78-1.47,1.44c-0.81,0.66-1.67,1.36-1.92,1.56c-0.68,0.56-5.48,4.13-8.23,6.13c-2.95,2.14-2.98,2.26-0.6,2.09
		c3.37-0.24,4.07-0.41,3.89-0.96c-0.18-0.55,0.87-1.09,1.78-0.92c0.41,0.08,0.35,0.14-0.31,0.3c-0.46,0.11-0.8,0.33-0.75,0.49
		c0.13,0.39,1.46,0.52,1.8,0.18c0.18-0.18,1.98-0.28,5.05-0.28c5.64,0,10.23-0.25,10.23-0.55c0-0.12-0.16-0.22-0.37-0.22
		c-0.41,0-1.17-0.68-1.17-1.04c0-0.13,0.23-0.01,0.51,0.27c0.36,0.36,0.85,0.51,1.69,0.51c0.9,0,1.15,0.08,1.04,0.36
		c-0.37,0.98,41.1,0.88,41.77-0.09c0.32-0.48,0.62-0.52,3.84-0.52c4.75-0.01,7.3-0.99,5.53-2.15c-0.36-0.24-0.64-0.66-0.64-0.99
		c0-0.31-0.28-1.17-0.63-1.91c-0.34-0.74-0.52-1.34-0.4-1.34c0.33,0,0.52,0.38,1.16,2.27c0.55,1.63,0.6,1.69,1.69,1.97
		c1.09,0.28,1.1,0.29,0.35,0.41c-0.42,0.07,0.27,0.13,1.54,0.13c1.62,0,2.04-0.05,1.41-0.18c-0.49-0.1-0.82-0.2-0.72-0.22
		c0.1-0.02,1.07-0.16,2.16-0.31c3.46-0.48,5.93-1.39,6.03-2.22c0.07-0.63,0.18-0.7,1.1-0.7c1.79,0,1.34-1.72-0.53-2.07
		c-0.93-0.17-1.52-0.7-1.26-1.12c0.25-0.41,1.66-1.08,2.01-0.95c0.17,0.06,0.08,0.19-0.21,0.29c-1.61,0.55-1.72,0.98-0.4,1.51
		c1.05,0.42,2.06,1.25,2.06,1.69c0,0.47-1.59,2.06-2.06,2.06c-0.26,0-0.53,0.1-0.61,0.23c-0.17,0.28-3.18,1.21-4.69,1.45
		c-2.83,0.45-0.26,0.62,9.42,0.62c10.69,0,15.15-0.26,15.88-0.92c0.28-0.25,1.05-0.36,2.48-0.36c1.14,0,2.15-0.12,2.23-0.26
		c0.09-0.14,0.37-0.26,0.63-0.26c0.43,0,0.93-0.96,0.65-1.25c-0.06-0.06-0.72,0.01-1.46,0.17c-2.69,0.56-3.01,0.6-3.01,0.39
		c0-0.12,0.82-0.37,1.83-0.56c8.93-1.65,15.79-6.65,18.66-13.62c0.4-0.97,1.56-3.29,2.57-5.15c6.22-11.42,9.85-21.29,8.92-24.25
		c-0.11-0.36-0.27-1.06-0.35-1.56c-0.29-1.74-0.43-1.8-3.47-1.39c-13.6,1.81-40.02,4.51-56.18,5.75c-11.34,0.87-26.78,1.8-29.89,1.8
		c-1.22,0-1.22,0-5.75,4.34c-5.66,5.43-6.14,5.45-0.73,0.04c2.23-2.23,3.95-4.11,3.83-4.18c-0.83-0.48-3.89-0.96-5.76-0.9
		c-2.08,0.07-2.13,0.05-2.11-0.51c0.03-0.77,0.06-0.77-7.44-0.94c-60.02-1.39-100.24-3.46-121.97-6.28
		c-2.53-0.33-2.79-0.32-2.79,0.09c0,0.71,2.07,2.68,3.71,3.52c2.06,1.06,2.09,1.53,0.13,1.89c-2.11,0.38-2.04,0.14-1.22,4.77
		c3.32,18.58,8.2,22.79,18.51,15.95c5.93-3.93,43.9-8.01,68.96-7.4c4.3,0.1,7.27,0.06,8.7-0.13c1.2-0.16,2.83-0.35,3.63-0.42
		c0.8-0.07,1.59-0.3,1.76-0.5s0.74-0.36,1.28-0.36s1.3-0.13,1.7-0.3c2.71-1.11,23.37-1.54,23.37-0.48c0,0.19-1.06,1.2-3.53,3.36
		c-0.58,0.51-3.56,2.81-6.63,5.12c-4.66,3.5-7.76,5.92-9.16,7.12c-0.14,0.12-1.68,1.74-3.42,3.59
		c-7.16,7.62-14.63,12.86-21.06,14.77c-0.9,0.27-1.26,0.53-1.47,1.06c-0.35,0.89-1.46,2.87-1.81,3.22c-0.58,0.58-0.3,1,0.57,0.82
		C263.3,200.24,264.26,200.07,264.98,199.97z M200.84,125.23c0-0.26,0.39-0.98,0.86-1.6c1.18-1.55,1.7-2.63,1.7-3.53
		c0-1-0.34-0.87,5.79-2.18c13.71-2.93,19.59-3.68,30.09-3.86c55.38-0.92,71.63-1.43,89.23-2.79c4.48-0.35,4.47-0.35,5.7,1.59
		c2.66,4.19-4.87,6.95-16.53,6.05c-1.13-0.09-6.48-0.19-11.9-0.23c-9.85-0.07-9.85-0.07-15.2-1.15c-7.81-1.57-10.1-1.48-12.35,0.49
		c-1.05,0.93-0.72,0.92-3.25,0.03c-6.39-2.25-14.3-2.39-27.04-0.47c-4.29,0.65-9.3,1.3-11.13,1.46c-9.51,0.81-18.42,2.45-29.86,5.52
		C202.18,125.84,200.84,125.98,200.84,125.23z"
		/>
	<path
			class="st2"
			d="M299.88,411.54c-29.82-1.28-50.55-5.24-67.1-12.83c-2.42-1.11-2.05-0.37-4.66-9.53
		c-4.54-15.97-7.98-30.43-11.68-49c-1.87-9.41-2.75-13.34-7.07-31.74c-7.76-33-10.71-48.17-12.4-63.85
		c-0.43-3.97,0.34-9.4,1.56-10.95c0.72-0.91,0.73-3.25,0.02-3.43c-0.42-0.11-0.52-0.46-0.67-2.28c-0.13-1.51-0.32-2.34-0.66-2.77
		c-0.33-0.41-0.48-1.03-0.48-1.9c0-0.71-0.12-1.36-0.26-1.45c-0.15-0.1-0.26-1.83-0.26-4.35s-0.1-4.26-0.26-4.35
		c-0.14-0.09-0.26,0.07-0.26,0.35c0,3.15-2.27-2.59-3.59-9.09c-3.39-16.69-8.96-33.28-7.68-22.88c0.45,3.66,1.28,7.26,3.66,15.88
		c2.8,10.13,4.08,17.3,3.51,19.71c-0.81,3.45-6.07-17.25-9.1-35.84c-0.77-4.72-1.92-11.8-2.57-15.74
		c-1.44-8.81-2.77-15.42-4.59-22.76c-1.83-7.35-1.77-8.54,0.49-11.43c4.68-5.96,18.4-10.59,19.89-6.71
		c1.02,2.66-1.98,4.5-10.13,6.22c-7.06,1.49-7.72,2.56-3.88,6.35c3.83,3.79,26.07,7.17,52.38,7.97c46.56,1.42,76.12,1.79,84.46,1.07
		c8.23-0.71,8.73-0.71,10.1,0.1c1.23,0.72,1.23,0.72,2.79,0.33c1.57-0.39,1.94-0.38,7.4,0.19c1.19,0.12,1.76,0.04,2.87-0.4
		c1.23-0.5,1.49-0.52,2.35-0.24c1.79,0.6,18.88,0.42,24.9-0.25c16.74-1.88,36.55-6.45,43.14-9.95c0.78-0.41,5.87-1.65,9.19-2.23
		c3.19-0.56,5.25-1.05,6.78-1.62c1.41-0.52,1.41-0.52,1.57,1.7c0.74,9.87-0.36,25.81-2.34,33.96c-0.52,2.14-1.13,5.55-2.04,11.39
		c-0.3,1.9-0.66,3.71-0.82,4.01s-0.21,0.83-0.13,1.15c0.09,0.33-0.13,2.9-0.47,5.71c-1.82,14.81-2.97,29.84-4.73,61.94
		c-1.56,28.41-2.45,41.23-3.73,53.75c-0.35,3.38-0.8,8.45-1.01,11.26c-1.04,14.13-2.61,27.26-5.28,44.15
		c-0.91,5.77-1.04,7.13-1.11,11.77c-0.26,17.5-6.68,27.44-18.84,29.19c-1.18,0.17-3.64,0.75-5.47,1.29
		c-14.83,4.35-30.66,6.66-52.34,7.64C313.78,411.84,308.7,411.92,299.88,411.54L299.88,411.54z M239.48,385.07
		c-3.16-12.87-5-18.99-7.23-23.91c-2.38-5.27-2.92-5.97-2.62-3.39c1.35,11.85,4.6,22.84,9.9,33.44
		C242.32,396.8,242.32,396.65,239.48,385.07L239.48,385.07z M233.95,393.6c0.92-3.44-0.55-10.67-4.84-23.77
		c-2.45-7.47-4.25-13.97-4.59-16.54c-0.22-1.68-0.45-1.83-1.41-0.87c-1.54,1.54-1.07,4.72,2.39,16.35c0.93,3.13,1.83,6.7,1.99,7.93
		C228.42,383.96,233.19,396.41,233.95,393.6z M320.73,355.49c4.67-3.09,4.06-12.11-1.02-14.98c-4.57-2.59-7.02,3.05-5.08,11.68
		C315.5,356.06,317.9,357.36,320.73,355.49z M306.96,354.81c3.48-1.79,4.64-7.74,2.46-12.66c-2.15-4.84-6.47-2.39-7.24,4.12
		c-0.11,0.94-0.38,2.82-0.59,4.17C300.83,355.28,302.84,356.92,306.96,354.81z M222.22,345.9c0.56-4.47-0.6-10.92-4.35-24.23
		c-1.06-3.77-2.29-8.67-2.72-10.88c-1.42-7.22-3.57-10.74-2.53-4.14c0.5,3.2,3.35,17.81,3.97,20.35c0.34,1.41,0.92,4.96,1.28,7.89
		c0.9,7.3,1.7,10.19,3.26,11.88C221.9,347.6,222.02,347.5,222.22,345.9z M299.18,337.62c2.61-1.41,5.27-2.05,8.48-2.05
		c2.47,0,4.34,0.26,11.41,1.56c8.63,1.59,13.7,0.39,13.11-3.1c-1.36-7.91-5.38-9.65-17.73-7.65c-7.21,1.16-12.42,1.22-15.36,0.16
		c-2.32-0.83-2.18-0.83-3.89-0.18c-6.22,2.33-5.94,9.74,0.43,11.76c0.86,0.27,1.58,0.5,1.6,0.51
		C297.26,338.63,298.14,338.18,299.18,337.62L299.18,337.62z M281.46,321.2c19.5-4.47,25.78-28.85,10.39-40.31
		c-9.92-7.39-16.14-7.93-31.64-2.73c-3.17,1.06-6.02,2.09-6.34,2.29c-1.13,0.71-2.88,3.23-2.88,4.15c0,0.47-0.45,1.98-1,3.35
		C242.67,306.11,261.32,325.82,281.46,321.2L281.46,321.2z M256.76,307.25c-7.67-1.15-9.32-7.68-3.45-13.64
		c4.26-4.33,9.23-4.71,12.87-0.97C273.39,300.03,267.68,308.88,256.76,307.25z M353.99,317.61c13.39-2.25,21.79-17.64,16.27-29.82
		c-12.93-28.52-59.37-14.82-49.18,14.51C325.43,314.84,337.39,320.4,353.99,317.61L353.99,317.61z M327.91,305.78
		c-5.97-1.47-7.91-6.92-4.71-13.26c4-7.92,12.56-7.83,16.78,0.18c2.55,4.84,1.97,6.45-2.16,6.03c-3.72-0.37-4.94,0.16-3.12,1.36
		c1.32,0.88,3.02,2.4,3.35,3.01C339.06,305.02,332.18,306.83,327.91,305.78L327.91,305.78z M263.53,200.19
		c0.25-0.14,1.18-0.28,2.06-0.31c1.29-0.05,1.63-0.16,1.77-0.54c0.15-0.42,0.53-0.49,2.98-0.56c3.69-0.11,5.15-0.32,6.39-0.9
		c1.11-0.52,11.76-0.94,18.81-0.74c12.54,0.36,40.05,0,40.4-0.53c0.33-0.5,0.59-0.53,3.84-0.54c3.65,0,5.14-0.3,5.74-1.13
		c0.31-0.42,1.18-0.45,13.63-0.42c13.55,0.03,18.02-0.18,18.82-0.9c0.28-0.25,1.05-0.36,2.48-0.36c1.14,0,2.15-0.12,2.23-0.26
		c0.1-0.16,3.88-0.26,10.5-0.26c9.97,0,10.35-0.02,10.61-0.5c0.23-0.43,0.64-0.51,3.02-0.63c5.66-0.28,7.1-0.44,7.53-0.83
		c0.33-0.3,0.99-0.37,2.93-0.31c2.5,0.07,2.5,0.07,2.81-1.07c0.17-0.63,0.54-1.77,0.82-2.55c0.41-1.12,0.55-2.36,0.69-6.14
		c0.19-5.17,0.37-6.82,1.06-9.73c0.55-2.33,0.57-17.86,0.02-23.93c-0.34-3.79-7.33-5.21-12.5-2.55c-0.85,0.44-21.58,2.9-37.6,4.46
		c-16.2,1.58-36.63,3.08-47.6,3.49c-2.92,0.11-4.72,0.29-5.16,0.51c-0.58,0.29-0.88,0.28-2.05-0.09c-0.92-0.29-2.25-0.44-4.06-0.44
		c-2.63-0.01-2.69-0.02-2.67-0.59c0.03-0.77,0.06-0.77-7.44-0.94c-60.02-1.39-100.24-3.46-121.97-6.28
		c-2.53-0.33-2.79-0.32-2.79,0.09c0,0.71,2.07,2.68,3.71,3.52c2.06,1.06,2.09,1.53,0.13,1.89c-2.11,0.38-2.04,0.14-1.22,4.77
		c3.32,18.58,8.2,22.79,18.51,15.95c5.93-3.93,43.9-8.01,68.96-7.4c4.3,0.1,7.27,0.06,8.7-0.13c1.2-0.16,2.83-0.35,3.63-0.42
		c0.8-0.07,1.59-0.3,1.76-0.5s0.74-0.36,1.28-0.36s1.3-0.13,1.7-0.3c2.71-1.11,23.37-1.54,23.37-0.48c0,0.19-1.06,1.2-3.53,3.36
		c-0.58,0.51-3.56,2.81-6.63,5.12c-4.66,3.5-7.76,5.92-9.16,7.12c-0.14,0.12-1.68,1.74-3.42,3.59
		c-7.16,7.62-14.63,12.86-21.06,14.77c-0.9,0.27-1.26,0.53-1.47,1.06c-0.35,0.89-1.46,2.87-1.81,3.22
		C261.53,200.25,262.46,200.76,263.53,200.19L263.53,200.19z M200.84,125.23c0-0.26,0.39-0.98,0.86-1.6c1.18-1.55,1.7-2.63,1.7-3.53
		c0-1-0.34-0.87,5.79-2.18c13.71-2.93,19.59-3.68,30.09-3.86c55.38-0.92,71.63-1.43,89.23-2.79c4.48-0.35,4.47-0.35,5.7,1.59
		c2.66,4.19-4.87,6.95-16.53,6.05c-1.13-0.09-6.48-0.19-11.9-0.23c-9.85-0.07-9.85-0.07-15.2-1.15c-7.81-1.57-10.1-1.48-12.35,0.49
		c-1.05,0.93-0.72,0.92-3.25,0.03c-6.39-2.25-14.3-2.39-27.04-0.47c-4.29,0.65-9.3,1.3-11.13,1.46c-9.51,0.81-18.42,2.45-29.86,5.52
		C202.18,125.84,200.84,125.98,200.84,125.23z"
		/>
	<path
			class="st3"
			d="M299.88,411.54c-29.82-1.28-50.55-5.24-67.1-12.83c-2.42-1.11-2.05-0.37-4.66-9.53
		c-4.54-15.97-7.98-30.43-11.68-49c-1.87-9.41-2.75-13.34-7.07-31.74c-7.76-33-10.71-48.17-12.4-63.85
		c-0.47-4.39,0.41-9.77,1.84-11.19c0.93-0.93,1.06-2.7,0.24-3.46c-0.37-0.35-0.57-1.02-0.74-2.58c-0.14-1.21-0.4-2.3-0.62-2.55
		c-0.49-0.55-0.68-2.17-0.9-7.64c-0.1-2.42-0.27-4.49-0.38-4.6c-0.25-0.25-0.68,0.37-0.69,0.98c-0.03,3.02-2.29-2.75-3.59-9.17
		c-3.39-16.69-8.96-33.28-7.68-22.88c0.45,3.66,1.28,7.26,3.66,15.88c2.8,10.13,4.08,17.3,3.51,19.71
		c-0.81,3.45-6.07-17.25-9.1-35.84c-0.77-4.72-1.92-11.8-2.57-15.74c-1.44-8.81-2.77-15.42-4.59-22.76
		c-1.83-7.35-1.77-8.54,0.49-11.43c4.68-5.96,18.4-10.59,19.89-6.71c1.02,2.66-1.98,4.5-10.13,6.22c-7.06,1.49-7.72,2.56-3.88,6.35
		c3.83,3.79,26.07,7.17,52.38,7.97c46.56,1.42,76.12,1.79,84.46,1.07c8.23-0.71,8.73-0.71,10.1,0.1c1.23,0.72,1.23,0.72,2.79,0.33
		c1.57-0.39,1.94-0.38,7.4,0.19c1.19,0.12,1.76,0.04,2.87-0.4c1.23-0.5,1.49-0.52,2.35-0.24c1.79,0.6,18.88,0.42,24.9-0.25
		c16.74-1.88,36.55-6.45,43.14-9.95c0.78-0.41,5.87-1.65,9.19-2.23c3.19-0.56,5.25-1.05,6.78-1.62c1.41-0.52,1.41-0.52,1.57,1.7
		c0.74,9.87-0.36,25.81-2.34,33.96c-0.52,2.14-1.13,5.55-2.04,11.39c-0.3,1.9-0.66,3.71-0.82,4.01s-0.21,0.83-0.13,1.15
		c0.09,0.33-0.13,2.9-0.47,5.71c-1.82,14.81-2.97,29.84-4.73,61.94c-1.56,28.41-2.45,41.23-3.73,53.75
		c-0.35,3.38-0.8,8.45-1.01,11.26c-1.04,14.13-2.61,27.26-5.28,44.15c-0.91,5.77-1.04,7.13-1.11,11.77
		c-0.26,17.5-6.68,27.44-18.84,29.19c-1.18,0.17-3.64,0.75-5.47,1.29c-14.83,4.35-30.66,6.66-52.34,7.64
		C313.78,411.84,308.7,411.92,299.88,411.54L299.88,411.54z M239.48,385.07c-3.16-12.87-5-18.99-7.23-23.91
		c-2.38-5.27-2.92-5.97-2.62-3.39c1.35,11.85,4.6,22.84,9.9,33.44C242.32,396.8,242.32,396.65,239.48,385.07L239.48,385.07z
		 M233.95,393.6c0.92-3.44-0.55-10.67-4.84-23.77c-2.45-7.47-4.25-13.97-4.59-16.54c-0.22-1.68-0.45-1.83-1.41-0.87
		c-1.54,1.54-1.07,4.72,2.39,16.35c0.93,3.13,1.83,6.7,1.99,7.93C228.42,383.96,233.19,396.41,233.95,393.6z M320.73,355.49
		c4.67-3.09,4.06-12.11-1.02-14.98c-4.57-2.59-7.02,3.05-5.08,11.68C315.5,356.06,317.9,357.36,320.73,355.49z M306.96,354.81
		c3.48-1.79,4.64-7.74,2.46-12.66c-2.15-4.84-6.47-2.39-7.24,4.12c-0.11,0.94-0.38,2.82-0.59,4.17
		C300.83,355.28,302.84,356.92,306.96,354.81z M222.22,345.9c0.56-4.47-0.6-10.92-4.35-24.23c-1.06-3.77-2.29-8.67-2.72-10.88
		c-1.42-7.22-3.57-10.74-2.53-4.14c0.5,3.2,3.35,17.81,3.97,20.35c0.34,1.41,0.92,4.96,1.28,7.89c0.9,7.3,1.7,10.19,3.26,11.88
		C221.9,347.6,222.02,347.5,222.22,345.9z M299.18,337.62c2.61-1.41,5.27-2.05,8.48-2.05c2.47,0,4.34,0.26,11.41,1.56
		c8.63,1.59,13.7,0.39,13.11-3.1c-1.36-7.91-5.38-9.65-17.73-7.65c-7.21,1.16-12.42,1.22-15.36,0.16c-2.32-0.83-2.18-0.83-3.89-0.18
		c-6.22,2.33-5.94,9.74,0.43,11.76c0.86,0.27,1.58,0.5,1.6,0.51C297.26,338.63,298.14,338.18,299.18,337.62L299.18,337.62z
		 M281.46,321.2c19.5-4.47,25.78-28.85,10.39-40.31c-10.17-7.58-16.66-8.01-33.23-2.2c-3.48,1.22-5.13,1.69-5.31,1.5
		c-0.18-0.18-0.26-0.13-0.26,0.18c0,0.24-0.16,0.51-0.36,0.58c-0.76,0.29-1.62,1.99-1.67,3.3c-0.03,0.79-0.42,2.21-1.04,3.73
		C242.67,306.11,261.34,325.81,281.46,321.2L281.46,321.2z M256.76,307.25c-7.67-1.15-9.32-7.68-3.45-13.64
		c4.26-4.33,9.23-4.71,12.87-0.97C273.39,300.03,267.68,308.88,256.76,307.25z M353.99,317.61c13.39-2.25,21.79-17.64,16.27-29.82
		c-12.93-28.52-59.37-14.82-49.18,14.51C325.43,314.84,337.39,320.4,353.99,317.61L353.99,317.61z M327.91,305.78
		c-5.97-1.47-7.91-6.92-4.71-13.26c4-7.92,12.56-7.83,16.78,0.18c2.55,4.84,1.97,6.45-2.16,6.03c-3.72-0.37-4.94,0.16-3.12,1.36
		c1.32,0.88,3.02,2.4,3.35,3.01C339.06,305.02,332.18,306.83,327.91,305.78L327.91,305.78z M313.01,218.21
		c0.19-0.66,0.1-0.98-0.56-2.02c-5.03-7.93,0.58-18.95,8.53-16.75c3.25,0.9,3.26,2.7,0.06,9.69c-3.02,6.61-2.79,7.81,1.51,7.81
		c3.04,0,2.9,0.21,3.19-4.76c0.73-12.78,4.59-17.09,12.79-14.32c2.13,0.72,2.17,0.76,2.81,3.3c2.47,9.74,5.83,12.51,14.72,12.09
		c6.31-0.29,7.71-1.63,10.12-9.64c2.06-6.82,3.48-8.49,7.73-9.08c1.02-0.14,2.37-0.36,3-0.49c2.69-0.56,5.35-0.17,6.04,0.9
		c0.59,0.91,0.94,0.5,0.8-0.94c-0.12-1.25-0.12-1.25,9.81-1.25c9.57,0,9.94-0.02,10.2-0.5c0.23-0.43,0.64-0.51,3.02-0.63
		c5.66-0.28,7.1-0.44,7.53-0.83c0.33-0.3,0.99-0.37,2.93-0.31c2.5,0.07,2.5,0.07,2.81-1.07c0.17-0.63,0.54-1.77,0.82-2.55
		c0.41-1.12,0.55-2.36,0.69-6.14c0.19-5.17,0.37-6.82,1.06-9.73c0.55-2.33,0.57-17.86,0.02-23.93c-0.34-3.79-7.33-5.21-12.5-2.55
		c-0.85,0.44-21.58,2.9-37.6,4.46c-16.2,1.58-36.63,3.08-47.6,3.49c-2.92,0.11-4.72,0.29-5.16,0.51c-0.58,0.29-0.88,0.28-2.05-0.09
		c-0.92-0.29-2.25-0.44-4.06-0.44c-2.63-0.01-2.69-0.02-2.67-0.59c0.03-0.77,0.06-0.77-7.44-0.94
		c-60.02-1.39-100.24-3.46-121.97-6.28c-2.53-0.33-2.79-0.32-2.79,0.09c0,0.71,2.07,2.68,3.71,3.52c2.06,1.06,2.09,1.53,0.13,1.89
		c-2.11,0.38-2.04,0.14-1.22,4.77c3.32,18.58,8.2,22.79,18.51,15.95c4.9-3.25,24.7-5.92,53.13-7.15
		c22.66-0.98,17.57,0.46-12.19,3.45c-14.66,1.47-21.55,2.43-28.66,3.96c-1.55,0.33-3.62,0.67-4.61,0.74
		c-8.61,0.63-16.83,10.99-12.51,15.78c1.28,1.41,3.12,2.05,6.66,2.3c1.57,0.11,2.96,0.27,3.09,0.35s1.79,0.43,3.68,0.78
		c4.03,0.74,4.85,1.02,5.03,1.7c0.12,0.46,0.35,0.51,2.63,0.51c2.27,0,2.53,0.05,2.86,0.55c0.3,0.46,0.69,0.57,2.32,0.67
		c1.48,0.1,2.07,0.24,2.39,0.6c0.28,0.31,0.78,0.48,1.4,0.48c0.53,0,1.04,0.12,1.13,0.26s0.75,0.26,1.47,0.26
		c1.01,0,1.45,0.13,1.92,0.58c0.59,0.55,0.83,0.58,5.69,0.66c4.63,0.08,5.12,0.13,5.52,0.58c0.46,0.51,2.93,0.74,2.93,0.27
		c0-0.9,4.42-1.64,10.11-1.71c4.08-0.05,5.61-0.17,7.54-0.59c3.21-0.71,3.32-0.54,1.55,2.39c-0.42,0.7-0.88,1.53-1.02,1.83
		c-0.14,0.31-0.56,0.71-0.94,0.9c-0.38,0.19-1.16,1.01-1.71,1.83c-0.77,1.13-1.33,1.64-2.32,2.11c-4.29,2.03-7.78,5.49-5.54,5.49
		c0.58,0,1.32,0.18,1.66,0.4c0.55,0.36,0.68,0.36,1.39,0c0.43-0.22,0.94-0.4,1.13-0.4s0.8-0.72,1.34-1.6
		c1.7-2.77,8.78-9.34,9.69-8.99c0.27,0.1,0.47-0.03,0.61-0.4c0.19-0.52,0.4-0.56,3.01-0.64c3.3-0.1,5.51-0.35,5.89-0.67
		c0.17-0.14,0.96,0.04,2,0.44c2.96,1.14,3.18,2.42,0.64,3.77c-4.49,2.38-5.25,7.53-1.7,11.56c3.05,3.47,8.18,2.77,5.28-0.72
		c-5.53-6.65-1.66-12.21,10.02-14.37c7.45-1.38,18.37,0.98,16.36,3.54c-1.75,2.22-1.74,5.31,0,12.44c0.43,1.76,0.78,3.46,0.78,3.79
		C309.61,219.61,312.7,219.3,313.01,218.21L313.01,218.21z M350.53,209.04c-7.42-2.65-7.33-10.84,0.11-10.62
		c2.08,0.06,2.53-0.01,3.89-0.61c5.29-2.35,10.27,1.52,8.73,6.79c-0.9,3.1-2.71,4.27-7.07,4.57
		C352.17,209.44,351.59,209.42,350.53,209.04z M200.84,125.23c0-0.26,0.39-0.98,0.86-1.6c1.18-1.55,1.7-2.63,1.7-3.53
		c0-1-0.34-0.87,5.79-2.18c13.71-2.93,19.59-3.68,30.09-3.86c55.38-0.92,71.63-1.43,89.23-2.79c4.48-0.35,4.47-0.35,5.7,1.59
		c2.66,4.19-4.87,6.95-16.53,6.05c-1.13-0.09-6.48-0.19-11.9-0.23c-9.85-0.07-9.85-0.07-15.2-1.15c-7.81-1.57-10.1-1.48-12.35,0.49
		c-1.05,0.93-0.72,0.92-3.25,0.03c-6.39-2.25-14.3-2.39-27.04-0.47c-4.29,0.65-9.3,1.3-11.13,1.46c-9.51,0.81-18.42,2.45-29.86,5.52
		C202.18,125.84,200.84,125.98,200.84,125.23z"
		/>
	<path
			class="st4"
			d="M304.62,411.67c-33.68-1.8-49.71-4.45-66.41-10.97c-7.27-2.84-7.28-2.85-8.03-5.28
		c-4.5-14.76-9.19-33.89-13.11-53.45c-2.28-11.37-3.07-14.92-7.63-34.31c-11.57-49.21-14.48-69.42-10.62-73.8
		c0.95-1.08,1.07-3.15,0.24-3.92c-0.37-0.35-0.57-1.02-0.74-2.58c-0.14-1.21-0.4-2.3-0.62-2.55c-0.49-0.55-0.68-2.18-0.9-7.67
		c-0.14-3.45-0.26-4.48-0.55-4.65c-0.52-0.32-0.78-0.09-0.79,0.71c-0.03,2.36-2.11-3.86-3.33-9.93
		c-3.72-18.62-10.31-35.34-7.52-19.1c0.46,2.67,1.8,8.02,3.78,15.06c1.69,6.02,2.64,10.61,2.95,14.27
		c0.98,11.66-5.28-11.77-8.55-31.99c-4.48-27.71-5.75-34.26-8.23-42.48c-1.07-3.55-0.56-5.4,2.31-8.41
		c6.05-6.32,19.74-9.84,18.73-4.81c-0.41,2.07-3.16,3.38-10.11,4.81c-7.19,1.48-7.92,2.72-3.93,6.67
		c3.15,3.11,20.35,6.36,40.25,7.61c3.7,0.23,8.03,0.38,30.71,1.04c30.54,0.9,58.76,1.13,65.9,0.54c8.3-0.68,9.26-0.69,10.42-0.03
		c0.93,0.53,1.17,0.56,2.22,0.31c1.12-0.27,1.99-0.23,7.99,0.36c1.21,0.12,1.67,0.03,2.85-0.52c1.21-0.57,1.51-0.62,2.14-0.37
		c1.44,0.57,19.14,0.39,24.92-0.26c16.75-1.88,36.55-6.45,43.14-9.95c0.78-0.41,5.87-1.65,9.19-2.23c3.23-0.57,5.28-1.05,6.6-1.56
		c2.25-0.87,2.78,11.01,1.07,23.81c-0.94,7-1.14,8.35-1.63,10.64c-0.29,1.34-0.68,3.18-0.88,4.09c-2.84,13.21-5.28,39.46-7.58,81.51
		c-1.67,30.53-2.48,41.84-4.09,57.46c-0.27,2.6-0.56,5.83-0.64,7.17c-0.76,11.79-2.45,25.99-5.38,45.11
		c-0.91,5.93-1.1,7.74-0.98,9.34c1.24,16.43-6.34,28.66-18.98,30.62c-1.27,0.2-4.33,0.95-6.81,1.66c-12.52,3.63-26.72,5.8-45.4,6.93
		C324.52,411.28,308.1,411.86,304.62,411.67L304.62,411.67z M303.51,408.06c0.94-0.94-1.84-1.39-13.86-2.23
		c-2.89-0.2-6.69-0.54-8.45-0.75c-9.61-1.15-17.23-1.21-14.41-0.12C271.9,406.92,302.09,409.47,303.51,408.06z M242.04,394.85
		c0-0.66-4.57-18.96-5.73-22.94c-2.14-7.33-5.93-16.38-6.86-16.38c-0.88,0,1.3,12.45,3.4,19.45
		C235.62,384.21,242.04,398.09,242.04,394.85z M234.14,393.77c0.89-4.1-0.4-10.54-4.78-23.91c-2.41-7.35-4.24-13.91-4.61-16.51
		c-0.24-1.66-0.48-1.97-1.28-1.61c-2.29,1.04-1.93,4.7,1.58,16.31c0.91,3.02,1.83,6.64,2.05,8.06
		C228.49,385.2,233.35,397.41,234.14,393.77z M320.64,355.82c4.08-2.59,4.79-8.51,1.58-13.08c-5.33-7.58-10.82-0.12-7.63,10.38
		C315.55,356.31,318.09,357.44,320.64,355.82L320.64,355.82z M306.96,355.06c4.43-2.28,5.18-10.98,1.29-15.08
		c-2.32-2.45-5.74,1.09-6.35,6.58c-0.13,1.16-0.35,2.59-0.48,3.17C300.22,354.95,302.64,357.28,306.96,355.06L306.96,355.06z
		 M222.44,345.91c0.6-3.85-0.65-11.07-3.96-22.93c-1.27-4.55-2.71-10.26-3.19-12.7c-1.18-5.91-3.19-9.93-3.19-6.38
		c0,1.79,2.84,17.25,4.22,22.96c0.36,1.48,0.94,5.05,1.3,7.93c0.95,7.66,1.55,9.95,3.09,11.75
		C221.87,347.9,222.15,347.8,222.44,345.91z M299.21,337.62c4.56-2.5,8.39-2.65,18.46-0.72c13.34,2.56,18.68-1.3,12.02-8.7
		c-2.72-3.03-5.57-3.36-15.48-1.78c-6.61,1.05-12.3,1.14-14.72,0.23c-2.94-1.11-4.78-0.72-7.05,1.47
		c-3.87,3.76-1.28,9.41,4.82,10.51C297.31,338.63,298.19,338.18,299.21,337.62z M281.77,321.39c2.81-0.71,3.53-1.05,7.96-3.69
		c14.68-8.77,14.7-30.04,0.05-38.49c-0.99-0.57-2.42-1.41-3.2-1.86c-7.03-4.14-13.79-3.92-27.38,0.91c-2.46,0.87-4.8,1.58-5.2,1.57
		c-0.53-0.01-0.78,0.15-0.95,0.61c-0.13,0.34-0.34,0.62-0.46,0.62c-0.58,0-1.84,2.29-1.84,3.33c0,0.65-0.39,2.05-1.01,3.58
		C242.36,306.25,261.74,326.47,281.77,321.39L281.77,321.39z M256.1,306.9c-6.8-1.15-8.09-7.3-2.72-12.98
		c4.15-4.39,8.8-4.82,12.47-1.13C273.34,300.3,267.45,308.82,256.1,306.9L256.1,306.9z M354.4,317.78
		c16.26-3.23,22.85-21.11,12.98-35.18c-15-21.38-51.94-8.95-47.52,16C322.5,313.52,336.57,321.33,354.4,317.78z M328.14,305.62
		c-7.1-1.41-8.4-10.1-2.41-16.13c5.28-5.31,12.78-2.25,15.23,6.22c0.76,2.64,0.29,3.01-3.62,2.81c-4.51-0.22-4.87,0.19-2.03,2.32
		c2.25,1.69,2.93,2.55,2.45,3.13C336.58,305.38,331.41,306.27,328.14,305.62L328.14,305.62z M328.42,243.83
		c1.83-0.08,3.73-0.2,4.22-0.29c0.49-0.08,1.24-0.19,1.66-0.24c0.42-0.05,1.29-0.15,1.92-0.23s1.55-0.2,2.05-0.26
		c0.49-0.06,1.3-0.18,1.79-0.26c0.49-0.08,1.24-0.19,1.66-0.26c0.78-0.11,3.34-0.56,7.29-1.27c16.97-3.04,28.8-8.51,41.49-19.17
		c0.37-0.31,1.16-0.97,1.76-1.46c0.6-0.49,1.57-1.36,2.17-1.92c0.59-0.56,1.86-1.71,2.81-2.56c0.95-0.84,2.33-2.11,3.07-2.82
		c2.64-2.52,5.47-5.07,7.85-7.09c0.62-0.52,1.47-1.24,1.89-1.6c0.42-0.36,1.31-1.09,1.97-1.61c0.84-0.67,1.26-1.21,1.37-1.8
		c0.15-0.76,0.25-0.84,0.96-0.77c0.62,0.06,0.86-0.06,1.1-0.54c0.17-0.34,0.49-0.72,0.72-0.84c0.29-0.16,0.4-0.61,0.4-1.56
		c0-1.14,0.08-1.37,0.58-1.59c0.32-0.14,0.61-0.5,0.65-0.79s0.35-0.67,0.68-0.82c0.5-0.23,0.64-0.54,0.79-1.76
		c0.1-0.82,0.26-1.6,0.37-1.74c0.1-0.14,0.31-0.72,0.46-1.28c0.15-0.56,0.5-1.66,0.78-2.43c0.41-1.12,0.55-2.36,0.69-6.14
		c0.19-5.17,0.37-6.82,1.06-9.73c0.55-2.33,0.57-17.86,0.02-23.93c-0.34-3.79-7.33-5.21-12.5-2.55c-0.85,0.44-21.59,2.9-37.6,4.46
		c-12.35,1.2-28.17,2.44-39.41,3.08c-2.74,0.16-6.83,0.4-9.09,0.54c-5.33,0.33-6.24,0.31-6.72-0.08c-0.28-0.23-1.26-0.32-3.32-0.29
		c-2.79,0.04-2.92,0.01-2.8-0.46c0.21-0.8-0.5-0.9-7.76-1.08c-63.57-1.56-98.16-3.35-122.2-6.31c-2.68-0.33-2.69-0.33-2.69,0.23
		c0,0.79,2.15,2.95,3.82,3.84c1.87,1,1.92,1.23,0.34,1.44c-2.53,0.34-2.46,0.01-1.33,6.05c3.29,17.74,8.84,22.19,18.76,15.06
		c3.02-2.17,19.89-5.08,35.48-6.13c6.81-0.46,8.08-0.53,17.15-0.91c10.47-0.45,12.99-0.47,12.65-0.13
		c-0.34,0.34-9.6,1.64-17.39,2.44c-22.85,2.36-25.89,2.75-34.17,4.33c-2.46,0.47-5.52,0.99-6.78,1.14
		c-13.71,1.7-18.43,17.44-5.5,18.37c4.61,0.33,11.77,2.02,11.77,2.78c0,0.31,0.49,0.37,2.66,0.37c2.43,0,2.69,0.05,3.02,0.55
		c0.3,0.46,0.69,0.57,2.32,0.67c1.48,0.1,2.07,0.24,2.39,0.6c0.28,0.31,0.78,0.48,1.4,0.48c0.53,0,1.04,0.12,1.13,0.26
		s0.75,0.26,1.47,0.26c1.01,0,1.45,0.13,1.92,0.58c0.59,0.55,0.84,0.58,5.65,0.66c4.49,0.07,5.09,0.13,5.55,0.56
		c0.7,0.65,2.92,0.79,3.49,0.22c0.91-0.91,4.89-1.56,9.34-1.51c3.68,0.03,7.86-0.36,9.62-0.9c1.19-0.37-1.41,4.77-2.69,5.3
		c-0.39,0.16-0.71,0.42-0.71,0.58c-0.02,0.9-1.61,2.76-2.88,3.36c-10.94,5.16-11.13,16.4-0.4,23.37c6.95,4.52,8.24,5.3,11.22,6.81
		c7.01,3.55,16.25,6.44,23.8,7.43c0.63,0.08,1.44,0.2,1.79,0.27c0.75,0.13,2.68,0.36,4.48,0.53c0.7,0.07,1.86,0.18,2.56,0.25
		c0.7,0.07,2.34,0.16,3.64,0.2c1.3,0.04,2.41,0.12,2.47,0.18C306.79,244.11,324.16,244,328.42,243.83z M201.09,125.1
		c0-0.19,0.39-0.85,0.86-1.47c1.18-1.55,1.7-2.63,1.7-3.52c0-0.57,0.14-0.79,0.58-0.89c12.24-2.99,24.5-4.74,34.36-4.92
		c60.08-1.04,72.78-1.43,89.7-2.79c4.5-0.36,4.59-0.34,5.65,1.33c2.74,4.33-1.41,5.83-15.88,5.73c-23.12-0.15-21.53-0.08-27.45-1.27
		c-7.8-1.57-10.25-1.46-12.64,0.56c-0.81,0.68-0.81,0.68-3.47-0.21c-6.61-2.21-13.18-2.26-27.46-0.18
		c-4.93,0.72-10.52,1.42-12.42,1.56c-6.64,0.49-13.87,1.83-25.05,4.65C202.34,125.5,201.09,125.71,201.09,125.1z"
		/>
	<path
			class="st5"
			d="M304.62,411.67c-33.68-1.8-49.71-4.45-66.41-10.97c-7.27-2.84-7.28-2.85-8.03-5.28
		c-4.5-14.76-9.19-33.89-13.11-53.45c-2.28-11.37-3.07-14.92-7.63-34.31c-11.54-49.09-14.48-69.48-10.65-73.77
		c1.27-1.42,2.29,0.25,3.42,5.58c6.42,30.44,16.92,70.29,24.77,94.05c2.94,8.89,2.44,8.04,4.59,7.86c2.23-0.19,2.26-0.11,1.15,2.48
		c-2.06,4.8-1.04,7.23,5.42,12.94c2.74,2.42,2.49,3.13-0.94,2.64c-2.37-0.34-2.21-0.67-1.33,2.78c0.41,1.6,0.99,4.07,1.28,5.48
		c4.51,21.66,9.03,29.35,18.4,31.27c28.95,5.94,61.98,6.96,105.66,3.28c17.16-1.45,30.53-6.78,34.81-13.88
		c1.11-1.84,1.14-1.75-0.69-1.94c-2.95-0.31-2.87-1.02,0.25-2.32c4.63-1.92,6.07-3.43,6-6.27c-0.03-1.23,0.15-2.24,0.69-3.86
		c1.83-5.49,2.2-9.75,1.77-20.37c-0.36-8.96-0.25-12.52,0.48-15.85c1.13-5.16,1.73-10.3,2.74-23.29c0.68-8.81,1.18-13.77,1.78-17.66
		c0.57-3.66,0.86-7.57,1.28-17.02c0.47-10.7,0.76-14.81,1.43-19.83c0.83-6.25,0.97-6.72,2.48-8.23c2.17-2.17,2.1-3.69-0.3-7.2
		c-3.67-5.36-3.68-8.17-0.01-11.55c1.4-1.29,1.45-3.17,0.37-15.5c-1.14-13.05-1.12-17.34,0.09-17.22c0.62,0.06,0.85-0.06,1.1-0.54
		c0.17-0.34,0.49-0.72,0.72-0.84c0.29-0.16,0.4-0.61,0.4-1.56c0-1.14,0.08-1.37,0.58-1.59c0.32-0.14,0.61-0.5,0.65-0.79
		s0.35-0.67,0.68-0.82c0.5-0.23,0.64-0.54,0.79-1.76c0.1-0.82,0.26-1.6,0.37-1.74c0.1-0.14,0.31-0.72,0.46-1.28
		c0.15-0.56,0.5-1.66,0.78-2.43c0.41-1.12,0.55-2.36,0.69-6.14c0.19-5.17,0.37-6.82,1.06-9.73c0.55-2.33,0.57-17.86,0.02-23.93
		c-0.34-3.79-7.33-5.21-12.5-2.55c-0.85,0.44-21.59,2.9-37.6,4.46c-12.35,1.2-28.17,2.44-39.41,3.08c-2.74,0.16-6.83,0.4-9.09,0.54
		c-5.33,0.33-6.24,0.31-6.72-0.08c-0.28-0.23-1.26-0.32-3.32-0.29c-2.79,0.04-2.92,0.01-2.8-0.46c0.21-0.8-0.5-0.9-7.76-1.08
		c-63.57-1.56-98.16-3.35-122.2-6.31c-2.68-0.33-2.69-0.33-2.69,0.23c0,0.79,2.15,2.95,3.82,3.84c1.87,1,1.92,1.23,0.34,1.44
		c-2.53,0.34-2.46,0.01-1.33,6.05c3.29,17.74,8.84,22.19,18.76,15.06c3.02-2.17,19.89-5.08,35.48-6.13
		c6.81-0.46,8.08-0.53,17.15-0.91c10.47-0.45,12.99-0.47,12.65-0.13c-0.34,0.34-9.6,1.64-17.39,2.44
		c-22.85,2.36-25.89,2.75-34.17,4.33c-2.46,0.47-5.52,0.99-6.78,1.14c-13.71,1.7-18.43,17.44-5.5,18.37
		c2.24,0.16,10.5,1.72,11.25,2.13c0.88,0.47,0.64,1.25-0.54,1.75c-1.05,0.45-1.05,0.45,0.02,1.16c0.88,0.58,1.02,0.78,0.77,1.08
		c-0.47,0.56-0.69,0.51-8.34-1.69c-9.61-2.76-11.68-2.97-9.05-0.89c2.01,1.59,1.74,2.25-0.62,1.53c-2.13-0.65-2.01-1.29-1.03,5.25
		c0.24,1.62,0.43,3.38,0.42,3.9c-0.01,0.53,0.15,1.74,0.36,2.69c0.97,4.43,1.06,7.5,0.19,6.31c-0.6-0.82-2.06-5.9-2.9-10.09
		c-3.72-18.62-10.31-35.34-7.52-19.1c0.46,2.67,1.8,8.02,3.78,15.06c1.69,6.02,2.64,10.61,2.95,14.27
		c0.98,11.66-5.28-11.77-8.55-31.99c-4.48-27.71-5.75-34.26-8.23-42.48c-1.07-3.55-0.56-5.4,2.31-8.41
		c6.05-6.32,19.74-9.84,18.73-4.81c-0.41,2.07-3.16,3.38-10.11,4.81c-7.19,1.48-7.92,2.72-3.93,6.67
		c3.15,3.11,20.35,6.36,40.25,7.61c3.7,0.23,8.03,0.38,30.71,1.04c30.54,0.9,58.76,1.13,65.9,0.54c8.3-0.68,9.26-0.69,10.42-0.03
		c0.93,0.53,1.17,0.56,2.22,0.31c1.12-0.27,1.99-0.23,7.99,0.36c1.21,0.12,1.67,0.03,2.85-0.52c1.21-0.57,1.51-0.62,2.14-0.37
		c1.44,0.57,19.14,0.39,24.92-0.26c16.75-1.88,36.55-6.45,43.14-9.95c0.78-0.41,5.87-1.65,9.19-2.23c3.23-0.57,5.28-1.05,6.6-1.56
		c2.25-0.87,2.78,11.01,1.07,23.81c-0.94,7-1.14,8.35-1.63,10.64c-0.29,1.34-0.68,3.18-0.88,4.09c-2.84,13.21-5.28,39.46-7.58,81.51
		c-1.67,30.53-2.48,41.84-4.09,57.46c-0.27,2.6-0.56,5.83-0.64,7.17c-0.76,11.79-2.45,25.99-5.38,45.11
		c-0.91,5.93-1.1,7.74-0.98,9.34c1.24,16.43-6.34,28.66-18.98,30.62c-1.27,0.2-4.33,0.95-6.81,1.66c-12.52,3.63-26.72,5.8-45.4,6.93
		C324.52,411.28,308.1,411.86,304.62,411.67L304.62,411.67z M303.51,408.06c0.94-0.94-1.84-1.39-13.86-2.23
		c-2.89-0.2-6.69-0.54-8.45-0.75c-9.61-1.15-17.23-1.21-14.41-0.12C271.9,406.92,302.09,409.47,303.51,408.06z M242.04,394.85
		c0-0.66-4.57-18.96-5.73-22.94c-2.14-7.33-5.93-16.38-6.86-16.38c-0.88,0,1.3,12.45,3.4,19.45
		C235.62,384.21,242.04,398.09,242.04,394.85z M234.14,393.77c0.89-4.1-0.4-10.54-4.78-23.91c-2.41-7.35-4.24-13.91-4.61-16.51
		c-0.24-1.66-0.48-1.97-1.28-1.61c-2.29,1.04-1.93,4.7,1.58,16.31c0.91,3.02,1.83,6.64,2.05,8.06
		C228.49,385.2,233.35,397.41,234.14,393.77z M222.44,345.91c0.6-3.85-0.65-11.07-3.96-22.93c-1.27-4.55-2.71-10.26-3.19-12.7
		c-1.18-5.91-3.19-9.93-3.19-6.38c0,1.79,2.84,17.25,4.22,22.96c0.36,1.48,0.94,5.05,1.3,7.93c0.95,7.66,1.55,9.95,3.09,11.75
		C221.87,347.9,222.15,347.8,222.44,345.91z M278.64,371.24c-0.35-0.05-1.68-0.22-2.94-0.37c-1.27-0.15-6.05-1.02-10.62-1.93
		c-9.51-1.89-14.39-2.65-17.15-2.65c-3.06-0.01-4.06-1.35-2.32-3.09c1.28-1.28,3.75-0.99,11.41,1.32c5.25,1.58,9.16,2.53,11.5,2.8
		c0.99,0.11,2.95,0.45,4.36,0.75c2.1,0.45,17.06,2.32,18.58,2.32c0.24,0,0.49,0.23,0.57,0.51
		C292.15,371.37,281.5,371.65,278.64,371.24L278.64,371.24z M302.83,359.79c-3.41-1.61-4.66-4.03-5.38-10.45
		c-0.97-8.67-2.33-10.61-8.35-11.83c-1.42-0.29-1.64-4.94-0.36-7.74c1.36-2.96,4.45-6.38,9.46-10.44c1.39-1.13,3.26-2.76,4.17-3.64
		c1.99-1.93,2.27-2,7.37-1.96c11.46,0.08,23.15,9.13,26.71,20.67c0.94,3.04,0.84,3.2-4.19,6.45c-6.24,4.04-7.57,6.09-6.79,10.56
		c1.2,6.91-1.92,9.04-10.13,6.92c-5.47-1.41-7.98-1.09-9.76,1.24C304.82,360.55,304.51,360.58,302.83,359.79L302.83,359.79z
		 M320.64,355.82c4.08-2.59,4.79-8.51,1.58-13.08c-5.33-7.58-10.82-0.12-7.63,10.38C315.55,356.31,318.09,357.44,320.64,355.82z
		 M306.96,355.06c4.43-2.28,5.18-10.98,1.29-15.08c-2.32-2.45-5.74,1.09-6.35,6.58c-0.13,1.16-0.35,2.59-0.48,3.17
		C300.22,354.95,302.64,357.28,306.96,355.06L306.96,355.06z M299.21,337.62c4.56-2.5,8.39-2.65,18.46-0.72
		c13.34,2.56,18.68-1.3,12.02-8.7c-2.72-3.03-5.57-3.36-15.48-1.78c-6.61,1.05-12.3,1.14-14.72,0.23c-2.94-1.11-4.78-0.72-7.05,1.47
		c-3.87,3.76-1.28,9.41,4.82,10.51C297.31,338.63,298.19,338.18,299.21,337.62z M269.41,325.07c-17.96-3.04-30.22-22.99-23.04-37.5
		c2.98-6.01,5.81-5.68,3.37,0.39c-7.93,19.68,16.43,41.75,35.59,32.25c18.72-9.28,21.12-31.4,4.45-41.01
		c-0.99-0.57-2.42-1.41-3.2-1.86c-7-4.13-13.74-3.91-27.26,0.86c-4.3,1.52-4.81,1.67-5.44,1.61c-0.56-0.05-0.36-0.39,1.28-2.08
		c15.03-15.56,47.55-4.42,49.57,16.98C306.5,313.43,289.09,328.4,269.41,325.07L269.41,325.07z M343.9,323.11
		c-22.6-2.28-36.25-23.95-25.65-40.74c14.12-22.36,46.63-19.41,55.97,5.08C381.17,305.63,364.53,325.19,343.9,323.11z M354.4,317.78
		c16.26-3.23,22.85-21.11,12.98-35.18c-15-21.38-51.94-8.95-47.52,16C322.5,313.52,336.57,321.33,354.4,317.78z M328.14,305.62
		c-7.1-1.41-8.4-10.1-2.41-16.13c5.28-5.31,12.78-2.25,15.23,6.22c0.76,2.64,0.29,3.01-3.62,2.81c-4.51-0.22-4.87,0.19-2.03,2.32
		c2.25,1.69,2.93,2.55,2.45,3.13C336.58,305.38,331.41,306.27,328.14,305.62L328.14,305.62z M256.1,306.9
		c-6.8-1.15-8.09-7.3-2.72-12.98c4.15-4.39,8.8-4.82,12.47-1.13C273.34,300.3,267.45,308.82,256.1,306.9L256.1,306.9z M201.09,125.1
		c0-0.19,0.39-0.85,0.86-1.47c1.18-1.55,1.7-2.63,1.7-3.52c0-0.57,0.14-0.79,0.58-0.89c12.24-2.99,24.5-4.74,34.36-4.92
		c60.08-1.04,72.78-1.43,89.7-2.79c4.5-0.36,4.59-0.34,5.65,1.33c2.74,4.33-1.41,5.83-15.88,5.73c-23.12-0.15-21.53-0.08-27.45-1.27
		c-7.8-1.57-10.25-1.46-12.64,0.56c-0.81,0.68-0.81,0.68-3.47-0.21c-6.61-2.21-13.18-2.26-27.46-0.18
		c-4.93,0.72-10.52,1.42-12.42,1.56c-6.64,0.49-13.87,1.83-25.05,4.65C202.34,125.5,201.09,125.71,201.09,125.1z"
		/>
	<path
			class="st6"
			d="M304.23,411.58c-33.47-1.85-50.1-4.66-66.6-11.26c-6.73-2.69-6.61-2.61-7.31-4.86
		c-3.99-12.79-9.12-33.74-13.24-54.09c-2.4-11.85-3.28-15.78-7.83-35.1c-11.27-47.88-14.65-72.43-9.97-72.43
		c1.11,0,1.43,0.95,3.48,10.11c8.25,36.92,17.31,70.85,24.68,92.46c2.09,6.12,1.77,5.65,3.73,5.5c2.07-0.17,2.06-0.2,1,2.19
		c-1.88,4.25-0.71,7.15,4.9,12.24c3.16,2.86,3.15,3.19-0.09,2.72c-2.56-0.37-2.52-0.42-1.88,1.89c0.29,1.03,1.11,4.53,1.82,7.76
		c4.77,21.62,9.08,28.73,18.63,30.69c28.45,5.86,64.15,6.84,108.31,2.98c15.33-1.34,29.4-7.52,32.88-14.45
		c0.77-1.53,0.73-1.59-0.95-1.8c-2.65-0.33-2.61-0.53,0.32-1.79c4.38-1.89,5.74-3.33,5.79-6.13c0.02-1.27,0.27-2.59,0.82-4.28
		c1.72-5.38,2.13-10.54,1.64-20.84c-0.37-7.84-0.28-10.99,0.43-14.47c1.21-5.92,1.82-11.22,2.98-26.1
		c0.36-4.57,0.99-10.85,1.4-13.95c0.79-5.93,1.17-10.29,1.4-16c0.67-16.08,1.15-21.82,2.33-27.49c0.32-1.54,0.53-1.95,1.62-3.1
		c2.39-2.53,2.31-3.85-0.5-8.11c-3.33-5.05-3.33-6.87,0-10.51c1.55-1.7,1.64-4.71,0.52-17.31c-0.83-9.35-0.83-15.42-0.01-15.62
		c0.35-0.08,0.77-0.43,0.94-0.76c0.17-0.33,0.48-0.71,0.71-0.83c0.28-0.16,0.4-0.6,0.4-1.47c0-1.15,0.06-1.26,0.77-1.51
		c0.42-0.15,0.77-0.45,0.77-0.67s0.27-0.53,0.61-0.68c0.73-0.33,1.32-1.92,1.1-2.99c-0.15-0.77,0.18-2.23,1.06-4.66
		c0.41-1.12,0.55-2.37,0.69-6.14c0.19-5.17,0.37-6.82,1.06-9.73c0.55-2.33,0.57-17.86,0.02-23.93c-0.34-3.79-7.33-5.21-12.5-2.55
		c-0.85,0.44-21.58,2.9-37.6,4.46c-16.16,1.57-36.54,3.07-47.6,3.49c-2.46,0.09-4.7,0.25-4.96,0.34c-0.26,0.09-1.07,0.01-1.79-0.19
		c-2.41-0.67-3.35-0.78-5.09-0.64c-1.65,0.14-1.73,0.12-1.73-0.41c0-0.85,2.46-0.73-40.18-1.95c-38.93-1.12-62.48-2.43-82.79-4.62
		c-10.77-1.16-10.64-1.17-9.61,0.52c0.72,1.16,2.05,2.3,3.61,3.09c1.54,0.78,1.46,1.03-0.42,1.26c-1.85,0.23-1.83,0.11-0.89,5.3
		c3.37,18.71,8.44,22.99,18.97,16.01c3.49-2.31,19.09-5.02,35.68-6.19c10.38-0.73,27.57-1.39,27.22-1.04
		c-0.35,0.35-10.06,1.53-24.28,2.94c-12.43,1.24-20.37,2.35-25.98,3.63c-1.27,0.29-3.3,0.62-4.52,0.73
		c-14.92,1.33-20.6,18.09-6.51,19.18c1.56,0.12,3.01,0.29,3.23,0.37c0.21,0.08,1.9,0.43,3.75,0.77c4.77,0.88,5.26,1.24,3,2.21
		c-1.38,0.59-1.38,0.59-0.04,1.45c1.72,1.11,0.6,1.02-4.03-0.34c-12.92-3.79-15.68-4.06-12.51-1.26c1.5,1.32,1.42,1.52-0.38,0.99
		c-0.94-0.28-1.44-0.32-1.63-0.13c-0.28,0.28,0.37,5.37,2.24,17.32c0.63,4.08-1.77-1.96-2.7-6.79c-2.92-15.08-7.54-29.44-8.8-27.39
		c-0.59,0.95,1.12,9.71,3.71,18.98c2.64,9.44,3.83,15.28,3.83,18.77c0,5.84-5.71-17.02-8.43-33.76c-0.57-3.52-1.67-10.26-2.43-14.97
		c-1.65-10.12-2.83-16.14-4.38-22.27c-1.5-5.93-1.43-5.71-1.75-6.11c-1.02-1.3,0.07-4.86,2.25-7.35c5.28-6.03,18.83-9.85,18.83-5.3
		c0,2.01-2.87,3.38-10.37,4.95c-7.02,1.48-7.64,2.71-3.5,6.97c1.34,1.37,1.88,1.58,8.23,3.11c12.75,3.07,25.84,4.4,49.14,5.01
		c5.56,0.14,13.91,0.38,18.55,0.52c23.98,0.74,51,0.97,58.74,0.5c9.85-0.6,11.69-0.62,12.79-0.13c0.89,0.4,1.17,0.42,2.16,0.14
		c0.63-0.18,1.28-0.23,1.45-0.12s1.36,0.29,2.64,0.41c1.28,0.12,2.87,0.28,3.53,0.37c1.24,0.16,3.2-0.37,4.07-1.09
		c0.33-0.27,0.57-0.29,1.15-0.05c1.45,0.58,19.13,0.4,24.92-0.26c16.75-1.88,36.55-6.45,43.14-9.95c0.77-0.41,5.85-1.64,9.19-2.23
		c3.82-0.67,4.86-0.91,6.22-1.45c1.01-0.4,1.43-0.46,1.65-0.25c0.71,0.71,0.85,15.25,0.19,19.87c-0.14,0.99-0.49,3.69-0.77,6.01
		c-0.28,2.32-1.03,6.76-1.66,9.85c-0.95,4.68-2.37,13.05-2.84,16.76c-2.09,16.45-3.54,34.44-5.09,62.83
		c-1.9,34.78-2.58,44.62-4.34,62.19c-0.34,3.38-0.69,7.35-0.78,8.83c-0.63,10.37-2.39,24.9-5.26,43.56
		c-0.85,5.54-1.01,7.21-1.01,10.55c0,17.74-6.39,27.51-19.2,29.32c-1.05,0.15-2.99,0.62-4.31,1.04c-13.74,4.4-33.81,7.18-58.13,8.04
		c-2.32,0.08-5.55,0.26-7.17,0.39C314.55,411.67,307.92,411.79,304.23,411.58z M303.38,408.24c2.59-0.99-1.55-1.75-13.74-2.54
		c-2.19-0.14-5.95-0.48-8.37-0.76c-10.6-1.21-17.2-1.24-15-0.05C269.93,406.84,299.92,409.55,303.38,408.24L303.38,408.24z
		 M242.3,395.2c0-4.48-8.65-32.85-11.68-38.32c-3.35-6.05-0.17,12.74,4.09,24.12C238,389.8,242.3,397.84,242.3,395.2z M234.4,392.53
		c0.12-6.06-0.59-9.39-4.78-22.28c-2.93-9.04-3.71-11.76-4.47-15.71c-0.67-3.47-1.01-3.84-2.26-2.51c-1.69,1.8-1.36,4.64,1.74,15.05
		c1.83,6.15,2.39,8.43,2.69,11.09c0.51,4.47,4.08,14.24,5.97,16.33C233.93,395.22,234.36,394.44,234.4,392.53L234.4,392.53z
		 M222.44,347.19c1.06-2.77-0.34-11.74-3.72-23.87c-2.25-8.07-3.05-11.29-3.65-14.74c-0.65-3.74-2.56-7.19-3.08-5.55
		c-0.28,0.9,3.07,19.77,4.33,24.35c0.21,0.77,0.68,3.77,1.05,6.65C218.63,344.11,221.13,350.6,222.44,347.19L222.44,347.19z
		 M279.66,370.97c-2.6-0.2-8.7-1.22-14.97-2.51c-7.95-1.63-10.86-2.1-15.61-2.51c-3.58-0.31-3.58-0.31-3.66-1.08
		c-0.26-2.61,2.46-2.62,11.21-0.03c6.65,1.97,8.57,2.44,10.62,2.62c0.99,0.08,2.66,0.37,3.71,0.64c2.06,0.52,6.98,1.22,13.18,1.87
		c5.35,0.56,6.01,0.68,5.37,0.93C289.02,371.1,282.01,371.14,279.66,370.97L279.66,370.97z M302.83,359.33
		c-3.24-1.67-4.33-3.99-5.11-10.84c-0.6-5.26-1.1-6.91-2.6-8.58c-1.13-1.25-2.97-2.25-4.57-2.46c-5.71-0.78-2.05-9.46,7.29-17.25
		c1.76-1.47,3.96-3.38,4.89-4.25c1.99-1.86,2.59-2.03,7.01-1.97c11,0.13,22.52,9.07,26.22,20.33c0.99,3.02,1.04,2.95-4.39,6.47
		c-6.1,3.96-7.45,6.43-6.32,11.67c1.13,5.27-2.78,7.54-9.49,5.51c-4.76-1.44-8.69-0.99-10.3,1.19
		C304.81,360.01,304.23,360.06,302.83,359.33L302.83,359.33z M319.77,356.42c7.15-2.99,4.77-18.29-2.62-16.9
		c-4.29,0.81-5.02,13.75-0.92,16.43C317.55,356.82,318.51,356.95,319.77,356.42z M306.78,355.24c4.78-2.05,5.64-11.83,1.37-15.58
		c-2.06-1.8-5.42,1.09-6.09,5.24c-0.07,0.43-0.36,2.18-0.64,3.89C300.3,355.59,301.79,357.38,306.78,355.24L306.78,355.24z
		 M299.45,337.64c4.37-2.38,8.21-2.55,17.5-0.75c9.29,1.8,15.69,1.03,15.48-1.85c-0.21-2.97-1.49-6.05-3.09-7.46
		c-3.07-2.69-5.64-2.81-18.45-0.83c-5.15,0.8-10.39,0.46-12.86-0.81c-1.54-0.8-5.29,1.04-6.66,3.27
		C288.24,334.28,294.2,340.5,299.45,337.64L299.45,337.64z M270.35,324.81c-19.19-3.02-32.14-25.11-22.69-38.73
		c2.8-4.03,3.88-3.08,1.99,1.76c-8.02,20.53,16.56,42.21,36.43,32.12c18.88-9.59,20.23-31.88,2.52-41.62
		c-1.18-0.65-2.71-1.51-3.42-1.91c-5.9-3.4-13.38-2.82-27.08,2.08c-4.66,1.67-4.77,1.61-2.03-1.09c9.97-9.8,29.84-8.4,41.05,2.9
		C315.32,298.68,297.07,329.01,270.35,324.81z M344.67,322.74c-21.45-1.82-35.61-21.51-27.32-37.97
		c12.9-25.62,49.6-21.63,57.59,6.26C379.45,306.75,362.73,324.27,344.67,322.74z M348.56,318.37c22.09,0.63,31.65-24.16,15.42-40.01
		c-11.61-11.34-34.71-7.9-42.07,6.26c-7.92,15.23,4.55,35,21.35,33.84C344.67,318.37,347.06,318.33,348.56,318.37z M327.34,305.25
		c-5.49-1.72-6.93-7.82-3.19-13.6c4.81-7.44,13.31-5.71,16.43,3.34c1.1,3.2,0.76,3.59-2.93,3.34c-4.64-0.32-5.52,0.37-2.89,2.24
		c3.09,2.21,3.65,3.16,2.25,3.89C334.92,305.55,329.65,305.97,327.34,305.25L327.34,305.25z M257.78,306.92
		c-6.87-0.67-9.25-4.28-6.51-9.86c3.16-6.42,10.31-8.51,14.54-4.25C272.72,299.77,268.08,307.92,257.78,306.92z M201.24,125.22
		c-0.08-0.13,0.37-0.91,1-1.75c1.22-1.63,1.67-2.57,1.67-3.5c0-0.56,0.3-0.64,6.46-1.91c17.4-3.56,14.91-3.38,56.5-4.12
		c31.71-0.56,48.45-1.19,62.18-2.35c3.74-0.31,4.72,0.14,5.35,2.45c1.03,3.79-1.98,4.38-22.23,4.31
		c-17.22-0.06-14.48,0.15-25.08-1.89c-4.44-0.86-7.53-0.42-9.06,1.28c-0.62,0.68-0.86,0.68-3-0.1c-3.84-1.38-6.54-1.77-12.38-1.76
		c-5.59,0.01-6.28,0.08-18.3,1.86c-2.89,0.43-6.8,0.9-8.7,1.05c-8.25,0.64-16.8,2.27-29.66,5.63
		C201.77,125.52,201.46,125.58,201.24,125.22z"
		/>
</g>
</svg>
