<?xml version="1.0" encoding="utf-8" ?>
<!-- Generator: Adobe Illustrator 26.5.0, SVG Export Plug-In . SVG Version: 6.00 Build 0)  -->
<svg
	version="1.0"
	id="katman_1"
	xmlns="http://www.w3.org/2000/svg"
	xmlns:xlink="http://www.w3.org/1999/xlink"
	x="0px"
	y="0px"
	viewBox="0 0 638 439"
	style="enable-background:new 0 0 638 439;"
	xml:space="preserve"
>
<style type="text/css">
.st0 {
	fill: #2e3192;
}
	</style>
<g>
	<path
			d="M282.89,200.66v-4.1c2.73-0.17,4.95-0.68,7-1.37c2.05-0.68,4.27-1.71,6.83-3.07h3.93V201l1.2-0.94
		c0.39-0.3,0.77-0.59,1.14-0.87l1.08-0.8c0.17-0.13,0.35-0.25,0.52-0.38l0.99-0.7c0.16-0.11,0.32-0.22,0.47-0.33l0.91-0.61
		c0.15-0.1,0.29-0.19,0.43-0.28l0.82-0.52l0,0l0.77-0.47l0,0l0.72-0.41c0.12-0.06,0.23-0.13,0.34-0.19c3.41-1.71,6.83-2.56,9.9-2.56
		c2.22,0,4.27,0.34,6.32,1.2c2.05,0.85,3.76,1.71,4.95,2.9s2.39,2.73,3.24,4.78c3.54-3.05,6.77-5.35,9.7-6.61l0.55-0.22
		c3.24-1.37,6.32-2.05,9.56-2.05c3.07,0,5.8,0.68,8.19,1.88c2.39,1.37,4.1,2.9,5.12,4.78c1.02,1.88,1.54,4.78,1.54,8.54l0,26.57l0,0
		l0.01,0.64l0,0l0.01,0.55l0,0l0.02,0.46l0,0l0.03,0.36c0.02,0.21,0.05,0.36,0.09,0.44c0.17,0.68,0.51,1.37,1.2,1.88
		c0.45,0.6,1.03,0.93,1.74,1.12l0.48,0.11l0,0l0.41,0.08c0.08,0.01,0.16,0.02,0.24,0.04l0.56,0.07l0,0l0.65,0.06l0,0l0.75,0.04
		c0.27,0.01,0.55,0.02,0.85,0.02l2.17,0v4.44h-26.46v-4.44l1.04-0.01c0.33-0.01,0.64-0.01,0.94-0.02l0.85-0.04
		c1.34-0.08,2.3-0.25,2.96-0.52l0.19-0.09c0.85-0.34,1.54-1.02,2.05-2.05c0.38-0.77,0.58-1.92,0.65-3.6l0.03-0.88l0,0l0.01-0.98l0,0
		V208c0-2.9-0.34-4.95-0.85-6.15c-0.51-1.2-1.54-2.05-2.9-2.9c-1.37-0.68-3.07-1.2-5.12-1.2c-2.56,0-5.12,0.68-7.85,2.05
		c-3.76,1.88-6.66,3.93-8.71,6.15v25.27l0.01,0.92l0,0l0.02,0.84l0,0l0.04,0.76l0,0l0.05,0.67l0,0l0.06,0.58l0,0l0.06,0.48l0,0
		l0.07,0.38c0.01,0.05,0.02,0.1,0.03,0.15c0.17,0.68,0.68,1.37,1.2,1.88c0.51,0.51,1.2,0.85,1.88,1.02
		c0.08,0.02,0.18,0.04,0.29,0.06l0.39,0.06l0,0l0.48,0.05l0,0l0.57,0.05l0,0l0.65,0.04l0,0l0.74,0.03l0,0l0.82,0.02
		c0.14,0,0.29,0.01,0.44,0.01l0.93,0.01l0,0v4.44h-26.12v-4.44h1.54c2.05,0,3.59-0.17,4.44-0.68c0.85-0.51,1.54-1.2,2.05-2.22
		c0.25-0.63,0.41-1.71,0.48-3.19l0.03-0.84c0-0.15,0.01-0.3,0.01-0.45l0-23c0-0.72-0.02-1.4-0.05-2.03l-0.06-0.91
		c-0.13-1.6-0.36-2.82-0.66-3.53l-0.08-0.18c-0.51-1.2-1.54-2.22-2.9-2.9c-1.37-0.85-3.07-1.2-5.12-1.2c-2.22,0-4.61,0.51-7,1.71
		c-3.41,1.71-6.66,3.76-9.56,6.49v27.15c0,1.71,0.17,2.73,0.68,3.59c0.51,0.68,1.2,1.37,2.05,1.88c1.02,0.51,2.22,0.68,3.93,0.68
		h1.88v4.44h-26.63v-4.44h1.37c0.32,0,0.63,0,0.92-0.01l0.84-0.03l0,0l0.76-0.05c0.95-0.07,1.68-0.19,2.11-0.36l0.15-0.07
		c1.09-0.47,1.75-1.21,2.25-2.24l0.14-0.32c0.14-0.28,0.22-0.71,0.27-1.3l0.03-0.55l0,0l0.02-0.64l0,0l0.01-0.73l0,0l0-1.73l0,0
		v-30.9H282.89z M384.64,200.66v-4.27c2.66-0.31,5.03-0.77,6.86-1.37l0.48-0.17c1.37-0.46,2.81-1.06,4.38-1.77l1.61-0.74
		c0.28-0.13,0.56-0.26,0.84-0.39h3.93v42.51c0,1.38,0.14,2.35,0.54,3.15l0.14,0.26c0.34,0.68,1.02,1.37,1.71,1.54
		c0.53,0.26,1.56,0.42,2.86,0.48l0.81,0.02c0.14,0,0.28,0,0.43,0h2.56v4.44h-27.15v-4.44h2.22l0.91-0.01
		c1.88-0.04,3.13-0.23,3.87-0.67c0.85-0.34,1.37-1.02,1.71-1.88c0.14-0.35,0.25-0.85,0.33-1.51l0.06-0.61
		c0.01-0.11,0.02-0.22,0.03-0.34l0.04-0.74l0,0l0.03-0.83l0,0l0.01-0.93c0-0.16,0-0.33,0-0.5v-31.24H384.64z M398.13,168.05
		c1.71,0,3.07,0.51,4.27,1.71s1.88,2.56,1.88,4.27c0,1.71-0.68,3.07-1.88,4.27s-2.73,1.88-4.27,1.88c-1.71,0-3.07-0.68-4.27-1.88
		c-1.2-1.2-1.88-2.73-1.88-4.27c0-1.71,0.68-3.07,1.88-4.27C394.89,168.73,396.42,168.05,398.13,168.05z M464.37,229.68l3.41,2.73
		c-6.66,8.88-14.68,13.32-23.9,13.32c-7.17,0-13.32-2.56-18.27-7.68s-7.51-11.61-7.51-19.29c0-5.12,1.2-9.73,3.41-13.83
		c2.22-4.1,5.46-7.17,9.56-9.56c4.1-2.22,8.88-3.41,14.17-3.41c6.15,0,11.1,1.54,15.19,4.44c4.1,2.9,6.15,5.98,6.15,9.05
		c0,1.71-0.51,2.9-1.37,3.76c-0.85,0.85-2.05,1.37-3.24,1.37c-0.68,0-1.2-0.17-1.88-0.51s-1.2-0.85-1.88-1.54
		c-0.13-0.13-0.29-0.36-0.47-0.69l-0.23-0.43l0,0l-0.25-0.52l0,0l-0.43-0.92c-0.05-0.11-0.1-0.23-0.15-0.35l-0.97-1.93l0,0
		l-0.33-0.63l0,0l-0.3-0.54l0,0l-0.27-0.46c-0.13-0.21-0.24-0.39-0.35-0.53c-1.02-1.37-2.39-2.56-4.1-3.41
		c-1.54-0.85-3.41-1.2-5.29-1.2c-3.07,0-5.8,0.85-8.37,2.56c-2.56,1.71-4.61,4.1-6.15,7.34c-1.54,3.24-2.22,7.17-2.22,11.61
		c0,7,1.88,12.46,5.63,16.56c3.24,3.59,7,5.29,11.44,5.29c2.05,0,4.1-0.34,6.15-1.02c2.05-0.68,4.1-1.71,5.98-3.07
		c0.46-0.31,0.98-0.71,1.57-1.21l0.61-0.54c0.11-0.09,0.21-0.19,0.32-0.29l0.68-0.64l0,0l0.73-0.71l0,0l0.77-0.79l0,0l0.82-0.86l0,0
		l0.87-0.94l0,0L464.37,229.68z M473.93,200.66v-4.27c2.56-0.17,4.78-0.68,6.83-1.37s4.27-1.71,6.83-3.24h3.93v10.07
		c2.56-3.07,5.46-5.46,8.71-7.34s6.32-2.73,8.88-2.73s4.61,0.68,6.15,1.88c1.54,1.2,2.22,2.73,2.22,4.44c0,1.2-0.51,2.39-1.54,3.41
		c-1.02,1.02-2.22,1.54-3.59,1.54c-0.57,0-1.02-0.12-1.45-0.26l-0.26-0.08c-0.51-0.17-1.2-0.51-2.05-1.2
		c-1.88-1.2-3.59-1.88-4.95-1.88c-1.71,0-3.76,0.68-5.8,2.22c-2.73,1.88-4.78,3.76-6.32,5.63v24.58c0,0.44,0.01,0.85,0.02,1.24
		l0.04,0.74l0,0l0.05,0.66l0,0l0.06,0.58c0.02,0.18,0.04,0.34,0.07,0.49l0.07,0.39c0.01,0.06,0.02,0.11,0.04,0.16
		c0.17,0.68,0.68,1.37,1.2,1.88c0.51,0.51,1.2,1.02,1.88,1.2l0.25,0.05l0,0l0.57,0.09c0.1,0.01,0.21,0.03,0.32,0.04l0.72,0.07
		c0.64,0.05,1.39,0.09,2.24,0.09h1.71v4.44h-27.32v-4.44h2.22c0.3,0,0.58,0,0.84-0.01l0.75-0.03c1.3-0.07,2.17-0.23,2.67-0.48
		c0.75-0.45,1.36-1.03,1.85-1.85l0.2-0.37c0.44-0.74,0.63-2.12,0.67-4.14l0.01-0.98l0,0v-31.24H473.93z M549.22,191.95
		c5.12,0,9.73,1.02,13.49,3.24c3.76,2.22,6.83,5.29,9.05,9.39c2.22,4.1,3.24,8.88,3.24,14.17s-1.2,10.07-3.41,14.17
		c-2.1,3.88-4.97,7-8.61,9.06l-0.61,0.33c-3.93,2.22-8.54,3.24-13.83,3.24c-8.54,0-15.02-2.73-19.29-8.02
		c-4.27-5.29-6.49-11.61-6.49-18.78c0-5.29,1.2-9.9,3.41-14c2.22-4.1,5.29-7.17,9.39-9.56c3.86-1.93,8.17-3.1,12.79-3.23
		L549.22,191.95z M548.88,197.07c-4.1,0-7.51,1.54-10.24,4.78c-3.59,3.93-5.29,9.73-5.29,17.24c0,7.34,1.54,12.8,4.44,16.56
		c2.73,3.41,6.49,5.12,11.1,5.12c3.07,0,5.63-0.85,8.02-2.39s4.27-4.1,5.63-7.68c1.37-3.41,2.22-7.51,2.22-12.29
		c0-4.61-0.85-8.71-2.39-12.29c-1.2-2.9-3.07-5.12-5.46-6.83c-2.07-1.27-4.59-2.1-7.41-2.21L548.88,197.07z"
		/>
	<path
			class="st0"
			d="M151.09,131C102.44,131,63,170.44,63,219.09s39.44,88.09,88.09,88.09s88.09-39.44,88.09-88.09
		S199.75,131,151.09,131z M192.92,231.04c-0.85,3.41-2.22,6.15-4.1,8.37c-1.71,2.22-3.41,3.59-5.29,4.27s-3.76,1.02-5.8,1.02
		s-3.76-0.34-5.12-1.2c-1.37-0.68-2.39-1.88-3.24-3.24c-0.85-1.37-1.37-3.07-1.71-4.95s-0.51-3.93-0.51-6.15c0-0.85,0-1.71,0.17-2.9
		c0.17-1.2,0.34-2.73,0.51-2.73h-0.34c-2.73,6.83-6.49,11.78-11.27,15.71c-4.78,3.93-10.07,5.8-15.88,5.8
		c-3.93,0-7.17-1.54-9.39-4.44c-2.39-2.9-3.59-7.34-3.59-13.15c0-0.85,0-1.71,0.17-2.73c0.17-0.85,0.17-1.2,0.34-2.9h-1.2
		c-1.54,3.41-2.9,8.19-3.93,12.46c-1.02,4.27-1.88,8.19-2.39,11.78c-0.68,3.59-1.02,6.83-1.37,9.56s-0.51,4.61-0.68,5.63
		c0.17,0.85,0.34,1.71,0.51,2.73c0.34,1.02,0.51,2.05,0.85,2.9c0.34,0.85,0.51,1.88,0.68,2.73c0.17,0.85,0.34,1.54,0.34,2.05
		c0,2.39-0.51,4.27-1.54,5.46c-1.02,1.2-2.22,1.88-3.41,1.88c-1.54,0-2.9-0.51-3.93-1.37c-1.2-1.02-1.71-2.56-1.71-4.61
		c0-2.9,0.51-6.66,1.54-11.1s2.56-10.07,4.44-16.73c1.02-3.07,1.88-6.15,2.9-9.22c1.02-3.07,1.88-5.98,2.73-8.54
		c0.85-2.56,1.54-4.95,2.22-7c0.68-2.05,1.02-3.59,1.2-4.78c0.17-0.51,0.34-1.71,0.51-3.41c0.17-1.71,0.34-3.59,0.68-5.8
		c0.34-2.22,0.51-4.61,0.85-7c0.34-2.56,0.68-4.78,0.85-6.83c0.34-1.54,0.51-3.24,0.85-5.12c0.34-1.88,0.85-3.76,1.54-5.29
		c0.68-1.71,1.71-3.07,2.9-4.27c1.2-1.2,2.73-1.71,4.61-1.71c2.05,0,3.41,0.68,4.1,1.88s1.02,2.73,0.85,4.44
		c-0.17,1.71-0.34,3.59-0.85,5.46c-0.51,1.88-1.02,3.59-1.54,4.95c-1.37,4.27-2.73,8.19-4.27,11.44c-1.54,3.24-2.9,6.83-4.1,10.58
		c-1.02,2.56-1.37,4.95-1.37,7c0,3.76,1.2,6.49,3.41,8.54c2.39,2.05,5.12,2.9,8.37,2.9c2.56,0,5.12-0.85,7.51-2.73
		c2.39-1.88,4.61-4.1,6.66-6.66c2.05-2.56,3.76-5.29,5.12-8.37c1.37-2.9,2.39-5.63,3.07-7.85c0.17-0.34,0.34-1.02,0.51-2.39
		c0.34-1.37,0.51-2.9,0.85-4.61c0.34-1.71,0.68-3.41,1.02-5.29s0.68-3.41,0.85-4.61c0.34-1.37,0.51-2.73,0.85-4.44
		c0.34-1.71,0.85-3.24,1.54-4.78c0.68-1.54,1.71-2.73,2.73-3.76c1.2-1.02,2.56-1.54,4.44-1.54c2.22,0,3.59,0.68,4.44,1.88
		c0.68,1.2,1.02,2.73,1.02,4.44c-0.17,1.71-0.34,3.41-0.85,5.12c-0.51,1.71-0.85,3.07-1.2,4.1c-1.37,4.27-2.73,8.02-4.1,11.44
		c-1.37,3.41-2.56,6.49-3.76,8.88c-1.02,2.56-1.88,4.44-2.56,5.98c-0.68,1.54-1.02,2.56-1.02,3.07c0,4.44,1.02,7.68,2.9,9.56
		c1.88,1.88,3.93,2.9,6.15,2.9c3.76,0,6.66-1.2,8.88-3.41c2.22-2.39,3.93-6.66,4.95-11.78h1.37
		C194.29,223.53,193.77,227.63,192.92,231.04L192.92,231.04z"
		/>
</g>
</svg>
