<?xml version="1.0" encoding="utf-8" ?>
<!-- Generator: Adobe Illustrator 26.0.3, SVG Export Plug-In . SVG Version: 6.00 Build 0)  -->
<svg
	version="1.0"
	id="katman_1"
	xmlns="http://www.w3.org/2000/svg"
	xmlns:xlink="http://www.w3.org/1999/xlink"
	x="0px"
	y="0px"
	viewBox="0 0 600 450"
	style="enable-background:new 0 0 600 450;"
	xml:space="preserve"
>
<style type="text/css">
.st0 {
	fill: #ea555c;
}
	</style>
<path
		class="st0"
		d="M45.3,174.3c4.9-1.1,12.5-1.8,19.4-1.8c18.5,0,29.7,6.1,29.7,21.7c0,9.6-4.1,15.9-10.5,19.3l15.5,25
	c-1.2,0.8-3.8,1.3-7.4,1.3c-4.1,0-6.8-0.5-8.7-1.3l-12.9-21.7h-1.5c-3.1,0-7.3-0.3-9.6-0.7v22.4c-1.3,0.7-3.6,1.2-7,1.2
	c-3.2,0-5.7-0.5-7-1.2L45.3,174.3z M59.2,185v19.4c2.6,0.4,5.3,0.7,8,0.7c8.1,0,13-2.9,13-10.1c0-7.4-5.2-10.5-14.5-10.5
	C63.6,184.5,61.4,184.7,59.2,185L59.2,185z"
	/>
<path
		class="st0"
		d="M117.3,220.8c0.6,6.5,5.2,9.6,14.4,9.6c5.9,0,11.1-1.3,14.5-2.8c0.3,3.5-1.2,8.1-3.3,10.5
	c-3.1,1.8-8.3,3.2-14.7,3.2c-16.2,0-24.9-9.4-24.9-24.4c0-15.5,9.3-25.5,23.8-25.5c13.5,0,19.8,8.3,19.8,20.6c0,3-0.5,5.9-1.4,8.7
	H117.3z M134.3,211c0.7-4.8-1-9.6-7.7-9.6c-5.8,0-9.3,3.7-9.6,9.6H134.3z"
	/>
<path
		class="st0"
		d="M175.6,229.5c0.6-4,1.5-8,2.7-12l7-23.9c1-0.4,2.6-0.8,5.6-0.8c3.8,0,6.4,0.7,8.1,1.9l-14.7,44
	c-4.9,1.4-11.8,1.9-18.4,1.9l-15.2-45.8c1.7-1.1,4.3-1.9,8.2-1.9c2.8,0,4.7,0.5,5.6,0.8l7.5,23.9c1.2,3.9,2.2,7.9,2.9,12
	L175.6,229.5z"
	/>
<path
		class="st0"
		d="M216.2,220.8c0.6,6.5,5.2,9.6,14.4,9.6c5.9,0,11.1-1.3,14.5-2.8c0.3,3.5-1.2,8.1-3.3,10.5
	c-3.1,1.8-8.3,3.2-14.7,3.2c-16.2,0-24.9-9.4-24.9-24.4c0-15.5,9.3-25.5,23.8-25.5c13.5,0,19.8,8.3,19.8,20.6c0,3-0.5,5.9-1.4,8.7
	H216.2z M233.2,211c0.7-4.8-1-9.6-7.7-9.6c-5.8,0-9.3,3.7-9.6,9.6H233.2z"
	/>
<path
		class="st0"
		d="M269.7,238.7c-1.2,0.7-3.4,1.1-6.7,1.1c-3.2,0-5.5-0.5-6.8-1.1v-44.2c2.5-1.4,6.5-2.1,10.9-2.1l0.7,7.6h0.7
	c2.2-4.8,7-8.5,15.4-8.5c7,0,15.4,2.5,15.4,17.8v29.5c-1.2,0.7-3.4,1.1-6.7,1.1s-5.5-0.5-6.8-1.1v-27.1c0-4.8-1.7-7.9-7.1-7.9
	c-4.8,0-7.5,2.4-9.2,5.3L269.7,238.7z"
	/>
<path
		class="st0"
		d="M341.5,233.9c-2,4.2-6.4,7.4-14.6,7.4c-7.2,0-15.4-2.5-15.4-17.9v-28.3c3.1-1.8,7.6-2.8,13.4-2.8v28.8
	c0,5,1.6,7.8,7,7.8c4.4,0,7.2-1.9,8.9-4V194c1.3-0.7,3.5-1.1,6.8-1.1c3.2,0,5.5,0.5,6.7,1.1v44.2c-2.4,1.4-6.2,2.1-10.5,2.1
	l-1.6-6.5H341.5z"
	/>
<path
		class="st0"
		d="M378.4,220.8c0.6,6.5,5.2,9.6,14.4,9.6c5.9,0,11.1-1.3,14.5-2.8c0.3,3.5-1.2,8.1-3.3,10.5
	c-3.1,1.8-8.3,3.2-14.7,3.2c-16.2,0-24.9-9.4-24.9-24.4c0-15.5,9.3-25.5,23.8-25.5c13.5,0,19.8,8.3,19.8,20.6c0,3-0.5,5.9-1.4,8.7
	H378.4z M395.3,211c0.7-4.8-1-9.6-7.7-9.6c-5.8,0-9.3,3.7-9.6,9.6H395.3z"
	/>
<path
		class="st0"
		d="M452.8,183.7c-13.1,0-22.1,6.7-22.1,22.8s8.9,22.5,21.4,22.5c5.3-0.1,10.6-1.1,15.6-3.1
	c0.2,3.4-1.5,9.4-3.7,12.3c-4,1.9-9.7,3.3-16.2,3.3c-19.8,0-31.5-12.8-31.5-34.1c0-23,13.6-36.1,33.7-36.1c5.3,0,10.7,0.9,14.1,3
	c2.1,3.1,3.1,8.5,2.6,12.6C462.2,184.9,458.1,183.7,452.8,183.7z"
	/>
<path
		class="st0"
		d="M500.7,234.7c-2,4.1-6.4,6.7-12.8,6.7c-8.2,0-15.2-4.1-15.2-14.8c0-11.3,8.2-15.7,18.9-15.7
	c2.9,0,5.7,0.4,8.4,1.2v-1.3c0-5.7-2.8-7.7-8.9-7.7c-5.2,0-10.3,1.3-14.8,3.9c-1.1-3.6-0.7-9.4,1.5-12.4c3.3-1.9,9.1-3.1,16-3.1
	c13.4,0,19.8,4.7,19.8,18.5v16c0,2.9,1.3,3.5,3.1,3.5c1.4,0,2.8-0.4,4-1.1c0.4,3.7-0.7,8.3-2.4,10.8c-1.9,1.3-4.5,2.1-7.7,2.1
	c-5.4,0-8.2-2.3-9.1-6.7L500.7,234.7z M500.3,220.9c-2-0.8-4-1.1-6.1-1.1c-5.4,0-8.1,2.2-8.1,5.8c0,3.6,2.7,4.9,6.4,4.9
	c3,0,5.9-0.9,7.8-3.2V220.9z"
	/>
<path
		class="st0"
		d="M541.7,204.7h12.4c0.6-1.1,0.8-3.5,0.8-5.8s-0.3-4.7-0.8-5.8h-12.4v-13.8c-5.2,0.1-10.1,1.3-13.5,3.7v10.1h-5.3
	c-1.2,3-1.9,7.5-1.9,11.6h7.2l-0.2,32.8c0,3.6-0.6,8.2-2.7,9.7c-9.8,7-29.8,3.6-48.2,1.7c-26.4-2.7-49.1-6.3-52.9,8.2
	c-2,7.7,0.6,12.6,3.1,15.4c5.1,5.6,14,6.8,21.1,6.8c3.3,0,6.7-0.3,10-0.8c1.7-0.3,3.2-1.2,4.2-2.6c1-1.4,1.4-3.1,1.1-4.8
	c-0.6-3.5-3.9-6-7.4-5.3c-7.3,1.4-17.6,4.4-21.6,0.1c-1.3-1.5-1.1-5.1,0-6.2c2.9-4.4,21.9-2.7,40.9-0.1c21.1,2.2,42.9,5.3,55.2-0.9
	c4.8-2.4,10.6-8.1,10.6-21.2V204.7z"
	/>
</svg>
