<svg
	xmlns="http://www.w3.org/2000/svg"
	xmlns:xlink="http://www.w3.org/1999/xlink"
	height="800"
	width="1200"
	viewBox="-32.95782 -19 285.63444 114"
><defs><linearGradient
			y2="304.7244"
			x2="223.2284"
			y1="368.5039"
			x1="265.748"
			gradientTransform="translate(51.8041 -114.6523)"
			gradientUnits="userSpaceOnUse"
			id="d"
			xlink:href="#a"
		/><linearGradient id="a"><stop offset="0" /><stop
				offset="1"
				stop-color="#fff"
			/></linearGradient><linearGradient
			y2="393.3071"
			x2="258.6614"
			y1="368.5039"
			x1="258.6614"
			gradientTransform="translate(131.8041 -134.6523)"
			gradientUnits="userSpaceOnUse"
			id="f"
			xlink:href="#b"
		/><linearGradient id="b"><stop offset="0" stop-color="#00c3a1" /><stop
				offset="1"
				stop-color="#006e5a"
			/></linearGradient><linearGradient id="c"><stop
				offset="0"
				stop-color="#fff"
			/><stop
				offset="1"
				stop-color="#fff"
				stop-opacity="0"
			/></linearGradient><radialGradient
			r="23.0315"
			fy="361.4173"
			fx="248.0315"
			cy="361.4173"
			cx="248.0315"
			gradientTransform="matrix(1.53846 0 0 1.38462 -133.5551 -139.0069)"
			gradientUnits="userSpaceOnUse"
			id="g"
			xlink:href="#c"
		/><radialGradient
			r="23.0315"
			fy="361.4173"
			fx="248.0315"
			cy="361.4173"
			cx="248.0315"
			gradientTransform="translate(57.2386 83.404) scale(.76923)"
			gradientUnits="userSpaceOnUse"
			id="h"
			xlink:href="#c"
		/><clipPath id="e" clipPathUnits="userSpaceOnUse"><circle
				transform="translate(131.8041 -134.6523)"
				cx="256.8898"
				cy="370.2756"
				r="23.0315"
				fill="#fff"
			/></clipPath></defs><path
		d="M0 2.0753v72.625h21.75c7.558 0 12.5287-.4451 14.9688-1.3125 2.4399-.8673 4.2115-2.481 5.3125-4.8437.912-1.9058 1.4485-4.6592 1.625-8.2188-2.347-5.6436-2.8324-11.9919-1.25-18.0625-.2816-.6839-.63-1.3001-1-1.8437-1.5474-2.303-4.4682-3.9505-8.8125-4.9375 3.898-.8973 6.5032-2.1689 7.8125-3.8438 1.339-1.6748 2-4.6591 2-8.9062 0-6.2808-.938-10.8136-2.8126-13.625-1.8746-2.8413-4.3414-4.729-7.4062-5.6563-3.0351-.927-7.5161-1.375-13.4375-1.375zm153.9063 0v72.625h18.5625V2.0753zM102.75 7.2316c1.0308.7136 1.8566 1.3643 2.5 1.9687 1.2138 1.1402 1.9183 2.1364 2.0625 3.3438.1442 1.2073-.589 2.2972-1.1875 2.75-.1764.1335-.1815.1035-.3438.1875l-6.6562 11.5v29.2812c0 5.922.1727 9.6975.5 11.3125.3273 1.5852 1.161 2.9939 2.5 4.25 1.339 1.2263 2.8694 2.0161 4.625 2.375 1.7556.329 4.7062.5 8.8125.5h7.2813v-9.5937c-2.9459 0-4.646-.2389-5.0626-.6875-.3868-.4487-.5625-2.6445-.5624-6.5625V26.0128h4.8437v-9.4062h-4.8438v-9.375zm24.2188 0v9.375h-3.875v9.4062h3.875v30.25c0 5.922.1726 9.6975.5 11.3125.3273 1.5852 1.161 2.9939 2.5 4.25 1.339 1.2263 2.9006 2.0161 4.6562 2.375 1.7556.329 4.675.5 8.7813.5h7.2812v-9.5937c-2.9459 0-4.646-.2389-5.0625-.6875-.3869-.4487-.5625-2.6445-.5625-6.5625V26.0128h4.875v-9.4062h-4.875v-9.375zm71.3437 6.8437c-4.136 0-7.8162.8225-11 2.4375-3.1839 1.5852-5.4452 3.8855-6.8438 6.9063-1.3985 2.9909-2.125 7.0771-2.125 12.2812v17.375c0 4.4265.3127 7.7921.9375 10.125.625 2.303 1.7682 4.431 3.375 6.375 1.6366 1.9142 3.8965 3.4246 6.8125 4.5313 2.9161 1.1066 6.285 1.6562 10.0938 1.6562 3.9277 0 7.1925-.5496 9.7813-1.6562 2.6184-1.1366 4.7726-2.8194 6.4687-5.0625 1.696-2.2432 2.7724-4.3385 3.2188-6.3125.476-1.974.6874-4.8212.6875-8.5v-4.4063H202.625v7.875c0 2.961-.2114 4.9532-.6875 6-.4464 1.017-1.3813 1.5313-2.75 1.5313-1.101 0-1.832-.3786-2.2188-1.1563-.3868-.7776-.5937-2.527-.5937-5.2187v-12.875h23.3438v-7.9063c-.0001-5.7723-.661-10.2359-2-13.4062-1.3093-3.2002-3.6034-5.742-6.9063-7.6563-3.2732-1.944-7.4416-2.9374-12.5-2.9375zm-179.5312.4063c1.934.03 3.2516.167 3.9062.4062.6844.2393 1.2084.823 1.625 1.75.4166.8973.625 2.477.625 4.75 0 4.307-.2442 6.9479-.75 7.875-.5059.8973-1.6864 1.3438-3.5312 1.3438-.4464 0-1.0717.001-1.875.0312V14.4815zm180.375 10.1562c1.0116 0 1.6726.4466 2 1.3438.3272.8973.5 2.8882.5 5.9687v4.3438h-5.2813v-4.3438c0-3.3497.1712-5.4085.4688-6.1562.2975-.7776 1.0627-1.1562 2.3125-1.1563zM18.7813 41.9503c2.797.0898 4.5328.467 5.1875 1.125.6546.658.9687 2.5458.9687 5.6563v6.75c0 2.931-.3499 4.7835-1.0937 5.5312-.7142.7477-2.4143 1.1603-5.0625 1.25z"
		style="line-height:125%;-inkscape-font-specification:'Bitstream Vera Sans';text-align:start"
	/><path
		d="M331.3082 209.3582c-10.74-6.2008-9.4245-1.3638-9.4245-1.3638l-12.1563 21.0553c-9.534-.3605-18.953 4.4527-24.0523 13.2849-7.3347 12.704-2.9544 28.966 9.7496 36.3007 12.704 7.3346 28.9504 2.9814 36.285-9.7226 5.0993-8.8322 4.5581-19.3959-.5211-27.4724l12.1563-21.0552s4.8468-1.2793-5.8933-7.48z"
		fill="url(#d)"
		transform="translate(-238.8798 -206.1981)"
	/><path
		d="M72.018 24.837c-15.3692-1.7334-29.5453 13.377-26.4375 28.5627 1.9872 15.5486 20.549 25.3838 34.5313 18.3437 13.6087-5.7842 18.6987-24.5965 9.8437-36.4687 4.1668-7.6279 9.6103-15.6226 12.9688-23.0938-5.3907-4.1046-11.4246-7.811-17.75-10.0937 0 0-8.9406 15.3926-13.1563 22.75z"
		fill="#fff"
	/><g transform="translate(-318.8798 -186.1981)"><path
			clip-path="url(#e)"
			d="M390.4688 227.8438c-12.546 0-16.8156 4.5913-24.0313 1.8437-7.2157-2.7476-5.912-2.2008-8.192-3.1696v33.567h61.5937v-26.067s-3.1328 1.4944-8.2141-.2054c-5.0814-1.6998-10.8886-5.9687-21.1563-5.9687z"
			fill="url(#f)"
		/><circle
			transform="rotate(47.687 432.4287 469.5835)"
			cx="226.7716"
			cy="325.9842"
			r="3.5433"
			fill="#00c3a1"
		/><circle
			transform="rotate(47.687 421.4764 460.6804)"
			cx="235.6299"
			cy="320.6693"
			r="1.7717"
			fill="#00c3a1"
		/><circle
			transform="rotate(47.687 409.2627 448.932)"
			cx="232.0866"
			cy="313.5826"
			r="5.315"
			fill="#00c3a1"
		/><circle
			transform="rotate(47.687 446.459 452.663)"
			cx="235.6299"
			cy="334.8425"
			r="1.7717"
			fill="#00c3a1"
		/><circle
			transform="rotate(47.687 411.5442 451.3127)"
			cx="226.7716"
			cy="325.9842"
			r="3.5433"
			fill="#00c3a1"
		/></g><g
		transform="translate(-187.0757 -320.7402)"
		opacity=".75"
	><circle cx="256.8898" cy="370.2756" r="23.0315" fill="url(#g)" /><circle
			cx="256.8898"
			cy="370.2756"
			r="23.0315"
			fill="url(#h)"
		/></g></svg>
