<svg
	xmlns="http://www.w3.org/2000/svg"
	width="457"
	zoomAndPan="magnify"
	viewBox="0 0 342.75 215.999996"
	height="288"
	preserveAspectRatio="xMidYMid meet"
	version="1.0"
>
    <defs>
        <clipPath id="6afc184563">
            <path
				d="M 3.109375 27 L 309 27 L 309 178 L 3.109375 178 Z M 3.109375 27 "
				clip-rule="nonzero"
			/>
        </clipPath>
        <clipPath id="9173fe4773">
            <path
				d="M 126 1.441406 L 339.859375 1.441406 L 339.859375 214.441406 L 126 214.441406 Z M 126 1.441406 "
				clip-rule="nonzero"
			/>
        </clipPath>
    </defs>
    <g clip-path="url(#6afc184563)">
        <path
			fill="#edb641"
			d="M 132.210938 159.640625 C 145.8125 153.441406 157.628906 146.613281 167.308594 140.289062 C 185.816406 128.195312 209.476562 105.710938 210.773438 103.914062 L 202.101562 98.132812 L 194.59375 93.121094 L 218.363281 92.191406 L 226.003906 91.894531 L 228.078125 84.554688 L 234.542969 61.699219 L 242.769531 83.980469 L 245.414062 91.136719 L 253.054688 90.839844 L 276.824219 89.910156 L 258.140625 104.609375 L 252.136719 109.328125 L 254.78125 116.488281 L 263.011719 138.765625 L 243.230469 125.570312 L 236.878906 121.332031 L 230.875 126.050781 L 212.191406 140.75 L 215.398438 129.390625 L 218.648438 117.898438 L 219.050781 116.472656 C 196.304688 133.464844 164.488281 149.839844 145.460938 155.894531 C 141.097656 157.28125 136.679688 158.53125 132.210938 159.640625 Z M 87.472656 177.039062 C 121.191406 175.722656 161.355469 167.171875 200.886719 142.0625 L 193.269531 168.996094 L 237.386719 134.300781 L 284.082031 165.453125 L 264.652344 112.855469 L 308.769531 78.15625 L 252.644531 80.347656 L 233.210938 27.75 L 217.953125 81.699219 L 161.828125 83.890625 L 194.320312 105.566406 C 172.9375 124.980469 119.289062 166.378906 48.226562 169.15625 C 33.859375 169.71875 18.773438 168.695312 3.109375 165.597656 C 3.109375 165.597656 38.476562 178.953125 87.472656 177.039062 "
			fill-opacity="1"
			fill-rule="nonzero"
		/>
    </g>
    <g clip-path="url(#9173fe4773)">
        <path
			fill="#edb641"
			d="M 233.347656 1.632812 C 174.519531 1.632812 126.832031 49.230469 126.832031 107.941406 C 126.832031 119.058594 128.546875 129.773438 131.71875 139.847656 C 136.351562 137.546875 140.777344 135.160156 144.988281 132.738281 C 142.769531 124.851562 141.582031 116.535156 141.582031 107.941406 C 141.582031 57.359375 182.664062 16.351562 233.347656 16.351562 C 284.027344 16.351562 325.109375 57.359375 325.109375 107.941406 C 325.109375 158.523438 284.027344 199.527344 233.347656 199.527344 C 205.859375 199.527344 181.199219 187.464844 164.382812 168.355469 C 159.492188 170.257812 154.542969 171.984375 149.53125 173.546875 C 169.03125 198.328125 199.324219 214.246094 233.347656 214.246094 C 292.171875 214.246094 339.859375 166.652344 339.859375 107.941406 C 339.859375 49.230469 292.171875 1.632812 233.347656 1.632812 "
			fill-opacity="1"
			fill-rule="nonzero"
		/>
    </g>
    <path
		fill="#edb641"
		d="M 77.96875 93.742188 L 83.84375 111.800781 L 102.867188 111.800781 L 87.476562 122.957031 L 93.355469 141.015625 L 77.96875 129.855469 L 62.578125 141.015625 L 68.457031 122.957031 L 53.066406 111.800781 L 72.089844 111.800781 L 77.96875 93.742188 "
		fill-opacity="1"
		fill-rule="nonzero"
	/>
    <path
		fill="#edb641"
		d="M 105.339844 34.226562 L 110.410156 49.8125 L 126.832031 49.8125 L 113.550781 59.445312 L 118.621094 75.03125 L 105.339844 65.398438 L 92.054688 75.03125 L 97.128906 59.445312 L 83.84375 49.8125 L 100.265625 49.8125 L 105.339844 34.226562 "
		fill-opacity="1"
		fill-rule="nonzero"
	/>
    <path
		fill="#edb641"
		d="M 21.503906 129.109375 L 24.464844 138.203125 L 34.046875 138.203125 L 26.296875 143.824219 L 29.253906 152.917969 L 21.503906 147.296875 L 13.753906 152.917969 L 16.710938 143.824219 L 8.960938 138.203125 L 18.542969 138.203125 L 21.503906 129.109375 "
		fill-opacity="1"
		fill-rule="nonzero"
	/>
</svg>
