<?xml version="1.0" encoding="UTF-8" standalone="no" ?>
<!-- Created with Inkscape (http://www.inkscape.org/) -->
<svg
	xmlns:svg="http://www.w3.org/2000/svg"
	xmlns="http://www.w3.org/2000/svg"
	width="102.73196mm"
	height="102.73196mm"
	viewBox="0 0 102.73196 102.73196"
	version="1.1"
	id="svg911"
>
  <defs id="defs905" />
  <g id="layer1" transform="translate(468.65168,-120.90189)">
    <circle
			style="opacity:0.98999999;fill:#ff0d68;fill-opacity:1;stroke:none;stroke-width:12.51817608;stroke-linecap:round;stroke-linejoin:bevel;stroke-miterlimit:4;stroke-dasharray:none;stroke-opacity:1"
			id="path881"
			cx="-417.28571"
			cy="172.26787"
			r="46.365978"
		/>
    <g
			id="g888"
			transform="matrix(2.6284884,0,0,2.6284884,-523.01776,-339.95668)"
			style="fill:#ffffff;fill-opacity:0.94117647"
		>
      <path
				id="path4920-1-3"
				d="m 34.877636,202.62591 c 0.143485,-0.0787 0.268457,-0.18705 0.369534,-0.31493 0.101047,-0.1279 0.178521,-0.27525 0.225911,-0.43403 0.04709,-0.15877 0.06424,-0.32872 0.04632,-0.50009 -0.02266,-0.16028 -0.07411,-0.31045 -0.14915,-0.4451 -0.07503,-0.13466 -0.173689,-0.2538 -0.290806,-0.35133 -0.310489,-0.24818 -0.505897,-0.19079 -1.525204,-0.21167 -1.057919,0 -1.116963,0.0601 -2.174864,0.0601 -0.598822,0 -1.157487,0.49909 -1.177439,1.09791 -0.01999,0.63872 0.519098,1.14856 1.137878,1.14856 1.09783,0 1.156736,0.0495 2.234598,0.0495 0.455054,-0.0187 1.009684,0.0344 1.303253,-0.0989 z"
				style="font-style:normal;font-variant:normal;font-weight:normal;font-stretch:normal;font-size:medium;line-height:47.20414734px;font-family:'Navy Queen';-inkscape-font-specification:'Navy Queen, Normal';font-variant-ligatures:normal;font-variant-caps:normal;font-variant-numeric:normal;font-feature-settings:normal;text-align:start;letter-spacing:0px;word-spacing:0px;writing-mode:lr-tb;text-anchor:start;fill:#ffffff;fill-opacity:0.94117647;stroke:none;stroke-width:0.49901298px;stroke-linecap:butt;stroke-linejoin:miter;stroke-opacity:1"
			/>
      <path
				id="path4925-7-6"
				d="m 44.57212,194.006 c -0.151408,0.0853 -0.287115,0.20165 -0.398809,0.33827 -0.111705,0.13663 -0.199369,0.29362 -0.254791,0.45895 -0.05482,0.16533 -0.07862,0.339 -0.06094,0.51038 0.01683,0.16065 0.07066,0.30327 0.152321,0.42532 0.293296,0.39946 0.833898,0.31758 1.640348,0.29673 0.618773,0 1.097912,0.3195 1.497115,0.73867 0.41919,0.39921 0.698709,0.87795 0.698709,1.49673 0,0.63873 -0.139639,1.25796 -0.538863,1.67713 -0.399204,0.39922 -1.038188,0.67814 -1.656961,0.67814 -1.117788,0 -1.117796,-0.0597 -2.21561,-0.0597 -1.097839,0 -1.097431,-0.0396 -2.215222,-0.0396 -1.097835,0 -1.098216,-0.0997 -2.216004,-0.0997 -0.590746,0.009 -1.13197,-0.0726 -1.636782,0.14042 -0.151399,0.0853 -0.287115,0.20165 -0.398811,0.33827 -0.111702,0.13663 -0.199359,0.29362 -0.254791,0.45895 -0.05481,0.16533 -0.07862,0.339 -0.06094,0.51039 0.140245,1.10235 1.067136,0.8665 2.351307,0.90721 1.11779,0 1.118171,-0.0597 2.21601,-0.0597 1.097835,0 1.09743,0.0396 2.215218,0.0396 1.097815,0 1.097823,-0.0997 2.215611,-0.0997 0.798425,0 1.516951,-0.21936 2.175644,-0.59861 0.678659,-0.39921 1.237584,-0.89839 1.636787,-1.57704 0.379249,-0.6587 0.758844,-1.39763 0.758844,-2.21601 0,-0.79842 -0.439336,-1.51674 -0.818587,-2.15547 -0.379256,-0.6786 -0.798287,-1.41698 -1.476938,-1.79623 -0.658718,-0.37925 -1.477325,-0.3996 -2.27575,-0.3996 -0.484707,0.001 -0.806588,-0.051 -1.078138,0.0863 z"
				style="font-style:normal;font-variant:normal;font-weight:normal;font-stretch:normal;font-size:medium;line-height:47.20414734px;font-family:'Navy Queen';-inkscape-font-specification:'Navy Queen, Normal';font-variant-ligatures:normal;font-variant-caps:normal;font-variant-numeric:normal;font-feature-settings:normal;text-align:start;letter-spacing:0px;word-spacing:0px;writing-mode:lr-tb;text-anchor:start;fill:#ffffff;fill-opacity:0.94117647;stroke:none;stroke-width:0.49901298px;stroke-linecap:butt;stroke-linejoin:miter;stroke-opacity:1"
			/>
      <path
				id="path5003-7"
				d="m 48.395931,189.26302 c 0.234207,0.005 0.100545,-0.008 0.814935,-0.008 0.598813,0 1.038366,-0.4192 1.058334,-1.01803 0.02,-0.63871 -0.399439,-1.25728 -1.038178,-1.25728 -0.382055,-0.0287 -0.916548,-0.0117 -1.123592,0.0392 -0.333693,0.0588 -0.507064,0.1559 -0.706319,0.47597 -0.09072,0.1731 -0.15032,0.32349 -0.19994,0.48221 -0.04914,0.15873 -0.07114,0.32588 -0.05529,0.49041 0.01508,0.15423 0.06328,0.29055 0.136424,0.40773 0.245817,0.39866 0.644351,0.39476 1.113629,0.38757 z"
				style="font-style:normal;font-variant:normal;font-weight:normal;font-stretch:normal;font-size:medium;line-height:47.20414734px;font-family:'Navy Queen';-inkscape-font-specification:'Navy Queen, Normal';font-variant-ligatures:normal;font-variant-caps:normal;font-variant-numeric:normal;font-feature-settings:normal;text-align:start;letter-spacing:0px;word-spacing:0px;writing-mode:lr-tb;text-anchor:start;fill:#ffffff;fill-opacity:0.94117647;stroke:none;stroke-width:0.49901298px;stroke-linecap:butt;stroke-linejoin:miter;stroke-opacity:1"
			/>
      <path
				id="path5001-5"
				d="m 45.071069,187.03422 c -0.505759,0.0227 -0.825776,0.0589 -1.636594,0.0589 -1.097836,0 -1.097063,-0.0997 -2.214851,-0.0997 -1.001408,0 -1.16546,0.0461 -2.021583,0.0548 -1.116793,0.008 -1.330579,0.50913 -1.304311,1.50223 0.01685,0.16065 0.07078,0.30324 0.152445,0.4253 0.08167,0.12205 0.191344,0.22377 0.319876,0.30437 0.200416,0.0894 0.343799,0.0529 0.605649,0.0693 0.0154,-2e-5 0.01574,-5.2e-4 0.03152,-5.2e-4 h 2.215886 c 1.097835,0 1.097579,-0.0801 2.215366,-0.0801 0.682805,0 1.011685,0.007 1.378212,0.0124 0.193284,-0.0122 0.423635,-0.0194 0.566373,-0.0382 h 5.29e-4 c 0.05824,-0.021 0.124251,-0.0236 0.177252,-0.0548 0.12849,-0.0756 0.240178,-0.17953 0.330729,-0.3023 0.09049,-0.12278 0.159573,-0.2646 0.202055,-0.41703 0.04231,-0.15243 0.05785,-0.31555 0.04186,-0.48008 -0.02027,-0.15387 -0.06609,-0.29806 -0.133324,-0.42736 -0.06724,-0.1293 -0.156088,-0.2438 -0.260967,-0.33745 -0.106751,-0.0986 -0.228846,-0.14423 -0.350366,-0.16639 -0.110987,-0.0202 -0.218683,-0.0197 -0.315743,-0.0232 z"
				style="font-style:normal;font-variant:normal;font-weight:normal;font-stretch:normal;font-size:medium;line-height:47.20414734px;font-family:'Navy Queen';-inkscape-font-specification:'Navy Queen, Normal';font-variant-ligatures:normal;font-variant-caps:normal;font-variant-numeric:normal;font-feature-settings:normal;text-align:start;letter-spacing:0px;word-spacing:0px;writing-mode:lr-tb;text-anchor:start;fill:#ffffff;fill-opacity:0.94117647;stroke:none;stroke-width:0.49901298px;stroke-linecap:butt;stroke-linejoin:miter;stroke-opacity:1"
			/>
      <path
				id="path4928-1-3"
				d="m 35.6713,187.06481 c -0.426312,0.004 -0.544622,0.0487 -1.079315,0.0487 -0.818387,0 -1.516983,0.27932 -2.175653,0.67853 -0.67866,0.37924 -1.337048,0.83864 -1.716305,1.51729 -0.379249,0.6587 -0.519089,1.4368 -0.519089,2.25518 0,0.79842 0.119666,1.59687 0.498908,2.25557 0.399233,0.67865 1.038448,1.15765 1.7171,1.55686 0.658708,0.37925 1.376652,0.53887 2.195039,0.53887 1.097805,0 1.098211,0.17962 2.216008,0.17962 1.097836,0 1.097606,-0.17962 2.195428,-0.17962 1.11778,0 1.118172,0.21998 2.216007,0.21998 1.226966,-0.0133 1.241613,-0.16378 1.459156,-0.82057 0.04708,-0.15877 0.06424,-0.32872 0.04632,-0.50009 -0.02265,-0.16028 -0.07373,-0.31045 -0.148756,-0.4451 -0.07503,-0.13466 -0.174088,-0.2538 -0.291198,-0.35134 -0.31528,-0.26223 -0.706459,-0.12206 -1.065864,-0.1183 -1.097835,0 -1.097827,-0.1998 -2.215618,-0.1998 -1.097812,0 -1.097981,0.0202 -2.195824,0.0202 -1.117782,0 -1.117805,0.15945 -2.215611,0.15945 -0.618805,0 -1.217626,-0.27972 -1.636779,-0.67893 -0.399236,-0.41917 -0.578436,-1.018 -0.578436,-1.63678 0,-0.61877 0.279336,-1.11751 0.678531,-1.53669 0.419183,-0.39921 0.917877,-0.77823 1.536682,-0.77823 0.923297,0.002 1.379437,0.18694 1.896722,-0.2635 0.101047,-0.12789 0.178519,-0.27524 0.225919,-0.43402 0.04709,-0.15878 0.06424,-0.32872 0.04632,-0.5001 -0.04793,-0.33313 -0.225482,-0.58212 -0.439964,-0.79643 -0.200546,-0.15965 -0.273976,-0.16961 -0.649642,-0.1907 z"
				style="font-style:normal;font-variant:normal;font-weight:normal;font-stretch:normal;font-size:medium;line-height:47.20414734px;font-family:'Navy Queen';-inkscape-font-specification:'Navy Queen, Normal';font-variant-ligatures:normal;font-variant-caps:normal;font-variant-numeric:normal;font-feature-settings:normal;text-align:start;letter-spacing:0px;word-spacing:0px;writing-mode:lr-tb;text-anchor:start;fill:#ffffff;fill-opacity:0.94117647;stroke:none;stroke-width:0.49901298px;stroke-linecap:butt;stroke-linejoin:miter;stroke-opacity:1"
			/>
    </g>
  </g>
</svg>
