<?xml version="1.0" encoding="utf-8" ?>
<!-- Generator: Adobe Illustrator 25.0.0, SVG Export Plug-In . SVG Version: 6.00 Build 0)  -->
<svg
	version="1.1"
	id="Layer_1"
	xmlns="http://www.w3.org/2000/svg"
	xmlns:xlink="http://www.w3.org/1999/xlink"
	x="0px"
	y="0px"
	viewBox="0 0 500 500"
	style="enable-background:new 0 0 500 500;"
	xml:space="preserve"
>
<style type="text/css">
.st0 {
	fill: #ffc24a;
}
.st1 {
	fill: #f4bd62;
}
.st2 {
	fill: #f6820c;
}
.st3 {
	fill: #fde068;
}
.st4 {
	fill: #fcca3f;
}
.st5 {
	fill: #eeab37;
}
.st6 {
	fill-rule: evenodd;
	clip-rule: evenodd;
	fill: #757575;
}
.st7 {
	fill-rule: evenodd;
	clip-rule: evenodd;
	fill: #ffffff;
}
	</style>
<g>
	<path
			class="st0"
			d="M94.7,362.1l2.2-3.1l104.5-198.3l0.2-2.1L155.5,72c-3.9-7.3-14.7-5.4-16,2.7L94.7,362.1z"
		/>
	<path
			class="st1"
			d="M235.2,224.1l34.3-35.1l-34.3-65.5c-3.3-6.2-12.4-6.2-15.6,0l-18.3,35v3L235.2,224.1z"
		/>
	<polygon
			class="st2"
			points="94.7,362.1 95.7,361.1 99.3,359.6 233.1,226.4 234.7,221.8 201.4,158.2 	"
		/>
	<path
			class="st3"
			d="M239.5,429.3l121-67.5l-34.6-212.9c-1.1-6.7-9.3-9.3-14-4.5L94.7,362.1l120.4,67.2
		C222.6,433.6,231.9,433.6,239.5,429.3"
		/>
	<path
			class="st4"
			d="M359.5,361.2L325.2,150c-1.1-6.6-7.9-9.3-12.6-4.6L96,361.7l119,66.5c7.5,4.2,16.7,4.2,24.3,0L359.5,361.2z"
		/>
	<path
			class="st5"
			d="M239.5,427.3c-7.6,4.2-16.9,4.2-24.5,0L95.6,361.1l-1,1L215,429.3c7.6,4.2,16.9,4.2,24.5,0l121-67.5l-0.3-1.8
		L239.5,427.3z"
		/>
	
		<ellipse
			transform="matrix(0.1598 -0.9872 0.9872 0.1598 -68.6506 614.5333)"
			class="st6"
			cx="326.7"
			cy="347.6"
			rx="78.7"
			ry="78.7"
		/>
	<path
			class="st7"
			d="M298,311.7c-3.9,0-7.1,3.2-7.1,7.1v28.9c0,3.9,3.2,7.1,7.1,7.1h57.8c3.9,0,7.1-3.2,7.1-7.1v-28.9
		c0-3.9-3.2-7.1-7.1-7.1H298z M299.5,319.6h54.7c0.4,0,0.7,0.3,0.7,0.7v10.4c0,0.4-0.3,0.7-0.7,0.7h-54.7c-0.4,0-0.7-0.3-0.7-0.7
		v-10.4C298.8,320,299.1,319.6,299.5,319.6z M299.7,340.4h5.9c0.3,0,0.6,0.3,0.6,0.6v5.2c0,0.3-0.3,0.6-0.6,0.6h-5.9
		c-0.3,0-0.6-0.3-0.6-0.6V341C299.1,340.6,299.3,340.4,299.7,340.4z M290.5,360.8v15.6c0,3.9,3.2,7.1,7.1,7.1h57.8
		c3.9,0,7.1-3.2,7.1-7.1v-15.6H290.5z M299.3,369.1h5.9c0.3,0,0.6,0.3,0.6,0.6v5.2c0,0.3-0.3,0.6-0.6,0.6h-5.9
		c-0.3,0-0.6-0.3-0.6-0.6v-5.2C298.7,369.4,299,369.1,299.3,369.1z"
		/>
</g>
</svg>
