<svg
	version="1.1"
	id="Layer_1"
	xmlns="http://www.w3.org/2000/svg"
	xmlns:xlink="http://www.w3.org/1999/xlink"
	x="0px"
	y="0px"
	viewBox="0 0 55 55"
	style="enable-background:new 0 0 55 55;"
	xml:space="preserve"
>
 <style type="text/css">
.st0 {
	fill: #1551c3;
}
	</style>
 <path
		class="st0"
		d="M17,13c2.2,0,4,1.8,4,4s-1.8,4-4,4s-4-1.8-4-4S14.8,13,17,13z M38,13c2.2,0,4,1.8,4,4s-1.8,4-4,4
	c-2.2,0-4-1.8-4-4S35.8,13,38,13z M49.2,0H5.8C2.6,0,0,2.6,0,5.8v43.4C0,52.4,2.6,55,5.8,55h43.4c3.2,0,5.8-2.6,5.8-5.8V5.8
	C55,2.6,52.4,0,49.2,0z M32.2,43.9l-1,2.4c-0.1,0.1-0.3,0.3-0.4,0.2L24,44.1c-0.2-0.1-0.3-0.3-0.2-0.4c0.1-0.1,0.2-0.2,0.4-0.2h7.7
	C32.1,43.5,32.3,43.6,32.2,43.9C32.3,43.9,32.2,43.9,32.2,43.9z M52.1,29.8c-8.2,4.8-16.4,7.2-24.6,7.2s-16.4-2.4-24.6-7.2v-24
	c0-1.6,1.3-2.9,2.9-2.9h43.4c1.6,0,2.9,1.3,2.9,2.9V29.8z"
	>
 </path>
</svg>
