<svg
	version="1.2"
	xmlns="http://www.w3.org/2000/svg"
	viewBox="0 0 1486 1580"
	width="1486"
	height="1580"
>
	<title>logo_nortonlifelock_brand_179x34-svg</title>
	<style>
		.s0 { fill: #f3b53b } 
		.s1 { fill: #0a0b09 } 
	</style>
	<g id="Layer">
		<path
			id="Layer"
			fill-rule="evenodd"
			class="s0"
			d="m685.4 1579.5c-379 0-685.4-305.7-685.4-683.9 0-378.2 306.4-683.9 685.4-683.9 379 0 685.4 305.7 685.4 683.9 0 378.2-306.4 683.9-685.4 683.9zm468.6-683.9c0-124.8-48.7-242.2-137.1-330.6-88.7-88.3-206.5-137-331.5-137-125 0-242.7 48.7-331.3 137-88.5 88.4-137.3 205.8-137.3 330.6 0 124.8 48.8 242.2 137.3 330.7 88.6 88.2 206.3 136.8 331.3 136.8 125.1 0 242.8-48.6 331.5-137 88.4-88.3 137.1-205.7 137.1-330.5zm278-789.1h53.5v53.2h-53.5zm0-106.3h53.5v53.4h-53.5zm-150.3 159.1h50v52.1h-50z"
		/>
		<path
			id="Layer"
			fill-rule="evenodd"
			class="s1"
			d="m1233.1 261.6v49.7h-50.3v-49.7h-50.1v-47.7h50.1v47.7zm98.6 0h55.9v-50.2h-55.9zm-50 49.8h50v-49.8h-50zm97.6-204.9h52.8v-52.9h-52.8zm-97.6 52.9h97.6v-52.9h-97.6zm-48.6 102.3h48.6v-102.3h-48.6zm0 100h-50.3v-50.2h-83.6v36.2h-44.7v44.6h50v49.6h-50v-49.6h-53.1v77.9h-50.3v49.8h-33.3v49.9h-36.6c-41.2 61.1-144.4 251.5-175.6 329.1-112.4-156.1-199.7-218-268.4-240.4-37.2-11.1-81.8 29.1-20.2 92.6 141.4 155.1 186 283.7 229 386.2 22.8 54 124.7 62.5 145.3 7.5 43.4-116.4 106.6-247.2 181.3-354.5v-55.7h39.9v-50.1h42v-58.2h50.2v-56h-50.7v-51h50.7v51h49.5l-0.1-50.5h39.8v-60.8h44.7v-42h43.1v-105.6h-48.6c0 0 0 50.2 0 50.2z"
		/>
	</g>
</svg>
