<svg
	id="Layer_1"
	data-name="Layer 1"
	xmlns="http://www.w3.org/2000/svg"
	viewBox="0 0 222.02 62.65"
	width="222.02"
	height="62.65"
><path
		d="M60.82,53l-.6-1.9h-2.9l-.6,1.9h-1.8l2.8-7.9h2l2.8,7.9Zm-1-3.3c-.5-1.7-.8-2.7-.9-2.9a1.09,1.09,0,0,1-.1-.5c-.1.5-.5,1.6-1,3.4Z"
		style="fill:#244280"
	/><path
		d="M70.42,50.75a2.14,2.14,0,0,1-.8,1.7,3.28,3.28,0,0,1-2.1.6,5.09,5.09,0,0,1-2.2-.5v-1.5c.5.2,1,.4,1.3.5a3.75,3.75,0,0,0,1,.1,1.55,1.55,0,0,0,.8-.2.6.6,0,0,0,.3-.6c0-.2,0-.3-.1-.4a1.38,1.38,0,0,0-.4-.3,8.92,8.92,0,0,0-1-.5,3,3,0,0,1-1.1-.7,3.74,3.74,0,0,1-.6-.7,3,3,0,0,1-.2-1,1.86,1.86,0,0,1,.7-1.6,3,3,0,0,1,2-.6,4.87,4.87,0,0,1,1.2.1,5.64,5.64,0,0,1,1.2.4l-.5,1.3c-.4-.2-.8-.3-1-.4a2.2,2.2,0,0,0-.8-.1,1.17,1.17,0,0,0-.7.2.85.85,0,0,0-.3.6.6.6,0,0,0,.1.4l.3.3a7.37,7.37,0,0,0,1.1.6,4.84,4.84,0,0,1,1.5,1.1A1.68,1.68,0,0,1,70.42,50.75Z"
		style="fill:#244280"
	/><path
		d="M78.62,49a4,4,0,0,1-1,3,3.56,3.56,0,0,1-2.8,1A3.71,3.71,0,0,1,72,52a4.5,4.5,0,0,1-1-3,4,4,0,0,1,1-3,3.56,3.56,0,0,1,2.8-1,3.71,3.71,0,0,1,2.8,1A4,4,0,0,1,78.62,49Zm-5.7,0a3.68,3.68,0,0,0,.5,2,1.58,1.58,0,0,0,1.5.7c1.3,0,2-.9,2-2.6s-.7-2.7-2-2.7a1.58,1.58,0,0,0-1.5.7A3.31,3.31,0,0,0,72.92,49Z"
		style="fill:#244280"
	/><path
		d="M81.62,53H80v-7.9h4.5v1.4h-2.9v2h2.7v1.4h-2.7Z"
		style="fill:#244280"
	/><path
		d="M88.72,53H87v-6.5h-2.1v-1.4h5.9v1.4h-2.1Z"
		style="fill:#244280"
	/><path
		d="M99.32,53h-1.9l-1.1-4.1a8.14,8.14,0,0,0-.2-.9c-.1-.5-.1-.8-.2-.9a5.07,5.07,0,0,1-.2.9,5.07,5.07,0,0,0-.2.9L94.42,53h-1.9l-2-7.9h1.6l1,4.3c.2.8.3,1.5.4,2.1,0-.2.1-.5.1-.9a8.66,8.66,0,0,1,.2-1l1.1-4.4h1.6l1.1,4.4a6.37,6.37,0,0,1,.2.9,8.66,8.66,0,0,0,.2,1,4.4,4.4,0,0,1,.2-1,5.76,5.76,0,0,0,.2-1l1-4.3H101Z"
		style="fill:#244280"
	/><path
		d="M106.82,53l-.6-1.9h-2.9l-.6,1.9h-1.8l2.8-7.9h2l2.8,7.9Zm-1-3.3c-.5-1.7-.8-2.7-.9-2.9a1.09,1.09,0,0,1-.1-.5c-.1.5-.5,1.6-1,3.4Z"
		style="fill:#244280"
	/><path
		d="M110.92,50v3h-1.7v-7.9h2.3a3.84,3.84,0,0,1,2.4.6,2.2,2.2,0,0,1,.8,1.8,1.59,1.59,0,0,1-.4,1.2,2.26,2.26,0,0,1-1.1.8c1.2,1.8,2,2.9,2.3,3.4h-1.8l-1.9-3h-.9Zm0-1.4h.5a2.13,2.13,0,0,0,1.2-.3,1.23,1.23,0,0,0,.4-.8.81.81,0,0,0-.4-.8,2.17,2.17,0,0,0-1.2-.2h-.5Z"
		style="fill:#244280"
	/><path
		d="M120.72,53h-4.5v-7.9h4.5v1.4h-2.9v1.7h2.7v1.4h-2.7v2h2.9Z"
		style="fill:#244280"
	/><path
		d="M129.32,53l-.6-1.9h-2.9l-.6,1.9h-1.8l2.8-7.9h2L131,53Zm-.9-3.3c-.5-1.7-.8-2.7-.9-2.9a1.09,1.09,0,0,1-.1-.5c-.1.5-.5,1.6-1,3.4Z"
		style="fill:#244280"
	/><path
		d="M134.82,48.55h3.1v4.1a3.93,3.93,0,0,1-1.4.3,6.15,6.15,0,0,1-1.4.1,3.34,3.34,0,0,1-2.7-1,4.48,4.48,0,0,1-.9-3,3.8,3.8,0,0,1,4.1-4.1,5.93,5.93,0,0,1,2.3.5l-.6,1.3a3.92,3.92,0,0,0-1.8-.4,2.06,2.06,0,0,0-1.7.7,3,3,0,0,0-.6,2,3.68,3.68,0,0,0,.5,2,2,2,0,0,0,1.5.7,4.48,4.48,0,0,0,1.1-.1v-1.6h-1.5v-1.5Z"
		style="fill:#244280"
	/><path
		d="M145.32,46.35a1.8,1.8,0,0,0-1.5.7,3,3,0,0,0-.5,2c0,1.8.7,2.6,2,2.6a5.44,5.44,0,0,0,2-.4v1.4a5.09,5.09,0,0,1-2.2.4,3.25,3.25,0,0,1-2.6-1,4.48,4.48,0,0,1-.9-3A4.64,4.64,0,0,1,142,47a3,3,0,0,1,1.3-1.4,4.23,4.23,0,0,1,2-.5,4.93,4.93,0,0,1,2.3.6l-.5,1.4c-.3-.1-.6-.3-.9-.4A3.18,3.18,0,0,0,145.32,46.35Z"
		style="fill:#244280"
	/><path
		d="M155.82,49a4,4,0,0,1-1,3,3.56,3.56,0,0,1-2.8,1,3.71,3.71,0,0,1-2.8-1,4.5,4.5,0,0,1-1-3,4,4,0,0,1,1-3,4.42,4.42,0,0,1,5.6,0A4.5,4.5,0,0,1,155.82,49ZM150,49a3.68,3.68,0,0,0,.5,2,1.81,1.81,0,0,0,1.5.7c1.3,0,2-.9,2-2.6s-.7-2.7-2-2.7a1.58,1.58,0,0,0-1.5.7A3.31,3.31,0,0,0,150,49Z"
		style="fill:#244280"
	/><path
		d="M160.42,53l-1.9-6.2h0c.1,1.3.1,2.1.1,2.5V53h-1.5v-7.9h2.3l1.9,6h0l2-6h2.3V53H164v-4.3a17.36,17.36,0,0,1,.1-1.8h0l-2,6.2h-1.7Z"
		style="fill:#244280"
	/><path
		d="M172.52,47.55a2.41,2.41,0,0,1-.8,1.9,3.7,3.7,0,0,1-2.3.7h-.7V53h-1.6v-7.9h2.5a3.4,3.4,0,0,1,2.2.6A2.23,2.23,0,0,1,172.52,47.55Zm-3.7,1.2h.5a1.61,1.61,0,0,0,1.1-.3,1.27,1.27,0,0,0,.4-.9,1.22,1.22,0,0,0-.3-.9,1.33,1.33,0,0,0-1-.3h-.8v2.4Z"
		style="fill:#244280"
	/><path
		d="M178.52,53l-.6-1.9H175l-.6,1.9h-1.8l2.8-7.9h2l2.8,7.9Zm-1-3.3c-.5-1.7-.8-2.7-.9-2.9a1.09,1.09,0,0,1-.1-.5c-.1.5-.5,1.6-1,3.4Z"
		style="fill:#244280"
	/><path
		d="M187.92,53h-2.1l-3.4-5.9h0a21.33,21.33,0,0,1,.1,2.2V53H181v-7.9h2.1l3.4,5.9h0a20.34,20.34,0,0,1-.1-2.2v-3.7h1.5Z"
		style="fill:#244280"
	/><path
		d="M192,48.25l1.6-3.2h1.8l-2.6,4.8V53h-1.7V50l-2.6-4.9h1.8Z"
		style="fill:#244280"
	/><g id="SS_logo_-_blue"><path
			d="M70.12,28.75a5.81,5.81,0,0,1-2.3,4.9,9.73,9.73,0,0,1-6.2,1.8,16.74,16.74,0,0,1-6.6-1.1v-2.7a29.92,29.92,0,0,0,3.2,1,20.92,20.92,0,0,0,3.4.4,6.81,6.81,0,0,0,4.2-1.1,3.56,3.56,0,0,0,1.4-2.9,3.94,3.94,0,0,0-.5-2,5.16,5.16,0,0,0-1.7-1.5,23.06,23.06,0,0,0-3.6-1.5,11.91,11.91,0,0,1-4.8-2.8,6,6,0,0,1-1.4-4.3,5.36,5.36,0,0,1,2.1-4.4,8.57,8.57,0,0,1,5.5-1.6,15.88,15.88,0,0,1,6.6,1.3l-.9,2.4a15.45,15.45,0,0,0-5.8-1.2,5.4,5.4,0,0,0-3.5,1,2.66,2.66,0,0,0-1.1,2.4,3.94,3.94,0,0,0,.5,2,5.3,5.3,0,0,0,1.5,1.5,28.6,28.6,0,0,0,3.3,1.5,14.24,14.24,0,0,1,5.2,2.9,5.51,5.51,0,0,1,1.5,4"
			style="fill:#00a1dc"
		/><path
			d="M79.52,33.15a6.6,6.6,0,0,0,1.4-.1c.4-.1.8-.1,1.1-.2V35a6.83,6.83,0,0,1-1.3.4,8.64,8.64,0,0,1-1.5.1c-3.5,0-5.2-1.8-5.2-5.5V19.25h-2.6V18l2.6-1.1,1.1-3.8h1.6v4.2h5.2v2.1h-5.2V30a3.74,3.74,0,0,0,.8,2.5,2.44,2.44,0,0,0,2,.7"
			style="fill:#00a1dc"
		/><path
			d="M92.92,16.85a12.48,12.48,0,0,1,2.1.2l-.4,2.5a7.14,7.14,0,0,0-2-.2,4.59,4.59,0,0,0-3.7,1.8,6.71,6.71,0,0,0-1.5,4.4v9.6h-2.7v-18h2.2l.3,3.3h.1a8,8,0,0,1,2.4-2.7,6.48,6.48,0,0,1,3.2-.9"
			style="fill:#00a1dc"
		/><path
			d="M104.52,19.05a4.83,4.83,0,0,0-3.5,1.4,5.79,5.79,0,0,0-1.5,3.9h9.4a6.24,6.24,0,0,0-1.1-3.9,4.22,4.22,0,0,0-3.3-1.4m.7,16.4a8.21,8.21,0,0,1-6.3-2.4,9.55,9.55,0,0,1-2.3-6.7,10.53,10.53,0,0,1,2.1-6.9,7,7,0,0,1,5.7-2.6,6.53,6.53,0,0,1,5.3,2.2,8.59,8.59,0,0,1,2,5.9v1.7H99.32a7.45,7.45,0,0,0,1.6,4.8,5.44,5.44,0,0,0,4.3,1.6,14.59,14.59,0,0,0,5.7-1.2v2.4a21.27,21.27,0,0,1-2.7.9,12.62,12.62,0,0,1-3,.3"
			style="fill:#00a1dc"
		/><path
			d="M120.52,33.15a5.72,5.72,0,0,0,4-1.4,5,5,0,0,0,1.5-3.9v-1.6l-2.7.1a10.27,10.27,0,0,0-4.7,1,2.93,2.93,0,0,0-1.4,2.8,2.66,2.66,0,0,0,.9,2.2,2.92,2.92,0,0,0,2.4.8m6.2,2-.5-2.6h-.1a7.9,7.9,0,0,1-2.7,2.3,8.11,8.11,0,0,1-3.3.6,6.07,6.07,0,0,1-4.2-1.4,5,5,0,0,1-1.5-3.9q0-5.4,8.7-5.7l3.1-.1v-1.1a4.42,4.42,0,0,0-.9-3.1,3.66,3.66,0,0,0-2.9-1,12.28,12.28,0,0,0-5.1,1.4l-.8-2.1a10.21,10.21,0,0,1,2.9-1.1,11.7,11.7,0,0,1,3.2-.4,7.42,7.42,0,0,1,4.8,1.4,6.21,6.21,0,0,1,1.5,4.6v12.3h-2.2Z"
			style="fill:#00a1dc"
		/><path
			d="M156.32,35.15V23.45a4.89,4.89,0,0,0-.9-3.2,3.69,3.69,0,0,0-2.9-1.1,4.76,4.76,0,0,0-3.8,1.5,7.11,7.11,0,0,0-1.2,4.5v10h-2.7V23.45a4.89,4.89,0,0,0-.9-3.2,3.69,3.69,0,0,0-2.9-1.1,4.28,4.28,0,0,0-3.7,1.5c-.8,1-1.2,2.7-1.2,5v9.4h-2.7v-18h2.2l.4,2.5h.1a4.3,4.3,0,0,1,2.2-2,6.43,6.43,0,0,1,3.1-.7c2.8,0,4.6,1,5.5,3h.1a5.44,5.44,0,0,1,2.3-2.2,7.84,7.84,0,0,1,3.5-.8,6,6,0,0,1,4.6,1.6c1,1,1.5,2.7,1.5,5v11.7Z"
			style="fill:#00a1dc"
		/><path
			d="M177.82,28.75a5.81,5.81,0,0,1-2.3,4.9,9.73,9.73,0,0,1-6.2,1.8,16.74,16.74,0,0,1-6.6-1.1v-2.7a29.92,29.92,0,0,0,3.2,1,20.92,20.92,0,0,0,3.4.4,6.81,6.81,0,0,0,4.2-1.1,3.56,3.56,0,0,0,1.4-2.9,3.94,3.94,0,0,0-.5-2,5.16,5.16,0,0,0-1.7-1.5,23.06,23.06,0,0,0-3.6-1.5,11.91,11.91,0,0,1-4.8-2.8,6,6,0,0,1-1.4-4.3,5.36,5.36,0,0,1,2.1-4.4,8.57,8.57,0,0,1,5.5-1.6,15.88,15.88,0,0,1,6.6,1.3l-.9,2.4a15.45,15.45,0,0,0-5.8-1.2,5.4,5.4,0,0,0-3.5,1,3,3,0,0,0-1.2,2.6,3.94,3.94,0,0,0,.5,2,4.68,4.68,0,0,0,1.6,1.5,28.6,28.6,0,0,0,3.3,1.5,14.24,14.24,0,0,1,5.2,2.9,4.76,4.76,0,0,1,1.5,3.8"
			style="fill:#244280"
		/><path
			d="M188.32,19.05a4.83,4.83,0,0,0-3.5,1.4,5.79,5.79,0,0,0-1.5,3.9h9.4a6.24,6.24,0,0,0-1.1-3.9,4.22,4.22,0,0,0-3.3-1.4m.7,16.4a8.21,8.21,0,0,1-6.3-2.4,9.55,9.55,0,0,1-2.3-6.7,10.53,10.53,0,0,1,2.1-6.9,7,7,0,0,1,5.7-2.6,6.53,6.53,0,0,1,5.3,2.2,8.59,8.59,0,0,1,2,5.9v1.7h-12.4a7.45,7.45,0,0,0,1.6,4.8,5.44,5.44,0,0,0,4.3,1.6,14.59,14.59,0,0,0,5.7-1.2v2.4a21.27,21.27,0,0,1-2.7.9,12.06,12.06,0,0,1-3,.3"
			style="fill:#244280"
		/><path
			d="M205.22,33.15a6.6,6.6,0,0,0,1.4-.1c.4-.1.8-.1,1.1-.2V35a6.83,6.83,0,0,1-1.3.4,8.64,8.64,0,0,1-1.5.1c-3.5,0-5.2-1.8-5.2-5.5V19.25h-2.6V18l2.6-1.1,1.1-3.8h1.6v4.2h5.2v2.1h-5.2V30a3.74,3.74,0,0,0,.8,2.5,2.44,2.44,0,0,0,2,.7"
			style="fill:#244280"
		/><path
			d="M222,30.25a4.41,4.41,0,0,1-1.9,3.9,8.69,8.69,0,0,1-5.2,1.4,12.36,12.36,0,0,1-5.6-1.1v-2.7a13.32,13.32,0,0,0,2.8,1,9.67,9.67,0,0,0,2.9.4,6.23,6.23,0,0,0,3.3-.7,2.17,2.17,0,0,0,1.1-2.1,2.27,2.27,0,0,0-.9-1.8,15.28,15.28,0,0,0-3.5-1.8,22.37,22.37,0,0,1-3.6-1.6,6.07,6.07,0,0,1-1.6-1.6,4.65,4.65,0,0,1-.5-2.1,4.1,4.1,0,0,1,1.8-3.5,8.64,8.64,0,0,1,4.9-1.3,14.59,14.59,0,0,1,5.7,1.2l-1,2.2a13.68,13.68,0,0,0-4.9-1.1,5.46,5.46,0,0,0-2.9.6,1.86,1.86,0,0,0-1,1.7,1.59,1.59,0,0,0,.4,1.2,3.16,3.16,0,0,0,1.2,1,32.41,32.41,0,0,0,3.1,1.3,13.43,13.43,0,0,1,4.3,2.3,5.39,5.39,0,0,1,1.1,3.2"
			style="fill:#244280"
		/><path
			d="M12.92,3.05c1.4-.7,6-2.5,11.4,3.5,3.5,4,5.7,4.2,6.3,2.9h0c.1-.1.1-.2.2-.4.4-1.7-.8-4.8-3.9-7.1-6.6-5-14.2,1.2-14.2,1.2a.35.35,0,0,1,.2-.1h0"
			style="fill:#244280"
		/><path
			d="M8.62,44.45c-1.3-.8-5.2-4-2.6-11.6,1.7-5,.8-7-.6-6.9h0a.6.6,0,0,0-.4.1c-1.6.5-3.7,3.1-4.2,6.9-1,8.3,8.1,11.7,8.1,11.7s-.2-.2-.3-.2h0"
			style="fill:#244280"
		/><path
			d="M46.62,27.15v.3h0c-.1,1.5-.8,6.5-8.8,8.1-5.2,1-6.5,2.8-5.6,4,.1.1.1.2.3.3,1.2,1.2,4.6,1.7,8,.2,7.7-3.3,6.1-12.9,6.1-12.9"
			style="fill:#244280"
		/><path
			d="M19.22,15.15c11.2,8.5,12.5,9,14.8,8.2,3-1,5.1-5.6,3-11.9s-6.3-8.1-6.3-8.1a6.12,6.12,0,0,1,.5.6,20.36,20.36,0,0,1,2.2,3.2c2,3.5,2.1,6.6-.5,8.1s-7.3-3.7-9.4-5.6c-6.7-5.8-11.2-5.9-14.1-3.9-3.8,2.7-4.8,9-4.4,10.9.8-2.7,3.3-9.7,14.2-1.5"
			style="fill:#00a1dc"
		/><path
			d="M16,32.85c1.7-13.9,1.5-15.3-.3-17-2.4-2.1-7.3-1.6-11.8,3.3S0,28.65,0,28.65a6,6,0,0,1,.3-.7A21.54,21.54,0,0,1,2,24.55c2.1-3.5,4.7-5.1,7.2-3.6s.4,8.1-.1,11c-1.7,8.7.5,12.6,3.7,14.1,4.2,1.9,10.2-.4,11.7-1.7-2.9.8-10.2,2.1-8.5-11.5"
			style="fill:#00a1dc"
		/><path
			d="M32.72,43.05c-4-.1-6.8-1.5-6.8-4.5s6.8-4.4,9.6-5.4c8.4-2.9,10.7-6.7,10.4-10.2-.4-4.6-5.4-8.6-7.3-9.3,2.1,2.1,6.9,7.8-5.7,13.1-12.9,5.4-14,6.3-14.5,8.7-.6,3.1,2.3,7.2,8.8,8.6s10.1-1.4,10.1-1.4a2.44,2.44,0,0,1-.7.1,13.59,13.59,0,0,1-3.9.3"
			style="fill:#00a1dc"
		/></g></svg>
